<?xml version="1.0" encoding="utf-8" standalone="no"?>
<!DOCTYPE svg PUBLIC "-//W3C//DTD SVG 1.1//EN"
  "http://www.w3.org/Graphics/SVG/1.1/DTD/svg11.dtd">
<svg xmlns:xlink="http://www.w3.org/1999/xlink" width="254.88pt" height="127.44pt" viewBox="0 0 254.88 127.44" xmlns="http://www.w3.org/2000/svg" version="1.1">
 <metadata>
  <rdf:RDF xmlns:dc="http://purl.org/dc/elements/1.1/" xmlns:cc="http://creativecommons.org/ns#" xmlns:rdf="http://www.w3.org/1999/02/22-rdf-syntax-ns#">
   <cc:Work>
    <dc:type rdf:resource="http://purl.org/dc/dcmitype/StillImage"/>
    <dc:date>2024-08-18T10:07:22.481917</dc:date>
    <dc:format>image/svg+xml</dc:format>
    <dc:creator>
     <cc:Agent>
      <dc:title>Matplotlib v3.8.4, https://matplotlib.org/</dc:title>
     </cc:Agent>
    </dc:creator>
   </cc:Work>
  </rdf:RDF>
 </metadata>
 <defs>
  <style type="text/css">*{stroke-linejoin: round; stroke-linecap: butt}</style>
 </defs>
 <g id="figure_1">
  <g id="patch_1">
   <path d="M 0 127.44 
L 254.88 127.44 
L 254.88 0 
L 0 0 
z
" style="fill: #ffffff"/>
  </g>
  <g id="axes_1">
   <g id="patch_2">
    <path d="M 45.638365 95.647885 
L 243.133041 95.647885 
L 243.133041 19.030178 
L 45.638365 19.030178 
z
" style="fill: #ffffff"/>
   </g>
   <g id="PolyCollection_1">
    <defs>
     <path id="m925c3b45d6" d="M 45.638365 -35.274738 
L 45.638365 -35.274738 
L 47.613312 -35.783912 
L 49.588259 -35.764442 
L 51.563205 -35.813898 
L 53.538152 -35.815577 
L 55.513099 -35.780268 
L 57.488046 -35.819911 
L 59.462992 -35.816238 
L 61.437939 -36.886765 
L 63.412886 -36.917848 
L 65.387833 -36.876095 
L 67.362779 -37.203771 
L 69.337726 -37.051847 
L 71.312673 -37.290392 
L 73.28762 -37.324876 
L 75.262566 -37.41605 
L 77.237513 -37.542333 
L 79.21246 -37.815618 
L 81.187407 -37.82665 
L 83.162353 -37.735845 
L 85.1373 -37.960249 
L 87.112247 -38.042346 
L 89.087194 -38.194631 
L 91.062141 -38.300337 
L 93.037087 -38.367594 
L 95.012034 -38.354918 
L 96.986981 -38.455487 
L 98.961928 -38.672128 
L 100.936874 -39.157621 
L 102.911821 -39.106975 
L 104.886768 -39.203325 
L 106.861715 -39.030511 
L 108.836661 -39.205081 
L 110.811608 -39.255712 
L 112.786555 -39.631932 
L 114.761502 -39.962599 
L 116.736448 -39.79171 
L 118.711395 -39.790537 
L 120.686342 -40.022767 
L 122.661289 -39.894978 
L 124.636235 -39.736312 
L 126.611182 -40.020828 
L 128.586129 -40.168737 
L 130.561076 -39.839964 
L 132.536023 -40.180443 
L 134.510969 -40.250481 
L 136.485916 -40.446171 
L 138.460863 -40.380742 
L 140.43581 -40.506224 
L 142.410756 -40.644701 
L 144.385703 -40.72031 
L 146.36065 -40.657688 
L 148.335597 -40.539523 
L 150.310543 -40.929653 
L 152.28549 -40.753513 
L 154.260437 -40.716315 
L 156.235384 -40.676878 
L 158.21033 -40.855226 
L 160.185277 -40.975888 
L 162.160224 -41.223171 
L 164.135171 -41.159896 
L 166.110118 -41.534047 
L 168.085064 -41.487906 
L 170.060011 -41.146329 
L 172.034958 -41.508165 
L 174.009905 -41.085429 
L 175.984851 -41.569865 
L 177.959798 -41.716647 
L 179.934745 -41.557228 
L 181.909692 -41.401659 
L 183.884638 -41.306932 
L 185.859585 -41.512594 
L 187.834532 -41.486644 
L 189.809479 -41.558161 
L 191.784425 -41.31194 
L 193.759372 -41.67387 
L 195.734319 -41.758172 
L 197.709266 -41.526006 
L 199.684212 -41.65289 
L 201.659159 -41.46094 
L 203.634106 -41.826362 
L 205.609053 -41.55195 
L 207.584 -41.887638 
L 209.558946 -42.142798 
L 211.533893 -42.187439 
L 213.50884 -42.5175 
L 215.483787 -42.038706 
L 217.458733 -42.753871 
L 219.43368 -42.328231 
L 221.408627 -43.076809 
L 223.383574 -42.681625 
L 225.35852 -42.647072 
L 227.333467 -42.361533 
L 229.308414 -42.658229 
L 231.283361 -43.035946 
L 233.258307 -42.697845 
L 235.233254 -43.161251 
L 237.208201 -43.252645 
L 239.183148 -43.237099 
L 241.158094 -43.334504 
L 241.158094 -58.182051 
L 241.158094 -58.182051 
L 239.183148 -57.919588 
L 237.208201 -58.326158 
L 235.233254 -58.062806 
L 233.258307 -57.021512 
L 231.283361 -57.305825 
L 229.308414 -57.096597 
L 227.333467 -57.265586 
L 225.35852 -57.170683 
L 223.383574 -57.488589 
L 221.408627 -56.66008 
L 219.43368 -56.553473 
L 217.458733 -56.266093 
L 215.483787 -56.203698 
L 213.50884 -56.669927 
L 211.533893 -56.160716 
L 209.558946 -55.929164 
L 207.584 -56.054199 
L 205.609053 -56.293999 
L 203.634106 -55.628363 
L 201.659159 -56.543837 
L 199.684212 -55.527917 
L 197.709266 -54.790212 
L 195.734319 -55.675903 
L 193.759372 -54.696136 
L 191.784425 -54.631522 
L 189.809479 -55.761347 
L 187.834532 -55.450064 
L 185.859585 -55.368171 
L 183.884638 -55.172641 
L 181.909692 -54.453531 
L 179.934745 -55.859951 
L 177.959798 -55.390662 
L 175.984851 -55.079899 
L 174.009905 -54.866258 
L 172.034958 -54.494597 
L 170.060011 -55.002205 
L 168.085064 -54.839372 
L 166.110118 -54.751162 
L 164.135171 -55.065236 
L 162.160224 -54.709774 
L 160.185277 -54.742219 
L 158.21033 -53.84503 
L 156.235384 -54.313434 
L 154.260437 -54.424134 
L 152.28549 -54.375282 
L 150.310543 -53.921739 
L 148.335597 -53.479747 
L 146.36065 -53.54664 
L 144.385703 -54.135194 
L 142.410756 -53.588987 
L 140.43581 -52.00472 
L 138.460863 -52.137347 
L 136.485916 -51.561057 
L 134.510969 -51.553697 
L 132.536023 -52.173436 
L 130.561076 -50.336686 
L 128.586129 -50.226703 
L 126.611182 -49.992173 
L 124.636235 -50.181955 
L 122.661289 -49.609517 
L 120.686342 -49.671978 
L 118.711395 -47.975756 
L 116.736448 -47.922242 
L 114.761502 -47.921416 
L 112.786555 -47.574822 
L 110.811608 -46.462233 
L 108.836661 -46.688839 
L 106.861715 -46.805353 
L 104.886768 -46.398302 
L 102.911821 -46.178246 
L 100.936874 -46.334005 
L 98.961928 -45.712033 
L 96.986981 -45.301561 
L 95.012034 -45.304878 
L 93.037087 -45.111628 
L 91.062141 -44.834746 
L 89.087194 -44.516481 
L 87.112247 -44.037152 
L 85.1373 -43.95501 
L 83.162353 -43.714862 
L 81.187407 -43.603676 
L 79.21246 -43.542608 
L 77.237513 -42.505527 
L 75.262566 -41.497785 
L 73.28762 -41.661936 
L 71.312673 -41.596805 
L 69.337726 -41.65548 
L 67.362779 -41.576065 
L 65.387833 -40.264698 
L 63.412886 -40.304727 
L 61.437939 -40.303393 
L 59.462992 -37.101236 
L 57.488046 -37.127741 
L 55.513099 -37.128417 
L 53.538152 -37.128711 
L 51.563205 -37.131503 
L 49.588259 -37.119496 
L 47.613312 -37.077451 
L 45.638365 -35.274738 
z
" style="stroke: #003f5c; stroke-opacity: 0.2"/>
    </defs>
    <g clip-path="url(#pf8205b2b40)">
     <use xlink:href="#m925c3b45d6" x="0" y="127.44" style="fill: #003f5c; fill-opacity: 0.2; stroke: #003f5c; stroke-opacity: 0.2"/>
    </g>
   </g>
   <g id="PolyCollection_2">
    <defs>
     <path id="md47ff6dc94" d="M 45.638365 -35.274738 
L 45.638365 -35.274738 
L 47.613312 -37.109396 
L 49.588259 -37.162715 
L 51.563205 -37.145874 
L 53.538152 -37.078991 
L 55.513099 -37.15318 
L 57.488046 -37.107532 
L 59.462992 -37.116807 
L 61.437939 -39.475272 
L 63.412886 -39.399612 
L 65.387833 -39.547773 
L 67.362779 -40.490108 
L 69.337726 -40.518628 
L 71.312673 -40.579742 
L 73.28762 -40.445693 
L 75.262566 -40.467395 
L 77.237513 -41.232952 
L 79.21246 -42.491213 
L 81.187407 -42.341343 
L 83.162353 -42.29686 
L 85.1373 -43.701417 
L 87.112247 -43.969138 
L 89.087194 -45.590106 
L 91.062141 -45.874274 
L 93.037087 -46.477315 
L 95.012034 -46.672126 
L 96.986981 -47.347713 
L 98.961928 -47.673136 
L 100.936874 -48.05089 
L 102.911821 -47.726974 
L 104.886768 -47.997354 
L 106.861715 -48.289198 
L 108.836661 -49.250908 
L 110.811608 -49.176591 
L 112.786555 -49.764582 
L 114.761502 -49.673507 
L 116.736448 -49.048671 
L 118.711395 -50.091122 
L 120.686342 -50.768233 
L 122.661289 -50.447702 
L 124.636235 -51.460937 
L 126.611182 -51.046032 
L 128.586129 -51.965582 
L 130.561076 -52.153083 
L 132.536023 -52.367574 
L 134.510969 -52.356237 
L 136.485916 -52.933507 
L 138.460863 -53.484402 
L 140.43581 -53.458477 
L 142.410756 -53.83606 
L 144.385703 -53.878783 
L 146.36065 -54.416172 
L 148.335597 -54.594176 
L 150.310543 -55.100232 
L 152.28549 -54.569647 
L 154.260437 -54.993609 
L 156.235384 -55.552701 
L 158.21033 -55.856918 
L 160.185277 -55.623229 
L 162.160224 -55.700934 
L 164.135171 -55.811966 
L 166.110118 -56.02569 
L 168.085064 -56.224901 
L 170.060011 -56.460498 
L 172.034958 -56.988357 
L 174.009905 -56.989762 
L 175.984851 -57.268019 
L 177.959798 -57.431465 
L 179.934745 -57.446328 
L 181.909692 -57.731954 
L 183.884638 -57.752412 
L 185.859585 -58.076408 
L 187.834532 -58.243295 
L 189.809479 -57.954943 
L 191.784425 -58.594073 
L 193.759372 -58.969207 
L 195.734319 -58.618741 
L 197.709266 -59.212213 
L 199.684212 -59.335557 
L 201.659159 -59.759663 
L 203.634106 -59.504253 
L 205.609053 -59.731357 
L 207.584 -60.131156 
L 209.558946 -59.637574 
L 211.533893 -60.713923 
L 213.50884 -60.390881 
L 215.483787 -60.952388 
L 217.458733 -61.136 
L 219.43368 -61.388013 
L 221.408627 -61.321744 
L 223.383574 -61.590266 
L 225.35852 -61.852941 
L 227.333467 -62.019003 
L 229.308414 -62.28098 
L 231.283361 -61.992902 
L 233.258307 -63.159078 
L 235.233254 -62.380882 
L 237.208201 -63.142233 
L 239.183148 -63.625119 
L 241.158094 -63.523119 
L 241.158094 -78.535382 
L 241.158094 -78.535382 
L 239.183148 -78.810318 
L 237.208201 -78.273472 
L 235.233254 -78.483801 
L 233.258307 -77.79455 
L 231.283361 -77.612153 
L 229.308414 -76.814847 
L 227.333467 -76.803131 
L 225.35852 -76.617934 
L 223.383574 -75.965198 
L 221.408627 -75.632614 
L 219.43368 -75.426612 
L 217.458733 -76.493943 
L 215.483787 -75.069018 
L 213.50884 -75.381465 
L 211.533893 -74.452085 
L 209.558946 -74.339437 
L 207.584 -74.098862 
L 205.609053 -74.594262 
L 203.634106 -73.931951 
L 201.659159 -73.695182 
L 199.684212 -73.62442 
L 197.709266 -73.238252 
L 195.734319 -73.590839 
L 193.759372 -73.310495 
L 191.784425 -72.972127 
L 189.809479 -72.457297 
L 187.834532 -72.360482 
L 185.859585 -72.157585 
L 183.884638 -71.77659 
L 181.909692 -72.383541 
L 179.934745 -71.242062 
L 177.959798 -71.27719 
L 175.984851 -71.434105 
L 174.009905 -70.924856 
L 172.034958 -70.493958 
L 170.060011 -70.579453 
L 168.085064 -69.669503 
L 166.110118 -70.292557 
L 164.135171 -70.024411 
L 162.160224 -69.364578 
L 160.185277 -69.612547 
L 158.21033 -68.807402 
L 156.235384 -68.597278 
L 154.260437 -68.71166 
L 152.28549 -68.801562 
L 150.310543 -68.855672 
L 148.335597 -68.288959 
L 146.36065 -68.444519 
L 144.385703 -67.61703 
L 142.410756 -67.809106 
L 140.43581 -67.710463 
L 138.460863 -67.135272 
L 136.485916 -66.377308 
L 134.510969 -65.610556 
L 132.536023 -65.664346 
L 130.561076 -64.324098 
L 128.586129 -64.106864 
L 126.611182 -63.598882 
L 124.636235 -63.989507 
L 122.661289 -62.593459 
L 120.686342 -62.686124 
L 118.711395 -61.772873 
L 116.736448 -62.060991 
L 114.761502 -61.643884 
L 112.786555 -61.695655 
L 110.811608 -61.229888 
L 108.836661 -60.948391 
L 106.861715 -60.012615 
L 104.886768 -59.142083 
L 102.911821 -59.329585 
L 100.936874 -59.065726 
L 98.961928 -59.086045 
L 96.986981 -58.077952 
L 95.012034 -56.881246 
L 93.037087 -56.732512 
L 91.062141 -56.254663 
L 89.087194 -54.5127 
L 87.112247 -51.286125 
L 85.1373 -50.933275 
L 83.162353 -48.996064 
L 81.187407 -48.986963 
L 79.21246 -48.895357 
L 77.237513 -47.276018 
L 75.262566 -45.581084 
L 73.28762 -45.64951 
L 71.312673 -45.842727 
L 69.337726 -45.806389 
L 67.362779 -45.913624 
L 65.387833 -44.013494 
L 63.412886 -43.969989 
L 61.437939 -43.978799 
L 59.462992 -39.38448 
L 57.488046 -39.305147 
L 55.513099 -39.33727 
L 53.538152 -39.371347 
L 51.563205 -39.429548 
L 49.588259 -39.454112 
L 47.613312 -39.424876 
L 45.638365 -35.274738 
z
" style="stroke: #ffa600; stroke-opacity: 0.2"/>
    </defs>
    <g clip-path="url(#pf8205b2b40)">
     <use xlink:href="#md47ff6dc94" x="0" y="127.44" style="fill: #ffa600; fill-opacity: 0.2; stroke: #ffa600; stroke-opacity: 0.2"/>
    </g>
   </g>
   <g id="PolyCollection_3">
    <defs>
     <path id="m68ef64afac" d="M 45.638365 -35.274738 
L 45.638365 -35.274738 
L 47.613312 -37.90733 
L 49.588259 -38.045135 
L 51.563205 -37.966585 
L 53.538152 -38.065247 
L 55.513099 -37.990109 
L 57.488046 -38.05684 
L 59.462992 -38.02885 
L 61.437939 -41.619047 
L 63.412886 -41.426491 
L 65.387833 -41.475803 
L 67.362779 -42.939694 
L 69.337726 -43.258221 
L 71.312673 -43.03321 
L 73.28762 -43.071538 
L 75.262566 -43.042877 
L 77.237513 -44.486067 
L 79.21246 -45.742493 
L 81.187407 -45.99226 
L 83.162353 -45.618368 
L 85.1373 -47.546704 
L 87.112247 -49.299514 
L 89.087194 -53.462672 
L 91.062141 -55.037801 
L 93.037087 -55.064586 
L 95.012034 -55.502613 
L 96.986981 -56.934256 
L 98.961928 -58.285562 
L 100.936874 -58.238965 
L 102.911821 -58.116263 
L 104.886768 -59.450658 
L 106.861715 -58.666395 
L 108.836661 -60.616174 
L 110.811608 -60.392968 
L 112.786555 -60.615618 
L 114.761502 -61.358069 
L 116.736448 -61.860023 
L 118.711395 -61.777219 
L 120.686342 -62.740704 
L 122.661289 -61.59384 
L 124.636235 -63.039091 
L 126.611182 -64.30705 
L 128.586129 -64.253994 
L 130.561076 -64.527205 
L 132.536023 -66.277466 
L 134.510969 -65.558413 
L 136.485916 -66.719374 
L 138.460863 -66.706646 
L 140.43581 -68.235426 
L 142.410756 -68.110287 
L 144.385703 -68.699292 
L 146.36065 -69.510159 
L 148.335597 -68.709193 
L 150.310543 -69.583103 
L 152.28549 -69.324398 
L 154.260437 -69.853312 
L 156.235384 -69.661015 
L 158.21033 -69.014152 
L 160.185277 -70.060051 
L 162.160224 -70.367969 
L 164.135171 -69.874727 
L 166.110118 -70.251087 
L 168.085064 -70.756189 
L 170.060011 -72.173108 
L 172.034958 -70.988212 
L 174.009905 -71.88053 
L 175.984851 -71.742327 
L 177.959798 -72.622576 
L 179.934745 -73.320093 
L 181.909692 -72.124807 
L 183.884638 -73.085448 
L 185.859585 -72.814335 
L 187.834532 -74.024016 
L 189.809479 -72.534862 
L 191.784425 -74.032723 
L 193.759372 -75.30395 
L 195.734319 -74.261429 
L 197.709266 -75.632423 
L 199.684212 -75.385563 
L 201.659159 -74.560663 
L 203.634106 -73.795765 
L 205.609053 -74.722794 
L 207.584 -73.779505 
L 209.558946 -74.663199 
L 211.533893 -74.585916 
L 213.50884 -74.354521 
L 215.483787 -76.353038 
L 217.458733 -75.052498 
L 219.43368 -77.021044 
L 221.408627 -75.376594 
L 223.383574 -76.664341 
L 225.35852 -76.079722 
L 227.333467 -77.899279 
L 229.308414 -76.130835 
L 231.283361 -77.189626 
L 233.258307 -77.734083 
L 235.233254 -76.788111 
L 237.208201 -77.121052 
L 239.183148 -77.080561 
L 241.158094 -77.837426 
L 241.158094 -104.501188 
L 241.158094 -104.501188 
L 239.183148 -104.927199 
L 237.208201 -104.253089 
L 235.233254 -104.737037 
L 233.258307 -104.079803 
L 231.283361 -103.222976 
L 229.308414 -103.106252 
L 227.333467 -103.59467 
L 225.35852 -102.874268 
L 223.383574 -102.591845 
L 221.408627 -101.682935 
L 219.43368 -102.24706 
L 217.458733 -101.61547 
L 215.483787 -102.014392 
L 213.50884 -101.982165 
L 211.533893 -100.032721 
L 209.558946 -100.124546 
L 207.584 -100.917902 
L 205.609053 -99.844722 
L 203.634106 -99.384246 
L 201.659159 -99.746268 
L 199.684212 -99.640265 
L 197.709266 -99.17659 
L 195.734319 -99.575202 
L 193.759372 -98.49946 
L 191.784425 -98.414189 
L 189.809479 -97.994183 
L 187.834532 -97.620854 
L 185.859585 -97.218016 
L 183.884638 -97.492334 
L 181.909692 -97.263257 
L 179.934745 -96.002768 
L 177.959798 -96.245008 
L 175.984851 -96.45393 
L 174.009905 -95.785419 
L 172.034958 -94.479126 
L 170.060011 -94.958454 
L 168.085064 -93.602833 
L 166.110118 -93.971968 
L 164.135171 -93.410918 
L 162.160224 -92.562842 
L 160.185277 -92.518646 
L 158.21033 -92.36343 
L 156.235384 -92.185238 
L 154.260437 -91.966278 
L 152.28549 -91.608144 
L 150.310543 -90.516578 
L 148.335597 -90.70496 
L 146.36065 -89.748692 
L 144.385703 -89.401721 
L 142.410756 -88.695667 
L 140.43581 -87.274196 
L 138.460863 -87.625094 
L 136.485916 -88.191467 
L 134.510969 -85.567138 
L 132.536023 -86.208406 
L 130.561076 -84.881011 
L 128.586129 -83.37784 
L 126.611182 -83.199007 
L 124.636235 -82.048208 
L 122.661289 -80.673594 
L 120.686342 -80.926766 
L 118.711395 -79.054623 
L 116.736448 -78.972292 
L 114.761502 -78.867267 
L 112.786555 -79.109577 
L 110.811608 -77.852632 
L 108.836661 -77.736951 
L 106.861715 -77.19112 
L 104.886768 -75.469078 
L 102.911821 -74.999919 
L 100.936874 -75.034369 
L 98.961928 -74.205279 
L 96.986981 -73.28757 
L 95.012034 -72.049667 
L 93.037087 -71.108385 
L 91.062141 -70.151217 
L 89.087194 -66.685513 
L 87.112247 -59.997086 
L 85.1373 -59.542611 
L 83.162353 -56.145832 
L 81.187407 -56.27839 
L 79.21246 -56.2863 
L 77.237513 -53.235318 
L 75.262566 -50.374723 
L 73.28762 -50.795472 
L 71.312673 -50.677827 
L 69.337726 -50.89951 
L 67.362779 -50.407098 
L 65.387833 -47.468768 
L 63.412886 -47.416889 
L 61.437939 -47.604104 
L 59.462992 -40.74936 
L 57.488046 -40.780271 
L 55.513099 -40.797789 
L 53.538152 -40.71097 
L 51.563205 -40.828879 
L 49.588259 -40.770762 
L 47.613312 -40.738533 
L 45.638365 -35.274738 
z
" style="stroke: #bc5090; stroke-opacity: 0.2"/>
    </defs>
    <g clip-path="url(#pf8205b2b40)">
     <use xlink:href="#m68ef64afac" x="0" y="127.44" style="fill: #bc5090; fill-opacity: 0.2; stroke: #bc5090; stroke-opacity: 0.2"/>
    </g>
   </g>
   <g id="matplotlib.axis_1">
    <g id="xtick_1">
     <g id="line2d_1">
      <defs>
       <path id="m84be39492a" d="M 0 0 
L 0 -3.5 
" style="stroke: #000000; stroke-width: 0.8"/>
      </defs>
      <g>
       <use xlink:href="#m84be39492a" x="45.638365" y="95.647885" style="stroke: #000000; stroke-width: 0.8"/>
      </g>
     </g>
     <g id="text_1">
      <!-- 0.0 -->
      <g transform="translate(36.891646 107.506166) scale(0.11 -0.11)">
       <defs>
        <path id="DejaVuSans-30" d="M 2034 4250 
Q 1547 4250 1301 3770 
Q 1056 3291 1056 2328 
Q 1056 1369 1301 889 
Q 1547 409 2034 409 
Q 2525 409 2770 889 
Q 3016 1369 3016 2328 
Q 3016 3291 2770 3770 
Q 2525 4250 2034 4250 
z
M 2034 4750 
Q 2819 4750 3233 4129 
Q 3647 3509 3647 2328 
Q 3647 1150 3233 529 
Q 2819 -91 2034 -91 
Q 1250 -91 836 529 
Q 422 1150 422 2328 
Q 422 3509 836 4129 
Q 1250 4750 2034 4750 
z
" transform="scale(0.015625)"/>
        <path id="DejaVuSans-2e" d="M 684 794 
L 1344 794 
L 1344 0 
L 684 0 
L 684 794 
z
" transform="scale(0.015625)"/>
       </defs>
       <use xlink:href="#DejaVuSans-30"/>
       <use xlink:href="#DejaVuSans-2e" x="63.623047"/>
       <use xlink:href="#DejaVuSans-30" x="95.410156"/>
      </g>
     </g>
    </g>
    <g id="xtick_2">
     <g id="line2d_2">
      <g>
       <use xlink:href="#m84be39492a" x="85.1373" y="95.647885" style="stroke: #000000; stroke-width: 0.8"/>
      </g>
     </g>
     <g id="text_2">
      <!-- 0.2 -->
      <g transform="translate(76.390581 107.506166) scale(0.11 -0.11)">
       <defs>
        <path id="DejaVuSans-32" d="M 1228 531 
L 3431 531 
L 3431 0 
L 469 0 
L 469 531 
Q 828 903 1448 1529 
Q 2069 2156 2228 2338 
Q 2531 2678 2651 2914 
Q 2772 3150 2772 3378 
Q 2772 3750 2511 3984 
Q 2250 4219 1831 4219 
Q 1534 4219 1204 4116 
Q 875 4013 500 3803 
L 500 4441 
Q 881 4594 1212 4672 
Q 1544 4750 1819 4750 
Q 2544 4750 2975 4387 
Q 3406 4025 3406 3419 
Q 3406 3131 3298 2873 
Q 3191 2616 2906 2266 
Q 2828 2175 2409 1742 
Q 1991 1309 1228 531 
z
" transform="scale(0.015625)"/>
       </defs>
       <use xlink:href="#DejaVuSans-30"/>
       <use xlink:href="#DejaVuSans-2e" x="63.623047"/>
       <use xlink:href="#DejaVuSans-32" x="95.410156"/>
      </g>
     </g>
    </g>
    <g id="xtick_3">
     <g id="line2d_3">
      <g>
       <use xlink:href="#m84be39492a" x="124.636235" y="95.647885" style="stroke: #000000; stroke-width: 0.8"/>
      </g>
     </g>
     <g id="text_3">
      <!-- 0.4 -->
      <g transform="translate(115.889517 107.506166) scale(0.11 -0.11)">
       <defs>
        <path id="DejaVuSans-34" d="M 2419 4116 
L 825 1625 
L 2419 1625 
L 2419 4116 
z
M 2253 4666 
L 3047 4666 
L 3047 1625 
L 3713 1625 
L 3713 1100 
L 3047 1100 
L 3047 0 
L 2419 0 
L 2419 1100 
L 313 1100 
L 313 1709 
L 2253 4666 
z
" transform="scale(0.015625)"/>
       </defs>
       <use xlink:href="#DejaVuSans-30"/>
       <use xlink:href="#DejaVuSans-2e" x="63.623047"/>
       <use xlink:href="#DejaVuSans-34" x="95.410156"/>
      </g>
     </g>
    </g>
    <g id="xtick_4">
     <g id="line2d_4">
      <g>
       <use xlink:href="#m84be39492a" x="164.135171" y="95.647885" style="stroke: #000000; stroke-width: 0.8"/>
      </g>
     </g>
     <g id="text_4">
      <!-- 0.6 -->
      <g transform="translate(155.388452 107.506166) scale(0.11 -0.11)">
       <defs>
        <path id="DejaVuSans-36" d="M 2113 2584 
Q 1688 2584 1439 2293 
Q 1191 2003 1191 1497 
Q 1191 994 1439 701 
Q 1688 409 2113 409 
Q 2538 409 2786 701 
Q 3034 994 3034 1497 
Q 3034 2003 2786 2293 
Q 2538 2584 2113 2584 
z
M 3366 4563 
L 3366 3988 
Q 3128 4100 2886 4159 
Q 2644 4219 2406 4219 
Q 1781 4219 1451 3797 
Q 1122 3375 1075 2522 
Q 1259 2794 1537 2939 
Q 1816 3084 2150 3084 
Q 2853 3084 3261 2657 
Q 3669 2231 3669 1497 
Q 3669 778 3244 343 
Q 2819 -91 2113 -91 
Q 1303 -91 875 529 
Q 447 1150 447 2328 
Q 447 3434 972 4092 
Q 1497 4750 2381 4750 
Q 2619 4750 2861 4703 
Q 3103 4656 3366 4563 
z
" transform="scale(0.015625)"/>
       </defs>
       <use xlink:href="#DejaVuSans-30"/>
       <use xlink:href="#DejaVuSans-2e" x="63.623047"/>
       <use xlink:href="#DejaVuSans-36" x="95.410156"/>
      </g>
     </g>
    </g>
    <g id="xtick_5">
     <g id="line2d_5">
      <g>
       <use xlink:href="#m84be39492a" x="203.634106" y="95.647885" style="stroke: #000000; stroke-width: 0.8"/>
      </g>
     </g>
     <g id="text_5">
      <!-- 0.8 -->
      <g transform="translate(194.887387 107.506166) scale(0.11 -0.11)">
       <defs>
        <path id="DejaVuSans-38" d="M 2034 2216 
Q 1584 2216 1326 1975 
Q 1069 1734 1069 1313 
Q 1069 891 1326 650 
Q 1584 409 2034 409 
Q 2484 409 2743 651 
Q 3003 894 3003 1313 
Q 3003 1734 2745 1975 
Q 2488 2216 2034 2216 
z
M 1403 2484 
Q 997 2584 770 2862 
Q 544 3141 544 3541 
Q 544 4100 942 4425 
Q 1341 4750 2034 4750 
Q 2731 4750 3128 4425 
Q 3525 4100 3525 3541 
Q 3525 3141 3298 2862 
Q 3072 2584 2669 2484 
Q 3125 2378 3379 2068 
Q 3634 1759 3634 1313 
Q 3634 634 3220 271 
Q 2806 -91 2034 -91 
Q 1263 -91 848 271 
Q 434 634 434 1313 
Q 434 1759 690 2068 
Q 947 2378 1403 2484 
z
M 1172 3481 
Q 1172 3119 1398 2916 
Q 1625 2713 2034 2713 
Q 2441 2713 2670 2916 
Q 2900 3119 2900 3481 
Q 2900 3844 2670 4047 
Q 2441 4250 2034 4250 
Q 1625 4250 1398 4047 
Q 1172 3844 1172 3481 
z
" transform="scale(0.015625)"/>
       </defs>
       <use xlink:href="#DejaVuSans-30"/>
       <use xlink:href="#DejaVuSans-2e" x="63.623047"/>
       <use xlink:href="#DejaVuSans-38" x="95.410156"/>
      </g>
     </g>
    </g>
    <g id="xtick_6">
     <g id="line2d_6">
      <g>
       <use xlink:href="#m84be39492a" x="243.133041" y="95.647885" style="stroke: #000000; stroke-width: 0.8"/>
      </g>
     </g>
     <g id="text_6">
      <!-- 1.0 -->
      <g transform="translate(234.386322 107.506166) scale(0.11 -0.11)">
       <defs>
        <path id="DejaVuSans-31" d="M 794 531 
L 1825 531 
L 1825 4091 
L 703 3866 
L 703 4441 
L 1819 4666 
L 2450 4666 
L 2450 531 
L 3481 531 
L 3481 0 
L 794 0 
L 794 531 
z
" transform="scale(0.015625)"/>
       </defs>
       <use xlink:href="#DejaVuSans-31"/>
       <use xlink:href="#DejaVuSans-2e" x="63.623047"/>
       <use xlink:href="#DejaVuSans-30" x="95.410156"/>
      </g>
     </g>
    </g>
    <g id="text_7">
     <!-- Distance [µm] -->
     <g transform="translate(105.440547 122.152104) scale(0.11 -0.11)">
      <defs>
       <path id="DejaVuSans-44" d="M 1259 4147 
L 1259 519 
L 2022 519 
Q 2988 519 3436 956 
Q 3884 1394 3884 2338 
Q 3884 3275 3436 3711 
Q 2988 4147 2022 4147 
L 1259 4147 
z
M 628 4666 
L 1925 4666 
Q 3281 4666 3915 4102 
Q 4550 3538 4550 2338 
Q 4550 1131 3912 565 
Q 3275 0 1925 0 
L 628 0 
L 628 4666 
z
" transform="scale(0.015625)"/>
       <path id="DejaVuSans-69" d="M 603 3500 
L 1178 3500 
L 1178 0 
L 603 0 
L 603 3500 
z
M 603 4863 
L 1178 4863 
L 1178 4134 
L 603 4134 
L 603 4863 
z
" transform="scale(0.015625)"/>
       <path id="DejaVuSans-73" d="M 2834 3397 
L 2834 2853 
Q 2591 2978 2328 3040 
Q 2066 3103 1784 3103 
Q 1356 3103 1142 2972 
Q 928 2841 928 2578 
Q 928 2378 1081 2264 
Q 1234 2150 1697 2047 
L 1894 2003 
Q 2506 1872 2764 1633 
Q 3022 1394 3022 966 
Q 3022 478 2636 193 
Q 2250 -91 1575 -91 
Q 1294 -91 989 -36 
Q 684 19 347 128 
L 347 722 
Q 666 556 975 473 
Q 1284 391 1588 391 
Q 1994 391 2212 530 
Q 2431 669 2431 922 
Q 2431 1156 2273 1281 
Q 2116 1406 1581 1522 
L 1381 1569 
Q 847 1681 609 1914 
Q 372 2147 372 2553 
Q 372 3047 722 3315 
Q 1072 3584 1716 3584 
Q 2034 3584 2315 3537 
Q 2597 3491 2834 3397 
z
" transform="scale(0.015625)"/>
       <path id="DejaVuSans-74" d="M 1172 4494 
L 1172 3500 
L 2356 3500 
L 2356 3053 
L 1172 3053 
L 1172 1153 
Q 1172 725 1289 603 
Q 1406 481 1766 481 
L 2356 481 
L 2356 0 
L 1766 0 
Q 1100 0 847 248 
Q 594 497 594 1153 
L 594 3053 
L 172 3053 
L 172 3500 
L 594 3500 
L 594 4494 
L 1172 4494 
z
" transform="scale(0.015625)"/>
       <path id="DejaVuSans-61" d="M 2194 1759 
Q 1497 1759 1228 1600 
Q 959 1441 959 1056 
Q 959 750 1161 570 
Q 1363 391 1709 391 
Q 2188 391 2477 730 
Q 2766 1069 2766 1631 
L 2766 1759 
L 2194 1759 
z
M 3341 1997 
L 3341 0 
L 2766 0 
L 2766 531 
Q 2569 213 2275 61 
Q 1981 -91 1556 -91 
Q 1019 -91 701 211 
Q 384 513 384 1019 
Q 384 1609 779 1909 
Q 1175 2209 1959 2209 
L 2766 2209 
L 2766 2266 
Q 2766 2663 2505 2880 
Q 2244 3097 1772 3097 
Q 1472 3097 1187 3025 
Q 903 2953 641 2809 
L 641 3341 
Q 956 3463 1253 3523 
Q 1550 3584 1831 3584 
Q 2591 3584 2966 3190 
Q 3341 2797 3341 1997 
z
" transform="scale(0.015625)"/>
       <path id="DejaVuSans-6e" d="M 3513 2113 
L 3513 0 
L 2938 0 
L 2938 2094 
Q 2938 2591 2744 2837 
Q 2550 3084 2163 3084 
Q 1697 3084 1428 2787 
Q 1159 2491 1159 1978 
L 1159 0 
L 581 0 
L 581 3500 
L 1159 3500 
L 1159 2956 
Q 1366 3272 1645 3428 
Q 1925 3584 2291 3584 
Q 2894 3584 3203 3211 
Q 3513 2838 3513 2113 
z
" transform="scale(0.015625)"/>
       <path id="DejaVuSans-63" d="M 3122 3366 
L 3122 2828 
Q 2878 2963 2633 3030 
Q 2388 3097 2138 3097 
Q 1578 3097 1268 2742 
Q 959 2388 959 1747 
Q 959 1106 1268 751 
Q 1578 397 2138 397 
Q 2388 397 2633 464 
Q 2878 531 3122 666 
L 3122 134 
Q 2881 22 2623 -34 
Q 2366 -91 2075 -91 
Q 1284 -91 818 406 
Q 353 903 353 1747 
Q 353 2603 823 3093 
Q 1294 3584 2113 3584 
Q 2378 3584 2631 3529 
Q 2884 3475 3122 3366 
z
" transform="scale(0.015625)"/>
       <path id="DejaVuSans-65" d="M 3597 1894 
L 3597 1613 
L 953 1613 
Q 991 1019 1311 708 
Q 1631 397 2203 397 
Q 2534 397 2845 478 
Q 3156 559 3463 722 
L 3463 178 
Q 3153 47 2828 -22 
Q 2503 -91 2169 -91 
Q 1331 -91 842 396 
Q 353 884 353 1716 
Q 353 2575 817 3079 
Q 1281 3584 2069 3584 
Q 2775 3584 3186 3129 
Q 3597 2675 3597 1894 
z
M 3022 2063 
Q 3016 2534 2758 2815 
Q 2500 3097 2075 3097 
Q 1594 3097 1305 2825 
Q 1016 2553 972 2059 
L 3022 2063 
z
" transform="scale(0.015625)"/>
       <path id="DejaVuSans-20" transform="scale(0.015625)"/>
       <path id="DejaVuSans-5b" d="M 550 4863 
L 1875 4863 
L 1875 4416 
L 1125 4416 
L 1125 -397 
L 1875 -397 
L 1875 -844 
L 550 -844 
L 550 4863 
z
" transform="scale(0.015625)"/>
       <path id="DejaVuSans-b5" d="M 544 -1331 
L 544 3500 
L 1119 3500 
L 1119 1325 
Q 1119 872 1334 640 
Q 1550 409 1972 409 
Q 2434 409 2667 671 
Q 2900 934 2900 1459 
L 2900 3500 
L 3475 3500 
L 3475 806 
Q 3475 619 3529 530 
Q 3584 441 3700 441 
Q 3728 441 3778 458 
Q 3828 475 3916 513 
L 3916 50 
Q 3788 -22 3673 -56 
Q 3559 -91 3450 -91 
Q 3234 -91 3106 31 
Q 2978 153 2931 403 
Q 2775 156 2548 32 
Q 2322 -91 2016 -91 
Q 1697 -91 1473 31 
Q 1250 153 1119 397 
L 1119 -1331 
L 544 -1331 
z
" transform="scale(0.015625)"/>
       <path id="DejaVuSans-6d" d="M 3328 2828 
Q 3544 3216 3844 3400 
Q 4144 3584 4550 3584 
Q 5097 3584 5394 3201 
Q 5691 2819 5691 2113 
L 5691 0 
L 5113 0 
L 5113 2094 
Q 5113 2597 4934 2840 
Q 4756 3084 4391 3084 
Q 3944 3084 3684 2787 
Q 3425 2491 3425 1978 
L 3425 0 
L 2847 0 
L 2847 2094 
Q 2847 2600 2669 2842 
Q 2491 3084 2119 3084 
Q 1678 3084 1418 2786 
Q 1159 2488 1159 1978 
L 1159 0 
L 581 0 
L 581 3500 
L 1159 3500 
L 1159 2956 
Q 1356 3278 1631 3431 
Q 1906 3584 2284 3584 
Q 2666 3584 2933 3390 
Q 3200 3197 3328 2828 
z
" transform="scale(0.015625)"/>
       <path id="DejaVuSans-5d" d="M 1947 4863 
L 1947 -844 
L 622 -844 
L 622 -397 
L 1369 -397 
L 1369 4416 
L 622 4416 
L 622 4863 
L 1947 4863 
z
" transform="scale(0.015625)"/>
      </defs>
      <use xlink:href="#DejaVuSans-44"/>
      <use xlink:href="#DejaVuSans-69" x="77.001953"/>
      <use xlink:href="#DejaVuSans-73" x="104.785156"/>
      <use xlink:href="#DejaVuSans-74" x="156.884766"/>
      <use xlink:href="#DejaVuSans-61" x="196.09375"/>
      <use xlink:href="#DejaVuSans-6e" x="257.373047"/>
      <use xlink:href="#DejaVuSans-63" x="320.751953"/>
      <use xlink:href="#DejaVuSans-65" x="375.732422"/>
      <use xlink:href="#DejaVuSans-20" x="437.255859"/>
      <use xlink:href="#DejaVuSans-5b" x="469.042969"/>
      <use xlink:href="#DejaVuSans-b5" x="508.056641"/>
      <use xlink:href="#DejaVuSans-6d" x="571.679688"/>
      <use xlink:href="#DejaVuSans-5d" x="669.091797"/>
     </g>
    </g>
   </g>
   <g id="matplotlib.axis_2">
    <g id="ytick_1">
     <g id="line2d_7">
      <defs>
       <path id="m9a0cd6c02b" d="M 0 0 
L 3.5 0 
" style="stroke: #000000; stroke-width: 0.8"/>
      </defs>
      <g>
       <use xlink:href="#m9a0cd6c02b" x="45.638365" y="92.165262" style="stroke: #000000; stroke-width: 0.8"/>
      </g>
     </g>
     <g id="text_8">
      <!-- 0.00 -->
      <g transform="translate(17.646178 96.344403) scale(0.11 -0.11)">
       <use xlink:href="#DejaVuSans-30"/>
       <use xlink:href="#DejaVuSans-2e" x="63.623047"/>
       <use xlink:href="#DejaVuSans-30" x="95.410156"/>
       <use xlink:href="#DejaVuSans-30" x="159.033203"/>
      </g>
     </g>
    </g>
    <g id="ytick_2">
     <g id="line2d_8">
      <g>
       <use xlink:href="#m9a0cd6c02b" x="45.638365" y="65.884107" style="stroke: #000000; stroke-width: 0.8"/>
      </g>
     </g>
     <g id="text_9">
      <!-- 0.25 -->
      <g transform="translate(17.646178 70.063248) scale(0.11 -0.11)">
       <defs>
        <path id="DejaVuSans-35" d="M 691 4666 
L 3169 4666 
L 3169 4134 
L 1269 4134 
L 1269 2991 
Q 1406 3038 1543 3061 
Q 1681 3084 1819 3084 
Q 2600 3084 3056 2656 
Q 3513 2228 3513 1497 
Q 3513 744 3044 326 
Q 2575 -91 1722 -91 
Q 1428 -91 1123 -41 
Q 819 9 494 109 
L 494 744 
Q 775 591 1075 516 
Q 1375 441 1709 441 
Q 2250 441 2565 725 
Q 2881 1009 2881 1497 
Q 2881 1984 2565 2268 
Q 2250 2553 1709 2553 
Q 1456 2553 1204 2497 
Q 953 2441 691 2322 
L 691 4666 
z
" transform="scale(0.015625)"/>
       </defs>
       <use xlink:href="#DejaVuSans-30"/>
       <use xlink:href="#DejaVuSans-2e" x="63.623047"/>
       <use xlink:href="#DejaVuSans-32" x="95.410156"/>
       <use xlink:href="#DejaVuSans-35" x="159.033203"/>
      </g>
     </g>
    </g>
    <g id="ytick_3">
     <g id="line2d_9">
      <g>
       <use xlink:href="#m9a0cd6c02b" x="45.638365" y="39.602952" style="stroke: #000000; stroke-width: 0.8"/>
      </g>
     </g>
     <g id="text_10">
      <!-- 0.50 -->
      <g transform="translate(17.646178 43.782093) scale(0.11 -0.11)">
       <use xlink:href="#DejaVuSans-30"/>
       <use xlink:href="#DejaVuSans-2e" x="63.623047"/>
       <use xlink:href="#DejaVuSans-35" x="95.410156"/>
       <use xlink:href="#DejaVuSans-30" x="159.033203"/>
      </g>
     </g>
    </g>
    <g id="ytick_4">
     <g id="line2d_10">
      <defs>
       <path id="md010b061ea" d="M 0 0 
L 2 0 
" style="stroke: #000000; stroke-width: 0.6"/>
      </defs>
      <g>
       <use xlink:href="#md010b061ea" x="45.638365" y="86.909031" style="stroke: #000000; stroke-width: 0.6"/>
      </g>
     </g>
    </g>
    <g id="ytick_5">
     <g id="line2d_11">
      <g>
       <use xlink:href="#md010b061ea" x="45.638365" y="81.6528" style="stroke: #000000; stroke-width: 0.6"/>
      </g>
     </g>
    </g>
    <g id="ytick_6">
     <g id="line2d_12">
      <g>
       <use xlink:href="#md010b061ea" x="45.638365" y="76.396569" style="stroke: #000000; stroke-width: 0.6"/>
      </g>
     </g>
    </g>
    <g id="ytick_7">
     <g id="line2d_13">
      <g>
       <use xlink:href="#md010b061ea" x="45.638365" y="71.140338" style="stroke: #000000; stroke-width: 0.6"/>
      </g>
     </g>
    </g>
    <g id="ytick_8">
     <g id="line2d_14">
      <g>
       <use xlink:href="#md010b061ea" x="45.638365" y="60.627876" style="stroke: #000000; stroke-width: 0.6"/>
      </g>
     </g>
    </g>
    <g id="ytick_9">
     <g id="line2d_15">
      <g>
       <use xlink:href="#md010b061ea" x="45.638365" y="55.371645" style="stroke: #000000; stroke-width: 0.6"/>
      </g>
     </g>
    </g>
    <g id="ytick_10">
     <g id="line2d_16">
      <g>
       <use xlink:href="#md010b061ea" x="45.638365" y="50.115414" style="stroke: #000000; stroke-width: 0.6"/>
      </g>
     </g>
    </g>
    <g id="ytick_11">
     <g id="line2d_17">
      <g>
       <use xlink:href="#md010b061ea" x="45.638365" y="44.859183" style="stroke: #000000; stroke-width: 0.6"/>
      </g>
     </g>
    </g>
    <g id="ytick_12">
     <g id="line2d_18">
      <g>
       <use xlink:href="#md010b061ea" x="45.638365" y="34.346721" style="stroke: #000000; stroke-width: 0.6"/>
      </g>
     </g>
    </g>
    <g id="ytick_13">
     <g id="line2d_19">
      <g>
       <use xlink:href="#md010b061ea" x="45.638365" y="29.09049" style="stroke: #000000; stroke-width: 0.6"/>
      </g>
     </g>
    </g>
    <g id="ytick_14">
     <g id="line2d_20">
      <g>
       <use xlink:href="#md010b061ea" x="45.638365" y="23.834259" style="stroke: #000000; stroke-width: 0.6"/>
      </g>
     </g>
    </g>
    <g id="text_11">
     <!-- Cumulative density -->
     <g transform="translate(11.358521 110.644344) rotate(-90) scale(0.11 -0.11)">
      <defs>
       <path id="DejaVuSans-43" d="M 4122 4306 
L 4122 3641 
Q 3803 3938 3442 4084 
Q 3081 4231 2675 4231 
Q 1875 4231 1450 3742 
Q 1025 3253 1025 2328 
Q 1025 1406 1450 917 
Q 1875 428 2675 428 
Q 3081 428 3442 575 
Q 3803 722 4122 1019 
L 4122 359 
Q 3791 134 3420 21 
Q 3050 -91 2638 -91 
Q 1578 -91 968 557 
Q 359 1206 359 2328 
Q 359 3453 968 4101 
Q 1578 4750 2638 4750 
Q 3056 4750 3426 4639 
Q 3797 4528 4122 4306 
z
" transform="scale(0.015625)"/>
       <path id="DejaVuSans-75" d="M 544 1381 
L 544 3500 
L 1119 3500 
L 1119 1403 
Q 1119 906 1312 657 
Q 1506 409 1894 409 
Q 2359 409 2629 706 
Q 2900 1003 2900 1516 
L 2900 3500 
L 3475 3500 
L 3475 0 
L 2900 0 
L 2900 538 
Q 2691 219 2414 64 
Q 2138 -91 1772 -91 
Q 1169 -91 856 284 
Q 544 659 544 1381 
z
M 1991 3584 
L 1991 3584 
z
" transform="scale(0.015625)"/>
       <path id="DejaVuSans-6c" d="M 603 4863 
L 1178 4863 
L 1178 0 
L 603 0 
L 603 4863 
z
" transform="scale(0.015625)"/>
       <path id="DejaVuSans-76" d="M 191 3500 
L 800 3500 
L 1894 563 
L 2988 3500 
L 3597 3500 
L 2284 0 
L 1503 0 
L 191 3500 
z
" transform="scale(0.015625)"/>
       <path id="DejaVuSans-64" d="M 2906 2969 
L 2906 4863 
L 3481 4863 
L 3481 0 
L 2906 0 
L 2906 525 
Q 2725 213 2448 61 
Q 2172 -91 1784 -91 
Q 1150 -91 751 415 
Q 353 922 353 1747 
Q 353 2572 751 3078 
Q 1150 3584 1784 3584 
Q 2172 3584 2448 3432 
Q 2725 3281 2906 2969 
z
M 947 1747 
Q 947 1113 1208 752 
Q 1469 391 1925 391 
Q 2381 391 2643 752 
Q 2906 1113 2906 1747 
Q 2906 2381 2643 2742 
Q 2381 3103 1925 3103 
Q 1469 3103 1208 2742 
Q 947 2381 947 1747 
z
" transform="scale(0.015625)"/>
       <path id="DejaVuSans-79" d="M 2059 -325 
Q 1816 -950 1584 -1140 
Q 1353 -1331 966 -1331 
L 506 -1331 
L 506 -850 
L 844 -850 
Q 1081 -850 1212 -737 
Q 1344 -625 1503 -206 
L 1606 56 
L 191 3500 
L 800 3500 
L 1894 763 
L 2988 3500 
L 3597 3500 
L 2059 -325 
z
" transform="scale(0.015625)"/>
      </defs>
      <use xlink:href="#DejaVuSans-43"/>
      <use xlink:href="#DejaVuSans-75" x="69.824219"/>
      <use xlink:href="#DejaVuSans-6d" x="133.203125"/>
      <use xlink:href="#DejaVuSans-75" x="230.615234"/>
      <use xlink:href="#DejaVuSans-6c" x="293.994141"/>
      <use xlink:href="#DejaVuSans-61" x="321.777344"/>
      <use xlink:href="#DejaVuSans-74" x="383.056641"/>
      <use xlink:href="#DejaVuSans-69" x="422.265625"/>
      <use xlink:href="#DejaVuSans-76" x="450.048828"/>
      <use xlink:href="#DejaVuSans-65" x="509.228516"/>
      <use xlink:href="#DejaVuSans-20" x="570.751953"/>
      <use xlink:href="#DejaVuSans-64" x="602.539062"/>
      <use xlink:href="#DejaVuSans-65" x="666.015625"/>
      <use xlink:href="#DejaVuSans-6e" x="727.539062"/>
      <use xlink:href="#DejaVuSans-73" x="790.917969"/>
      <use xlink:href="#DejaVuSans-69" x="843.017578"/>
      <use xlink:href="#DejaVuSans-74" x="870.800781"/>
      <use xlink:href="#DejaVuSans-79" x="910.009766"/>
     </g>
    </g>
   </g>
   <g id="line2d_21">
    <path d="M 45.638365 92.165262 
L 47.613312 91.037982 
L 49.588259 91.037982 
L 51.563205 91.037982 
L 53.538152 91.037982 
L 55.513099 91.037982 
L 57.488046 91.037982 
L 59.462992 91.037982 
L 61.437939 88.984642 
L 63.412886 88.984642 
L 65.387833 88.984642 
L 67.362779 88.151161 
L 69.337726 88.151161 
L 71.312673 88.151161 
L 73.28762 88.151161 
L 75.262566 88.151161 
L 77.237513 87.593521 
L 79.21246 86.972032 
L 81.187407 86.972032 
L 83.162353 86.972032 
L 85.1373 86.831999 
L 87.112247 86.768365 
L 89.087194 86.490406 
L 91.062141 86.186405 
L 93.037087 85.962332 
L 95.012034 85.962332 
L 96.986981 85.923626 
L 98.961928 85.705088 
L 100.936874 85.042515 
L 102.911821 85.042515 
L 104.886768 85.00381 
L 106.861715 84.923057 
L 108.836661 84.720898 
L 110.811608 84.720898 
L 112.786555 83.965343 
L 114.761502 83.965343 
L 116.736448 83.965343 
L 118.711395 83.928654 
L 120.686342 83.104689 
L 122.661289 83.028753 
L 124.636235 83.004294 
L 126.611182 82.888522 
L 128.586129 82.856972 
L 130.561076 82.578676 
L 132.536023 81.914932 
L 134.510969 81.914932 
L 136.485916 81.735934 
L 138.460863 81.735934 
L 140.43581 81.656263 
L 142.410756 81.05247 
L 144.385703 80.90857 
L 146.36065 80.884111 
L 148.335597 80.854549 
L 150.310543 80.826942 
L 152.28549 80.747271 
L 154.260437 80.605323 
L 156.235384 80.605323 
L 158.21033 80.489029 
L 160.185277 80.451259 
L 162.160224 80.291119 
L 164.135171 80.291119 
L 166.110118 80.118037 
L 168.085064 80.118037 
L 170.060011 80.081937 
L 172.034958 80.057478 
L 174.009905 79.962396 
L 175.984851 79.932118 
L 177.959798 79.932118 
L 179.934745 79.898677 
L 181.909692 79.898677 
L 183.884638 79.829899 
L 185.859585 79.81767 
L 187.834532 79.796458 
L 189.809479 79.748128 
L 191.784425 79.735898 
L 193.759372 79.689146 
L 195.734319 79.615804 
L 197.709266 79.518084 
L 199.684212 79.496873 
L 201.659159 79.444808 
L 203.634106 79.332061 
L 205.609053 79.215845 
L 207.584 79.093717 
L 209.558946 79.093717 
L 211.533893 79.069258 
L 213.50884 78.947098 
L 215.483787 78.761199 
L 217.458733 78.695536 
L 219.43368 78.653113 
L 221.408627 78.498016 
L 223.383574 78.498016 
L 225.35852 78.281213 
L 227.333467 78.211099 
L 229.308414 78.12806 
L 231.283361 78.032803 
L 233.258307 77.934875 
L 235.233254 77.745188 
L 237.208201 77.588104 
L 239.183148 77.552003 
L 241.158094 77.512168 
" clip-path="url(#pf8205b2b40)" style="fill: none; stroke: #003f5c; stroke-width: 1.5; stroke-linecap: square"/>
   </g>
   <g id="line2d_22">
    <path d="M 45.638365 92.165262 
L 47.613312 89.255977 
L 49.588259 89.255977 
L 51.563205 89.255977 
L 53.538152 89.255977 
L 55.513099 89.255977 
L 57.488046 89.255977 
L 59.462992 89.255977 
L 61.437939 85.771355 
L 63.412886 85.771355 
L 65.387833 85.771355 
L 67.362779 84.419896 
L 69.337726 84.419896 
L 71.312673 84.419896 
L 73.28762 84.419896 
L 75.262566 84.419896 
L 77.237513 83.292521 
L 79.21246 81.913884 
L 81.187407 81.913884 
L 83.162353 81.913884 
L 85.1373 80.314376 
L 87.112247 80.01337 
L 89.087194 77.775282 
L 91.062141 76.614346 
L 93.037087 76.028463 
L 95.012034 76.028463 
L 96.986981 75.276121 
L 98.961928 74.735031 
L 100.936874 74.291548 
L 102.911821 74.291548 
L 104.886768 74.122465 
L 106.861715 73.62031 
L 108.836661 72.733658 
L 110.811608 72.733658 
L 112.786555 72.236396 
L 114.761502 72.236396 
L 116.736448 72.236396 
L 118.711395 71.757973 
L 120.686342 71.226339 
L 122.661289 70.958817 
L 124.636235 70.456076 
L 126.611182 69.941088 
L 128.586129 69.805188 
L 130.561076 69.297612 
L 132.536023 68.71177 
L 134.510969 68.71177 
L 136.485916 67.819767 
L 138.460863 67.63952 
L 140.43581 67.40088 
L 142.410756 67.038861 
L 144.385703 66.903025 
L 146.36065 66.564833 
L 148.335597 66.297473 
L 150.310543 66.079692 
L 152.28549 65.951091 
L 154.260437 65.548002 
L 156.235384 65.53849 
L 158.21033 65.303605 
L 160.185277 65.15751 
L 162.160224 64.932768 
L 164.135171 64.875704 
L 166.110118 64.497737 
L 168.085064 64.477125 
L 170.060011 64.156596 
L 172.034958 63.928766 
L 174.009905 63.627765 
L 175.984851 63.473387 
L 177.959798 63.410628 
L 179.934745 63.048159 
L 181.909692 62.875428 
L 183.884638 62.622803 
L 185.859585 62.541972 
L 187.834532 62.238443 
L 189.809479 62.067153 
L 191.784425 62.02345 
L 193.759372 61.808594 
L 195.734319 61.474946 
L 197.709266 61.209266 
L 199.684212 60.999079 
L 201.659159 60.843959 
L 203.634106 60.768829 
L 205.609053 60.56901 
L 207.584 60.380017 
L 209.558946 60.28905 
L 211.533893 59.987924 
L 213.50884 59.783374 
L 215.483787 59.330393 
L 217.458733 59.17745 
L 219.43368 59.056464 
L 221.408627 58.888808 
L 223.383574 58.870495 
L 225.35852 58.320519 
L 227.333467 58.02553 
L 229.308414 57.811789 
L 231.283361 57.560919 
L 233.258307 57.44392 
L 235.233254 57.289907 
L 237.208201 57.014207 
L 239.183148 56.744478 
L 241.158094 56.459652 
" clip-path="url(#pf8205b2b40)" style="fill: none; stroke: #ffa600; stroke-width: 1.5; stroke-linecap: square"/>
   </g>
   <g id="line2d_23">
    <path d="M 45.638365 92.165262 
L 47.613312 88.069787 
L 49.588259 88.069787 
L 51.563205 88.069787 
L 53.538152 88.069787 
L 55.513099 88.069787 
L 57.488046 88.069787 
L 59.462992 88.069787 
L 61.437939 82.93621 
L 63.412886 82.93621 
L 65.387833 82.93621 
L 67.362779 80.601938 
L 69.337726 80.601938 
L 71.312673 80.601938 
L 73.28762 80.601938 
L 75.262566 80.601938 
L 77.237513 78.589124 
L 79.21246 76.43837 
L 81.187407 76.43837 
L 83.162353 76.43837 
L 85.1373 73.778109 
L 87.112247 72.702146 
L 89.087194 67.32038 
L 91.062141 64.439249 
L 93.037087 63.703816 
L 95.012034 63.703816 
L 96.986981 62.295459 
L 98.961928 60.773348 
L 100.936874 60.295378 
L 102.911821 60.295378 
L 104.886768 59.776455 
L 106.861715 58.872357 
L 108.836661 57.60516 
L 110.811608 57.60516 
L 112.786555 56.901258 
L 114.761502 56.901258 
L 116.736448 56.901258 
L 118.711395 56.472938 
L 120.686342 55.725821 
L 122.661289 55.504771 
L 124.636235 54.780372 
L 126.611182 53.592343 
L 128.586129 53.079494 
L 130.561076 51.99963 
L 132.536023 50.832216 
L 134.510969 50.832216 
L 136.485916 49.608061 
L 138.460863 49.358885 
L 140.43581 49.132097 
L 142.410756 48.313221 
L 144.385703 47.838659 
L 146.36065 47.44938 
L 148.335597 47.119355 
L 150.310543 46.530071 
L 152.28549 46.484729 
L 154.260437 45.880713 
L 156.235384 45.864246 
L 158.21033 45.454031 
L 160.185277 45.303041 
L 162.160224 45.069137 
L 164.135171 44.986688 
L 166.110118 44.380961 
L 168.085064 44.210741 
L 170.060011 43.691645 
L 172.034958 43.41537 
L 174.009905 42.887401 
L 175.984851 42.716541 
L 177.959798 42.626008 
L 179.934745 42.137082 
L 181.909692 41.974458 
L 183.884638 41.671811 
L 185.859585 41.500795 
L 187.834532 41.158377 
L 189.809479 40.845703 
L 191.784425 40.7734 
L 193.759372 40.474432 
L 195.734319 40.12226 
L 197.709266 39.985611 
L 199.684212 39.773795 
L 201.659159 39.568501 
L 203.634106 39.414274 
L 205.609053 39.243894 
L 207.584 38.887278 
L 209.558946 38.74021 
L 211.533893 38.425104 
L 213.50884 38.167964 
L 215.483787 37.785901 
L 217.458733 37.676053 
L 219.43368 37.553811 
L 221.408627 37.337231 
L 223.383574 37.299498 
L 225.35852 36.933785 
L 227.333467 36.72916 
L 229.308414 36.539826 
L 231.283361 36.245257 
L 233.258307 36.062358 
L 235.233254 35.873889 
L 237.208201 35.65406 
L 239.183148 35.50728 
L 241.158094 35.441118 
" clip-path="url(#pf8205b2b40)" style="fill: none; stroke: #bc5090; stroke-width: 1.5; stroke-linecap: square"/>
   </g>
   <g id="line2d_24"/>
   <g id="line2d_25"/>
   <g id="line2d_26"/>
   <g id="line2d_27">
    <path d="M 95.012034 95.647885 
L 95.012034 19.030178 
" clip-path="url(#pf8205b2b40)" style="fill: none; stroke-dasharray: 5.55,2.4; stroke-dashoffset: 0; stroke: #000000; stroke-width: 1.5"/>
   </g>
   <g id="patch_3">
    <path d="M 45.638365 95.647885 
L 45.638365 19.030178 
" style="fill: none; stroke: #000000; stroke-width: 0.8; stroke-linejoin: miter; stroke-linecap: square"/>
   </g>
   <g id="patch_4">
    <path d="M 45.638365 95.647885 
L 243.133041 95.647885 
" style="fill: none; stroke: #000000; stroke-width: 0.8; stroke-linejoin: miter; stroke-linecap: square"/>
   </g>
   <g id="text_12">
    <!-- Nearest Neighbour Distances -->
    <g transform="translate(47.869984 13.030178) scale(0.132 -0.132)">
     <defs>
      <path id="DejaVuSans-4e" d="M 628 4666 
L 1478 4666 
L 3547 763 
L 3547 4666 
L 4159 4666 
L 4159 0 
L 3309 0 
L 1241 3903 
L 1241 0 
L 628 0 
L 628 4666 
z
" transform="scale(0.015625)"/>
      <path id="DejaVuSans-72" d="M 2631 2963 
Q 2534 3019 2420 3045 
Q 2306 3072 2169 3072 
Q 1681 3072 1420 2755 
Q 1159 2438 1159 1844 
L 1159 0 
L 581 0 
L 581 3500 
L 1159 3500 
L 1159 2956 
Q 1341 3275 1631 3429 
Q 1922 3584 2338 3584 
Q 2397 3584 2469 3576 
Q 2541 3569 2628 3553 
L 2631 2963 
z
" transform="scale(0.015625)"/>
      <path id="DejaVuSans-67" d="M 2906 1791 
Q 2906 2416 2648 2759 
Q 2391 3103 1925 3103 
Q 1463 3103 1205 2759 
Q 947 2416 947 1791 
Q 947 1169 1205 825 
Q 1463 481 1925 481 
Q 2391 481 2648 825 
Q 2906 1169 2906 1791 
z
M 3481 434 
Q 3481 -459 3084 -895 
Q 2688 -1331 1869 -1331 
Q 1566 -1331 1297 -1286 
Q 1028 -1241 775 -1147 
L 775 -588 
Q 1028 -725 1275 -790 
Q 1522 -856 1778 -856 
Q 2344 -856 2625 -561 
Q 2906 -266 2906 331 
L 2906 616 
Q 2728 306 2450 153 
Q 2172 0 1784 0 
Q 1141 0 747 490 
Q 353 981 353 1791 
Q 353 2603 747 3093 
Q 1141 3584 1784 3584 
Q 2172 3584 2450 3431 
Q 2728 3278 2906 2969 
L 2906 3500 
L 3481 3500 
L 3481 434 
z
" transform="scale(0.015625)"/>
      <path id="DejaVuSans-68" d="M 3513 2113 
L 3513 0 
L 2938 0 
L 2938 2094 
Q 2938 2591 2744 2837 
Q 2550 3084 2163 3084 
Q 1697 3084 1428 2787 
Q 1159 2491 1159 1978 
L 1159 0 
L 581 0 
L 581 4863 
L 1159 4863 
L 1159 2956 
Q 1366 3272 1645 3428 
Q 1925 3584 2291 3584 
Q 2894 3584 3203 3211 
Q 3513 2838 3513 2113 
z
" transform="scale(0.015625)"/>
      <path id="DejaVuSans-62" d="M 3116 1747 
Q 3116 2381 2855 2742 
Q 2594 3103 2138 3103 
Q 1681 3103 1420 2742 
Q 1159 2381 1159 1747 
Q 1159 1113 1420 752 
Q 1681 391 2138 391 
Q 2594 391 2855 752 
Q 3116 1113 3116 1747 
z
M 1159 2969 
Q 1341 3281 1617 3432 
Q 1894 3584 2278 3584 
Q 2916 3584 3314 3078 
Q 3713 2572 3713 1747 
Q 3713 922 3314 415 
Q 2916 -91 2278 -91 
Q 1894 -91 1617 61 
Q 1341 213 1159 525 
L 1159 0 
L 581 0 
L 581 4863 
L 1159 4863 
L 1159 2969 
z
" transform="scale(0.015625)"/>
      <path id="DejaVuSans-6f" d="M 1959 3097 
Q 1497 3097 1228 2736 
Q 959 2375 959 1747 
Q 959 1119 1226 758 
Q 1494 397 1959 397 
Q 2419 397 2687 759 
Q 2956 1122 2956 1747 
Q 2956 2369 2687 2733 
Q 2419 3097 1959 3097 
z
M 1959 3584 
Q 2709 3584 3137 3096 
Q 3566 2609 3566 1747 
Q 3566 888 3137 398 
Q 2709 -91 1959 -91 
Q 1206 -91 779 398 
Q 353 888 353 1747 
Q 353 2609 779 3096 
Q 1206 3584 1959 3584 
z
" transform="scale(0.015625)"/>
     </defs>
     <use xlink:href="#DejaVuSans-4e"/>
     <use xlink:href="#DejaVuSans-65" x="74.804688"/>
     <use xlink:href="#DejaVuSans-61" x="136.328125"/>
     <use xlink:href="#DejaVuSans-72" x="197.607422"/>
     <use xlink:href="#DejaVuSans-65" x="236.470703"/>
     <use xlink:href="#DejaVuSans-73" x="297.994141"/>
     <use xlink:href="#DejaVuSans-74" x="350.09375"/>
     <use xlink:href="#DejaVuSans-20" x="389.302734"/>
     <use xlink:href="#DejaVuSans-4e" x="421.089844"/>
     <use xlink:href="#DejaVuSans-65" x="495.894531"/>
     <use xlink:href="#DejaVuSans-69" x="557.417969"/>
     <use xlink:href="#DejaVuSans-67" x="585.201172"/>
     <use xlink:href="#DejaVuSans-68" x="648.677734"/>
     <use xlink:href="#DejaVuSans-62" x="712.056641"/>
     <use xlink:href="#DejaVuSans-6f" x="775.533203"/>
     <use xlink:href="#DejaVuSans-75" x="836.714844"/>
     <use xlink:href="#DejaVuSans-72" x="900.09375"/>
     <use xlink:href="#DejaVuSans-20" x="941.207031"/>
     <use xlink:href="#DejaVuSans-44" x="972.994141"/>
     <use xlink:href="#DejaVuSans-69" x="1049.996094"/>
     <use xlink:href="#DejaVuSans-73" x="1077.779297"/>
     <use xlink:href="#DejaVuSans-74" x="1129.878906"/>
     <use xlink:href="#DejaVuSans-61" x="1169.087891"/>
     <use xlink:href="#DejaVuSans-6e" x="1230.367188"/>
     <use xlink:href="#DejaVuSans-63" x="1293.746094"/>
     <use xlink:href="#DejaVuSans-65" x="1348.726562"/>
     <use xlink:href="#DejaVuSans-73" x="1410.25"/>
    </g>
   </g>
  </g>
 </g>
 <defs>
  <clipPath id="pf8205b2b40">
   <rect x="45.638365" y="19.030178" width="197.494676" height="76.617707"/>
  </clipPath>
 </defs>
</svg>
