<?xml version="1.0" encoding="utf-8" standalone="no"?>
<!DOCTYPE svg PUBLIC "-//W3C//DTD SVG 1.1//EN"
  "http://www.w3.org/Graphics/SVG/1.1/DTD/svg11.dtd">
<svg xmlns:xlink="http://www.w3.org/1999/xlink" width="254.88pt" height="127.44pt" viewBox="0 0 254.88 127.44" xmlns="http://www.w3.org/2000/svg" version="1.1">
 <metadata>
  <rdf:RDF xmlns:dc="http://purl.org/dc/elements/1.1/" xmlns:cc="http://creativecommons.org/ns#" xmlns:rdf="http://www.w3.org/1999/02/22-rdf-syntax-ns#">
   <cc:Work>
    <dc:type rdf:resource="http://purl.org/dc/dcmitype/StillImage"/>
    <dc:date>2024-01-04T10:12:35.347788</dc:date>
    <dc:format>image/svg+xml</dc:format>
    <dc:creator>
     <cc:Agent>
      <dc:title>Matplotlib v3.8.2, https://matplotlib.org/</dc:title>
     </cc:Agent>
    </dc:creator>
   </cc:Work>
  </rdf:RDF>
 </metadata>
 <defs>
  <style type="text/css">*{stroke-linejoin: round; stroke-linecap: butt}</style>
 </defs>
 <g id="figure_1">
  <g id="patch_1">
   <path d="M 0 127.44 
L 254.88 127.44 
L 254.88 0 
L 0 0 
z
" style="fill: #ffffff"/>
  </g>
  <g id="axes_1">
   <g id="patch_2">
    <path d="M 45.638365 95.647885 
L 243.133041 95.647885 
L 243.133041 19.030178 
L 45.638365 19.030178 
z
" style="fill: #ffffff"/>
   </g>
   <g id="PolyCollection_1">
    <defs>
     <path id="m4744d28190" d="M 45.638365 -35.274738 
L 45.638365 -35.274738 
L 47.613312 -35.807121 
L 49.588259 -35.769968 
L 51.563205 -35.801103 
L 53.538152 -35.766329 
L 55.513099 -35.810691 
L 57.488046 -35.815587 
L 59.462992 -35.798871 
L 61.437939 -36.804783 
L 63.412886 -36.923351 
L 65.387833 -36.869346 
L 67.362779 -37.26506 
L 69.337726 -37.344152 
L 71.312673 -37.27315 
L 73.28762 -37.256592 
L 75.262566 -37.129676 
L 77.237513 -37.565237 
L 79.21246 -37.636664 
L 81.187407 -37.79338 
L 83.162353 -37.540578 
L 85.1373 -37.904798 
L 87.112247 -37.766168 
L 89.087194 -38.053061 
L 91.062141 -38.16453 
L 93.037087 -38.44517 
L 95.012034 -38.352982 
L 96.986981 -38.470692 
L 98.961928 -38.600404 
L 100.936874 -39.382855 
L 102.911821 -39.142257 
L 104.886768 -39.059001 
L 106.861715 -39.365589 
L 108.836661 -38.984925 
L 110.811608 -39.494314 
L 112.786555 -39.648166 
L 114.761502 -39.527908 
L 116.736448 -39.540115 
L 118.711395 -39.683399 
L 120.686342 -39.866339 
L 122.661289 -40.072046 
L 124.636235 -39.935063 
L 126.611182 -39.983093 
L 128.586129 -39.818946 
L 130.561076 -40.176804 
L 132.536023 -40.23348 
L 134.510969 -40.523334 
L 136.485916 -40.155087 
L 138.460863 -40.70471 
L 140.43581 -40.134529 
L 142.410756 -40.666507 
L 144.385703 -40.972196 
L 146.36065 -40.527034 
L 148.335597 -40.680422 
L 150.310543 -40.479936 
L 152.28549 -40.88823 
L 154.260437 -41.145038 
L 156.235384 -40.420971 
L 158.21033 -40.851728 
L 160.185277 -40.60469 
L 162.160224 -41.016038 
L 164.135171 -41.035299 
L 166.110118 -40.878595 
L 168.085064 -41.31508 
L 170.060011 -41.073164 
L 172.034958 -41.027329 
L 174.009905 -41.464476 
L 175.984851 -41.473498 
L 177.959798 -41.36586 
L 179.934745 -41.330381 
L 181.909692 -41.375129 
L 183.884638 -41.130411 
L 185.859585 -41.339456 
L 187.834532 -41.162303 
L 189.809479 -41.739779 
L 191.784425 -41.318739 
L 193.759372 -41.77868 
L 195.734319 -41.546003 
L 197.709266 -41.467097 
L 199.684212 -41.729198 
L 201.659159 -41.20208 
L 203.634106 -41.389219 
L 205.609053 -41.713128 
L 207.584 -41.870072 
L 209.558946 -42.134064 
L 211.533893 -42.059406 
L 213.50884 -42.087071 
L 215.483787 -42.342312 
L 217.458733 -42.55421 
L 219.43368 -42.554884 
L 221.408627 -42.174989 
L 223.383574 -42.893367 
L 225.35852 -43.075052 
L 227.333467 -42.975519 
L 229.308414 -42.581271 
L 231.283361 -42.621815 
L 233.258307 -42.667405 
L 235.233254 -43.272527 
L 237.208201 -42.952389 
L 239.183148 -43.04799 
L 241.158094 -43.012309 
L 241.158094 -58.822685 
L 241.158094 -58.822685 
L 239.183148 -58.563611 
L 237.208201 -58.133326 
L 235.233254 -58.242724 
L 233.258307 -57.561737 
L 231.283361 -57.377471 
L 229.308414 -57.441696 
L 227.333467 -57.332692 
L 225.35852 -56.941827 
L 223.383574 -56.331676 
L 221.408627 -56.690559 
L 219.43368 -56.187412 
L 217.458733 -56.680511 
L 215.483787 -56.28091 
L 213.50884 -55.421411 
L 211.533893 -56.192156 
L 209.558946 -55.711986 
L 207.584 -56.459605 
L 205.609053 -55.509002 
L 203.634106 -55.510859 
L 201.659159 -55.577159 
L 199.684212 -55.35488 
L 197.709266 -55.518533 
L 195.734319 -55.653254 
L 193.759372 -55.195903 
L 191.784425 -55.376657 
L 189.809479 -55.534769 
L 187.834532 -54.71605 
L 185.859585 -55.276996 
L 183.884638 -54.876968 
L 181.909692 -55.049201 
L 179.934745 -55.579428 
L 177.959798 -54.981479 
L 175.984851 -55.646838 
L 174.009905 -54.736173 
L 172.034958 -54.846136 
L 170.060011 -54.640554 
L 168.085064 -54.587832 
L 166.110118 -55.338109 
L 164.135171 -54.270397 
L 162.160224 -54.468579 
L 160.185277 -54.105884 
L 158.21033 -55.217192 
L 156.235384 -54.117098 
L 154.260437 -54.753591 
L 152.28549 -54.27994 
L 150.310543 -53.760092 
L 148.335597 -53.800041 
L 146.36065 -54.03389 
L 144.385703 -53.829652 
L 142.410756 -53.812878 
L 140.43581 -51.643324 
L 138.460863 -52.265283 
L 136.485916 -52.031326 
L 134.510969 -52.51242 
L 132.536023 -51.654761 
L 130.561076 -50.294152 
L 128.586129 -49.336879 
L 126.611182 -50.230097 
L 124.636235 -49.54083 
L 122.661289 -49.837476 
L 120.686342 -49.601857 
L 118.711395 -47.823903 
L 116.736448 -48.072937 
L 114.761502 -48.045773 
L 112.786555 -48.123555 
L 110.811608 -46.758135 
L 108.836661 -47.272238 
L 106.861715 -46.375348 
L 104.886768 -46.431635 
L 102.911821 -45.853002 
L 100.936874 -45.965248 
L 98.961928 -45.483708 
L 96.986981 -45.21855 
L 95.012034 -45.265169 
L 93.037087 -44.959806 
L 91.062141 -44.673439 
L 89.087194 -44.631013 
L 87.112247 -43.910682 
L 85.1373 -43.837838 
L 83.162353 -43.733335 
L 81.187407 -43.610329 
L 79.21246 -43.486453 
L 77.237513 -42.508802 
L 75.262566 -41.91169 
L 73.28762 -41.812074 
L 71.312673 -41.672464 
L 69.337726 -41.651231 
L 67.362779 -41.626112 
L 65.387833 -40.358424 
L 63.412886 -40.184505 
L 61.437939 -40.21176 
L 59.462992 -37.079643 
L 57.488046 -37.108789 
L 55.513099 -37.086999 
L 53.538152 -37.062071 
L 51.563205 -37.116257 
L 49.588259 -37.067912 
L 47.613312 -37.103089 
L 45.638365 -35.274738 
z
" style="stroke: #003f5c; stroke-opacity: 0.2"/>
    </defs>
    <g clip-path="url(#pf4c677a4cf)">
     <use xlink:href="#m4744d28190" x="0" y="127.44" style="fill: #003f5c; fill-opacity: 0.2; stroke: #003f5c; stroke-opacity: 0.2"/>
    </g>
   </g>
   <g id="PolyCollection_2">
    <defs>
     <path id="maa997335a4" d="M 45.638365 -35.274738 
L 45.638365 -35.274738 
L 47.613312 -37.136941 
L 49.588259 -37.156098 
L 51.563205 -37.082337 
L 53.538152 -37.065509 
L 55.513099 -37.106176 
L 57.488046 -37.073181 
L 59.462992 -37.155012 
L 61.437939 -39.561224 
L 63.412886 -39.429369 
L 65.387833 -39.476468 
L 67.362779 -40.574682 
L 69.337726 -40.497985 
L 71.312673 -40.471186 
L 73.28762 -40.517914 
L 75.262566 -40.411019 
L 77.237513 -41.437873 
L 79.21246 -42.352464 
L 81.187407 -42.361848 
L 83.162353 -42.401624 
L 85.1373 -43.544499 
L 87.112247 -43.780606 
L 89.087194 -45.068209 
L 91.062141 -46.358547 
L 93.037087 -46.57902 
L 95.012034 -46.49365 
L 96.986981 -46.979815 
L 98.961928 -47.850736 
L 100.936874 -47.918485 
L 102.911821 -47.752203 
L 104.886768 -48.209139 
L 106.861715 -48.64096 
L 108.836661 -49.039668 
L 110.811608 -49.030419 
L 112.786555 -49.462499 
L 114.761502 -49.646156 
L 116.736448 -49.697493 
L 118.711395 -50.511714 
L 120.686342 -50.533622 
L 122.661289 -51.000283 
L 124.636235 -50.666763 
L 126.611182 -51.175749 
L 128.586129 -51.520943 
L 130.561076 -51.512138 
L 132.536023 -52.372468 
L 134.510969 -52.180262 
L 136.485916 -53.419044 
L 138.460863 -53.144776 
L 140.43581 -53.632891 
L 142.410756 -53.802251 
L 144.385703 -53.675866 
L 146.36065 -54.175578 
L 148.335597 -54.468003 
L 150.310543 -54.533152 
L 152.28549 -54.542776 
L 154.260437 -55.676289 
L 156.235384 -55.589963 
L 158.21033 -55.425614 
L 160.185277 -55.254189 
L 162.160224 -55.45296 
L 164.135171 -56.259938 
L 166.110118 -56.703433 
L 168.085064 -55.894226 
L 170.060011 -56.426807 
L 172.034958 -56.677742 
L 174.009905 -56.638964 
L 175.984851 -57.107304 
L 177.959798 -56.874459 
L 179.934745 -57.293641 
L 181.909692 -57.544744 
L 183.884638 -58.005623 
L 185.859585 -57.55874 
L 187.834532 -58.248121 
L 189.809479 -58.706508 
L 191.784425 -58.188306 
L 193.759372 -58.068237 
L 195.734319 -58.830562 
L 197.709266 -59.347461 
L 199.684212 -59.479039 
L 201.659159 -58.993546 
L 203.634106 -60.074643 
L 205.609053 -59.120956 
L 207.584 -59.587115 
L 209.558946 -59.969065 
L 211.533893 -60.222941 
L 213.50884 -60.479674 
L 215.483787 -60.555931 
L 217.458733 -61.005374 
L 219.43368 -60.527691 
L 221.408627 -61.224534 
L 223.383574 -60.864399 
L 225.35852 -61.537351 
L 227.333467 -61.965305 
L 229.308414 -61.86641 
L 231.283361 -62.041051 
L 233.258307 -61.875958 
L 235.233254 -62.89216 
L 237.208201 -62.893775 
L 239.183148 -63.289369 
L 241.158094 -63.589152 
L 241.158094 -78.352514 
L 241.158094 -78.352514 
L 239.183148 -78.26777 
L 237.208201 -77.860442 
L 235.233254 -77.581616 
L 233.258307 -77.561078 
L 231.283361 -77.120251 
L 229.308414 -76.54935 
L 227.333467 -76.995084 
L 225.35852 -76.301834 
L 223.383574 -76.10369 
L 221.408627 -75.650945 
L 219.43368 -75.922861 
L 217.458733 -75.130385 
L 215.483787 -75.089771 
L 213.50884 -74.939546 
L 211.533893 -74.532502 
L 209.558946 -74.242723 
L 207.584 -74.158195 
L 205.609053 -74.004166 
L 203.634106 -73.897152 
L 201.659159 -74.279873 
L 199.684212 -74.071836 
L 197.709266 -73.356121 
L 195.734319 -74.044388 
L 193.759372 -73.018735 
L 191.784425 -72.683888 
L 189.809479 -72.718461 
L 187.834532 -72.219417 
L 185.859585 -72.913033 
L 183.884638 -71.676157 
L 181.909692 -71.345213 
L 179.934745 -71.981931 
L 177.959798 -70.910445 
L 175.984851 -70.593246 
L 174.009905 -70.195004 
L 172.034958 -71.14071 
L 170.060011 -70.157488 
L 168.085064 -70.039746 
L 166.110118 -69.807954 
L 164.135171 -69.378848 
L 162.160224 -69.710513 
L 160.185277 -69.086513 
L 158.21033 -69.562808 
L 156.235384 -68.66136 
L 154.260437 -68.789457 
L 152.28549 -68.673673 
L 150.310543 -68.108663 
L 148.335597 -68.655733 
L 146.36065 -67.834075 
L 144.385703 -67.066604 
L 142.410756 -66.880837 
L 140.43581 -67.12774 
L 138.460863 -66.788798 
L 136.485916 -66.537623 
L 134.510969 -64.554832 
L 132.536023 -65.661542 
L 130.561076 -64.928732 
L 128.586129 -63.743639 
L 126.611182 -64.238947 
L 124.636235 -63.581439 
L 122.661289 -63.182919 
L 120.686342 -62.431858 
L 118.711395 -61.817576 
L 116.736448 -61.060325 
L 114.761502 -61.44908 
L 112.786555 -61.471601 
L 110.811608 -60.970153 
L 108.836661 -61.351596 
L 106.861715 -59.645069 
L 104.886768 -58.85904 
L 102.911821 -59.135351 
L 100.936874 -58.840129 
L 98.961928 -58.476489 
L 96.986981 -57.510468 
L 95.012034 -56.331784 
L 93.037087 -56.396995 
L 91.062141 -55.809838 
L 89.087194 -54.465237 
L 87.112247 -51.403064 
L 85.1373 -51.181268 
L 83.162353 -49.126011 
L 81.187407 -48.699289 
L 79.21246 -48.747018 
L 77.237513 -47.156037 
L 75.262566 -45.973221 
L 73.28762 -45.63302 
L 71.312673 -45.72684 
L 69.337726 -45.985797 
L 67.362779 -45.620647 
L 65.387833 -44.150089 
L 63.412886 -43.916405 
L 61.437939 -44.034034 
L 59.462992 -39.329847 
L 57.488046 -39.371994 
L 55.513099 -39.374249 
L 53.538152 -39.364183 
L 51.563205 -39.341611 
L 49.588259 -39.432087 
L 47.613312 -39.403004 
L 45.638365 -35.274738 
z
" style="stroke: #ffa600; stroke-opacity: 0.2"/>
    </defs>
    <g clip-path="url(#pf4c677a4cf)">
     <use xlink:href="#maa997335a4" x="0" y="127.44" style="fill: #ffa600; fill-opacity: 0.2; stroke: #ffa600; stroke-opacity: 0.2"/>
    </g>
   </g>
   <g id="PolyCollection_3">
    <defs>
     <path id="mecbe7652bd" d="M 45.638365 -35.274738 
L 45.638365 -35.274738 
L 47.613312 -37.993698 
L 49.588259 -38.005604 
L 51.563205 -37.917511 
L 53.538152 -37.886684 
L 55.513099 -38.050073 
L 57.488046 -37.92304 
L 59.462992 -37.92464 
L 61.437939 -41.673474 
L 63.412886 -41.487666 
L 65.387833 -41.638146 
L 67.362779 -43.135901 
L 69.337726 -42.842462 
L 71.312673 -42.998758 
L 73.28762 -43.199225 
L 75.262566 -43.045829 
L 77.237513 -44.509235 
L 79.21246 -46.062271 
L 81.187407 -45.956267 
L 83.162353 -46.099467 
L 85.1373 -47.770366 
L 87.112247 -48.692734 
L 89.087194 -53.300749 
L 91.062141 -54.799994 
L 93.037087 -55.716353 
L 95.012034 -55.614781 
L 96.986981 -56.306632 
L 98.961928 -57.727159 
L 100.936874 -58.855396 
L 102.911821 -58.231722 
L 104.886768 -58.141126 
L 106.861715 -59.652858 
L 108.836661 -60.996113 
L 110.811608 -61.285773 
L 112.786555 -61.148157 
L 114.761502 -61.243567 
L 116.736448 -60.694972 
L 118.711395 -61.709925 
L 120.686342 -62.049532 
L 122.661289 -62.075831 
L 124.636235 -63.285395 
L 126.611182 -63.802611 
L 128.586129 -63.777738 
L 130.561076 -65.144727 
L 132.536023 -65.127607 
L 134.510969 -65.897282 
L 136.485916 -66.58275 
L 138.460863 -67.09946 
L 140.43581 -66.797492 
L 142.410756 -67.371827 
L 144.385703 -68.956913 
L 146.36065 -68.81659 
L 148.335597 -68.582388 
L 150.310543 -69.007499 
L 152.28549 -70.514435 
L 154.260437 -69.865376 
L 156.235384 -69.645584 
L 158.21033 -69.87166 
L 160.185277 -70.199545 
L 162.160224 -69.973336 
L 164.135171 -70.477368 
L 166.110118 -70.506881 
L 168.085064 -70.475933 
L 170.060011 -70.483492 
L 172.034958 -71.755194 
L 174.009905 -72.19002 
L 175.984851 -72.019666 
L 177.959798 -71.070384 
L 179.934745 -72.761505 
L 181.909692 -72.369652 
L 183.884638 -72.66356 
L 185.859585 -73.868783 
L 187.834532 -73.53387 
L 189.809479 -73.0193 
L 191.784425 -73.980129 
L 193.759372 -72.912761 
L 195.734319 -74.415896 
L 197.709266 -72.68686 
L 199.684212 -74.544441 
L 201.659159 -73.857271 
L 203.634106 -74.593637 
L 205.609053 -75.002923 
L 207.584 -75.49904 
L 209.558946 -74.174694 
L 211.533893 -75.016871 
L 213.50884 -75.213668 
L 215.483787 -74.909925 
L 217.458733 -74.764494 
L 219.43368 -76.659855 
L 221.408627 -76.34146 
L 223.383574 -76.38354 
L 225.35852 -76.337625 
L 227.333467 -77.065532 
L 229.308414 -76.186055 
L 231.283361 -76.931878 
L 233.258307 -75.912289 
L 235.233254 -76.808127 
L 237.208201 -76.599424 
L 239.183148 -77.046821 
L 241.158094 -76.715418 
L 241.158094 -104.927199 
L 241.158094 -104.927199 
L 239.183148 -103.869739 
L 237.208201 -103.999041 
L 235.233254 -103.555271 
L 233.258307 -104.000637 
L 231.283361 -102.687188 
L 229.308414 -102.937299 
L 227.333467 -102.781337 
L 225.35852 -102.352153 
L 223.383574 -101.519554 
L 221.408627 -101.396405 
L 219.43368 -102.028912 
L 217.458733 -102.114804 
L 215.483787 -101.01506 
L 213.50884 -100.977801 
L 211.533893 -101.271631 
L 209.558946 -100.464047 
L 207.584 -100.440888 
L 205.609053 -99.584141 
L 203.634106 -100.129362 
L 201.659159 -99.277035 
L 199.684212 -99.165642 
L 197.709266 -98.961764 
L 195.734319 -98.805129 
L 193.759372 -98.778838 
L 191.784425 -98.638966 
L 189.809479 -97.840812 
L 187.834532 -97.636389 
L 185.859585 -97.071666 
L 183.884638 -97.255472 
L 181.909692 -97.30627 
L 179.934745 -96.19565 
L 177.959798 -96.425486 
L 175.984851 -95.790558 
L 174.009905 -95.456617 
L 172.034958 -94.22012 
L 170.060011 -94.119817 
L 168.085064 -93.854425 
L 166.110118 -94.092078 
L 164.135171 -93.233917 
L 162.160224 -92.756509 
L 160.185277 -92.202431 
L 158.21033 -92.468168 
L 156.235384 -91.467002 
L 154.260437 -90.867325 
L 152.28549 -90.834093 
L 150.310543 -90.87569 
L 148.335597 -90.434794 
L 146.36065 -89.604884 
L 144.385703 -89.290118 
L 142.410756 -88.880394 
L 140.43581 -88.006934 
L 138.460863 -88.07381 
L 136.485916 -86.856866 
L 134.510969 -86.086139 
L 132.536023 -85.787458 
L 130.561076 -84.626075 
L 128.586129 -83.89215 
L 126.611182 -82.733301 
L 124.636235 -81.521447 
L 122.661289 -80.83384 
L 120.686342 -80.168343 
L 118.711395 -79.406968 
L 116.736448 -78.965831 
L 114.761502 -79.247556 
L 112.786555 -79.198929 
L 110.811608 -77.935041 
L 108.836661 -77.98477 
L 106.861715 -77.248381 
L 104.886768 -75.287331 
L 102.911821 -74.896226 
L 100.936874 -75.534205 
L 98.961928 -74.193416 
L 96.986981 -72.745089 
L 95.012034 -71.27815 
L 93.037087 -71.328604 
L 91.062141 -70.721886 
L 89.087194 -66.754352 
L 87.112247 -60.153919 
L 85.1373 -59.022787 
L 83.162353 -56.198426 
L 81.187407 -56.159635 
L 79.21246 -56.037554 
L 77.237513 -53.28334 
L 75.262566 -50.544218 
L 73.28762 -50.257025 
L 71.312673 -50.350541 
L 69.337726 -50.621322 
L 67.362779 -50.329618 
L 65.387833 -47.379886 
L 63.412886 -47.697524 
L 61.437939 -47.461184 
L 59.462992 -40.790071 
L 57.488046 -40.665825 
L 55.513099 -40.775996 
L 53.538152 -40.718379 
L 51.563205 -40.758732 
L 49.588259 -40.845737 
L 47.613312 -40.693694 
L 45.638365 -35.274738 
z
" style="stroke: #bc5090; stroke-opacity: 0.2"/>
    </defs>
    <g clip-path="url(#pf4c677a4cf)">
     <use xlink:href="#mecbe7652bd" x="0" y="127.44" style="fill: #bc5090; fill-opacity: 0.2; stroke: #bc5090; stroke-opacity: 0.2"/>
    </g>
   </g>
   <g id="matplotlib.axis_1">
    <g id="xtick_1">
     <g id="line2d_1">
      <defs>
       <path id="m76357ff014" d="M 0 0 
L 0 -3.5 
" style="stroke: #000000; stroke-width: 0.8"/>
      </defs>
      <g>
       <use xlink:href="#m76357ff014" x="45.638365" y="95.647885" style="stroke: #000000; stroke-width: 0.8"/>
      </g>
     </g>
     <g id="text_1">
      <!-- 0.0 -->
      <g transform="translate(36.891646 107.506166) scale(0.11 -0.11)">
       <defs>
        <path id="DejaVuSans-30" d="M 2034 4250 
Q 1547 4250 1301 3770 
Q 1056 3291 1056 2328 
Q 1056 1369 1301 889 
Q 1547 409 2034 409 
Q 2525 409 2770 889 
Q 3016 1369 3016 2328 
Q 3016 3291 2770 3770 
Q 2525 4250 2034 4250 
z
M 2034 4750 
Q 2819 4750 3233 4129 
Q 3647 3509 3647 2328 
Q 3647 1150 3233 529 
Q 2819 -91 2034 -91 
Q 1250 -91 836 529 
Q 422 1150 422 2328 
Q 422 3509 836 4129 
Q 1250 4750 2034 4750 
z
" transform="scale(0.015625)"/>
        <path id="DejaVuSans-2e" d="M 684 794 
L 1344 794 
L 1344 0 
L 684 0 
L 684 794 
z
" transform="scale(0.015625)"/>
       </defs>
       <use xlink:href="#DejaVuSans-30"/>
       <use xlink:href="#DejaVuSans-2e" x="63.623047"/>
       <use xlink:href="#DejaVuSans-30" x="95.410156"/>
      </g>
     </g>
    </g>
    <g id="xtick_2">
     <g id="line2d_2">
      <g>
       <use xlink:href="#m76357ff014" x="85.1373" y="95.647885" style="stroke: #000000; stroke-width: 0.8"/>
      </g>
     </g>
     <g id="text_2">
      <!-- 0.2 -->
      <g transform="translate(76.390581 107.506166) scale(0.11 -0.11)">
       <defs>
        <path id="DejaVuSans-32" d="M 1228 531 
L 3431 531 
L 3431 0 
L 469 0 
L 469 531 
Q 828 903 1448 1529 
Q 2069 2156 2228 2338 
Q 2531 2678 2651 2914 
Q 2772 3150 2772 3378 
Q 2772 3750 2511 3984 
Q 2250 4219 1831 4219 
Q 1534 4219 1204 4116 
Q 875 4013 500 3803 
L 500 4441 
Q 881 4594 1212 4672 
Q 1544 4750 1819 4750 
Q 2544 4750 2975 4387 
Q 3406 4025 3406 3419 
Q 3406 3131 3298 2873 
Q 3191 2616 2906 2266 
Q 2828 2175 2409 1742 
Q 1991 1309 1228 531 
z
" transform="scale(0.015625)"/>
       </defs>
       <use xlink:href="#DejaVuSans-30"/>
       <use xlink:href="#DejaVuSans-2e" x="63.623047"/>
       <use xlink:href="#DejaVuSans-32" x="95.410156"/>
      </g>
     </g>
    </g>
    <g id="xtick_3">
     <g id="line2d_3">
      <g>
       <use xlink:href="#m76357ff014" x="124.636235" y="95.647885" style="stroke: #000000; stroke-width: 0.8"/>
      </g>
     </g>
     <g id="text_3">
      <!-- 0.4 -->
      <g transform="translate(115.889517 107.506166) scale(0.11 -0.11)">
       <defs>
        <path id="DejaVuSans-34" d="M 2419 4116 
L 825 1625 
L 2419 1625 
L 2419 4116 
z
M 2253 4666 
L 3047 4666 
L 3047 1625 
L 3713 1625 
L 3713 1100 
L 3047 1100 
L 3047 0 
L 2419 0 
L 2419 1100 
L 313 1100 
L 313 1709 
L 2253 4666 
z
" transform="scale(0.015625)"/>
       </defs>
       <use xlink:href="#DejaVuSans-30"/>
       <use xlink:href="#DejaVuSans-2e" x="63.623047"/>
       <use xlink:href="#DejaVuSans-34" x="95.410156"/>
      </g>
     </g>
    </g>
    <g id="xtick_4">
     <g id="line2d_4">
      <g>
       <use xlink:href="#m76357ff014" x="164.135171" y="95.647885" style="stroke: #000000; stroke-width: 0.8"/>
      </g>
     </g>
     <g id="text_4">
      <!-- 0.6 -->
      <g transform="translate(155.388452 107.506166) scale(0.11 -0.11)">
       <defs>
        <path id="DejaVuSans-36" d="M 2113 2584 
Q 1688 2584 1439 2293 
Q 1191 2003 1191 1497 
Q 1191 994 1439 701 
Q 1688 409 2113 409 
Q 2538 409 2786 701 
Q 3034 994 3034 1497 
Q 3034 2003 2786 2293 
Q 2538 2584 2113 2584 
z
M 3366 4563 
L 3366 3988 
Q 3128 4100 2886 4159 
Q 2644 4219 2406 4219 
Q 1781 4219 1451 3797 
Q 1122 3375 1075 2522 
Q 1259 2794 1537 2939 
Q 1816 3084 2150 3084 
Q 2853 3084 3261 2657 
Q 3669 2231 3669 1497 
Q 3669 778 3244 343 
Q 2819 -91 2113 -91 
Q 1303 -91 875 529 
Q 447 1150 447 2328 
Q 447 3434 972 4092 
Q 1497 4750 2381 4750 
Q 2619 4750 2861 4703 
Q 3103 4656 3366 4563 
z
" transform="scale(0.015625)"/>
       </defs>
       <use xlink:href="#DejaVuSans-30"/>
       <use xlink:href="#DejaVuSans-2e" x="63.623047"/>
       <use xlink:href="#DejaVuSans-36" x="95.410156"/>
      </g>
     </g>
    </g>
    <g id="xtick_5">
     <g id="line2d_5">
      <g>
       <use xlink:href="#m76357ff014" x="203.634106" y="95.647885" style="stroke: #000000; stroke-width: 0.8"/>
      </g>
     </g>
     <g id="text_5">
      <!-- 0.8 -->
      <g transform="translate(194.887387 107.506166) scale(0.11 -0.11)">
       <defs>
        <path id="DejaVuSans-38" d="M 2034 2216 
Q 1584 2216 1326 1975 
Q 1069 1734 1069 1313 
Q 1069 891 1326 650 
Q 1584 409 2034 409 
Q 2484 409 2743 651 
Q 3003 894 3003 1313 
Q 3003 1734 2745 1975 
Q 2488 2216 2034 2216 
z
M 1403 2484 
Q 997 2584 770 2862 
Q 544 3141 544 3541 
Q 544 4100 942 4425 
Q 1341 4750 2034 4750 
Q 2731 4750 3128 4425 
Q 3525 4100 3525 3541 
Q 3525 3141 3298 2862 
Q 3072 2584 2669 2484 
Q 3125 2378 3379 2068 
Q 3634 1759 3634 1313 
Q 3634 634 3220 271 
Q 2806 -91 2034 -91 
Q 1263 -91 848 271 
Q 434 634 434 1313 
Q 434 1759 690 2068 
Q 947 2378 1403 2484 
z
M 1172 3481 
Q 1172 3119 1398 2916 
Q 1625 2713 2034 2713 
Q 2441 2713 2670 2916 
Q 2900 3119 2900 3481 
Q 2900 3844 2670 4047 
Q 2441 4250 2034 4250 
Q 1625 4250 1398 4047 
Q 1172 3844 1172 3481 
z
" transform="scale(0.015625)"/>
       </defs>
       <use xlink:href="#DejaVuSans-30"/>
       <use xlink:href="#DejaVuSans-2e" x="63.623047"/>
       <use xlink:href="#DejaVuSans-38" x="95.410156"/>
      </g>
     </g>
    </g>
    <g id="xtick_6">
     <g id="line2d_6">
      <g>
       <use xlink:href="#m76357ff014" x="243.133041" y="95.647885" style="stroke: #000000; stroke-width: 0.8"/>
      </g>
     </g>
     <g id="text_6">
      <!-- 1.0 -->
      <g transform="translate(234.386322 107.506166) scale(0.11 -0.11)">
       <defs>
        <path id="DejaVuSans-31" d="M 794 531 
L 1825 531 
L 1825 4091 
L 703 3866 
L 703 4441 
L 1819 4666 
L 2450 4666 
L 2450 531 
L 3481 531 
L 3481 0 
L 794 0 
L 794 531 
z
" transform="scale(0.015625)"/>
       </defs>
       <use xlink:href="#DejaVuSans-31"/>
       <use xlink:href="#DejaVuSans-2e" x="63.623047"/>
       <use xlink:href="#DejaVuSans-30" x="95.410156"/>
      </g>
     </g>
    </g>
    <g id="text_7">
     <!-- Distance [µm] -->
     <g transform="translate(105.440547 122.152104) scale(0.11 -0.11)">
      <defs>
       <path id="DejaVuSans-44" d="M 1259 4147 
L 1259 519 
L 2022 519 
Q 2988 519 3436 956 
Q 3884 1394 3884 2338 
Q 3884 3275 3436 3711 
Q 2988 4147 2022 4147 
L 1259 4147 
z
M 628 4666 
L 1925 4666 
Q 3281 4666 3915 4102 
Q 4550 3538 4550 2338 
Q 4550 1131 3912 565 
Q 3275 0 1925 0 
L 628 0 
L 628 4666 
z
" transform="scale(0.015625)"/>
       <path id="DejaVuSans-69" d="M 603 3500 
L 1178 3500 
L 1178 0 
L 603 0 
L 603 3500 
z
M 603 4863 
L 1178 4863 
L 1178 4134 
L 603 4134 
L 603 4863 
z
" transform="scale(0.015625)"/>
       <path id="DejaVuSans-73" d="M 2834 3397 
L 2834 2853 
Q 2591 2978 2328 3040 
Q 2066 3103 1784 3103 
Q 1356 3103 1142 2972 
Q 928 2841 928 2578 
Q 928 2378 1081 2264 
Q 1234 2150 1697 2047 
L 1894 2003 
Q 2506 1872 2764 1633 
Q 3022 1394 3022 966 
Q 3022 478 2636 193 
Q 2250 -91 1575 -91 
Q 1294 -91 989 -36 
Q 684 19 347 128 
L 347 722 
Q 666 556 975 473 
Q 1284 391 1588 391 
Q 1994 391 2212 530 
Q 2431 669 2431 922 
Q 2431 1156 2273 1281 
Q 2116 1406 1581 1522 
L 1381 1569 
Q 847 1681 609 1914 
Q 372 2147 372 2553 
Q 372 3047 722 3315 
Q 1072 3584 1716 3584 
Q 2034 3584 2315 3537 
Q 2597 3491 2834 3397 
z
" transform="scale(0.015625)"/>
       <path id="DejaVuSans-74" d="M 1172 4494 
L 1172 3500 
L 2356 3500 
L 2356 3053 
L 1172 3053 
L 1172 1153 
Q 1172 725 1289 603 
Q 1406 481 1766 481 
L 2356 481 
L 2356 0 
L 1766 0 
Q 1100 0 847 248 
Q 594 497 594 1153 
L 594 3053 
L 172 3053 
L 172 3500 
L 594 3500 
L 594 4494 
L 1172 4494 
z
" transform="scale(0.015625)"/>
       <path id="DejaVuSans-61" d="M 2194 1759 
Q 1497 1759 1228 1600 
Q 959 1441 959 1056 
Q 959 750 1161 570 
Q 1363 391 1709 391 
Q 2188 391 2477 730 
Q 2766 1069 2766 1631 
L 2766 1759 
L 2194 1759 
z
M 3341 1997 
L 3341 0 
L 2766 0 
L 2766 531 
Q 2569 213 2275 61 
Q 1981 -91 1556 -91 
Q 1019 -91 701 211 
Q 384 513 384 1019 
Q 384 1609 779 1909 
Q 1175 2209 1959 2209 
L 2766 2209 
L 2766 2266 
Q 2766 2663 2505 2880 
Q 2244 3097 1772 3097 
Q 1472 3097 1187 3025 
Q 903 2953 641 2809 
L 641 3341 
Q 956 3463 1253 3523 
Q 1550 3584 1831 3584 
Q 2591 3584 2966 3190 
Q 3341 2797 3341 1997 
z
" transform="scale(0.015625)"/>
       <path id="DejaVuSans-6e" d="M 3513 2113 
L 3513 0 
L 2938 0 
L 2938 2094 
Q 2938 2591 2744 2837 
Q 2550 3084 2163 3084 
Q 1697 3084 1428 2787 
Q 1159 2491 1159 1978 
L 1159 0 
L 581 0 
L 581 3500 
L 1159 3500 
L 1159 2956 
Q 1366 3272 1645 3428 
Q 1925 3584 2291 3584 
Q 2894 3584 3203 3211 
Q 3513 2838 3513 2113 
z
" transform="scale(0.015625)"/>
       <path id="DejaVuSans-63" d="M 3122 3366 
L 3122 2828 
Q 2878 2963 2633 3030 
Q 2388 3097 2138 3097 
Q 1578 3097 1268 2742 
Q 959 2388 959 1747 
Q 959 1106 1268 751 
Q 1578 397 2138 397 
Q 2388 397 2633 464 
Q 2878 531 3122 666 
L 3122 134 
Q 2881 22 2623 -34 
Q 2366 -91 2075 -91 
Q 1284 -91 818 406 
Q 353 903 353 1747 
Q 353 2603 823 3093 
Q 1294 3584 2113 3584 
Q 2378 3584 2631 3529 
Q 2884 3475 3122 3366 
z
" transform="scale(0.015625)"/>
       <path id="DejaVuSans-65" d="M 3597 1894 
L 3597 1613 
L 953 1613 
Q 991 1019 1311 708 
Q 1631 397 2203 397 
Q 2534 397 2845 478 
Q 3156 559 3463 722 
L 3463 178 
Q 3153 47 2828 -22 
Q 2503 -91 2169 -91 
Q 1331 -91 842 396 
Q 353 884 353 1716 
Q 353 2575 817 3079 
Q 1281 3584 2069 3584 
Q 2775 3584 3186 3129 
Q 3597 2675 3597 1894 
z
M 3022 2063 
Q 3016 2534 2758 2815 
Q 2500 3097 2075 3097 
Q 1594 3097 1305 2825 
Q 1016 2553 972 2059 
L 3022 2063 
z
" transform="scale(0.015625)"/>
       <path id="DejaVuSans-20" transform="scale(0.015625)"/>
       <path id="DejaVuSans-5b" d="M 550 4863 
L 1875 4863 
L 1875 4416 
L 1125 4416 
L 1125 -397 
L 1875 -397 
L 1875 -844 
L 550 -844 
L 550 4863 
z
" transform="scale(0.015625)"/>
       <path id="DejaVuSans-b5" d="M 544 -1331 
L 544 3500 
L 1119 3500 
L 1119 1325 
Q 1119 872 1334 640 
Q 1550 409 1972 409 
Q 2434 409 2667 671 
Q 2900 934 2900 1459 
L 2900 3500 
L 3475 3500 
L 3475 806 
Q 3475 619 3529 530 
Q 3584 441 3700 441 
Q 3728 441 3778 458 
Q 3828 475 3916 513 
L 3916 50 
Q 3788 -22 3673 -56 
Q 3559 -91 3450 -91 
Q 3234 -91 3106 31 
Q 2978 153 2931 403 
Q 2775 156 2548 32 
Q 2322 -91 2016 -91 
Q 1697 -91 1473 31 
Q 1250 153 1119 397 
L 1119 -1331 
L 544 -1331 
z
" transform="scale(0.015625)"/>
       <path id="DejaVuSans-6d" d="M 3328 2828 
Q 3544 3216 3844 3400 
Q 4144 3584 4550 3584 
Q 5097 3584 5394 3201 
Q 5691 2819 5691 2113 
L 5691 0 
L 5113 0 
L 5113 2094 
Q 5113 2597 4934 2840 
Q 4756 3084 4391 3084 
Q 3944 3084 3684 2787 
Q 3425 2491 3425 1978 
L 3425 0 
L 2847 0 
L 2847 2094 
Q 2847 2600 2669 2842 
Q 2491 3084 2119 3084 
Q 1678 3084 1418 2786 
Q 1159 2488 1159 1978 
L 1159 0 
L 581 0 
L 581 3500 
L 1159 3500 
L 1159 2956 
Q 1356 3278 1631 3431 
Q 1906 3584 2284 3584 
Q 2666 3584 2933 3390 
Q 3200 3197 3328 2828 
z
" transform="scale(0.015625)"/>
       <path id="DejaVuSans-5d" d="M 1947 4863 
L 1947 -844 
L 622 -844 
L 622 -397 
L 1369 -397 
L 1369 4416 
L 622 4416 
L 622 4863 
L 1947 4863 
z
" transform="scale(0.015625)"/>
      </defs>
      <use xlink:href="#DejaVuSans-44"/>
      <use xlink:href="#DejaVuSans-69" x="77.001953"/>
      <use xlink:href="#DejaVuSans-73" x="104.785156"/>
      <use xlink:href="#DejaVuSans-74" x="156.884766"/>
      <use xlink:href="#DejaVuSans-61" x="196.09375"/>
      <use xlink:href="#DejaVuSans-6e" x="257.373047"/>
      <use xlink:href="#DejaVuSans-63" x="320.751953"/>
      <use xlink:href="#DejaVuSans-65" x="375.732422"/>
      <use xlink:href="#DejaVuSans-20" x="437.255859"/>
      <use xlink:href="#DejaVuSans-5b" x="469.042969"/>
      <use xlink:href="#DejaVuSans-b5" x="508.056641"/>
      <use xlink:href="#DejaVuSans-6d" x="571.679688"/>
      <use xlink:href="#DejaVuSans-5d" x="669.091797"/>
     </g>
    </g>
   </g>
   <g id="matplotlib.axis_2">
    <g id="ytick_1">
     <g id="line2d_7">
      <defs>
       <path id="m180d6e5247" d="M 0 0 
L 3.5 0 
" style="stroke: #000000; stroke-width: 0.8"/>
      </defs>
      <g>
       <use xlink:href="#m180d6e5247" x="45.638365" y="92.165262" style="stroke: #000000; stroke-width: 0.8"/>
      </g>
     </g>
     <g id="text_8">
      <!-- 0.00 -->
      <g transform="translate(17.646178 96.344403) scale(0.11 -0.11)">
       <use xlink:href="#DejaVuSans-30"/>
       <use xlink:href="#DejaVuSans-2e" x="63.623047"/>
       <use xlink:href="#DejaVuSans-30" x="95.410156"/>
       <use xlink:href="#DejaVuSans-30" x="159.033203"/>
      </g>
     </g>
    </g>
    <g id="ytick_2">
     <g id="line2d_8">
      <g>
       <use xlink:href="#m180d6e5247" x="45.638365" y="65.965745" style="stroke: #000000; stroke-width: 0.8"/>
      </g>
     </g>
     <g id="text_9">
      <!-- 0.25 -->
      <g transform="translate(17.646178 70.144886) scale(0.11 -0.11)">
       <defs>
        <path id="DejaVuSans-35" d="M 691 4666 
L 3169 4666 
L 3169 4134 
L 1269 4134 
L 1269 2991 
Q 1406 3038 1543 3061 
Q 1681 3084 1819 3084 
Q 2600 3084 3056 2656 
Q 3513 2228 3513 1497 
Q 3513 744 3044 326 
Q 2575 -91 1722 -91 
Q 1428 -91 1123 -41 
Q 819 9 494 109 
L 494 744 
Q 775 591 1075 516 
Q 1375 441 1709 441 
Q 2250 441 2565 725 
Q 2881 1009 2881 1497 
Q 2881 1984 2565 2268 
Q 2250 2553 1709 2553 
Q 1456 2553 1204 2497 
Q 953 2441 691 2322 
L 691 4666 
z
" transform="scale(0.015625)"/>
       </defs>
       <use xlink:href="#DejaVuSans-30"/>
       <use xlink:href="#DejaVuSans-2e" x="63.623047"/>
       <use xlink:href="#DejaVuSans-32" x="95.410156"/>
       <use xlink:href="#DejaVuSans-35" x="159.033203"/>
      </g>
     </g>
    </g>
    <g id="ytick_3">
     <g id="line2d_9">
      <g>
       <use xlink:href="#m180d6e5247" x="45.638365" y="39.766229" style="stroke: #000000; stroke-width: 0.8"/>
      </g>
     </g>
     <g id="text_10">
      <!-- 0.50 -->
      <g transform="translate(17.646178 43.945369) scale(0.11 -0.11)">
       <use xlink:href="#DejaVuSans-30"/>
       <use xlink:href="#DejaVuSans-2e" x="63.623047"/>
       <use xlink:href="#DejaVuSans-35" x="95.410156"/>
       <use xlink:href="#DejaVuSans-30" x="159.033203"/>
      </g>
     </g>
    </g>
    <g id="ytick_4">
     <g id="line2d_10">
      <defs>
       <path id="m34581fb261" d="M 0 0 
L 2 0 
" style="stroke: #000000; stroke-width: 0.6"/>
      </defs>
      <g>
       <use xlink:href="#m34581fb261" x="45.638365" y="86.925359" style="stroke: #000000; stroke-width: 0.6"/>
      </g>
     </g>
    </g>
    <g id="ytick_5">
     <g id="line2d_11">
      <g>
       <use xlink:href="#m34581fb261" x="45.638365" y="81.685455" style="stroke: #000000; stroke-width: 0.6"/>
      </g>
     </g>
    </g>
    <g id="ytick_6">
     <g id="line2d_12">
      <g>
       <use xlink:href="#m34581fb261" x="45.638365" y="76.445552" style="stroke: #000000; stroke-width: 0.6"/>
      </g>
     </g>
    </g>
    <g id="ytick_7">
     <g id="line2d_13">
      <g>
       <use xlink:href="#m34581fb261" x="45.638365" y="71.205649" style="stroke: #000000; stroke-width: 0.6"/>
      </g>
     </g>
    </g>
    <g id="ytick_8">
     <g id="line2d_14">
      <g>
       <use xlink:href="#m34581fb261" x="45.638365" y="60.725842" style="stroke: #000000; stroke-width: 0.6"/>
      </g>
     </g>
    </g>
    <g id="ytick_9">
     <g id="line2d_15">
      <g>
       <use xlink:href="#m34581fb261" x="45.638365" y="55.485939" style="stroke: #000000; stroke-width: 0.6"/>
      </g>
     </g>
    </g>
    <g id="ytick_10">
     <g id="line2d_16">
      <g>
       <use xlink:href="#m34581fb261" x="45.638365" y="50.246035" style="stroke: #000000; stroke-width: 0.6"/>
      </g>
     </g>
    </g>
    <g id="ytick_11">
     <g id="line2d_17">
      <g>
       <use xlink:href="#m34581fb261" x="45.638365" y="45.006132" style="stroke: #000000; stroke-width: 0.6"/>
      </g>
     </g>
    </g>
    <g id="ytick_12">
     <g id="line2d_18">
      <g>
       <use xlink:href="#m34581fb261" x="45.638365" y="34.526326" style="stroke: #000000; stroke-width: 0.6"/>
      </g>
     </g>
    </g>
    <g id="ytick_13">
     <g id="line2d_19">
      <g>
       <use xlink:href="#m34581fb261" x="45.638365" y="29.286422" style="stroke: #000000; stroke-width: 0.6"/>
      </g>
     </g>
    </g>
    <g id="ytick_14">
     <g id="line2d_20">
      <g>
       <use xlink:href="#m34581fb261" x="45.638365" y="24.046519" style="stroke: #000000; stroke-width: 0.6"/>
      </g>
     </g>
    </g>
    <g id="text_11">
     <!-- Cumulative density -->
     <g transform="translate(11.358521 110.644344) rotate(-90) scale(0.11 -0.11)">
      <defs>
       <path id="DejaVuSans-43" d="M 4122 4306 
L 4122 3641 
Q 3803 3938 3442 4084 
Q 3081 4231 2675 4231 
Q 1875 4231 1450 3742 
Q 1025 3253 1025 2328 
Q 1025 1406 1450 917 
Q 1875 428 2675 428 
Q 3081 428 3442 575 
Q 3803 722 4122 1019 
L 4122 359 
Q 3791 134 3420 21 
Q 3050 -91 2638 -91 
Q 1578 -91 968 557 
Q 359 1206 359 2328 
Q 359 3453 968 4101 
Q 1578 4750 2638 4750 
Q 3056 4750 3426 4639 
Q 3797 4528 4122 4306 
z
" transform="scale(0.015625)"/>
       <path id="DejaVuSans-75" d="M 544 1381 
L 544 3500 
L 1119 3500 
L 1119 1403 
Q 1119 906 1312 657 
Q 1506 409 1894 409 
Q 2359 409 2629 706 
Q 2900 1003 2900 1516 
L 2900 3500 
L 3475 3500 
L 3475 0 
L 2900 0 
L 2900 538 
Q 2691 219 2414 64 
Q 2138 -91 1772 -91 
Q 1169 -91 856 284 
Q 544 659 544 1381 
z
M 1991 3584 
L 1991 3584 
z
" transform="scale(0.015625)"/>
       <path id="DejaVuSans-6c" d="M 603 4863 
L 1178 4863 
L 1178 0 
L 603 0 
L 603 4863 
z
" transform="scale(0.015625)"/>
       <path id="DejaVuSans-76" d="M 191 3500 
L 800 3500 
L 1894 563 
L 2988 3500 
L 3597 3500 
L 2284 0 
L 1503 0 
L 191 3500 
z
" transform="scale(0.015625)"/>
       <path id="DejaVuSans-64" d="M 2906 2969 
L 2906 4863 
L 3481 4863 
L 3481 0 
L 2906 0 
L 2906 525 
Q 2725 213 2448 61 
Q 2172 -91 1784 -91 
Q 1150 -91 751 415 
Q 353 922 353 1747 
Q 353 2572 751 3078 
Q 1150 3584 1784 3584 
Q 2172 3584 2448 3432 
Q 2725 3281 2906 2969 
z
M 947 1747 
Q 947 1113 1208 752 
Q 1469 391 1925 391 
Q 2381 391 2643 752 
Q 2906 1113 2906 1747 
Q 2906 2381 2643 2742 
Q 2381 3103 1925 3103 
Q 1469 3103 1208 2742 
Q 947 2381 947 1747 
z
" transform="scale(0.015625)"/>
       <path id="DejaVuSans-79" d="M 2059 -325 
Q 1816 -950 1584 -1140 
Q 1353 -1331 966 -1331 
L 506 -1331 
L 506 -850 
L 844 -850 
Q 1081 -850 1212 -737 
Q 1344 -625 1503 -206 
L 1606 56 
L 191 3500 
L 800 3500 
L 1894 763 
L 2988 3500 
L 3597 3500 
L 2059 -325 
z
" transform="scale(0.015625)"/>
      </defs>
      <use xlink:href="#DejaVuSans-43"/>
      <use xlink:href="#DejaVuSans-75" x="69.824219"/>
      <use xlink:href="#DejaVuSans-6d" x="133.203125"/>
      <use xlink:href="#DejaVuSans-75" x="230.615234"/>
      <use xlink:href="#DejaVuSans-6c" x="293.994141"/>
      <use xlink:href="#DejaVuSans-61" x="321.777344"/>
      <use xlink:href="#DejaVuSans-74" x="383.056641"/>
      <use xlink:href="#DejaVuSans-69" x="422.265625"/>
      <use xlink:href="#DejaVuSans-76" x="450.048828"/>
      <use xlink:href="#DejaVuSans-65" x="509.228516"/>
      <use xlink:href="#DejaVuSans-20" x="570.751953"/>
      <use xlink:href="#DejaVuSans-64" x="602.539062"/>
      <use xlink:href="#DejaVuSans-65" x="666.015625"/>
      <use xlink:href="#DejaVuSans-6e" x="727.539062"/>
      <use xlink:href="#DejaVuSans-73" x="790.917969"/>
      <use xlink:href="#DejaVuSans-69" x="843.017578"/>
      <use xlink:href="#DejaVuSans-74" x="870.800781"/>
      <use xlink:href="#DejaVuSans-79" x="910.009766"/>
     </g>
    </g>
   </g>
   <g id="line2d_21">
    <path d="M 45.638365 92.165262 
L 47.613312 91.041484 
L 49.588259 91.041484 
L 51.563205 91.041484 
L 53.538152 91.041484 
L 55.513099 91.041484 
L 57.488046 91.041484 
L 59.462992 91.041484 
L 61.437939 88.994522 
L 63.412886 88.994522 
L 65.387833 88.994522 
L 67.362779 88.16363 
L 69.337726 88.16363 
L 71.312673 88.16363 
L 73.28762 88.16363 
L 75.262566 88.16363 
L 77.237513 87.607723 
L 79.21246 86.988164 
L 81.187407 86.988164 
L 83.162353 86.988164 
L 85.1373 86.848566 
L 87.112247 86.785129 
L 89.087194 86.508034 
L 91.062141 86.204977 
L 93.037087 85.9816 
L 95.012034 85.9816 
L 96.986981 85.943015 
L 98.961928 85.725156 
L 100.936874 85.064641 
L 102.911821 85.064641 
L 104.886768 85.026056 
L 106.861715 84.945554 
L 108.836661 84.744023 
L 110.811608 84.744023 
L 112.786555 83.990815 
L 114.761502 83.990815 
L 116.736448 83.990815 
L 118.711395 83.95424 
L 120.686342 83.132834 
L 122.661289 83.057134 
L 124.636235 83.032751 
L 126.611182 82.917338 
L 128.586129 82.885886 
L 130.561076 82.608456 
L 132.536023 81.946773 
L 134.510969 81.946773 
L 136.485916 81.768331 
L 138.460863 81.768331 
L 140.43581 81.688907 
L 142.410756 81.086991 
L 144.385703 80.943537 
L 146.36065 80.919154 
L 148.335597 80.889684 
L 150.310543 80.862163 
L 152.28549 80.782739 
L 154.260437 80.641232 
L 156.235384 80.641232 
L 158.21033 80.525299 
L 160.185277 80.487646 
L 162.160224 80.328004 
L 164.135171 80.328004 
L 166.110118 80.15546 
L 168.085064 80.15546 
L 170.060011 80.119472 
L 172.034958 80.095089 
L 174.009905 80.000302 
L 175.984851 79.970118 
L 177.959798 79.970118 
L 179.934745 79.936781 
L 181.909692 79.936781 
L 183.884638 79.868217 
L 185.859585 79.856025 
L 187.834532 79.83488 
L 189.809479 79.7867 
L 191.784425 79.774508 
L 193.759372 79.727901 
L 195.734319 79.654787 
L 197.709266 79.557371 
L 199.684212 79.536225 
L 201.659159 79.484322 
L 203.634106 79.371925 
L 205.609053 79.256071 
L 207.584 79.134321 
L 209.558946 79.134321 
L 211.533893 79.109938 
L 213.50884 78.988158 
L 215.483787 78.802837 
L 217.458733 78.737378 
L 219.43368 78.695086 
L 221.408627 78.540471 
L 223.383574 78.540471 
L 225.35852 78.324341 
L 227.333467 78.254445 
L 229.308414 78.171664 
L 231.283361 78.076703 
L 233.258307 77.979079 
L 235.233254 77.789982 
L 237.208201 77.633385 
L 239.183148 77.597397 
L 241.158094 77.557685 
" clip-path="url(#pf4c677a4cf)" style="fill: none; stroke: #003f5c; stroke-width: 1.5; stroke-linecap: square"/>
   </g>
   <g id="line2d_22">
    <path d="M 45.638365 92.165262 
L 47.613312 89.265014 
L 49.588259 89.265014 
L 51.563205 89.265014 
L 53.538152 89.265014 
L 55.513099 89.265014 
L 57.488046 89.265014 
L 59.462992 89.265014 
L 61.437939 85.791217 
L 63.412886 85.791217 
L 65.387833 85.791217 
L 67.362779 84.443955 
L 69.337726 84.443955 
L 71.312673 84.443955 
L 73.28762 84.443955 
L 75.262566 84.443955 
L 77.237513 83.320083 
L 79.21246 81.945728 
L 81.187407 81.945728 
L 83.162353 81.945728 
L 85.1373 80.351189 
L 87.112247 80.051118 
L 89.087194 77.819983 
L 91.062141 76.662652 
L 93.037087 76.078589 
L 95.012034 76.078589 
L 96.986981 75.328584 
L 98.961928 74.789176 
L 100.936874 74.34707 
L 102.911821 74.34707 
L 104.886768 74.178512 
L 106.861715 73.677917 
L 108.836661 72.794019 
L 110.811608 72.794019 
L 112.786555 72.298302 
L 114.761502 72.298302 
L 116.736448 72.298302 
L 118.711395 71.821365 
L 120.686342 71.291383 
L 122.661289 71.024692 
L 124.636235 70.523512 
L 126.611182 70.010124 
L 128.586129 69.874646 
L 130.561076 69.368647 
L 132.536023 68.784625 
L 134.510969 68.784625 
L 136.485916 67.895393 
L 138.460863 67.715705 
L 140.43581 67.477807 
L 142.410756 67.116912 
L 144.385703 66.981498 
L 146.36065 66.644356 
L 148.335597 66.377827 
L 150.310543 66.160723 
L 152.28549 66.032521 
L 154.260437 65.630684 
L 156.235384 65.621202 
L 158.21033 65.387047 
L 160.185277 65.241405 
L 162.160224 65.017362 
L 164.135171 64.960474 
L 166.110118 64.583681 
L 168.085064 64.563134 
L 170.060011 64.243601 
L 172.034958 64.016478 
L 174.009905 63.716412 
L 175.984851 63.562513 
L 177.959798 63.499949 
L 179.934745 63.138606 
L 181.909692 62.966412 
L 183.884638 62.714572 
L 185.859585 62.633992 
L 187.834532 62.331406 
L 189.809479 62.160648 
L 191.784425 62.11708 
L 193.759372 61.902892 
L 195.734319 61.570281 
L 197.709266 61.305426 
L 199.684212 61.095892 
L 201.659159 60.941254 
L 203.634106 60.866357 
L 205.609053 60.667159 
L 207.584 60.478753 
L 209.558946 60.388068 
L 211.533893 60.087878 
L 213.50884 59.883963 
L 215.483787 59.432389 
L 217.458733 59.279921 
L 219.43368 59.159311 
L 221.408627 58.992176 
L 223.383574 58.97392 
L 225.35852 58.425652 
L 227.333467 58.13158 
L 229.308414 57.918503 
L 231.283361 57.668412 
L 233.258307 57.551776 
L 235.233254 57.398242 
L 237.208201 57.123399 
L 239.183148 56.854507 
L 241.158094 56.570566 
" clip-path="url(#pf4c677a4cf)" style="fill: none; stroke: #ffa600; stroke-width: 1.5; stroke-linecap: square"/>
   </g>
   <g id="line2d_23">
    <path d="M 45.638365 92.165262 
L 47.613312 88.082509 
L 49.588259 88.082509 
L 51.563205 88.082509 
L 53.538152 88.082509 
L 55.513099 88.082509 
L 57.488046 88.082509 
L 59.462992 88.082509 
L 61.437939 82.964879 
L 63.412886 82.964879 
L 65.387833 82.964879 
L 67.362779 80.637858 
L 69.337726 80.637858 
L 71.312673 80.637858 
L 73.28762 80.637858 
L 75.262566 80.637858 
L 77.237513 78.631296 
L 79.21246 76.487223 
L 81.187407 76.487223 
L 83.162353 76.487223 
L 85.1373 73.835225 
L 87.112247 72.762605 
L 89.087194 67.397556 
L 91.062141 64.525376 
L 93.037087 63.792227 
L 95.012034 63.792227 
L 96.986981 62.388245 
L 98.961928 60.870862 
L 100.936874 60.394376 
L 102.911821 60.394376 
L 104.886768 59.877066 
L 106.861715 58.975776 
L 108.836661 57.712515 
L 110.811608 57.712515 
L 112.786555 57.0108 
L 114.761502 57.0108 
L 116.736448 57.0108 
L 118.711395 56.58381 
L 120.686342 55.839014 
L 122.661289 55.618651 
L 124.636235 54.896502 
L 126.611182 53.712164 
L 128.586129 53.200908 
L 130.561076 52.124398 
L 132.536023 50.960611 
L 134.510969 50.960611 
L 136.485916 49.740258 
L 138.460863 49.491856 
L 140.43581 49.265772 
L 142.410756 48.449441 
L 144.385703 47.976352 
L 146.36065 47.588283 
L 148.335597 47.259283 
L 150.310543 46.67183 
L 152.28549 46.626629 
L 154.260437 46.024489 
L 156.235384 46.008073 
L 158.21033 45.599132 
L 160.185277 45.448611 
L 162.160224 45.215434 
L 164.135171 45.133241 
L 166.110118 44.529396 
L 168.085064 44.359704 
L 170.060011 43.84222 
L 172.034958 43.566804 
L 174.009905 43.040475 
L 175.984851 42.870146 
L 177.959798 42.779893 
L 179.934745 42.292487 
L 181.909692 42.130368 
L 183.884638 41.828661 
L 185.859585 41.658176 
L 187.834532 41.316822 
L 189.809479 41.005119 
L 191.784425 40.933041 
L 193.759372 40.635002 
L 195.734319 40.283923 
L 197.709266 40.147699 
L 199.684212 39.936541 
L 201.659159 39.731885 
L 203.634106 39.578137 
L 205.609053 39.408285 
L 207.584 39.052778 
L 209.558946 38.906166 
L 211.533893 38.592039 
L 213.50884 38.335698 
L 215.483787 37.954822 
L 217.458733 37.845315 
L 219.43368 37.723453 
L 221.408627 37.507546 
L 223.383574 37.46993 
L 225.35852 37.105352 
L 227.333467 36.901363 
L 229.308414 36.712618 
L 231.283361 36.418963 
L 233.258307 36.236633 
L 235.233254 36.048749 
L 237.208201 35.829603 
L 239.183148 35.683279 
L 241.158094 35.617323 
" clip-path="url(#pf4c677a4cf)" style="fill: none; stroke: #bc5090; stroke-width: 1.5; stroke-linecap: square"/>
   </g>
   <g id="line2d_24"/>
   <g id="line2d_25"/>
   <g id="line2d_26"/>
   <g id="line2d_27">
    <path d="M 95.012034 95.647885 
L 95.012034 19.030178 
" clip-path="url(#pf4c677a4cf)" style="fill: none; stroke-dasharray: 5.55,2.4; stroke-dashoffset: 0; stroke: #000000; stroke-width: 1.5"/>
   </g>
   <g id="patch_3">
    <path d="M 45.638365 95.647885 
L 45.638365 19.030177 
" style="fill: none; stroke: #000000; stroke-width: 0.8; stroke-linejoin: miter; stroke-linecap: square"/>
   </g>
   <g id="patch_4">
    <path d="M 45.638365 95.647885 
L 243.133041 95.647885 
" style="fill: none; stroke: #000000; stroke-width: 0.8; stroke-linejoin: miter; stroke-linecap: square"/>
   </g>
   <g id="text_12">
    <!-- Nearest Neighbour Distances -->
    <g transform="translate(47.869984 13.030178) scale(0.132 -0.132)">
     <defs>
      <path id="DejaVuSans-4e" d="M 628 4666 
L 1478 4666 
L 3547 763 
L 3547 4666 
L 4159 4666 
L 4159 0 
L 3309 0 
L 1241 3903 
L 1241 0 
L 628 0 
L 628 4666 
z
" transform="scale(0.015625)"/>
      <path id="DejaVuSans-72" d="M 2631 2963 
Q 2534 3019 2420 3045 
Q 2306 3072 2169 3072 
Q 1681 3072 1420 2755 
Q 1159 2438 1159 1844 
L 1159 0 
L 581 0 
L 581 3500 
L 1159 3500 
L 1159 2956 
Q 1341 3275 1631 3429 
Q 1922 3584 2338 3584 
Q 2397 3584 2469 3576 
Q 2541 3569 2628 3553 
L 2631 2963 
z
" transform="scale(0.015625)"/>
      <path id="DejaVuSans-67" d="M 2906 1791 
Q 2906 2416 2648 2759 
Q 2391 3103 1925 3103 
Q 1463 3103 1205 2759 
Q 947 2416 947 1791 
Q 947 1169 1205 825 
Q 1463 481 1925 481 
Q 2391 481 2648 825 
Q 2906 1169 2906 1791 
z
M 3481 434 
Q 3481 -459 3084 -895 
Q 2688 -1331 1869 -1331 
Q 1566 -1331 1297 -1286 
Q 1028 -1241 775 -1147 
L 775 -588 
Q 1028 -725 1275 -790 
Q 1522 -856 1778 -856 
Q 2344 -856 2625 -561 
Q 2906 -266 2906 331 
L 2906 616 
Q 2728 306 2450 153 
Q 2172 0 1784 0 
Q 1141 0 747 490 
Q 353 981 353 1791 
Q 353 2603 747 3093 
Q 1141 3584 1784 3584 
Q 2172 3584 2450 3431 
Q 2728 3278 2906 2969 
L 2906 3500 
L 3481 3500 
L 3481 434 
z
" transform="scale(0.015625)"/>
      <path id="DejaVuSans-68" d="M 3513 2113 
L 3513 0 
L 2938 0 
L 2938 2094 
Q 2938 2591 2744 2837 
Q 2550 3084 2163 3084 
Q 1697 3084 1428 2787 
Q 1159 2491 1159 1978 
L 1159 0 
L 581 0 
L 581 4863 
L 1159 4863 
L 1159 2956 
Q 1366 3272 1645 3428 
Q 1925 3584 2291 3584 
Q 2894 3584 3203 3211 
Q 3513 2838 3513 2113 
z
" transform="scale(0.015625)"/>
      <path id="DejaVuSans-62" d="M 3116 1747 
Q 3116 2381 2855 2742 
Q 2594 3103 2138 3103 
Q 1681 3103 1420 2742 
Q 1159 2381 1159 1747 
Q 1159 1113 1420 752 
Q 1681 391 2138 391 
Q 2594 391 2855 752 
Q 3116 1113 3116 1747 
z
M 1159 2969 
Q 1341 3281 1617 3432 
Q 1894 3584 2278 3584 
Q 2916 3584 3314 3078 
Q 3713 2572 3713 1747 
Q 3713 922 3314 415 
Q 2916 -91 2278 -91 
Q 1894 -91 1617 61 
Q 1341 213 1159 525 
L 1159 0 
L 581 0 
L 581 4863 
L 1159 4863 
L 1159 2969 
z
" transform="scale(0.015625)"/>
      <path id="DejaVuSans-6f" d="M 1959 3097 
Q 1497 3097 1228 2736 
Q 959 2375 959 1747 
Q 959 1119 1226 758 
Q 1494 397 1959 397 
Q 2419 397 2687 759 
Q 2956 1122 2956 1747 
Q 2956 2369 2687 2733 
Q 2419 3097 1959 3097 
z
M 1959 3584 
Q 2709 3584 3137 3096 
Q 3566 2609 3566 1747 
Q 3566 888 3137 398 
Q 2709 -91 1959 -91 
Q 1206 -91 779 398 
Q 353 888 353 1747 
Q 353 2609 779 3096 
Q 1206 3584 1959 3584 
z
" transform="scale(0.015625)"/>
     </defs>
     <use xlink:href="#DejaVuSans-4e"/>
     <use xlink:href="#DejaVuSans-65" x="74.804688"/>
     <use xlink:href="#DejaVuSans-61" x="136.328125"/>
     <use xlink:href="#DejaVuSans-72" x="197.607422"/>
     <use xlink:href="#DejaVuSans-65" x="236.470703"/>
     <use xlink:href="#DejaVuSans-73" x="297.994141"/>
     <use xlink:href="#DejaVuSans-74" x="350.09375"/>
     <use xlink:href="#DejaVuSans-20" x="389.302734"/>
     <use xlink:href="#DejaVuSans-4e" x="421.089844"/>
     <use xlink:href="#DejaVuSans-65" x="495.894531"/>
     <use xlink:href="#DejaVuSans-69" x="557.417969"/>
     <use xlink:href="#DejaVuSans-67" x="585.201172"/>
     <use xlink:href="#DejaVuSans-68" x="648.677734"/>
     <use xlink:href="#DejaVuSans-62" x="712.056641"/>
     <use xlink:href="#DejaVuSans-6f" x="775.533203"/>
     <use xlink:href="#DejaVuSans-75" x="836.714844"/>
     <use xlink:href="#DejaVuSans-72" x="900.09375"/>
     <use xlink:href="#DejaVuSans-20" x="941.207031"/>
     <use xlink:href="#DejaVuSans-44" x="972.994141"/>
     <use xlink:href="#DejaVuSans-69" x="1049.996094"/>
     <use xlink:href="#DejaVuSans-73" x="1077.779297"/>
     <use xlink:href="#DejaVuSans-74" x="1129.878906"/>
     <use xlink:href="#DejaVuSans-61" x="1169.087891"/>
     <use xlink:href="#DejaVuSans-6e" x="1230.367188"/>
     <use xlink:href="#DejaVuSans-63" x="1293.746094"/>
     <use xlink:href="#DejaVuSans-65" x="1348.726562"/>
     <use xlink:href="#DejaVuSans-73" x="1410.25"/>
    </g>
   </g>
  </g>
 </g>
 <defs>
  <clipPath id="pf4c677a4cf">
   <rect x="45.638365" y="19.030178" width="197.494676" height="76.617707"/>
  </clipPath>
 </defs>
</svg>
