<?xml version="1.0" encoding="utf-8" standalone="no"?>
<!DOCTYPE svg PUBLIC "-//W3C//DTD SVG 1.1//EN"
  "http://www.w3.org/Graphics/SVG/1.1/DTD/svg11.dtd">
<svg xmlns:xlink="http://www.w3.org/1999/xlink" width="136.8pt" height="126pt" viewBox="0 0 136.8 126" xmlns="http://www.w3.org/2000/svg" version="1.1">
 <metadata>
  <rdf:RDF xmlns:dc="http://purl.org/dc/elements/1.1/" xmlns:cc="http://creativecommons.org/ns#" xmlns:rdf="http://www.w3.org/1999/02/22-rdf-syntax-ns#">
   <cc:Work>
    <dc:type rdf:resource="http://purl.org/dc/dcmitype/StillImage"/>
    <dc:date>2024-08-18T10:13:30.852568</dc:date>
    <dc:format>image/svg+xml</dc:format>
    <dc:creator>
     <cc:Agent>
      <dc:title>Matplotlib v3.8.4, https://matplotlib.org/</dc:title>
     </cc:Agent>
    </dc:creator>
   </cc:Work>
  </rdf:RDF>
 </metadata>
 <defs>
  <style type="text/css">*{stroke-linejoin: round; stroke-linecap: butt}</style>
 </defs>
 <g id="figure_1">
  <g id="patch_1">
   <path d="M 0 126 
L 136.8 126 
L 136.8 0 
L 0 0 
z
" style="fill: #ffffff"/>
  </g>
  <g id="axes_1">
   <g id="patch_2">
    <path d="M 21.046177 104.953823 
L 133.79976 104.953823 
L 133.79976 3.00024 
L 21.046177 3.00024 
z
" style="fill: #ffffff"/>
   </g>
   <g id="PolyCollection_1"/>
   <g id="PolyCollection_2"/>
   <g id="PolyCollection_3"/>
   <g id="matplotlib.axis_1">
    <g id="xtick_1">
     <g id="line2d_1">
      <defs>
       <path id="m5427cd09bc" d="M 0 0 
L 0 -3.5 
" style="stroke: #000000; stroke-width: 0.8"/>
      </defs>
      <g>
       <use xlink:href="#m5427cd09bc" x="26.17134" y="104.953823" style="stroke: #000000; stroke-width: 0.8"/>
      </g>
     </g>
    </g>
    <g id="xtick_2">
     <g id="line2d_2">
      <g>
       <use xlink:href="#m5427cd09bc" x="77.422969" y="104.953823" style="stroke: #000000; stroke-width: 0.8"/>
      </g>
     </g>
    </g>
    <g id="xtick_3">
     <g id="line2d_3">
      <g>
       <use xlink:href="#m5427cd09bc" x="128.674597" y="104.953823" style="stroke: #000000; stroke-width: 0.8"/>
      </g>
     </g>
    </g>
    <g id="xtick_4">
     <g id="line2d_4">
      <defs>
       <path id="m55a3e0f8f6" d="M 0 0 
L 0 -2 
" style="stroke: #000000; stroke-width: 0.6"/>
      </defs>
      <g>
       <use xlink:href="#m55a3e0f8f6" x="36.421666" y="104.953823" style="stroke: #000000; stroke-width: 0.6"/>
      </g>
     </g>
    </g>
    <g id="xtick_5">
     <g id="line2d_5">
      <g>
       <use xlink:href="#m55a3e0f8f6" x="46.671992" y="104.953823" style="stroke: #000000; stroke-width: 0.6"/>
      </g>
     </g>
    </g>
    <g id="xtick_6">
     <g id="line2d_6">
      <g>
       <use xlink:href="#m55a3e0f8f6" x="56.922317" y="104.953823" style="stroke: #000000; stroke-width: 0.6"/>
      </g>
     </g>
    </g>
    <g id="xtick_7">
     <g id="line2d_7">
      <g>
       <use xlink:href="#m55a3e0f8f6" x="67.172643" y="104.953823" style="stroke: #000000; stroke-width: 0.6"/>
      </g>
     </g>
    </g>
    <g id="xtick_8">
     <g id="line2d_8">
      <g>
       <use xlink:href="#m55a3e0f8f6" x="87.673294" y="104.953823" style="stroke: #000000; stroke-width: 0.6"/>
      </g>
     </g>
    </g>
    <g id="xtick_9">
     <g id="line2d_9">
      <g>
       <use xlink:href="#m55a3e0f8f6" x="97.92362" y="104.953823" style="stroke: #000000; stroke-width: 0.6"/>
      </g>
     </g>
    </g>
    <g id="xtick_10">
     <g id="line2d_10">
      <g>
       <use xlink:href="#m55a3e0f8f6" x="108.173946" y="104.953823" style="stroke: #000000; stroke-width: 0.6"/>
      </g>
     </g>
    </g>
    <g id="xtick_11">
     <g id="line2d_11">
      <g>
       <use xlink:href="#m55a3e0f8f6" x="118.424271" y="104.953823" style="stroke: #000000; stroke-width: 0.6"/>
      </g>
     </g>
    </g>
    <g id="text_1">
     <!-- r -->
     <g transform="translate(75.161953 120.712104) scale(0.11 -0.11)">
      <defs>
       <path id="DejaVuSans-72" d="M 2631 2963 
Q 2534 3019 2420 3045 
Q 2306 3072 2169 3072 
Q 1681 3072 1420 2755 
Q 1159 2438 1159 1844 
L 1159 0 
L 581 0 
L 581 3500 
L 1159 3500 
L 1159 2956 
Q 1341 3275 1631 3429 
Q 1922 3584 2338 3584 
Q 2397 3584 2469 3576 
Q 2541 3569 2628 3553 
L 2631 2963 
z
" transform="scale(0.015625)"/>
      </defs>
      <use xlink:href="#DejaVuSans-72"/>
     </g>
    </g>
   </g>
   <g id="matplotlib.axis_2">
    <g id="ytick_1">
     <g id="line2d_12">
      <defs>
       <path id="mf12a1123fd" d="M 0 0 
L 3.5 0 
" style="stroke: #000000; stroke-width: 0.8"/>
      </defs>
      <g>
       <use xlink:href="#mf12a1123fd" x="21.046177" y="100.319569" style="stroke: #000000; stroke-width: 0.8"/>
      </g>
     </g>
    </g>
    <g id="ytick_2">
     <g id="line2d_13">
      <g>
       <use xlink:href="#mf12a1123fd" x="21.046177" y="53.977031" style="stroke: #000000; stroke-width: 0.8"/>
      </g>
     </g>
    </g>
    <g id="ytick_3">
     <g id="line2d_14">
      <g>
       <use xlink:href="#mf12a1123fd" x="21.046177" y="7.634494" style="stroke: #000000; stroke-width: 0.8"/>
      </g>
     </g>
    </g>
    <g id="ytick_4">
     <g id="line2d_15">
      <defs>
       <path id="me872f3b22d" d="M 0 0 
L 2 0 
" style="stroke: #000000; stroke-width: 0.6"/>
      </defs>
      <g>
       <use xlink:href="#me872f3b22d" x="21.046177" y="91.051061" style="stroke: #000000; stroke-width: 0.6"/>
      </g>
     </g>
    </g>
    <g id="ytick_5">
     <g id="line2d_16">
      <g>
       <use xlink:href="#me872f3b22d" x="21.046177" y="81.782554" style="stroke: #000000; stroke-width: 0.6"/>
      </g>
     </g>
    </g>
    <g id="ytick_6">
     <g id="line2d_17">
      <g>
       <use xlink:href="#me872f3b22d" x="21.046177" y="72.514046" style="stroke: #000000; stroke-width: 0.6"/>
      </g>
     </g>
    </g>
    <g id="ytick_7">
     <g id="line2d_18">
      <g>
       <use xlink:href="#me872f3b22d" x="21.046177" y="63.245539" style="stroke: #000000; stroke-width: 0.6"/>
      </g>
     </g>
    </g>
    <g id="ytick_8">
     <g id="line2d_19">
      <g>
       <use xlink:href="#me872f3b22d" x="21.046177" y="44.708524" style="stroke: #000000; stroke-width: 0.6"/>
      </g>
     </g>
    </g>
    <g id="ytick_9">
     <g id="line2d_20">
      <g>
       <use xlink:href="#me872f3b22d" x="21.046177" y="35.440016" style="stroke: #000000; stroke-width: 0.6"/>
      </g>
     </g>
    </g>
    <g id="ytick_10">
     <g id="line2d_21">
      <g>
       <use xlink:href="#me872f3b22d" x="21.046177" y="26.171509" style="stroke: #000000; stroke-width: 0.6"/>
      </g>
     </g>
    </g>
    <g id="ytick_11">
     <g id="line2d_22">
      <g>
       <use xlink:href="#me872f3b22d" x="21.046177" y="16.903001" style="stroke: #000000; stroke-width: 0.6"/>
      </g>
     </g>
    </g>
    <g id="text_2">
     <!-- L(r) -->
     <g transform="translate(11.358521 63.594297) rotate(-90) scale(0.11 -0.11)">
      <defs>
       <path id="DejaVuSans-4c" d="M 628 4666 
L 1259 4666 
L 1259 531 
L 3531 531 
L 3531 0 
L 628 0 
L 628 4666 
z
" transform="scale(0.015625)"/>
       <path id="DejaVuSans-28" d="M 1984 4856 
Q 1566 4138 1362 3434 
Q 1159 2731 1159 2009 
Q 1159 1288 1364 580 
Q 1569 -128 1984 -844 
L 1484 -844 
Q 1016 -109 783 600 
Q 550 1309 550 2009 
Q 550 2706 781 3412 
Q 1013 4119 1484 4856 
L 1984 4856 
z
" transform="scale(0.015625)"/>
       <path id="DejaVuSans-29" d="M 513 4856 
L 1013 4856 
Q 1481 4119 1714 3412 
Q 1947 2706 1947 2009 
Q 1947 1309 1714 600 
Q 1481 -109 1013 -844 
L 513 -844 
Q 928 -128 1133 580 
Q 1338 1288 1338 2009 
Q 1338 2731 1133 3434 
Q 928 4138 513 4856 
z
" transform="scale(0.015625)"/>
      </defs>
      <use xlink:href="#DejaVuSans-4c"/>
      <use xlink:href="#DejaVuSans-28" x="55.712891"/>
      <use xlink:href="#DejaVuSans-72" x="94.726562"/>
      <use xlink:href="#DejaVuSans-29" x="135.839844"/>
     </g>
    </g>
   </g>
   <g id="line2d_23">
    <path d="M 26.17134 100.319569 
L 27.206727 99.383356 
L 28.242113 98.447143 
L 29.2775 97.51093 
L 30.312886 96.574717 
L 31.348273 95.638504 
L 32.383659 94.702291 
L 33.419045 93.766079 
L 34.454432 92.829866 
L 35.489818 91.893653 
L 36.525205 90.95744 
L 37.560591 90.021227 
L 38.595978 89.085014 
L 39.631364 88.148801 
L 40.66675 87.212588 
L 41.702137 86.276376 
L 42.737523 85.340163 
L 43.77291 84.40395 
L 44.808296 83.467737 
L 45.843683 82.531524 
L 46.879069 81.595311 
L 47.914455 80.659098 
L 48.949842 79.722885 
L 49.985228 78.786673 
L 51.020615 77.85046 
L 52.056001 76.914247 
L 53.091388 75.978034 
L 54.126774 75.041821 
L 55.16216 74.105608 
L 56.197547 73.169395 
L 57.232933 72.233182 
L 58.26832 71.29697 
L 59.303706 70.360757 
L 60.339093 69.424544 
L 61.374479 68.488331 
L 62.409865 67.552118 
L 63.445252 66.615905 
L 64.480638 65.679692 
L 65.516025 64.743479 
L 66.551411 63.807266 
L 67.586798 62.871054 
L 68.622184 61.934841 
L 69.657571 60.998628 
L 70.692957 60.062415 
L 71.728343 59.126202 
L 72.76373 58.189989 
L 73.799116 57.253776 
L 74.834503 56.317563 
L 75.869889 55.381351 
L 76.905276 54.445138 
L 77.940662 53.508925 
L 78.976048 52.572712 
L 80.011435 51.636499 
L 81.046821 50.700286 
L 82.082208 49.764073 
L 83.117594 48.82786 
L 84.152981 47.891648 
L 85.188367 46.955435 
L 86.223753 46.019222 
L 87.25914 45.083009 
L 88.294526 44.146796 
L 89.329913 43.210583 
L 90.365299 42.27437 
L 91.400686 41.338157 
L 92.436072 40.401945 
L 93.471458 39.465732 
L 94.506845 38.529519 
L 95.542231 37.593306 
L 96.577618 36.657093 
L 97.613004 35.72088 
L 98.648391 34.784667 
L 99.683777 33.848454 
L 100.719163 32.912241 
L 101.75455 31.976029 
L 102.789936 31.039816 
L 103.825323 30.103603 
L 104.860709 29.16739 
L 105.896096 28.231177 
L 106.931482 27.294964 
L 107.966869 26.358751 
L 109.002255 25.422538 
L 110.037641 24.486326 
L 111.073028 23.550113 
L 112.108414 22.6139 
L 113.143801 21.677687 
L 114.179187 20.741474 
L 115.214574 19.805261 
L 116.24996 18.869048 
L 117.285346 17.932835 
L 118.320733 16.996623 
L 119.356119 16.06041 
L 120.391506 15.124197 
L 121.426892 14.187984 
L 122.462279 13.251771 
L 123.497665 12.315558 
L 124.533051 11.379345 
L 125.568438 10.443132 
L 126.603824 9.50692 
L 127.639211 8.570707 
L 128.674597 7.634494 
" clip-path="url(#pa6ca05694b)" style="fill: none; stroke: #003f5c; stroke-width: 1.5; stroke-linecap: square"/>
   </g>
   <g id="line2d_24">
    <path d="M 26.17134 100.319569 
L 27.206727 91.004368 
L 28.242113 87.145886 
L 29.2775 84.185168 
L 30.312886 81.689168 
L 31.348273 79.490147 
L 32.383659 77.502081 
L 33.419045 75.673865 
L 34.454432 73.972203 
L 35.489818 72.373967 
L 36.525205 70.862318 
L 37.560591 69.424544 
L 38.595978 68.050768 
L 39.631364 66.733136 
L 40.66675 65.46528 
L 41.702137 64.241952 
L 42.737523 63.058767 
L 43.77291 61.912013 
L 44.808296 60.79852 
L 45.843683 59.715551 
L 46.879069 58.660726 
L 47.914455 57.631957 
L 48.949842 56.627405 
L 49.985228 55.645436 
L 51.020615 54.684592 
L 52.056001 53.743566 
L 53.091388 52.821179 
L 54.126774 51.916367 
L 55.16216 51.028161 
L 56.197547 50.155679 
L 57.232933 49.298114 
L 58.26832 48.454727 
L 59.303706 47.624837 
L 60.339093 46.807816 
L 61.374479 46.003083 
L 62.409865 45.210099 
L 63.445252 44.428366 
L 64.480638 43.657416 
L 65.516025 42.896816 
L 66.551411 42.14616 
L 67.586798 41.405068 
L 68.622184 40.673182 
L 69.657571 39.95017 
L 70.692957 39.235714 
L 71.728343 38.529519 
L 72.76373 37.831304 
L 73.799116 37.140805 
L 74.834503 36.457771 
L 75.869889 35.781966 
L 76.905276 35.113165 
L 77.940662 34.451154 
L 78.976048 33.795731 
L 80.011435 33.146702 
L 81.046821 32.503885 
L 82.082208 31.867104 
L 83.117594 31.236193 
L 84.152981 30.610991 
L 85.188367 29.991347 
L 86.223753 29.377115 
L 87.25914 28.768156 
L 88.294526 28.164336 
L 89.329913 27.565527 
L 90.365299 26.971606 
L 91.400686 26.382457 
L 92.436072 25.797965 
L 93.471458 25.218021 
L 94.506845 24.642522 
L 95.542231 24.071366 
L 96.577618 23.504457 
L 97.613004 22.941702 
L 98.648391 22.38301 
L 99.683777 21.828294 
L 100.719163 21.277471 
L 101.75455 20.730461 
L 102.789936 20.187184 
L 103.825323 19.647566 
L 104.860709 19.111533 
L 105.896096 18.579016 
L 106.931482 18.049945 
L 107.966869 17.524255 
L 109.002255 17.001882 
L 110.037641 16.482764 
L 111.073028 15.96684 
L 112.108414 15.454053 
L 113.143801 14.944346 
L 114.179187 14.437663 
L 115.214574 13.933953 
L 116.24996 13.433162 
L 117.285346 12.935242 
L 118.320733 12.440143 
L 119.356119 11.947817 
L 120.391506 11.458219 
L 121.426892 10.971304 
L 122.462279 10.487028 
L 123.497665 10.005349 
L 124.533051 9.526225 
L 125.568438 9.049616 
L 126.603824 8.575483 
L 127.639211 8.103788 
L 128.674597 7.634494 
" clip-path="url(#pa6ca05694b)" style="fill: none; stroke: #ffa600; stroke-width: 1.5; stroke-linecap: square"/>
   </g>
   <g id="line2d_25">
    <path d="M 26.17134 100.319569 
L 27.206727 100.310112 
L 28.242113 100.281742 
L 29.2775 100.234458 
L 30.312886 100.168262 
L 31.348273 100.083151 
L 32.383659 99.979128 
L 33.419045 99.856191 
L 34.454432 99.71434 
L 35.489818 99.553576 
L 36.525205 99.373899 
L 37.560591 99.175309 
L 38.595978 98.957805 
L 39.631364 98.721387 
L 40.66675 98.466056 
L 41.702137 98.191812 
L 42.737523 97.898655 
L 43.77291 97.586584 
L 44.808296 97.255599 
L 45.843683 96.905702 
L 46.879069 96.53689 
L 47.914455 96.149166 
L 48.949842 95.742528 
L 49.985228 95.316977 
L 51.020615 94.872512 
L 52.056001 94.409134 
L 53.091388 93.926842 
L 54.126774 93.425638 
L 55.16216 92.905519 
L 56.197547 92.366488 
L 57.232933 91.808543 
L 58.26832 91.231684 
L 59.303706 90.635912 
L 60.339093 90.021227 
L 61.374479 89.387628 
L 62.409865 88.735116 
L 63.445252 88.063691 
L 64.480638 87.373352 
L 65.516025 86.6641 
L 66.551411 85.935935 
L 67.586798 85.188856 
L 68.622184 84.422863 
L 69.657571 83.637957 
L 70.692957 82.834138 
L 71.728343 82.011406 
L 72.76373 81.16976 
L 73.799116 80.309201 
L 74.834503 79.429728 
L 75.869889 78.531342 
L 76.905276 77.614042 
L 77.940662 76.677829 
L 78.976048 75.722703 
L 80.011435 74.748663 
L 81.046821 73.75571 
L 82.082208 72.743844 
L 83.117594 71.713064 
L 84.152981 70.663371 
L 85.188367 69.594764 
L 86.223753 68.507244 
L 87.25914 67.400811 
L 88.294526 66.275464 
L 89.329913 65.131204 
L 90.365299 63.96803 
L 91.400686 62.785943 
L 92.436072 61.584943 
L 93.471458 60.365029 
L 94.506845 59.126202 
L 95.542231 57.868462 
L 96.577618 56.591808 
L 97.613004 55.29624 
L 98.648391 53.98176 
L 99.683777 52.648365 
L 100.719163 51.296058 
L 101.75455 49.924837 
L 102.789936 48.534703 
L 103.825323 47.125655 
L 104.860709 45.697694 
L 105.896096 44.25082 
L 106.931482 42.785032 
L 107.966869 41.300331 
L 109.002255 39.796716 
L 110.037641 38.274188 
L 111.073028 36.732747 
L 112.108414 35.172392 
L 113.143801 33.593124 
L 114.179187 31.994942 
L 115.214574 30.377847 
L 116.24996 28.741839 
L 117.285346 27.086917 
L 118.320733 25.413082 
L 119.356119 23.720333 
L 120.391506 22.008671 
L 121.426892 20.278096 
L 122.462279 18.528607 
L 123.497665 16.760205 
L 124.533051 14.97289 
L 125.568438 13.166661 
L 126.603824 11.341518 
L 127.639211 9.497463 
L 128.674597 7.634494 
" clip-path="url(#pa6ca05694b)" style="fill: none; stroke: #bc5090; stroke-width: 1.5; stroke-linecap: square"/>
   </g>
   <g id="line2d_26"/>
   <g id="line2d_27"/>
   <g id="line2d_28"/>
   <g id="patch_3">
    <path d="M 21.046177 104.953823 
L 21.046177 3.00024 
" style="fill: none; stroke: #000000; stroke-width: 0.8; stroke-linejoin: miter; stroke-linecap: square"/>
   </g>
   <g id="patch_4">
    <path d="M 21.046177 104.953823 
L 133.79976 104.953823 
" style="fill: none; stroke: #000000; stroke-width: 0.8; stroke-linejoin: miter; stroke-linecap: square"/>
   </g>
  </g>
 </g>
 <defs>
  <clipPath id="pa6ca05694b">
   <rect x="21.046177" y="3.00024" width="112.753582" height="101.953582"/>
  </clipPath>
 </defs>
</svg>
