<?xml version="1.0" encoding="utf-8" standalone="no"?>
<!DOCTYPE svg PUBLIC "-//W3C//DTD SVG 1.1//EN"
  "http://www.w3.org/Graphics/SVG/1.1/DTD/svg11.dtd">
<svg xmlns:xlink="http://www.w3.org/1999/xlink" width="254.88pt" height="127.44pt" viewBox="0 0 254.88 127.44" xmlns="http://www.w3.org/2000/svg" version="1.1">
 <metadata>
  <rdf:RDF xmlns:dc="http://purl.org/dc/elements/1.1/" xmlns:cc="http://creativecommons.org/ns#" xmlns:rdf="http://www.w3.org/1999/02/22-rdf-syntax-ns#">
   <cc:Work>
    <dc:type rdf:resource="http://purl.org/dc/dcmitype/StillImage"/>
    <dc:date>2024-01-04T17:17:07.186241</dc:date>
    <dc:format>image/svg+xml</dc:format>
    <dc:creator>
     <cc:Agent>
      <dc:title>Matplotlib v3.8.2, https://matplotlib.org/</dc:title>
     </cc:Agent>
    </dc:creator>
   </cc:Work>
  </rdf:RDF>
 </metadata>
 <defs>
  <style type="text/css">*{stroke-linejoin: round; stroke-linecap: butt}</style>
 </defs>
 <g id="figure_1">
  <g id="patch_1">
   <path d="M 0 127.44 
L 254.88 127.44 
L 254.88 0 
L 0 0 
z
" style="fill: #ffffff"/>
  </g>
  <g id="axes_1">
   <g id="patch_2">
    <path d="M 38.639615 95.647885 
L 243.133041 95.647885 
L 243.133041 19.030178 
L 38.639615 19.030178 
z
" style="fill: #ffffff"/>
   </g>
   <g id="PolyCollection_1">
    <defs>
     <path id="mb7911361be" d="M 38.639615 -35.274738 
L 38.639615 -35.274738 
L 40.684549 -35.363386 
L 42.729484 -35.363386 
L 44.774418 -35.42012 
L 46.819352 -35.363386 
L 48.864286 -35.363386 
L 50.909221 -35.363386 
L 52.954155 -35.418702 
L 54.999089 -35.452033 
L 57.044023 -35.452033 
L 59.088958 -35.452033 
L 61.133892 -35.638194 
L 63.178826 -35.565502 
L 65.22376 -35.628391 
L 67.268695 -35.692712 
L 69.313629 -35.591824 
L 71.358563 -35.742518 
L 73.403497 -35.742798 
L 75.448432 -35.69411 
L 77.493366 -35.638194 
L 79.5383 -36.292413 
L 81.583235 -36.263745 
L 83.628169 -36.593784 
L 85.673103 -36.936246 
L 87.718037 -36.76256 
L 89.762972 -36.934751 
L 91.807906 -36.926175 
L 93.85284 -36.847396 
L 95.897774 -36.826851 
L 97.942709 -36.879581 
L 99.987643 -37.980361 
L 102.032577 -37.838165 
L 104.077511 -38.989653 
L 106.122446 -38.897865 
L 108.16738 -39.253824 
L 110.212314 -39.143131 
L 112.257248 -39.215454 
L 114.302183 -38.796018 
L 116.347117 -39.607373 
L 118.392051 -40.063849 
L 120.436985 -40.160354 
L 122.48192 -39.777011 
L 124.526854 -40.386952 
L 126.571788 -40.623146 
L 128.616723 -40.848692 
L 130.661657 -40.67427 
L 132.706591 -41.654994 
L 134.751525 -41.416509 
L 136.79646 -42.362862 
L 138.841394 -42.84772 
L 140.886328 -42.23839 
L 142.931262 -42.553342 
L 144.976197 -42.998736 
L 147.021131 -44.033716 
L 149.066065 -42.866769 
L 151.110999 -44.674638 
L 153.155934 -44.948627 
L 155.200868 -44.986685 
L 157.245802 -45.139955 
L 159.290736 -45.683558 
L 161.335671 -45.940816 
L 163.380605 -47.402666 
L 165.425539 -47.030244 
L 167.470474 -46.6707 
L 169.515408 -46.101995 
L 171.560342 -47.452319 
L 173.605276 -47.295741 
L 175.650211 -47.757532 
L 177.695145 -47.766762 
L 179.740079 -47.801897 
L 181.785013 -48.526448 
L 183.829948 -47.473395 
L 185.874882 -51.140046 
L 187.919816 -54.924548 
L 189.96475 -54.460892 
L 192.009685 -54.573145 
L 194.054619 -55.258244 
L 196.099553 -56.893432 
L 198.144487 -56.67842 
L 200.189422 -57.329672 
L 202.234356 -57.488189 
L 204.27929 -57.509499 
L 206.324225 -58.107586 
L 208.369159 -57.212791 
L 210.414093 -57.535134 
L 212.459027 -58.096833 
L 214.503962 -59.222068 
L 216.548896 -58.733021 
L 218.59383 -59.45045 
L 220.638764 -59.50058 
L 222.683699 -60.012197 
L 224.728633 -60.492407 
L 226.773567 -61.028488 
L 228.818501 -59.826954 
L 230.863436 -60.442662 
L 232.90837 -60.828828 
L 234.953304 -62.698113 
L 236.998238 -61.475002 
L 239.043173 -63.282608 
L 241.088107 -63.073888 
L 241.088107 -103.560785 
L 241.088107 -103.560785 
L 239.043173 -104.511087 
L 236.998238 -103.457221 
L 234.953304 -103.600361 
L 232.90837 -102.891203 
L 230.863436 -103.934623 
L 228.818501 -102.769898 
L 226.773567 -104.927199 
L 224.728633 -101.980471 
L 222.683699 -102.026083 
L 220.638764 -99.787766 
L 218.59383 -99.092299 
L 216.548896 -99.718454 
L 214.503962 -99.764973 
L 212.459027 -99.337195 
L 210.414093 -99.81562 
L 208.369159 -98.166999 
L 206.324225 -98.627073 
L 204.27929 -99.736186 
L 202.234356 -99.13231 
L 200.189422 -99.453844 
L 198.144487 -96.114508 
L 196.099553 -99.251135 
L 194.054619 -92.624555 
L 192.009685 -91.802273 
L 189.96475 -90.285055 
L 187.919816 -88.767587 
L 185.874882 -86.749404 
L 183.829948 -83.114579 
L 181.785013 -83.406144 
L 179.740079 -83.67197 
L 177.695145 -83.44027 
L 175.650211 -82.951279 
L 173.605276 -81.684066 
L 171.560342 -82.811226 
L 169.515408 -80.056847 
L 167.470474 -81.737228 
L 165.425539 -81.283044 
L 163.380605 -80.158238 
L 161.335671 -80.889752 
L 159.290736 -79.270533 
L 157.245802 -79.582858 
L 155.200868 -81.585974 
L 153.155934 -74.209088 
L 151.110999 -73.107369 
L 149.066065 -73.193217 
L 147.021131 -71.957186 
L 144.976197 -69.350895 
L 142.931262 -69.130553 
L 140.886328 -69.920096 
L 138.841394 -69.435414 
L 136.79646 -66.772621 
L 134.751525 -65.284296 
L 132.706591 -64.513431 
L 130.661657 -64.308214 
L 128.616723 -64.159046 
L 126.571788 -58.361331 
L 124.526854 -57.106201 
L 122.48192 -57.203873 
L 120.436985 -53.414375 
L 118.392051 -53.869758 
L 116.347117 -53.097741 
L 114.302183 -52.450138 
L 112.257248 -52.423473 
L 110.212314 -52.575842 
L 108.16738 -52.627208 
L 106.122446 -52.651439 
L 104.077511 -52.569716 
L 102.032577 -52.124136 
L 99.987643 -51.874157 
L 97.942709 -49.664114 
L 95.897774 -48.899833 
L 93.85284 -49.407104 
L 91.807906 -49.037023 
L 89.762972 -49.989129 
L 87.718037 -49.100782 
L 85.673103 -49.030887 
L 83.628169 -49.314058 
L 81.583235 -48.254875 
L 79.5383 -48.295661 
L 77.493366 -47.195426 
L 75.448432 -46.819093 
L 73.403497 -46.347818 
L 71.358563 -46.338707 
L 69.313629 -46.161855 
L 67.268695 -46.292863 
L 65.22376 -46.265079 
L 63.178826 -46.302362 
L 61.133892 -46.257891 
L 59.088958 -45.873706 
L 57.044023 -46.059645 
L 54.999089 -46.059645 
L 52.954155 -43.262116 
L 50.909221 -43.412218 
L 48.864286 -43.08943 
L 46.819352 -43.375474 
L 44.774418 -43.377579 
L 42.729484 -43.053882 
L 40.684549 -43.231 
L 38.639615 -35.274738 
z
" style="stroke: #003f5c; stroke-opacity: 0.2"/>
    </defs>
    <g clip-path="url(#pc4288a530e)">
     <use xlink:href="#mb7911361be" x="0" y="127.44" style="fill: #003f5c; fill-opacity: 0.2; stroke: #003f5c; stroke-opacity: 0.2"/>
    </g>
   </g>
   <g id="PolyCollection_2">
    <defs>
     <path id="m0c60c96e58" d="M 38.639615 -35.274738 
L 38.639615 -35.274738 
L 40.684549 -35.305112 
L 42.729484 -35.303058 
L 44.774418 -35.305112 
L 46.819352 -35.303058 
L 48.864286 -35.303058 
L 50.909221 -35.303058 
L 52.954155 -35.303058 
L 54.999089 -35.622548 
L 57.044023 -35.64491 
L 59.088958 -35.649753 
L 61.133892 -35.990382 
L 63.178826 -35.908073 
L 65.22376 -35.880474 
L 67.268695 -35.858073 
L 69.313629 -35.993457 
L 71.358563 -36.143874 
L 73.403497 -36.344953 
L 75.448432 -36.27227 
L 77.493366 -36.234661 
L 79.5383 -36.376011 
L 81.583235 -36.397307 
L 83.628169 -36.796267 
L 85.673103 -36.940577 
L 87.718037 -37.141246 
L 89.762972 -37.153691 
L 91.807906 -37.473088 
L 93.85284 -37.510278 
L 95.897774 -37.796775 
L 97.942709 -37.750473 
L 99.987643 -37.881786 
L 102.032577 -38.104099 
L 104.077511 -38.610371 
L 106.122446 -38.432071 
L 108.16738 -38.93897 
L 110.212314 -38.8337 
L 112.257248 -38.68526 
L 114.302183 -39.243099 
L 116.347117 -39.604501 
L 118.392051 -39.723231 
L 120.436985 -39.629504 
L 122.48192 -39.733338 
L 124.526854 -39.74024 
L 126.571788 -40.097817 
L 128.616723 -40.599193 
L 130.661657 -40.666758 
L 132.706591 -41.262609 
L 134.751525 -41.38472 
L 136.79646 -41.279373 
L 138.841394 -42.711706 
L 140.886328 -42.986513 
L 142.931262 -43.443961 
L 144.976197 -43.487287 
L 147.021131 -43.852868 
L 149.066065 -43.737624 
L 151.110999 -44.350948 
L 153.155934 -44.793432 
L 155.200868 -45.196378 
L 157.245802 -44.894833 
L 159.290736 -45.40059 
L 161.335671 -45.803519 
L 163.380605 -45.680571 
L 165.425539 -45.732893 
L 167.470474 -46.549542 
L 169.515408 -47.357642 
L 171.560342 -47.135707 
L 173.605276 -46.891567 
L 175.650211 -46.896816 
L 177.695145 -47.990824 
L 179.740079 -47.805357 
L 181.785013 -48.483931 
L 183.829948 -49.457892 
L 185.874882 -50.17544 
L 187.919816 -50.606918 
L 189.96475 -51.020216 
L 192.009685 -51.786386 
L 194.054619 -52.326492 
L 196.099553 -52.937676 
L 198.144487 -53.229947 
L 200.189422 -54.05536 
L 202.234356 -54.405973 
L 204.27929 -54.705043 
L 206.324225 -56.845228 
L 208.369159 -56.733369 
L 210.414093 -57.22 
L 212.459027 -57.832648 
L 214.503962 -59.228128 
L 216.548896 -60.032074 
L 218.59383 -60.17694 
L 220.638764 -60.10946 
L 222.683699 -60.432722 
L 224.728633 -61.322533 
L 226.773567 -61.614682 
L 228.818501 -61.539666 
L 230.863436 -62.957181 
L 232.90837 -63.562662 
L 234.953304 -63.258824 
L 236.998238 -64.712428 
L 239.043173 -64.039632 
L 241.088107 -65.446977 
L 241.088107 -93.221368 
L 241.088107 -93.221368 
L 239.043173 -92.972564 
L 236.998238 -93.325889 
L 234.953304 -93.615305 
L 232.90837 -92.049186 
L 230.863436 -92.562549 
L 228.818501 -91.788307 
L 226.773567 -88.882034 
L 224.728633 -91.071959 
L 222.683699 -86.750471 
L 220.638764 -88.332987 
L 218.59383 -85.533755 
L 216.548896 -85.916333 
L 214.503962 -85.721078 
L 212.459027 -83.880185 
L 210.414093 -82.827169 
L 208.369159 -82.124062 
L 206.324225 -82.45632 
L 204.27929 -80.784509 
L 202.234356 -81.565204 
L 200.189422 -79.908145 
L 198.144487 -79.723526 
L 196.099553 -78.618656 
L 194.054619 -77.792446 
L 192.009685 -76.463974 
L 189.96475 -76.663285 
L 187.919816 -76.190215 
L 185.874882 -76.999048 
L 183.829948 -74.192996 
L 181.785013 -73.660899 
L 179.740079 -75.106103 
L 177.695145 -74.56649 
L 175.650211 -74.081409 
L 173.605276 -73.812756 
L 171.560342 -72.693094 
L 169.515408 -73.805941 
L 167.470474 -72.992572 
L 165.425539 -72.803249 
L 163.380605 -70.73893 
L 161.335671 -72.664654 
L 159.290736 -71.085926 
L 157.245802 -67.532277 
L 155.200868 -67.911561 
L 153.155934 -66.578748 
L 151.110999 -67.77762 
L 149.066065 -63.03565 
L 147.021131 -61.048876 
L 144.976197 -59.571885 
L 142.931262 -59.655753 
L 140.886328 -59.035142 
L 138.841394 -59.886456 
L 136.79646 -57.508271 
L 134.751525 -59.300254 
L 132.706591 -56.772475 
L 130.661657 -55.773918 
L 128.616723 -55.204838 
L 126.571788 -54.861139 
L 124.526854 -54.422809 
L 122.48192 -54.684327 
L 120.436985 -53.204129 
L 118.392051 -52.538854 
L 116.347117 -51.533291 
L 114.302183 -49.874634 
L 112.257248 -51.026455 
L 110.212314 -49.810992 
L 108.16738 -50.226156 
L 106.122446 -49.204142 
L 104.077511 -49.192517 
L 102.032577 -48.474746 
L 99.987643 -46.530937 
L 97.942709 -46.900136 
L 95.897774 -46.936678 
L 93.85284 -46.175082 
L 91.807906 -46.443893 
L 89.762972 -45.182024 
L 87.718037 -45.69951 
L 85.673103 -44.652566 
L 83.628169 -42.888893 
L 81.583235 -42.998496 
L 79.5383 -42.788384 
L 77.493366 -42.915387 
L 75.448432 -42.584905 
L 73.403497 -42.604963 
L 71.358563 -40.777222 
L 69.313629 -39.763873 
L 67.268695 -39.852394 
L 65.22376 -39.72893 
L 63.178826 -39.743952 
L 61.133892 -39.678839 
L 59.088958 -38.595568 
L 57.044023 -38.690395 
L 54.999089 -38.617131 
L 52.954155 -36.126857 
L 50.909221 -36.187301 
L 48.864286 -36.183428 
L 46.819352 -36.157128 
L 44.774418 -36.131499 
L 42.729484 -36.163876 
L 40.684549 -36.159819 
L 38.639615 -35.274738 
z
" style="stroke: #ffa600; stroke-opacity: 0.2"/>
    </defs>
    <g clip-path="url(#pc4288a530e)">
     <use xlink:href="#m0c60c96e58" x="0" y="127.44" style="fill: #ffa600; fill-opacity: 0.2; stroke: #ffa600; stroke-opacity: 0.2"/>
    </g>
   </g>
   <g id="PolyCollection_3">
    <defs>
     <path id="m6cac1badd7" d="M 38.639615 -35.274738 
L 38.639615 -35.274738 
L 40.684549 -35.274738 
L 42.729484 -35.274738 
L 44.774418 -35.274738 
L 46.819352 -35.274738 
L 48.864286 -35.274738 
L 50.909221 -35.274738 
L 52.954155 -35.274738 
L 54.999089 -35.311098 
L 57.044023 -35.322461 
L 59.088958 -35.322461 
L 61.133892 -35.376964 
L 63.178826 -35.39273 
L 65.22376 -35.395173 
L 67.268695 -35.394169 
L 69.313629 -35.394783 
L 71.358563 -35.395181 
L 73.403497 -35.406518 
L 75.448432 -35.406235 
L 77.493366 -35.437709 
L 79.5383 -35.547968 
L 81.583235 -35.62133 
L 83.628169 -35.994769 
L 85.673103 -36.315806 
L 87.718037 -36.459816 
L 89.762972 -36.45499 
L 91.807906 -36.656007 
L 93.85284 -36.74867 
L 95.897774 -36.82837 
L 97.942709 -36.97881 
L 99.987643 -36.851767 
L 102.032577 -37.021577 
L 104.077511 -37.136547 
L 106.122446 -37.219402 
L 108.16738 -37.408573 
L 110.212314 -37.259688 
L 112.257248 -37.25385 
L 114.302183 -37.520057 
L 116.347117 -37.725526 
L 118.392051 -37.844112 
L 120.436985 -37.846551 
L 122.48192 -38.157132 
L 124.526854 -37.984411 
L 126.571788 -38.405544 
L 128.616723 -38.593107 
L 130.661657 -38.402257 
L 132.706591 -39.087958 
L 134.751525 -39.217948 
L 136.79646 -38.615002 
L 138.841394 -39.50678 
L 140.886328 -39.304205 
L 142.931262 -39.209272 
L 144.976197 -39.284626 
L 147.021131 -39.918019 
L 149.066065 -39.734016 
L 151.110999 -39.709092 
L 153.155934 -40.313364 
L 155.200868 -40.469475 
L 157.245802 -40.854107 
L 159.290736 -40.913936 
L 161.335671 -41.081379 
L 163.380605 -41.206632 
L 165.425539 -41.288761 
L 167.470474 -42.078969 
L 169.515408 -42.65545 
L 171.560342 -43.19843 
L 173.605276 -43.515405 
L 175.650211 -43.624677 
L 177.695145 -44.560906 
L 179.740079 -43.480036 
L 181.785013 -44.265085 
L 183.829948 -44.482714 
L 185.874882 -45.088795 
L 187.919816 -45.787642 
L 189.96475 -46.253076 
L 192.009685 -46.471653 
L 194.054619 -46.9267 
L 196.099553 -47.092479 
L 198.144487 -47.904008 
L 200.189422 -48.336213 
L 202.234356 -48.232295 
L 204.27929 -48.756282 
L 206.324225 -48.394811 
L 208.369159 -48.037969 
L 210.414093 -48.910189 
L 212.459027 -48.867745 
L 214.503962 -49.619817 
L 216.548896 -49.623706 
L 218.59383 -49.121527 
L 220.638764 -49.647143 
L 222.683699 -50.640742 
L 224.728633 -51.077014 
L 226.773567 -50.93012 
L 228.818501 -51.506307 
L 230.863436 -51.508646 
L 232.90837 -52.567331 
L 234.953304 -51.93641 
L 236.998238 -53.509243 
L 239.043173 -53.587726 
L 241.088107 -53.376285 
L 241.088107 -77.332857 
L 241.088107 -77.332857 
L 239.043173 -77.115047 
L 236.998238 -75.603435 
L 234.953304 -76.181602 
L 232.90837 -74.696523 
L 230.863436 -74.051248 
L 228.818501 -73.992165 
L 226.773567 -74.336657 
L 224.728633 -74.586331 
L 222.683699 -73.326729 
L 220.638764 -72.625638 
L 218.59383 -72.522374 
L 216.548896 -71.704883 
L 214.503962 -72.405297 
L 212.459027 -72.242473 
L 210.414093 -71.4447 
L 208.369159 -71.099097 
L 206.324225 -73.103432 
L 204.27929 -70.735711 
L 202.234356 -69.952179 
L 200.189422 -70.395964 
L 198.144487 -69.264927 
L 196.099553 -69.953735 
L 194.054619 -68.528027 
L 192.009685 -67.908858 
L 189.96475 -66.185821 
L 187.919816 -66.909495 
L 185.874882 -64.729926 
L 183.829948 -62.357263 
L 181.785013 -61.868852 
L 179.740079 -60.511453 
L 177.695145 -60.828657 
L 175.650211 -56.468472 
L 173.605276 -57.234099 
L 171.560342 -56.314462 
L 169.515408 -54.892295 
L 167.470474 -54.145267 
L 165.425539 -52.351743 
L 163.380605 -52.055401 
L 161.335671 -52.275647 
L 159.290736 -51.575119 
L 157.245802 -52.294032 
L 155.200868 -51.444794 
L 153.155934 -51.052829 
L 151.110999 -51.38477 
L 149.066065 -50.737629 
L 147.021131 -50.47165 
L 144.976197 -49.898076 
L 142.931262 -50.420625 
L 140.886328 -49.958718 
L 138.841394 -49.87295 
L 136.79646 -48.855869 
L 134.751525 -48.695118 
L 132.706591 -48.507249 
L 130.661657 -47.52879 
L 128.616723 -47.90853 
L 126.571788 -47.291479 
L 124.526854 -47.097559 
L 122.48192 -46.641562 
L 120.436985 -45.240339 
L 118.392051 -45.096632 
L 116.347117 -45.14703 
L 114.302183 -44.824618 
L 112.257248 -43.951112 
L 110.212314 -44.269884 
L 108.16738 -44.1093 
L 106.122446 -43.632516 
L 104.077511 -43.384076 
L 102.032577 -42.548892 
L 99.987643 -42.621761 
L 97.942709 -42.621806 
L 95.897774 -42.643091 
L 93.85284 -42.448414 
L 91.807906 -42.043353 
L 89.762972 -41.30001 
L 87.718037 -41.232359 
L 85.673103 -41.013716 
L 83.628169 -39.459606 
L 81.583235 -37.228371 
L 79.5383 -36.884911 
L 77.493366 -36.334206 
L 75.448432 -36.390062 
L 73.403497 -36.394202 
L 71.358563 -36.13971 
L 69.313629 -36.039048 
L 67.268695 -36.038738 
L 65.22376 -36.013616 
L 63.178826 -36.036758 
L 61.133892 -36.008276 
L 59.088958 -35.667133 
L 57.044023 -35.675772 
L 54.999089 -35.663109 
L 52.954155 -35.417906 
L 50.909221 -35.417906 
L 48.864286 -35.417906 
L 46.819352 -35.417906 
L 44.774418 -35.417906 
L 42.729484 -35.417906 
L 40.684549 -35.417906 
L 38.639615 -35.274738 
z
" style="stroke: #bc5090; stroke-opacity: 0.2"/>
    </defs>
    <g clip-path="url(#pc4288a530e)">
     <use xlink:href="#m6cac1badd7" x="0" y="127.44" style="fill: #bc5090; fill-opacity: 0.2; stroke: #bc5090; stroke-opacity: 0.2"/>
    </g>
   </g>
   <g id="matplotlib.axis_1">
    <g id="xtick_1">
     <g id="line2d_1">
      <defs>
       <path id="me479b23ead" d="M 0 0 
L 0 -3.5 
" style="stroke: #000000; stroke-width: 0.8"/>
      </defs>
      <g>
       <use xlink:href="#me479b23ead" x="38.639615" y="95.647885" style="stroke: #000000; stroke-width: 0.8"/>
      </g>
     </g>
     <g id="text_1">
      <!-- 0.0 -->
      <g transform="translate(29.892896 107.506166) scale(0.11 -0.11)">
       <defs>
        <path id="DejaVuSans-30" d="M 2034 4250 
Q 1547 4250 1301 3770 
Q 1056 3291 1056 2328 
Q 1056 1369 1301 889 
Q 1547 409 2034 409 
Q 2525 409 2770 889 
Q 3016 1369 3016 2328 
Q 3016 3291 2770 3770 
Q 2525 4250 2034 4250 
z
M 2034 4750 
Q 2819 4750 3233 4129 
Q 3647 3509 3647 2328 
Q 3647 1150 3233 529 
Q 2819 -91 2034 -91 
Q 1250 -91 836 529 
Q 422 1150 422 2328 
Q 422 3509 836 4129 
Q 1250 4750 2034 4750 
z
" transform="scale(0.015625)"/>
        <path id="DejaVuSans-2e" d="M 684 794 
L 1344 794 
L 1344 0 
L 684 0 
L 684 794 
z
" transform="scale(0.015625)"/>
       </defs>
       <use xlink:href="#DejaVuSans-30"/>
       <use xlink:href="#DejaVuSans-2e" x="63.623047"/>
       <use xlink:href="#DejaVuSans-30" x="95.410156"/>
      </g>
     </g>
    </g>
    <g id="xtick_2">
     <g id="line2d_2">
      <g>
       <use xlink:href="#me479b23ead" x="79.5383" y="95.647885" style="stroke: #000000; stroke-width: 0.8"/>
      </g>
     </g>
     <g id="text_2">
      <!-- 0.2 -->
      <g transform="translate(70.791581 107.506166) scale(0.11 -0.11)">
       <defs>
        <path id="DejaVuSans-32" d="M 1228 531 
L 3431 531 
L 3431 0 
L 469 0 
L 469 531 
Q 828 903 1448 1529 
Q 2069 2156 2228 2338 
Q 2531 2678 2651 2914 
Q 2772 3150 2772 3378 
Q 2772 3750 2511 3984 
Q 2250 4219 1831 4219 
Q 1534 4219 1204 4116 
Q 875 4013 500 3803 
L 500 4441 
Q 881 4594 1212 4672 
Q 1544 4750 1819 4750 
Q 2544 4750 2975 4387 
Q 3406 4025 3406 3419 
Q 3406 3131 3298 2873 
Q 3191 2616 2906 2266 
Q 2828 2175 2409 1742 
Q 1991 1309 1228 531 
z
" transform="scale(0.015625)"/>
       </defs>
       <use xlink:href="#DejaVuSans-30"/>
       <use xlink:href="#DejaVuSans-2e" x="63.623047"/>
       <use xlink:href="#DejaVuSans-32" x="95.410156"/>
      </g>
     </g>
    </g>
    <g id="xtick_3">
     <g id="line2d_3">
      <g>
       <use xlink:href="#me479b23ead" x="120.436985" y="95.647885" style="stroke: #000000; stroke-width: 0.8"/>
      </g>
     </g>
     <g id="text_3">
      <!-- 0.4 -->
      <g transform="translate(111.690267 107.506166) scale(0.11 -0.11)">
       <defs>
        <path id="DejaVuSans-34" d="M 2419 4116 
L 825 1625 
L 2419 1625 
L 2419 4116 
z
M 2253 4666 
L 3047 4666 
L 3047 1625 
L 3713 1625 
L 3713 1100 
L 3047 1100 
L 3047 0 
L 2419 0 
L 2419 1100 
L 313 1100 
L 313 1709 
L 2253 4666 
z
" transform="scale(0.015625)"/>
       </defs>
       <use xlink:href="#DejaVuSans-30"/>
       <use xlink:href="#DejaVuSans-2e" x="63.623047"/>
       <use xlink:href="#DejaVuSans-34" x="95.410156"/>
      </g>
     </g>
    </g>
    <g id="xtick_4">
     <g id="line2d_4">
      <g>
       <use xlink:href="#me479b23ead" x="161.335671" y="95.647885" style="stroke: #000000; stroke-width: 0.8"/>
      </g>
     </g>
     <g id="text_4">
      <!-- 0.6 -->
      <g transform="translate(152.588952 107.506166) scale(0.11 -0.11)">
       <defs>
        <path id="DejaVuSans-36" d="M 2113 2584 
Q 1688 2584 1439 2293 
Q 1191 2003 1191 1497 
Q 1191 994 1439 701 
Q 1688 409 2113 409 
Q 2538 409 2786 701 
Q 3034 994 3034 1497 
Q 3034 2003 2786 2293 
Q 2538 2584 2113 2584 
z
M 3366 4563 
L 3366 3988 
Q 3128 4100 2886 4159 
Q 2644 4219 2406 4219 
Q 1781 4219 1451 3797 
Q 1122 3375 1075 2522 
Q 1259 2794 1537 2939 
Q 1816 3084 2150 3084 
Q 2853 3084 3261 2657 
Q 3669 2231 3669 1497 
Q 3669 778 3244 343 
Q 2819 -91 2113 -91 
Q 1303 -91 875 529 
Q 447 1150 447 2328 
Q 447 3434 972 4092 
Q 1497 4750 2381 4750 
Q 2619 4750 2861 4703 
Q 3103 4656 3366 4563 
z
" transform="scale(0.015625)"/>
       </defs>
       <use xlink:href="#DejaVuSans-30"/>
       <use xlink:href="#DejaVuSans-2e" x="63.623047"/>
       <use xlink:href="#DejaVuSans-36" x="95.410156"/>
      </g>
     </g>
    </g>
    <g id="xtick_5">
     <g id="line2d_5">
      <g>
       <use xlink:href="#me479b23ead" x="202.234356" y="95.647885" style="stroke: #000000; stroke-width: 0.8"/>
      </g>
     </g>
     <g id="text_5">
      <!-- 0.8 -->
      <g transform="translate(193.487637 107.506166) scale(0.11 -0.11)">
       <defs>
        <path id="DejaVuSans-38" d="M 2034 2216 
Q 1584 2216 1326 1975 
Q 1069 1734 1069 1313 
Q 1069 891 1326 650 
Q 1584 409 2034 409 
Q 2484 409 2743 651 
Q 3003 894 3003 1313 
Q 3003 1734 2745 1975 
Q 2488 2216 2034 2216 
z
M 1403 2484 
Q 997 2584 770 2862 
Q 544 3141 544 3541 
Q 544 4100 942 4425 
Q 1341 4750 2034 4750 
Q 2731 4750 3128 4425 
Q 3525 4100 3525 3541 
Q 3525 3141 3298 2862 
Q 3072 2584 2669 2484 
Q 3125 2378 3379 2068 
Q 3634 1759 3634 1313 
Q 3634 634 3220 271 
Q 2806 -91 2034 -91 
Q 1263 -91 848 271 
Q 434 634 434 1313 
Q 434 1759 690 2068 
Q 947 2378 1403 2484 
z
M 1172 3481 
Q 1172 3119 1398 2916 
Q 1625 2713 2034 2713 
Q 2441 2713 2670 2916 
Q 2900 3119 2900 3481 
Q 2900 3844 2670 4047 
Q 2441 4250 2034 4250 
Q 1625 4250 1398 4047 
Q 1172 3844 1172 3481 
z
" transform="scale(0.015625)"/>
       </defs>
       <use xlink:href="#DejaVuSans-30"/>
       <use xlink:href="#DejaVuSans-2e" x="63.623047"/>
       <use xlink:href="#DejaVuSans-38" x="95.410156"/>
      </g>
     </g>
    </g>
    <g id="xtick_6">
     <g id="line2d_6">
      <g>
       <use xlink:href="#me479b23ead" x="243.133041" y="95.647885" style="stroke: #000000; stroke-width: 0.8"/>
      </g>
     </g>
     <g id="text_6">
      <!-- 1.0 -->
      <g transform="translate(234.386322 107.506166) scale(0.11 -0.11)">
       <defs>
        <path id="DejaVuSans-31" d="M 794 531 
L 1825 531 
L 1825 4091 
L 703 3866 
L 703 4441 
L 1819 4666 
L 2450 4666 
L 2450 531 
L 3481 531 
L 3481 0 
L 794 0 
L 794 531 
z
" transform="scale(0.015625)"/>
       </defs>
       <use xlink:href="#DejaVuSans-31"/>
       <use xlink:href="#DejaVuSans-2e" x="63.623047"/>
       <use xlink:href="#DejaVuSans-30" x="95.410156"/>
      </g>
     </g>
    </g>
    <g id="text_7">
     <!-- Distance [µm] -->
     <g transform="translate(101.941172 122.152104) scale(0.11 -0.11)">
      <defs>
       <path id="DejaVuSans-44" d="M 1259 4147 
L 1259 519 
L 2022 519 
Q 2988 519 3436 956 
Q 3884 1394 3884 2338 
Q 3884 3275 3436 3711 
Q 2988 4147 2022 4147 
L 1259 4147 
z
M 628 4666 
L 1925 4666 
Q 3281 4666 3915 4102 
Q 4550 3538 4550 2338 
Q 4550 1131 3912 565 
Q 3275 0 1925 0 
L 628 0 
L 628 4666 
z
" transform="scale(0.015625)"/>
       <path id="DejaVuSans-69" d="M 603 3500 
L 1178 3500 
L 1178 0 
L 603 0 
L 603 3500 
z
M 603 4863 
L 1178 4863 
L 1178 4134 
L 603 4134 
L 603 4863 
z
" transform="scale(0.015625)"/>
       <path id="DejaVuSans-73" d="M 2834 3397 
L 2834 2853 
Q 2591 2978 2328 3040 
Q 2066 3103 1784 3103 
Q 1356 3103 1142 2972 
Q 928 2841 928 2578 
Q 928 2378 1081 2264 
Q 1234 2150 1697 2047 
L 1894 2003 
Q 2506 1872 2764 1633 
Q 3022 1394 3022 966 
Q 3022 478 2636 193 
Q 2250 -91 1575 -91 
Q 1294 -91 989 -36 
Q 684 19 347 128 
L 347 722 
Q 666 556 975 473 
Q 1284 391 1588 391 
Q 1994 391 2212 530 
Q 2431 669 2431 922 
Q 2431 1156 2273 1281 
Q 2116 1406 1581 1522 
L 1381 1569 
Q 847 1681 609 1914 
Q 372 2147 372 2553 
Q 372 3047 722 3315 
Q 1072 3584 1716 3584 
Q 2034 3584 2315 3537 
Q 2597 3491 2834 3397 
z
" transform="scale(0.015625)"/>
       <path id="DejaVuSans-74" d="M 1172 4494 
L 1172 3500 
L 2356 3500 
L 2356 3053 
L 1172 3053 
L 1172 1153 
Q 1172 725 1289 603 
Q 1406 481 1766 481 
L 2356 481 
L 2356 0 
L 1766 0 
Q 1100 0 847 248 
Q 594 497 594 1153 
L 594 3053 
L 172 3053 
L 172 3500 
L 594 3500 
L 594 4494 
L 1172 4494 
z
" transform="scale(0.015625)"/>
       <path id="DejaVuSans-61" d="M 2194 1759 
Q 1497 1759 1228 1600 
Q 959 1441 959 1056 
Q 959 750 1161 570 
Q 1363 391 1709 391 
Q 2188 391 2477 730 
Q 2766 1069 2766 1631 
L 2766 1759 
L 2194 1759 
z
M 3341 1997 
L 3341 0 
L 2766 0 
L 2766 531 
Q 2569 213 2275 61 
Q 1981 -91 1556 -91 
Q 1019 -91 701 211 
Q 384 513 384 1019 
Q 384 1609 779 1909 
Q 1175 2209 1959 2209 
L 2766 2209 
L 2766 2266 
Q 2766 2663 2505 2880 
Q 2244 3097 1772 3097 
Q 1472 3097 1187 3025 
Q 903 2953 641 2809 
L 641 3341 
Q 956 3463 1253 3523 
Q 1550 3584 1831 3584 
Q 2591 3584 2966 3190 
Q 3341 2797 3341 1997 
z
" transform="scale(0.015625)"/>
       <path id="DejaVuSans-6e" d="M 3513 2113 
L 3513 0 
L 2938 0 
L 2938 2094 
Q 2938 2591 2744 2837 
Q 2550 3084 2163 3084 
Q 1697 3084 1428 2787 
Q 1159 2491 1159 1978 
L 1159 0 
L 581 0 
L 581 3500 
L 1159 3500 
L 1159 2956 
Q 1366 3272 1645 3428 
Q 1925 3584 2291 3584 
Q 2894 3584 3203 3211 
Q 3513 2838 3513 2113 
z
" transform="scale(0.015625)"/>
       <path id="DejaVuSans-63" d="M 3122 3366 
L 3122 2828 
Q 2878 2963 2633 3030 
Q 2388 3097 2138 3097 
Q 1578 3097 1268 2742 
Q 959 2388 959 1747 
Q 959 1106 1268 751 
Q 1578 397 2138 397 
Q 2388 397 2633 464 
Q 2878 531 3122 666 
L 3122 134 
Q 2881 22 2623 -34 
Q 2366 -91 2075 -91 
Q 1284 -91 818 406 
Q 353 903 353 1747 
Q 353 2603 823 3093 
Q 1294 3584 2113 3584 
Q 2378 3584 2631 3529 
Q 2884 3475 3122 3366 
z
" transform="scale(0.015625)"/>
       <path id="DejaVuSans-65" d="M 3597 1894 
L 3597 1613 
L 953 1613 
Q 991 1019 1311 708 
Q 1631 397 2203 397 
Q 2534 397 2845 478 
Q 3156 559 3463 722 
L 3463 178 
Q 3153 47 2828 -22 
Q 2503 -91 2169 -91 
Q 1331 -91 842 396 
Q 353 884 353 1716 
Q 353 2575 817 3079 
Q 1281 3584 2069 3584 
Q 2775 3584 3186 3129 
Q 3597 2675 3597 1894 
z
M 3022 2063 
Q 3016 2534 2758 2815 
Q 2500 3097 2075 3097 
Q 1594 3097 1305 2825 
Q 1016 2553 972 2059 
L 3022 2063 
z
" transform="scale(0.015625)"/>
       <path id="DejaVuSans-20" transform="scale(0.015625)"/>
       <path id="DejaVuSans-5b" d="M 550 4863 
L 1875 4863 
L 1875 4416 
L 1125 4416 
L 1125 -397 
L 1875 -397 
L 1875 -844 
L 550 -844 
L 550 4863 
z
" transform="scale(0.015625)"/>
       <path id="DejaVuSans-b5" d="M 544 -1331 
L 544 3500 
L 1119 3500 
L 1119 1325 
Q 1119 872 1334 640 
Q 1550 409 1972 409 
Q 2434 409 2667 671 
Q 2900 934 2900 1459 
L 2900 3500 
L 3475 3500 
L 3475 806 
Q 3475 619 3529 530 
Q 3584 441 3700 441 
Q 3728 441 3778 458 
Q 3828 475 3916 513 
L 3916 50 
Q 3788 -22 3673 -56 
Q 3559 -91 3450 -91 
Q 3234 -91 3106 31 
Q 2978 153 2931 403 
Q 2775 156 2548 32 
Q 2322 -91 2016 -91 
Q 1697 -91 1473 31 
Q 1250 153 1119 397 
L 1119 -1331 
L 544 -1331 
z
" transform="scale(0.015625)"/>
       <path id="DejaVuSans-6d" d="M 3328 2828 
Q 3544 3216 3844 3400 
Q 4144 3584 4550 3584 
Q 5097 3584 5394 3201 
Q 5691 2819 5691 2113 
L 5691 0 
L 5113 0 
L 5113 2094 
Q 5113 2597 4934 2840 
Q 4756 3084 4391 3084 
Q 3944 3084 3684 2787 
Q 3425 2491 3425 1978 
L 3425 0 
L 2847 0 
L 2847 2094 
Q 2847 2600 2669 2842 
Q 2491 3084 2119 3084 
Q 1678 3084 1418 2786 
Q 1159 2488 1159 1978 
L 1159 0 
L 581 0 
L 581 3500 
L 1159 3500 
L 1159 2956 
Q 1356 3278 1631 3431 
Q 1906 3584 2284 3584 
Q 2666 3584 2933 3390 
Q 3200 3197 3328 2828 
z
" transform="scale(0.015625)"/>
       <path id="DejaVuSans-5d" d="M 1947 4863 
L 1947 -844 
L 622 -844 
L 622 -397 
L 1369 -397 
L 1369 4416 
L 622 4416 
L 622 4863 
L 1947 4863 
z
" transform="scale(0.015625)"/>
      </defs>
      <use xlink:href="#DejaVuSans-44"/>
      <use xlink:href="#DejaVuSans-69" x="77.001953"/>
      <use xlink:href="#DejaVuSans-73" x="104.785156"/>
      <use xlink:href="#DejaVuSans-74" x="156.884766"/>
      <use xlink:href="#DejaVuSans-61" x="196.09375"/>
      <use xlink:href="#DejaVuSans-6e" x="257.373047"/>
      <use xlink:href="#DejaVuSans-63" x="320.751953"/>
      <use xlink:href="#DejaVuSans-65" x="375.732422"/>
      <use xlink:href="#DejaVuSans-20" x="437.255859"/>
      <use xlink:href="#DejaVuSans-5b" x="469.042969"/>
      <use xlink:href="#DejaVuSans-b5" x="508.056641"/>
      <use xlink:href="#DejaVuSans-6d" x="571.679688"/>
      <use xlink:href="#DejaVuSans-5d" x="669.091797"/>
     </g>
    </g>
   </g>
   <g id="matplotlib.axis_2">
    <g id="ytick_1">
     <g id="line2d_7">
      <defs>
       <path id="m5ae552eab9" d="M 0 0 
L 3.5 0 
" style="stroke: #000000; stroke-width: 0.8"/>
      </defs>
      <g>
       <use xlink:href="#m5ae552eab9" x="38.639615" y="92.165262" style="stroke: #000000; stroke-width: 0.8"/>
      </g>
     </g>
     <g id="text_8">
      <!-- 0.0 -->
      <g transform="translate(17.646178 96.344403) scale(0.11 -0.11)">
       <use xlink:href="#DejaVuSans-30"/>
       <use xlink:href="#DejaVuSans-2e" x="63.623047"/>
       <use xlink:href="#DejaVuSans-30" x="95.410156"/>
      </g>
     </g>
    </g>
    <g id="ytick_2">
     <g id="line2d_8">
      <g>
       <use xlink:href="#m5ae552eab9" x="38.639615" y="55.819713" style="stroke: #000000; stroke-width: 0.8"/>
      </g>
     </g>
     <g id="text_9">
      <!-- 0.2 -->
      <g transform="translate(17.646178 59.998853) scale(0.11 -0.11)">
       <use xlink:href="#DejaVuSans-30"/>
       <use xlink:href="#DejaVuSans-2e" x="63.623047"/>
       <use xlink:href="#DejaVuSans-32" x="95.410156"/>
      </g>
     </g>
    </g>
    <g id="ytick_3">
     <g id="line2d_9">
      <g>
       <use xlink:href="#m5ae552eab9" x="38.639615" y="19.474163" style="stroke: #000000; stroke-width: 0.8"/>
      </g>
     </g>
     <g id="text_10">
      <!-- 0.4 -->
      <g transform="translate(17.646178 23.653304) scale(0.11 -0.11)">
       <use xlink:href="#DejaVuSans-30"/>
       <use xlink:href="#DejaVuSans-2e" x="63.623047"/>
       <use xlink:href="#DejaVuSans-34" x="95.410156"/>
      </g>
     </g>
    </g>
    <g id="ytick_4">
     <g id="line2d_10">
      <defs>
       <path id="md633fdc54d" d="M 0 0 
L 2 0 
" style="stroke: #000000; stroke-width: 0.6"/>
      </defs>
      <g>
       <use xlink:href="#md633fdc54d" x="38.639615" y="83.078875" style="stroke: #000000; stroke-width: 0.6"/>
      </g>
     </g>
    </g>
    <g id="ytick_5">
     <g id="line2d_11">
      <g>
       <use xlink:href="#md633fdc54d" x="38.639615" y="73.992487" style="stroke: #000000; stroke-width: 0.6"/>
      </g>
     </g>
    </g>
    <g id="ytick_6">
     <g id="line2d_12">
      <g>
       <use xlink:href="#md633fdc54d" x="38.639615" y="64.9061" style="stroke: #000000; stroke-width: 0.6"/>
      </g>
     </g>
    </g>
    <g id="ytick_7">
     <g id="line2d_13">
      <g>
       <use xlink:href="#md633fdc54d" x="38.639615" y="46.733325" style="stroke: #000000; stroke-width: 0.6"/>
      </g>
     </g>
    </g>
    <g id="ytick_8">
     <g id="line2d_14">
      <g>
       <use xlink:href="#md633fdc54d" x="38.639615" y="37.646938" style="stroke: #000000; stroke-width: 0.6"/>
      </g>
     </g>
    </g>
    <g id="ytick_9">
     <g id="line2d_15">
      <g>
       <use xlink:href="#md633fdc54d" x="38.639615" y="28.56055" style="stroke: #000000; stroke-width: 0.6"/>
      </g>
     </g>
    </g>
    <g id="text_11">
     <!-- Cumulative density -->
     <g transform="translate(11.358521 110.644344) rotate(-90) scale(0.11 -0.11)">
      <defs>
       <path id="DejaVuSans-43" d="M 4122 4306 
L 4122 3641 
Q 3803 3938 3442 4084 
Q 3081 4231 2675 4231 
Q 1875 4231 1450 3742 
Q 1025 3253 1025 2328 
Q 1025 1406 1450 917 
Q 1875 428 2675 428 
Q 3081 428 3442 575 
Q 3803 722 4122 1019 
L 4122 359 
Q 3791 134 3420 21 
Q 3050 -91 2638 -91 
Q 1578 -91 968 557 
Q 359 1206 359 2328 
Q 359 3453 968 4101 
Q 1578 4750 2638 4750 
Q 3056 4750 3426 4639 
Q 3797 4528 4122 4306 
z
" transform="scale(0.015625)"/>
       <path id="DejaVuSans-75" d="M 544 1381 
L 544 3500 
L 1119 3500 
L 1119 1403 
Q 1119 906 1312 657 
Q 1506 409 1894 409 
Q 2359 409 2629 706 
Q 2900 1003 2900 1516 
L 2900 3500 
L 3475 3500 
L 3475 0 
L 2900 0 
L 2900 538 
Q 2691 219 2414 64 
Q 2138 -91 1772 -91 
Q 1169 -91 856 284 
Q 544 659 544 1381 
z
M 1991 3584 
L 1991 3584 
z
" transform="scale(0.015625)"/>
       <path id="DejaVuSans-6c" d="M 603 4863 
L 1178 4863 
L 1178 0 
L 603 0 
L 603 4863 
z
" transform="scale(0.015625)"/>
       <path id="DejaVuSans-76" d="M 191 3500 
L 800 3500 
L 1894 563 
L 2988 3500 
L 3597 3500 
L 2284 0 
L 1503 0 
L 191 3500 
z
" transform="scale(0.015625)"/>
       <path id="DejaVuSans-64" d="M 2906 2969 
L 2906 4863 
L 3481 4863 
L 3481 0 
L 2906 0 
L 2906 525 
Q 2725 213 2448 61 
Q 2172 -91 1784 -91 
Q 1150 -91 751 415 
Q 353 922 353 1747 
Q 353 2572 751 3078 
Q 1150 3584 1784 3584 
Q 2172 3584 2448 3432 
Q 2725 3281 2906 2969 
z
M 947 1747 
Q 947 1113 1208 752 
Q 1469 391 1925 391 
Q 2381 391 2643 752 
Q 2906 1113 2906 1747 
Q 2906 2381 2643 2742 
Q 2381 3103 1925 3103 
Q 1469 3103 1208 2742 
Q 947 2381 947 1747 
z
" transform="scale(0.015625)"/>
       <path id="DejaVuSans-79" d="M 2059 -325 
Q 1816 -950 1584 -1140 
Q 1353 -1331 966 -1331 
L 506 -1331 
L 506 -850 
L 844 -850 
Q 1081 -850 1212 -737 
Q 1344 -625 1503 -206 
L 1606 56 
L 191 3500 
L 800 3500 
L 1894 763 
L 2988 3500 
L 3597 3500 
L 2059 -325 
z
" transform="scale(0.015625)"/>
      </defs>
      <use xlink:href="#DejaVuSans-43"/>
      <use xlink:href="#DejaVuSans-75" x="69.824219"/>
      <use xlink:href="#DejaVuSans-6d" x="133.203125"/>
      <use xlink:href="#DejaVuSans-75" x="230.615234"/>
      <use xlink:href="#DejaVuSans-6c" x="293.994141"/>
      <use xlink:href="#DejaVuSans-61" x="321.777344"/>
      <use xlink:href="#DejaVuSans-74" x="383.056641"/>
      <use xlink:href="#DejaVuSans-69" x="422.265625"/>
      <use xlink:href="#DejaVuSans-76" x="450.048828"/>
      <use xlink:href="#DejaVuSans-65" x="509.228516"/>
      <use xlink:href="#DejaVuSans-20" x="570.751953"/>
      <use xlink:href="#DejaVuSans-64" x="602.539062"/>
      <use xlink:href="#DejaVuSans-65" x="666.015625"/>
      <use xlink:href="#DejaVuSans-6e" x="727.539062"/>
      <use xlink:href="#DejaVuSans-73" x="790.917969"/>
      <use xlink:href="#DejaVuSans-69" x="843.017578"/>
      <use xlink:href="#DejaVuSans-74" x="870.800781"/>
      <use xlink:href="#DejaVuSans-79" x="910.009766"/>
     </g>
    </g>
   </g>
   <g id="line2d_16">
    <path d="M 38.639615 92.165262 
L 40.684549 89.326468 
L 42.729484 89.326468 
L 44.774418 89.326468 
L 46.819352 89.326468 
L 48.864286 89.326468 
L 50.909221 89.326468 
L 52.954155 89.326468 
L 54.999089 88.103031 
L 57.044023 88.103031 
L 59.088958 88.103031 
L 61.133892 87.963241 
L 63.178826 87.963241 
L 65.22376 87.963241 
L 67.268695 87.963241 
L 69.313629 87.963241 
L 71.358563 87.82345 
L 73.403497 87.683659 
L 75.448432 87.683659 
L 77.493366 87.683659 
L 79.5383 86.365634 
L 81.583235 86.365634 
L 83.628169 85.966232 
L 85.673103 85.63465 
L 87.718037 85.63465 
L 89.762972 85.63465 
L 91.807906 85.55477 
L 93.85284 85.55477 
L 95.897774 85.55477 
L 97.942709 85.55477 
L 99.987643 83.737492 
L 102.032577 83.584921 
L 104.077511 82.551979 
L 106.122446 82.551979 
L 108.16738 82.551979 
L 110.212314 82.551979 
L 112.257248 82.551979 
L 114.302183 82.392219 
L 116.347117 82.08504 
L 118.392051 81.523443 
L 120.436985 81.523443 
L 122.48192 79.706165 
L 124.526854 79.706165 
L 126.571788 78.797527 
L 128.616723 76.907558 
L 130.661657 76.907558 
L 132.706591 76.038782 
L 134.751525 75.898992 
L 136.79646 74.918381 
L 138.841394 73.202064 
L 140.886328 73.202064 
L 142.931262 72.735883 
L 144.976197 72.735883 
L 147.021131 70.684379 
L 149.066065 70.538996 
L 151.110999 69.259545 
L 153.155934 69.259545 
L 155.200868 67.362387 
L 157.245802 66.98175 
L 159.290736 66.727331 
L 161.335671 65.919652 
L 163.380605 65.194181 
L 165.425539 65.194181 
L 167.470474 65.049518 
L 169.515408 64.722408 
L 171.560342 64.21429 
L 173.605276 64.160043 
L 175.650211 63.823151 
L 177.695145 63.478682 
L 179.740079 63.229416 
L 181.785013 62.903745 
L 183.829948 62.903745 
L 185.874882 59.995467 
L 187.919816 56.850731 
L 189.96475 56.796484 
L 192.009685 56.270288 
L 194.054619 55.257392 
L 196.099553 52.032343 
L 198.144487 51.978096 
L 200.189422 51.439695 
L 202.234356 51.334346 
L 204.27929 51.062025 
L 206.324225 50.755341 
L 208.369159 50.701094 
L 210.414093 50.073536 
L 212.459027 49.650674 
L 214.503962 49.010953 
L 216.548896 48.78713 
L 218.59383 48.570496 
L 220.638764 48.335783 
L 222.683699 48.281536 
L 224.728633 47.60005 
L 226.773567 47.284737 
L 228.818501 47.212766 
L 230.863436 46.670284 
L 232.90837 46.527389 
L 234.953304 46.188689 
L 236.998238 45.467473 
L 239.043173 45.061739 
L 241.088107 44.86283 
" clip-path="url(#pc4288a530e)" style="fill: none; stroke: #003f5c; stroke-width: 1.5; stroke-linecap: square"/>
   </g>
   <g id="line2d_17">
    <path d="M 38.639615 92.165262 
L 40.684549 91.815418 
L 42.729484 91.815418 
L 44.774418 91.815418 
L 46.819352 91.815418 
L 48.864286 91.815418 
L 50.909221 91.815418 
L 52.954155 91.815418 
L 54.999089 90.549031 
L 57.044023 90.549031 
L 59.088958 90.549031 
L 61.133892 89.872295 
L 63.178826 89.872295 
L 65.22376 89.872295 
L 67.268695 89.872295 
L 69.313629 89.872295 
L 71.358563 89.364264 
L 73.403497 88.587271 
L 75.448432 88.587271 
L 77.493366 88.587271 
L 79.5383 88.417824 
L 81.583235 88.417824 
L 83.628169 87.957384 
L 85.673103 87.336671 
L 87.718037 86.935407 
L 89.762972 86.935407 
L 91.807906 86.538222 
L 93.85284 86.35325 
L 95.897774 85.895176 
L 97.942709 85.895176 
L 99.987643 85.800888 
L 102.032577 85.071466 
L 104.077511 84.474219 
L 106.122446 84.474219 
L 108.16738 83.903121 
L 110.212314 83.903121 
L 112.257248 83.903121 
L 114.302183 83.64315 
L 116.347117 83.027699 
L 118.392051 82.57266 
L 120.436985 82.400818 
L 122.48192 81.917076 
L 124.526854 81.828066 
L 126.571788 81.582467 
L 128.616723 81.036944 
L 130.661657 81.036944 
L 132.706591 79.873637 
L 134.751525 79.722015 
L 136.79646 79.618259 
L 138.841394 77.531338 
L 140.886328 77.356715 
L 142.931262 77.028784 
L 144.976197 76.800782 
L 147.021131 76.512301 
L 149.066065 74.863038 
L 151.110999 73.091053 
L 153.155934 72.947939 
L 155.200868 72.673626 
L 157.245802 72.51327 
L 159.290736 70.899026 
L 161.335671 70.819755 
L 163.380605 70.424702 
L 165.425539 70.370662 
L 167.470474 69.854636 
L 169.515408 69.465673 
L 171.560342 69.160706 
L 173.605276 69.133313 
L 175.650211 68.827624 
L 177.695145 68.087173 
L 179.740079 67.978573 
L 181.785013 67.645074 
L 183.829948 67.176638 
L 185.874882 66.367988 
L 187.919816 65.581478 
L 189.96475 65.355246 
L 192.009685 64.975806 
L 194.054619 64.194435 
L 196.099553 63.34254 
L 198.144487 62.615377 
L 200.189422 62.1307 
L 202.234356 61.906631 
L 204.27929 61.062466 
L 206.324225 60.010437 
L 208.369159 59.518189 
L 210.414093 58.786488 
L 212.459027 58.283439 
L 214.503962 56.97936 
L 216.548896 56.26746 
L 218.59383 55.652651 
L 220.638764 55.102246 
L 222.683699 54.994795 
L 224.728633 53.560459 
L 226.773567 52.959341 
L 228.818501 52.214311 
L 230.863436 51.235652 
L 232.90837 50.924884 
L 234.953304 50.417012 
L 236.998238 49.94882 
L 239.043173 49.668169 
L 241.088107 49.150382 
" clip-path="url(#pc4288a530e)" style="fill: none; stroke: #ffa600; stroke-width: 1.5; stroke-linecap: square"/>
   </g>
   <g id="line2d_18">
    <path d="M 38.639615 92.165262 
L 40.684549 92.117539 
L 42.729484 92.117539 
L 44.774418 92.117539 
L 46.819352 92.117539 
L 48.864286 92.117539 
L 50.909221 92.117539 
L 52.954155 92.117539 
L 54.999089 91.964555 
L 57.044023 91.964555 
L 59.088958 91.964555 
L 61.133892 91.766275 
L 63.178826 91.766275 
L 65.22376 91.766275 
L 67.268695 91.766275 
L 69.313629 91.766275 
L 71.358563 91.715638 
L 73.403497 91.599014 
L 75.448432 91.599014 
L 77.493366 91.599014 
L 79.5383 91.299637 
L 81.583235 91.129485 
L 83.628169 90.07753 
L 85.673103 89.267695 
L 87.718037 89.029203 
L 89.762972 89.029203 
L 91.807906 88.606561 
L 93.85284 88.296764 
L 95.897774 88.108223 
L 97.942709 88.108223 
L 99.987643 88.084677 
L 102.032577 87.97036 
L 104.077511 87.527813 
L 106.122446 87.527813 
L 108.16738 87.174125 
L 110.212314 87.174125 
L 112.257248 87.174125 
L 114.302183 86.797973 
L 116.347117 86.512045 
L 118.392051 86.433427 
L 120.436985 86.197164 
L 122.48192 85.726255 
L 124.526854 85.54433 
L 126.571788 85.148235 
L 128.616723 84.809491 
L 130.661657 84.809491 
L 132.706591 84.119748 
L 134.751525 84.014149 
L 136.79646 83.931919 
L 138.841394 83.443731 
L 140.886328 83.233344 
L 142.931262 83.122446 
L 144.976197 82.980652 
L 147.021131 82.686822 
L 149.066065 82.577308 
L 151.110999 82.276507 
L 153.155934 82.201969 
L 155.200868 82.025619 
L 157.245802 81.412507 
L 159.290736 81.296409 
L 161.335671 81.221692 
L 163.380605 80.94133 
L 165.425539 80.94133 
L 167.470474 79.946189 
L 169.515408 79.244958 
L 171.560342 78.268743 
L 173.605276 78.017237 
L 175.650211 77.741131 
L 177.695145 75.941809 
L 179.740079 75.905937 
L 181.785013 74.972491 
L 183.829948 74.868875 
L 185.874882 73.823605 
L 187.919816 72.471422 
L 189.96475 72.403047 
L 192.009685 72.045113 
L 194.054619 71.646007 
L 196.099553 70.772583 
L 198.144487 70.396279 
L 200.189422 69.897733 
L 202.234356 69.833639 
L 204.27929 69.695362 
L 206.324225 69.387924 
L 208.369159 69.128293 
L 210.414093 68.91626 
L 212.459027 68.543653 
L 214.503962 68.113242 
L 216.548896 67.953685 
L 218.59383 67.762828 
L 220.638764 67.095164 
L 222.683699 66.98331 
L 224.728633 66.17291 
L 226.773567 66.041918 
L 228.818501 65.818046 
L 230.863436 65.677114 
L 232.90837 65.145291 
L 234.953304 64.75685 
L 236.998238 63.952074 
L 239.043173 63.664718 
L 241.088107 63.391008 
" clip-path="url(#pc4288a530e)" style="fill: none; stroke: #bc5090; stroke-width: 1.5; stroke-linecap: square"/>
   </g>
   <g id="line2d_19"/>
   <g id="line2d_20"/>
   <g id="line2d_21"/>
   <g id="line2d_22">
    <path d="M 89.762972 95.647885 
L 89.762972 19.030178 
" clip-path="url(#pc4288a530e)" style="fill: none; stroke-dasharray: 5.55,2.4; stroke-dashoffset: 0; stroke: #000000; stroke-width: 1.5"/>
   </g>
   <g id="patch_3">
    <path d="M 38.639615 95.647885 
L 38.639615 19.030177 
" style="fill: none; stroke: #000000; stroke-width: 0.8; stroke-linejoin: miter; stroke-linecap: square"/>
   </g>
   <g id="patch_4">
    <path d="M 38.639615 95.647885 
L 243.133041 95.647885 
" style="fill: none; stroke: #000000; stroke-width: 0.8; stroke-linejoin: miter; stroke-linecap: square"/>
   </g>
   <g id="text_12">
    <!-- Nearest Neighbour Distances -->
    <g transform="translate(44.370609 13.030178) scale(0.132 -0.132)">
     <defs>
      <path id="DejaVuSans-4e" d="M 628 4666 
L 1478 4666 
L 3547 763 
L 3547 4666 
L 4159 4666 
L 4159 0 
L 3309 0 
L 1241 3903 
L 1241 0 
L 628 0 
L 628 4666 
z
" transform="scale(0.015625)"/>
      <path id="DejaVuSans-72" d="M 2631 2963 
Q 2534 3019 2420 3045 
Q 2306 3072 2169 3072 
Q 1681 3072 1420 2755 
Q 1159 2438 1159 1844 
L 1159 0 
L 581 0 
L 581 3500 
L 1159 3500 
L 1159 2956 
Q 1341 3275 1631 3429 
Q 1922 3584 2338 3584 
Q 2397 3584 2469 3576 
Q 2541 3569 2628 3553 
L 2631 2963 
z
" transform="scale(0.015625)"/>
      <path id="DejaVuSans-67" d="M 2906 1791 
Q 2906 2416 2648 2759 
Q 2391 3103 1925 3103 
Q 1463 3103 1205 2759 
Q 947 2416 947 1791 
Q 947 1169 1205 825 
Q 1463 481 1925 481 
Q 2391 481 2648 825 
Q 2906 1169 2906 1791 
z
M 3481 434 
Q 3481 -459 3084 -895 
Q 2688 -1331 1869 -1331 
Q 1566 -1331 1297 -1286 
Q 1028 -1241 775 -1147 
L 775 -588 
Q 1028 -725 1275 -790 
Q 1522 -856 1778 -856 
Q 2344 -856 2625 -561 
Q 2906 -266 2906 331 
L 2906 616 
Q 2728 306 2450 153 
Q 2172 0 1784 0 
Q 1141 0 747 490 
Q 353 981 353 1791 
Q 353 2603 747 3093 
Q 1141 3584 1784 3584 
Q 2172 3584 2450 3431 
Q 2728 3278 2906 2969 
L 2906 3500 
L 3481 3500 
L 3481 434 
z
" transform="scale(0.015625)"/>
      <path id="DejaVuSans-68" d="M 3513 2113 
L 3513 0 
L 2938 0 
L 2938 2094 
Q 2938 2591 2744 2837 
Q 2550 3084 2163 3084 
Q 1697 3084 1428 2787 
Q 1159 2491 1159 1978 
L 1159 0 
L 581 0 
L 581 4863 
L 1159 4863 
L 1159 2956 
Q 1366 3272 1645 3428 
Q 1925 3584 2291 3584 
Q 2894 3584 3203 3211 
Q 3513 2838 3513 2113 
z
" transform="scale(0.015625)"/>
      <path id="DejaVuSans-62" d="M 3116 1747 
Q 3116 2381 2855 2742 
Q 2594 3103 2138 3103 
Q 1681 3103 1420 2742 
Q 1159 2381 1159 1747 
Q 1159 1113 1420 752 
Q 1681 391 2138 391 
Q 2594 391 2855 752 
Q 3116 1113 3116 1747 
z
M 1159 2969 
Q 1341 3281 1617 3432 
Q 1894 3584 2278 3584 
Q 2916 3584 3314 3078 
Q 3713 2572 3713 1747 
Q 3713 922 3314 415 
Q 2916 -91 2278 -91 
Q 1894 -91 1617 61 
Q 1341 213 1159 525 
L 1159 0 
L 581 0 
L 581 4863 
L 1159 4863 
L 1159 2969 
z
" transform="scale(0.015625)"/>
      <path id="DejaVuSans-6f" d="M 1959 3097 
Q 1497 3097 1228 2736 
Q 959 2375 959 1747 
Q 959 1119 1226 758 
Q 1494 397 1959 397 
Q 2419 397 2687 759 
Q 2956 1122 2956 1747 
Q 2956 2369 2687 2733 
Q 2419 3097 1959 3097 
z
M 1959 3584 
Q 2709 3584 3137 3096 
Q 3566 2609 3566 1747 
Q 3566 888 3137 398 
Q 2709 -91 1959 -91 
Q 1206 -91 779 398 
Q 353 888 353 1747 
Q 353 2609 779 3096 
Q 1206 3584 1959 3584 
z
" transform="scale(0.015625)"/>
     </defs>
     <use xlink:href="#DejaVuSans-4e"/>
     <use xlink:href="#DejaVuSans-65" x="74.804688"/>
     <use xlink:href="#DejaVuSans-61" x="136.328125"/>
     <use xlink:href="#DejaVuSans-72" x="197.607422"/>
     <use xlink:href="#DejaVuSans-65" x="236.470703"/>
     <use xlink:href="#DejaVuSans-73" x="297.994141"/>
     <use xlink:href="#DejaVuSans-74" x="350.09375"/>
     <use xlink:href="#DejaVuSans-20" x="389.302734"/>
     <use xlink:href="#DejaVuSans-4e" x="421.089844"/>
     <use xlink:href="#DejaVuSans-65" x="495.894531"/>
     <use xlink:href="#DejaVuSans-69" x="557.417969"/>
     <use xlink:href="#DejaVuSans-67" x="585.201172"/>
     <use xlink:href="#DejaVuSans-68" x="648.677734"/>
     <use xlink:href="#DejaVuSans-62" x="712.056641"/>
     <use xlink:href="#DejaVuSans-6f" x="775.533203"/>
     <use xlink:href="#DejaVuSans-75" x="836.714844"/>
     <use xlink:href="#DejaVuSans-72" x="900.09375"/>
     <use xlink:href="#DejaVuSans-20" x="941.207031"/>
     <use xlink:href="#DejaVuSans-44" x="972.994141"/>
     <use xlink:href="#DejaVuSans-69" x="1049.996094"/>
     <use xlink:href="#DejaVuSans-73" x="1077.779297"/>
     <use xlink:href="#DejaVuSans-74" x="1129.878906"/>
     <use xlink:href="#DejaVuSans-61" x="1169.087891"/>
     <use xlink:href="#DejaVuSans-6e" x="1230.367188"/>
     <use xlink:href="#DejaVuSans-63" x="1293.746094"/>
     <use xlink:href="#DejaVuSans-65" x="1348.726562"/>
     <use xlink:href="#DejaVuSans-73" x="1410.25"/>
    </g>
   </g>
  </g>
 </g>
 <defs>
  <clipPath id="pc4288a530e">
   <rect x="38.639615" y="19.030178" width="204.493426" height="76.617707"/>
  </clipPath>
 </defs>
</svg>
