<?xml version="1.0" encoding="utf-8" standalone="no"?>
<!DOCTYPE svg PUBLIC "-//W3C//DTD SVG 1.1//EN"
  "http://www.w3.org/Graphics/SVG/1.1/DTD/svg11.dtd">
<svg xmlns:xlink="http://www.w3.org/1999/xlink" width="254.88pt" height="254.88pt" viewBox="0 0 254.88 254.88" xmlns="http://www.w3.org/2000/svg" version="1.1">
 <metadata>
  <rdf:RDF xmlns:dc="http://purl.org/dc/elements/1.1/" xmlns:cc="http://creativecommons.org/ns#" xmlns:rdf="http://www.w3.org/1999/02/22-rdf-syntax-ns#">
   <cc:Work>
    <dc:type rdf:resource="http://purl.org/dc/dcmitype/StillImage"/>
    <dc:date>2024-01-04T17:17:18.363003</dc:date>
    <dc:format>image/svg+xml</dc:format>
    <dc:creator>
     <cc:Agent>
      <dc:title>Matplotlib v3.8.2, https://matplotlib.org/</dc:title>
     </cc:Agent>
    </dc:creator>
   </cc:Work>
  </rdf:RDF>
 </metadata>
 <defs>
  <style type="text/css">*{stroke-linejoin: round; stroke-linecap: butt}</style>
 </defs>
 <g id="figure_1">
  <g id="patch_1">
   <path d="M 0 254.88 
L 254.88 254.88 
L 254.88 0 
L 0 0 
z
" style="fill: #ffffff"/>
  </g>
  <g id="axes_1">
   <g id="patch_2">
    <path d="M 35.143678 223.087885 
L 251.87976 223.087885 
L 251.87976 19.030178 
L 35.143678 19.030178 
z
" style="fill: #ffffff"/>
   </g>
   <g id="PolyCollection_1">
    <defs>
     <path id="m225e8ed307" d="M 44.995318 -71.054276 
L 44.995318 -63.248265 
L 46.985548 -63.572522 
L 48.975778 -65.522135 
L 50.966009 -66.828178 
L 52.956239 -69.212054 
L 54.946469 -69.124446 
L 56.9367 -69.287218 
L 58.92693 -69.237835 
L 60.91716 -75.192267 
L 62.907391 -74.902685 
L 64.897621 -75.03938 
L 66.887851 -77.960199 
L 68.878082 -79.220134 
L 70.868312 -79.119118 
L 72.858542 -80.754928 
L 74.848773 -81.18643 
L 76.839003 -80.891212 
L 78.829233 -81.068248 
L 80.819463 -84.255841 
L 82.809694 -86.300135 
L 84.799924 -85.985968 
L 86.790154 -89.237878 
L 88.780385 -89.126742 
L 90.770615 -89.749254 
L 92.760845 -91.203661 
L 94.751076 -92.179339 
L 96.741306 -93.528715 
L 98.731536 -94.128288 
L 100.721767 -95.872319 
L 102.711997 -95.777267 
L 104.702227 -95.688621 
L 106.692458 -97.135537 
L 108.682688 -96.992068 
L 110.672918 -98.007641 
L 112.663149 -99.150751 
L 114.653379 -100.546704 
L 116.643609 -100.25699 
L 118.63384 -101.220632 
L 120.62407 -101.033801 
L 122.6143 -102.492458 
L 124.604531 -103.218753 
L 126.594761 -105.933483 
L 128.584991 -106.410109 
L 130.575222 -107.12385 
L 132.565452 -108.320986 
L 134.555682 -109.072089 
L 136.545913 -109.330023 
L 138.536143 -110.228746 
L 140.526373 -112.813989 
L 142.516604 -115.643 
L 144.506834 -116.307789 
L 146.497064 -117.491721 
L 148.487295 -117.09068 
L 150.477525 -117.866221 
L 152.467755 -118.332908 
L 154.457986 -120.813123 
L 156.448216 -121.188212 
L 158.438446 -122.912747 
L 160.428677 -122.821023 
L 162.418907 -123.184967 
L 164.409137 -124.344614 
L 166.399367 -125.944181 
L 168.389598 -125.626073 
L 170.379828 -126.72392 
L 172.370058 -127.487465 
L 174.360289 -128.476654 
L 176.350519 -130.062995 
L 178.340749 -129.473819 
L 180.33098 -130.985371 
L 182.32121 -130.418167 
L 184.31144 -132.454734 
L 186.301671 -134.002779 
L 188.291901 -134.63385 
L 190.282131 -135.140528 
L 192.272362 -135.974496 
L 194.262592 -137.43751 
L 196.252822 -138.950583 
L 198.243053 -138.490623 
L 200.233283 -141.02474 
L 202.223513 -141.348703 
L 204.213744 -142.350196 
L 206.203974 -143.887895 
L 208.194204 -145.322412 
L 210.184435 -144.849952 
L 212.174665 -144.915443 
L 214.164895 -147.935684 
L 216.155126 -148.780536 
L 218.145356 -150.835439 
L 220.135586 -151.681563 
L 222.125817 -152.485928 
L 224.116047 -152.176405 
L 226.106277 -152.026926 
L 228.096508 -154.277716 
L 230.086738 -154.830653 
L 232.076968 -156.09822 
L 234.067199 -157.411668 
L 236.057429 -157.669988 
L 238.047659 -159.541591 
L 240.03789 -160.027982 
L 242.02812 -161.094346 
L 242.02812 -179.893185 
L 242.02812 -179.893185 
L 240.03789 -177.533096 
L 238.047659 -177.827579 
L 236.057429 -176.268836 
L 234.067199 -175.905987 
L 232.076968 -174.293446 
L 230.086738 -172.281867 
L 228.096508 -171.999305 
L 226.106277 -170.275283 
L 224.116047 -169.492237 
L 222.125817 -169.629431 
L 220.135586 -168.667796 
L 218.145356 -168.484372 
L 216.155126 -166.625953 
L 214.164895 -165.838546 
L 212.174665 -163.640647 
L 210.184435 -162.770917 
L 208.194204 -162.879658 
L 206.203974 -160.294436 
L 204.213744 -158.992612 
L 202.223513 -157.597339 
L 200.233283 -157.182793 
L 198.243053 -155.594097 
L 196.252822 -155.346507 
L 194.262592 -152.734163 
L 192.272362 -152.179311 
L 190.282131 -151.206414 
L 188.291901 -150.994971 
L 186.301671 -148.929372 
L 184.31144 -148.005138 
L 182.32121 -146.972847 
L 180.33098 -147.298035 
L 178.340749 -145.607455 
L 176.350519 -145.314378 
L 174.360289 -142.92089 
L 172.370058 -142.810352 
L 170.379828 -142.643006 
L 168.389598 -141.290912 
L 166.399367 -140.948501 
L 164.409137 -140.222064 
L 162.418907 -138.220205 
L 160.428677 -137.689454 
L 158.438446 -137.533645 
L 156.448216 -135.91157 
L 154.457986 -135.477422 
L 152.467755 -132.813702 
L 150.477525 -132.009358 
L 148.487295 -132.578328 
L 146.497064 -131.971217 
L 144.506834 -130.605168 
L 142.516604 -130.642569 
L 140.526373 -125.565787 
L 138.536143 -123.440239 
L 136.545913 -122.116978 
L 134.555682 -122.404908 
L 132.565452 -121.5371 
L 130.575222 -119.122645 
L 128.584991 -119.450027 
L 126.594761 -118.352479 
L 124.604531 -114.453072 
L 122.6143 -114.421418 
L 120.62407 -112.168859 
L 118.63384 -111.740723 
L 116.643609 -111.270283 
L 114.653379 -111.348448 
L 112.663149 -109.920472 
L 110.672918 -109.211778 
L 108.682688 -107.545398 
L 106.692458 -108.029512 
L 104.702227 -106.787419 
L 102.711997 -106.21292 
L 100.721767 -106.983171 
L 98.731536 -104.471373 
L 96.741306 -104.292162 
L 94.751076 -103.153386 
L 92.760845 -101.913978 
L 90.770615 -100.78763 
L 88.780385 -99.125683 
L 86.790154 -99.539614 
L 84.799924 -96.604609 
L 82.809694 -96.452809 
L 80.819463 -94.400541 
L 78.829233 -90.136833 
L 76.839003 -90.210681 
L 74.848773 -90.841552 
L 72.858542 -90.223934 
L 70.868312 -87.903565 
L 68.878082 -88.114471 
L 66.887851 -86.8821 
L 64.897621 -84.156144 
L 62.907391 -84.016548 
L 60.91716 -84.205716 
L 58.92693 -77.431035 
L 56.9367 -77.162587 
L 54.946469 -77.270048 
L 52.956239 -77.732274 
L 50.966009 -74.502667 
L 48.975778 -73.284905 
L 46.985548 -70.748732 
L 44.995318 -71.054276 
z
" style="stroke: #003f5c; stroke-opacity: 0.2"/>
    </defs>
    <g clip-path="url(#p80bbd31aa6)">
     <use xlink:href="#m225e8ed307" x="0" y="254.88" style="fill: #003f5c; fill-opacity: 0.2; stroke: #003f5c; stroke-opacity: 0.2"/>
    </g>
   </g>
   <g id="PolyCollection_2">
    <defs>
     <path id="m58eeec356d" d="M 44.995318 -74.688331 
L 44.995318 -65.693367 
L 46.985548 -65.758967 
L 48.975778 -69.2464 
L 50.966009 -70.627133 
L 52.956239 -75.090981 
L 54.946469 -74.932799 
L 56.9367 -74.644921 
L 58.92693 -74.817341 
L 60.91716 -77.714186 
L 62.907391 -77.985632 
L 64.897621 -77.926594 
L 66.887851 -82.851053 
L 68.878082 -83.972139 
L 70.868312 -83.894654 
L 72.858542 -86.81308 
L 74.848773 -86.566181 
L 76.839003 -86.949254 
L 78.829233 -86.907904 
L 80.819463 -90.929292 
L 82.809694 -92.908374 
L 84.799924 -93.203483 
L 86.790154 -94.462088 
L 88.780385 -94.764876 
L 90.770615 -95.9118 
L 92.760845 -97.229428 
L 94.751076 -98.214467 
L 96.741306 -100.748632 
L 98.731536 -100.674549 
L 100.721767 -105.106159 
L 102.711997 -104.543697 
L 104.702227 -104.624889 
L 106.692458 -106.160602 
L 108.682688 -106.148732 
L 110.672918 -112.097422 
L 112.663149 -113.697936 
L 114.653379 -114.894231 
L 116.643609 -115.305188 
L 118.63384 -116.387903 
L 120.62407 -116.341554 
L 122.6143 -120.662252 
L 124.604531 -121.151807 
L 126.594761 -123.398614 
L 128.584991 -125.034771 
L 130.575222 -125.42816 
L 132.565452 -126.385964 
L 134.555682 -128.935748 
L 136.545913 -129.077886 
L 138.536143 -131.143873 
L 140.526373 -133.7555 
L 142.516604 -135.152534 
L 144.506834 -135.242282 
L 146.497064 -139.240283 
L 148.487295 -139.114562 
L 150.477525 -139.577847 
L 152.467755 -140.396769 
L 154.457986 -142.515349 
L 156.448216 -145.087266 
L 158.438446 -147.5175 
L 160.428677 -147.911391 
L 162.418907 -148.264817 
L 164.409137 -149.305816 
L 166.399367 -151.738061 
L 168.389598 -151.865103 
L 170.379828 -152.851021 
L 172.370058 -154.740552 
L 174.360289 -156.635599 
L 176.350519 -157.686747 
L 178.340749 -158.589205 
L 180.33098 -159.93801 
L 182.32121 -159.51597 
L 184.31144 -161.213645 
L 186.301671 -162.754226 
L 188.291901 -163.807307 
L 190.282131 -165.331755 
L 192.272362 -164.955151 
L 194.262592 -165.005627 
L 196.252822 -167.519021 
L 198.243053 -167.908181 
L 200.233283 -170.278833 
L 202.223513 -170.113926 
L 204.213744 -170.967836 
L 206.203974 -172.448951 
L 208.194204 -174.033094 
L 210.184435 -174.625421 
L 212.174665 -174.325602 
L 214.164895 -175.997476 
L 216.155126 -178.621467 
L 218.145356 -184.381982 
L 220.135586 -184.84858 
L 222.125817 -185.265779 
L 224.116047 -184.351923 
L 226.106277 -185.988348 
L 228.096508 -187.931364 
L 230.086738 -188.657734 
L 232.076968 -190.180555 
L 234.067199 -190.681333 
L 236.057429 -191.021807 
L 238.047659 -195.032628 
L 240.03789 -194.62354 
L 242.02812 -195.865733 
L 242.02812 -226.574472 
L 242.02812 -226.574472 
L 240.03789 -225.368253 
L 238.047659 -225.033371 
L 236.057429 -222.276836 
L 234.067199 -221.835649 
L 232.076968 -220.056586 
L 230.086738 -219.212296 
L 228.096508 -217.342518 
L 226.106277 -215.52992 
L 224.116047 -215.286987 
L 222.125817 -215.634475 
L 220.135586 -215.40016 
L 218.145356 -213.871542 
L 216.155126 -208.669969 
L 214.164895 -205.616664 
L 212.174665 -204.226377 
L 210.184435 -203.425088 
L 208.194204 -204.882175 
L 206.203974 -203.536915 
L 204.213744 -201.227957 
L 202.223513 -199.579159 
L 200.233283 -199.625512 
L 198.243053 -198.055454 
L 196.252822 -197.073295 
L 194.262592 -195.780732 
L 192.272362 -193.376074 
L 190.282131 -194.971362 
L 188.291901 -193.343767 
L 186.301671 -193.491121 
L 184.31144 -189.932579 
L 182.32121 -188.999235 
L 180.33098 -188.369804 
L 178.340749 -185.628934 
L 176.350519 -185.958253 
L 174.360289 -185.608912 
L 172.370058 -184.969 
L 170.379828 -181.914616 
L 168.389598 -180.017572 
L 166.399367 -181.687943 
L 164.409137 -178.574845 
L 162.418907 -176.733951 
L 160.428677 -175.538591 
L 158.438446 -176.269407 
L 156.448216 -174.729163 
L 154.457986 -168.222676 
L 152.467755 -166.045637 
L 150.477525 -164.173587 
L 148.487295 -163.731249 
L 146.497064 -164.364975 
L 144.506834 -160.570829 
L 142.516604 -160.333242 
L 140.526373 -157.54371 
L 138.536143 -154.232661 
L 136.545913 -151.382396 
L 134.555682 -151.785389 
L 132.565452 -150.016146 
L 130.575222 -148.380959 
L 128.584991 -148.609709 
L 126.594761 -146.578135 
L 124.604531 -143.841471 
L 122.6143 -142.112682 
L 120.62407 -134.81733 
L 118.63384 -135.331026 
L 116.643609 -134.62912 
L 114.653379 -133.912296 
L 112.663149 -133.455946 
L 110.672918 -130.878354 
L 108.682688 -119.946388 
L 106.692458 -119.567583 
L 104.702227 -118.646281 
L 102.711997 -117.809049 
L 100.721767 -117.665927 
L 98.731536 -113.389409 
L 96.741306 -113.679087 
L 94.751076 -110.28727 
L 92.760845 -109.30067 
L 90.770615 -108.071818 
L 88.780385 -107.579914 
L 86.790154 -107.648555 
L 84.799924 -104.728741 
L 82.809694 -104.906176 
L 80.819463 -102.786229 
L 78.829233 -97.382897 
L 76.839003 -98.30258 
L 74.848773 -97.967639 
L 72.858542 -97.894109 
L 70.868312 -94.713892 
L 68.878082 -94.585676 
L 66.887851 -93.592864 
L 64.897621 -89.293151 
L 62.907391 -88.644249 
L 60.91716 -88.507255 
L 58.92693 -85.338515 
L 56.9367 -85.44741 
L 54.946469 -85.330482 
L 52.956239 -85.440884 
L 50.966009 -80.643957 
L 48.975778 -78.751725 
L 46.985548 -74.641424 
L 44.995318 -74.688331 
z
" style="stroke: #ffa600; stroke-opacity: 0.2"/>
    </defs>
    <g clip-path="url(#p80bbd31aa6)">
     <use xlink:href="#m58eeec356d" x="0" y="254.88" style="fill: #ffa600; fill-opacity: 0.2; stroke: #ffa600; stroke-opacity: 0.2"/>
    </g>
   </g>
   <g id="PolyCollection_3">
    <defs>
     <path id="mf7cf759c0c" d="M 44.995318 -66.347434 
L 44.995318 -62.925831 
L 46.985548 -63.024675 
L 48.975778 -64.606156 
L 50.966009 -66.598327 
L 52.956239 -69.717768 
L 54.946469 -69.653753 
L 56.9367 -69.672989 
L 58.92693 -69.915882 
L 60.91716 -72.679975 
L 62.907391 -72.695525 
L 64.897621 -72.678269 
L 66.887851 -75.75004 
L 68.878082 -76.964557 
L 70.868312 -76.822837 
L 72.858542 -79.084215 
L 74.848773 -78.950646 
L 76.839003 -78.832816 
L 78.829233 -78.929067 
L 80.819463 -81.630095 
L 82.809694 -83.187464 
L 84.799924 -83.159457 
L 86.790154 -84.753814 
L 88.780385 -84.723069 
L 90.770615 -85.329422 
L 92.760845 -86.888411 
L 94.751076 -87.578623 
L 96.741306 -89.567917 
L 98.731536 -89.45889 
L 100.721767 -92.869229 
L 102.711997 -92.812562 
L 104.702227 -92.897587 
L 106.692458 -94.429461 
L 108.682688 -94.191758 
L 110.672918 -96.988576 
L 112.663149 -98.483463 
L 114.653379 -99.893969 
L 116.643609 -99.997169 
L 118.63384 -100.999962 
L 120.62407 -101.068503 
L 122.6143 -102.270348 
L 124.604531 -102.834109 
L 126.594761 -105.60639 
L 128.584991 -106.962569 
L 130.575222 -107.030552 
L 132.565452 -109.024318 
L 134.555682 -110.007012 
L 136.545913 -110.232399 
L 138.536143 -111.358741 
L 140.526373 -112.6451 
L 142.516604 -114.580221 
L 144.506834 -114.400139 
L 146.497064 -116.319142 
L 148.487295 -116.402624 
L 150.477525 -116.263076 
L 152.467755 -117.270721 
L 154.457986 -119.41797 
L 156.448216 -120.243589 
L 158.438446 -122.142432 
L 160.428677 -122.110966 
L 162.418907 -122.878638 
L 164.409137 -123.689029 
L 166.399367 -125.549434 
L 168.389598 -125.425934 
L 170.379828 -126.729136 
L 172.370058 -128.916526 
L 174.360289 -129.341066 
L 176.350519 -130.811378 
L 178.340749 -130.773968 
L 180.33098 -132.442872 
L 182.32121 -132.613026 
L 184.31144 -134.59995 
L 186.301671 -136.205207 
L 188.291901 -136.652336 
L 190.282131 -137.631068 
L 192.272362 -138.131885 
L 194.262592 -138.913837 
L 196.252822 -140.24556 
L 198.243053 -140.115951 
L 200.233283 -142.969542 
L 202.223513 -143.758628 
L 204.213744 -144.271026 
L 206.203974 -145.66117 
L 208.194204 -146.713116 
L 210.184435 -147.06465 
L 212.174665 -147.186637 
L 214.164895 -149.756201 
L 216.155126 -151.126878 
L 218.145356 -152.692272 
L 220.135586 -153.765731 
L 222.125817 -154.32343 
L 224.116047 -153.845741 
L 226.106277 -154.722379 
L 228.096508 -155.906246 
L 230.086738 -157.276392 
L 232.076968 -158.650923 
L 234.067199 -160.135266 
L 236.057429 -160.485536 
L 238.047659 -161.465454 
L 240.03789 -161.798025 
L 242.02812 -162.842097 
L 242.02812 -170.215547 
L 242.02812 -170.215547 
L 240.03789 -169.069394 
L 238.047659 -169.168905 
L 236.057429 -167.63623 
L 234.067199 -166.921485 
L 232.076968 -165.849416 
L 230.086738 -164.540865 
L 228.096508 -163.093284 
L 226.106277 -161.680697 
L 224.116047 -161.491229 
L 222.125817 -161.324193 
L 220.135586 -160.598211 
L 218.145356 -159.790324 
L 216.155126 -157.96952 
L 214.164895 -156.941473 
L 212.174665 -154.794144 
L 210.184435 -154.07296 
L 208.194204 -154.153345 
L 206.203974 -153.172266 
L 204.213744 -151.353888 
L 202.223513 -151.036717 
L 200.233283 -149.712535 
L 198.243053 -146.673985 
L 196.252822 -146.703241 
L 194.262592 -145.626857 
L 192.272362 -145.145898 
L 190.282131 -144.235325 
L 188.291901 -143.19313 
L 186.301671 -142.557183 
L 184.31144 -141.132002 
L 182.32121 -139.002199 
L 180.33098 -138.765963 
L 178.340749 -137.350077 
L 176.350519 -137.325777 
L 174.360289 -135.452658 
L 172.370058 -135.307548 
L 170.379828 -132.67103 
L 168.389598 -131.369551 
L 166.399367 -131.443732 
L 164.409137 -129.669652 
L 162.418907 -128.795835 
L 160.428677 -127.757938 
L 158.438446 -128.115046 
L 156.448216 -126.146491 
L 154.457986 -125.000056 
L 152.467755 -123.226462 
L 150.477525 -122.045899 
L 148.487295 -122.091627 
L 146.497064 -122.115351 
L 144.506834 -120.244024 
L 142.516604 -120.363427 
L 140.526373 -118.110067 
L 138.536143 -116.667178 
L 136.545913 -115.431274 
L 134.555682 -115.555875 
L 132.565452 -114.426776 
L 130.575222 -111.988357 
L 128.584991 -112.089502 
L 126.594761 -110.546533 
L 124.604531 -107.624745 
L 122.6143 -107.199425 
L 120.62407 -105.599722 
L 118.63384 -105.733706 
L 116.643609 -104.353198 
L 114.653379 -104.470749 
L 112.663149 -103.27233 
L 110.672918 -101.611343 
L 108.682688 -98.672336 
L 106.692458 -98.728438 
L 104.702227 -97.438096 
L 102.711997 -97.364003 
L 100.721767 -97.310672 
L 98.731536 -93.882487 
L 96.741306 -93.890166 
L 94.751076 -91.895952 
L 92.760845 -91.057017 
L 90.770615 -89.618258 
L 88.780385 -89.138109 
L 86.790154 -88.954034 
L 84.799924 -87.307591 
L 82.809694 -87.209471 
L 80.819463 -85.608853 
L 78.829233 -83.044467 
L 76.839003 -82.911785 
L 74.848773 -83.126893 
L 72.858542 -82.868286 
L 70.868312 -80.930332 
L 68.878082 -80.790644 
L 66.887851 -79.781291 
L 64.897621 -76.234672 
L 62.907391 -76.30023 
L 60.91716 -76.321641 
L 58.92693 -73.224586 
L 56.9367 -73.377631 
L 54.946469 -73.295851 
L 52.956239 -73.451812 
L 50.966009 -69.949105 
L 48.975778 -68.016416 
L 46.985548 -66.28129 
L 44.995318 -66.347434 
z
" style="stroke: #bc5090; stroke-opacity: 0.2"/>
    </defs>
    <g clip-path="url(#p80bbd31aa6)">
     <use xlink:href="#mf7cf759c0c" x="0" y="254.88" style="fill: #bc5090; fill-opacity: 0.2; stroke: #bc5090; stroke-opacity: 0.2"/>
    </g>
   </g>
   <g id="matplotlib.axis_1">
    <g id="xtick_1">
     <g id="line2d_1">
      <defs>
       <path id="m942829da60" d="M 0 0 
L 0 -3.5 
" style="stroke: #000000; stroke-width: 0.8"/>
      </defs>
      <g>
       <use xlink:href="#m942829da60" x="44.995318" y="223.087885" style="stroke: #000000; stroke-width: 0.8"/>
      </g>
     </g>
     <g id="text_1">
      <!-- 0.2 -->
      <g transform="translate(36.248599 234.946166) scale(0.11 -0.11)">
       <defs>
        <path id="DejaVuSans-30" d="M 2034 4250 
Q 1547 4250 1301 3770 
Q 1056 3291 1056 2328 
Q 1056 1369 1301 889 
Q 1547 409 2034 409 
Q 2525 409 2770 889 
Q 3016 1369 3016 2328 
Q 3016 3291 2770 3770 
Q 2525 4250 2034 4250 
z
M 2034 4750 
Q 2819 4750 3233 4129 
Q 3647 3509 3647 2328 
Q 3647 1150 3233 529 
Q 2819 -91 2034 -91 
Q 1250 -91 836 529 
Q 422 1150 422 2328 
Q 422 3509 836 4129 
Q 1250 4750 2034 4750 
z
" transform="scale(0.015625)"/>
        <path id="DejaVuSans-2e" d="M 684 794 
L 1344 794 
L 1344 0 
L 684 0 
L 684 794 
z
" transform="scale(0.015625)"/>
        <path id="DejaVuSans-32" d="M 1228 531 
L 3431 531 
L 3431 0 
L 469 0 
L 469 531 
Q 828 903 1448 1529 
Q 2069 2156 2228 2338 
Q 2531 2678 2651 2914 
Q 2772 3150 2772 3378 
Q 2772 3750 2511 3984 
Q 2250 4219 1831 4219 
Q 1534 4219 1204 4116 
Q 875 4013 500 3803 
L 500 4441 
Q 881 4594 1212 4672 
Q 1544 4750 1819 4750 
Q 2544 4750 2975 4387 
Q 3406 4025 3406 3419 
Q 3406 3131 3298 2873 
Q 3191 2616 2906 2266 
Q 2828 2175 2409 1742 
Q 1991 1309 1228 531 
z
" transform="scale(0.015625)"/>
       </defs>
       <use xlink:href="#DejaVuSans-30"/>
       <use xlink:href="#DejaVuSans-2e" x="63.623047"/>
       <use xlink:href="#DejaVuSans-32" x="95.410156"/>
      </g>
     </g>
    </g>
    <g id="xtick_2">
     <g id="line2d_2">
      <g>
       <use xlink:href="#m942829da60" x="84.401878" y="223.087885" style="stroke: #000000; stroke-width: 0.8"/>
      </g>
     </g>
     <g id="text_2">
      <!-- 0.4 -->
      <g transform="translate(75.655159 234.946166) scale(0.11 -0.11)">
       <defs>
        <path id="DejaVuSans-34" d="M 2419 4116 
L 825 1625 
L 2419 1625 
L 2419 4116 
z
M 2253 4666 
L 3047 4666 
L 3047 1625 
L 3713 1625 
L 3713 1100 
L 3047 1100 
L 3047 0 
L 2419 0 
L 2419 1100 
L 313 1100 
L 313 1709 
L 2253 4666 
z
" transform="scale(0.015625)"/>
       </defs>
       <use xlink:href="#DejaVuSans-30"/>
       <use xlink:href="#DejaVuSans-2e" x="63.623047"/>
       <use xlink:href="#DejaVuSans-34" x="95.410156"/>
      </g>
     </g>
    </g>
    <g id="xtick_3">
     <g id="line2d_3">
      <g>
       <use xlink:href="#m942829da60" x="123.808439" y="223.087885" style="stroke: #000000; stroke-width: 0.8"/>
      </g>
     </g>
     <g id="text_3">
      <!-- 0.6 -->
      <g transform="translate(115.06172 234.946166) scale(0.11 -0.11)">
       <defs>
        <path id="DejaVuSans-36" d="M 2113 2584 
Q 1688 2584 1439 2293 
Q 1191 2003 1191 1497 
Q 1191 994 1439 701 
Q 1688 409 2113 409 
Q 2538 409 2786 701 
Q 3034 994 3034 1497 
Q 3034 2003 2786 2293 
Q 2538 2584 2113 2584 
z
M 3366 4563 
L 3366 3988 
Q 3128 4100 2886 4159 
Q 2644 4219 2406 4219 
Q 1781 4219 1451 3797 
Q 1122 3375 1075 2522 
Q 1259 2794 1537 2939 
Q 1816 3084 2150 3084 
Q 2853 3084 3261 2657 
Q 3669 2231 3669 1497 
Q 3669 778 3244 343 
Q 2819 -91 2113 -91 
Q 1303 -91 875 529 
Q 447 1150 447 2328 
Q 447 3434 972 4092 
Q 1497 4750 2381 4750 
Q 2619 4750 2861 4703 
Q 3103 4656 3366 4563 
z
" transform="scale(0.015625)"/>
       </defs>
       <use xlink:href="#DejaVuSans-30"/>
       <use xlink:href="#DejaVuSans-2e" x="63.623047"/>
       <use xlink:href="#DejaVuSans-36" x="95.410156"/>
      </g>
     </g>
    </g>
    <g id="xtick_4">
     <g id="line2d_4">
      <g>
       <use xlink:href="#m942829da60" x="163.214999" y="223.087885" style="stroke: #000000; stroke-width: 0.8"/>
      </g>
     </g>
     <g id="text_4">
      <!-- 0.8 -->
      <g transform="translate(154.46828 234.946166) scale(0.11 -0.11)">
       <defs>
        <path id="DejaVuSans-38" d="M 2034 2216 
Q 1584 2216 1326 1975 
Q 1069 1734 1069 1313 
Q 1069 891 1326 650 
Q 1584 409 2034 409 
Q 2484 409 2743 651 
Q 3003 894 3003 1313 
Q 3003 1734 2745 1975 
Q 2488 2216 2034 2216 
z
M 1403 2484 
Q 997 2584 770 2862 
Q 544 3141 544 3541 
Q 544 4100 942 4425 
Q 1341 4750 2034 4750 
Q 2731 4750 3128 4425 
Q 3525 4100 3525 3541 
Q 3525 3141 3298 2862 
Q 3072 2584 2669 2484 
Q 3125 2378 3379 2068 
Q 3634 1759 3634 1313 
Q 3634 634 3220 271 
Q 2806 -91 2034 -91 
Q 1263 -91 848 271 
Q 434 634 434 1313 
Q 434 1759 690 2068 
Q 947 2378 1403 2484 
z
M 1172 3481 
Q 1172 3119 1398 2916 
Q 1625 2713 2034 2713 
Q 2441 2713 2670 2916 
Q 2900 3119 2900 3481 
Q 2900 3844 2670 4047 
Q 2441 4250 2034 4250 
Q 1625 4250 1398 4047 
Q 1172 3844 1172 3481 
z
" transform="scale(0.015625)"/>
       </defs>
       <use xlink:href="#DejaVuSans-30"/>
       <use xlink:href="#DejaVuSans-2e" x="63.623047"/>
       <use xlink:href="#DejaVuSans-38" x="95.410156"/>
      </g>
     </g>
    </g>
    <g id="xtick_5">
     <g id="line2d_5">
      <g>
       <use xlink:href="#m942829da60" x="202.621559" y="223.087885" style="stroke: #000000; stroke-width: 0.8"/>
      </g>
     </g>
     <g id="text_5">
      <!-- 1.0 -->
      <g transform="translate(193.874841 234.946166) scale(0.11 -0.11)">
       <defs>
        <path id="DejaVuSans-31" d="M 794 531 
L 1825 531 
L 1825 4091 
L 703 3866 
L 703 4441 
L 1819 4666 
L 2450 4666 
L 2450 531 
L 3481 531 
L 3481 0 
L 794 0 
L 794 531 
z
" transform="scale(0.015625)"/>
       </defs>
       <use xlink:href="#DejaVuSans-31"/>
       <use xlink:href="#DejaVuSans-2e" x="63.623047"/>
       <use xlink:href="#DejaVuSans-30" x="95.410156"/>
      </g>
     </g>
    </g>
    <g id="xtick_6">
     <g id="line2d_6">
      <g>
       <use xlink:href="#m942829da60" x="242.02812" y="223.087885" style="stroke: #000000; stroke-width: 0.8"/>
      </g>
     </g>
     <g id="text_6">
      <!-- 1.2 -->
      <g transform="translate(233.281401 234.946166) scale(0.11 -0.11)">
       <use xlink:href="#DejaVuSans-31"/>
       <use xlink:href="#DejaVuSans-2e" x="63.623047"/>
       <use xlink:href="#DejaVuSans-32" x="95.410156"/>
      </g>
     </g>
    </g>
    <g id="text_7">
     <!-- Distance [µm] -->
     <g transform="translate(104.566563 249.592104) scale(0.11 -0.11)">
      <defs>
       <path id="DejaVuSans-44" d="M 1259 4147 
L 1259 519 
L 2022 519 
Q 2988 519 3436 956 
Q 3884 1394 3884 2338 
Q 3884 3275 3436 3711 
Q 2988 4147 2022 4147 
L 1259 4147 
z
M 628 4666 
L 1925 4666 
Q 3281 4666 3915 4102 
Q 4550 3538 4550 2338 
Q 4550 1131 3912 565 
Q 3275 0 1925 0 
L 628 0 
L 628 4666 
z
" transform="scale(0.015625)"/>
       <path id="DejaVuSans-69" d="M 603 3500 
L 1178 3500 
L 1178 0 
L 603 0 
L 603 3500 
z
M 603 4863 
L 1178 4863 
L 1178 4134 
L 603 4134 
L 603 4863 
z
" transform="scale(0.015625)"/>
       <path id="DejaVuSans-73" d="M 2834 3397 
L 2834 2853 
Q 2591 2978 2328 3040 
Q 2066 3103 1784 3103 
Q 1356 3103 1142 2972 
Q 928 2841 928 2578 
Q 928 2378 1081 2264 
Q 1234 2150 1697 2047 
L 1894 2003 
Q 2506 1872 2764 1633 
Q 3022 1394 3022 966 
Q 3022 478 2636 193 
Q 2250 -91 1575 -91 
Q 1294 -91 989 -36 
Q 684 19 347 128 
L 347 722 
Q 666 556 975 473 
Q 1284 391 1588 391 
Q 1994 391 2212 530 
Q 2431 669 2431 922 
Q 2431 1156 2273 1281 
Q 2116 1406 1581 1522 
L 1381 1569 
Q 847 1681 609 1914 
Q 372 2147 372 2553 
Q 372 3047 722 3315 
Q 1072 3584 1716 3584 
Q 2034 3584 2315 3537 
Q 2597 3491 2834 3397 
z
" transform="scale(0.015625)"/>
       <path id="DejaVuSans-74" d="M 1172 4494 
L 1172 3500 
L 2356 3500 
L 2356 3053 
L 1172 3053 
L 1172 1153 
Q 1172 725 1289 603 
Q 1406 481 1766 481 
L 2356 481 
L 2356 0 
L 1766 0 
Q 1100 0 847 248 
Q 594 497 594 1153 
L 594 3053 
L 172 3053 
L 172 3500 
L 594 3500 
L 594 4494 
L 1172 4494 
z
" transform="scale(0.015625)"/>
       <path id="DejaVuSans-61" d="M 2194 1759 
Q 1497 1759 1228 1600 
Q 959 1441 959 1056 
Q 959 750 1161 570 
Q 1363 391 1709 391 
Q 2188 391 2477 730 
Q 2766 1069 2766 1631 
L 2766 1759 
L 2194 1759 
z
M 3341 1997 
L 3341 0 
L 2766 0 
L 2766 531 
Q 2569 213 2275 61 
Q 1981 -91 1556 -91 
Q 1019 -91 701 211 
Q 384 513 384 1019 
Q 384 1609 779 1909 
Q 1175 2209 1959 2209 
L 2766 2209 
L 2766 2266 
Q 2766 2663 2505 2880 
Q 2244 3097 1772 3097 
Q 1472 3097 1187 3025 
Q 903 2953 641 2809 
L 641 3341 
Q 956 3463 1253 3523 
Q 1550 3584 1831 3584 
Q 2591 3584 2966 3190 
Q 3341 2797 3341 1997 
z
" transform="scale(0.015625)"/>
       <path id="DejaVuSans-6e" d="M 3513 2113 
L 3513 0 
L 2938 0 
L 2938 2094 
Q 2938 2591 2744 2837 
Q 2550 3084 2163 3084 
Q 1697 3084 1428 2787 
Q 1159 2491 1159 1978 
L 1159 0 
L 581 0 
L 581 3500 
L 1159 3500 
L 1159 2956 
Q 1366 3272 1645 3428 
Q 1925 3584 2291 3584 
Q 2894 3584 3203 3211 
Q 3513 2838 3513 2113 
z
" transform="scale(0.015625)"/>
       <path id="DejaVuSans-63" d="M 3122 3366 
L 3122 2828 
Q 2878 2963 2633 3030 
Q 2388 3097 2138 3097 
Q 1578 3097 1268 2742 
Q 959 2388 959 1747 
Q 959 1106 1268 751 
Q 1578 397 2138 397 
Q 2388 397 2633 464 
Q 2878 531 3122 666 
L 3122 134 
Q 2881 22 2623 -34 
Q 2366 -91 2075 -91 
Q 1284 -91 818 406 
Q 353 903 353 1747 
Q 353 2603 823 3093 
Q 1294 3584 2113 3584 
Q 2378 3584 2631 3529 
Q 2884 3475 3122 3366 
z
" transform="scale(0.015625)"/>
       <path id="DejaVuSans-65" d="M 3597 1894 
L 3597 1613 
L 953 1613 
Q 991 1019 1311 708 
Q 1631 397 2203 397 
Q 2534 397 2845 478 
Q 3156 559 3463 722 
L 3463 178 
Q 3153 47 2828 -22 
Q 2503 -91 2169 -91 
Q 1331 -91 842 396 
Q 353 884 353 1716 
Q 353 2575 817 3079 
Q 1281 3584 2069 3584 
Q 2775 3584 3186 3129 
Q 3597 2675 3597 1894 
z
M 3022 2063 
Q 3016 2534 2758 2815 
Q 2500 3097 2075 3097 
Q 1594 3097 1305 2825 
Q 1016 2553 972 2059 
L 3022 2063 
z
" transform="scale(0.015625)"/>
       <path id="DejaVuSans-20" transform="scale(0.015625)"/>
       <path id="DejaVuSans-5b" d="M 550 4863 
L 1875 4863 
L 1875 4416 
L 1125 4416 
L 1125 -397 
L 1875 -397 
L 1875 -844 
L 550 -844 
L 550 4863 
z
" transform="scale(0.015625)"/>
       <path id="DejaVuSans-b5" d="M 544 -1331 
L 544 3500 
L 1119 3500 
L 1119 1325 
Q 1119 872 1334 640 
Q 1550 409 1972 409 
Q 2434 409 2667 671 
Q 2900 934 2900 1459 
L 2900 3500 
L 3475 3500 
L 3475 806 
Q 3475 619 3529 530 
Q 3584 441 3700 441 
Q 3728 441 3778 458 
Q 3828 475 3916 513 
L 3916 50 
Q 3788 -22 3673 -56 
Q 3559 -91 3450 -91 
Q 3234 -91 3106 31 
Q 2978 153 2931 403 
Q 2775 156 2548 32 
Q 2322 -91 2016 -91 
Q 1697 -91 1473 31 
Q 1250 153 1119 397 
L 1119 -1331 
L 544 -1331 
z
" transform="scale(0.015625)"/>
       <path id="DejaVuSans-6d" d="M 3328 2828 
Q 3544 3216 3844 3400 
Q 4144 3584 4550 3584 
Q 5097 3584 5394 3201 
Q 5691 2819 5691 2113 
L 5691 0 
L 5113 0 
L 5113 2094 
Q 5113 2597 4934 2840 
Q 4756 3084 4391 3084 
Q 3944 3084 3684 2787 
Q 3425 2491 3425 1978 
L 3425 0 
L 2847 0 
L 2847 2094 
Q 2847 2600 2669 2842 
Q 2491 3084 2119 3084 
Q 1678 3084 1418 2786 
Q 1159 2488 1159 1978 
L 1159 0 
L 581 0 
L 581 3500 
L 1159 3500 
L 1159 2956 
Q 1356 3278 1631 3431 
Q 1906 3584 2284 3584 
Q 2666 3584 2933 3390 
Q 3200 3197 3328 2828 
z
" transform="scale(0.015625)"/>
       <path id="DejaVuSans-5d" d="M 1947 4863 
L 1947 -844 
L 622 -844 
L 622 -397 
L 1369 -397 
L 1369 4416 
L 622 4416 
L 622 4863 
L 1947 4863 
z
" transform="scale(0.015625)"/>
      </defs>
      <use xlink:href="#DejaVuSans-44"/>
      <use xlink:href="#DejaVuSans-69" x="77.001953"/>
      <use xlink:href="#DejaVuSans-73" x="104.785156"/>
      <use xlink:href="#DejaVuSans-74" x="156.884766"/>
      <use xlink:href="#DejaVuSans-61" x="196.09375"/>
      <use xlink:href="#DejaVuSans-6e" x="257.373047"/>
      <use xlink:href="#DejaVuSans-63" x="320.751953"/>
      <use xlink:href="#DejaVuSans-65" x="375.732422"/>
      <use xlink:href="#DejaVuSans-20" x="437.255859"/>
      <use xlink:href="#DejaVuSans-5b" x="469.042969"/>
      <use xlink:href="#DejaVuSans-b5" x="508.056641"/>
      <use xlink:href="#DejaVuSans-6d" x="571.679688"/>
      <use xlink:href="#DejaVuSans-5d" x="669.091797"/>
     </g>
    </g>
   </g>
   <g id="matplotlib.axis_2">
    <g id="ytick_1">
     <g id="line2d_7">
      <defs>
       <path id="m40c11ab713" d="M 0 0 
L 3.5 0 
" style="stroke: #000000; stroke-width: 0.8"/>
      </defs>
      <g>
       <use xlink:href="#m40c11ab713" x="35.143678" y="214.932188" style="stroke: #000000; stroke-width: 0.8"/>
      </g>
     </g>
     <g id="text_8">
      <!-- 0 -->
      <g transform="translate(24.644928 219.111329) scale(0.11 -0.11)">
       <use xlink:href="#DejaVuSans-30"/>
      </g>
     </g>
    </g>
    <g id="ytick_2">
     <g id="line2d_8">
      <g>
       <use xlink:href="#m40c11ab713" x="35.143678" y="186.940844" style="stroke: #000000; stroke-width: 0.8"/>
      </g>
     </g>
     <g id="text_9">
      <!-- 5 -->
      <g transform="translate(24.644928 191.119985) scale(0.11 -0.11)">
       <defs>
        <path id="DejaVuSans-35" d="M 691 4666 
L 3169 4666 
L 3169 4134 
L 1269 4134 
L 1269 2991 
Q 1406 3038 1543 3061 
Q 1681 3084 1819 3084 
Q 2600 3084 3056 2656 
Q 3513 2228 3513 1497 
Q 3513 744 3044 326 
Q 2575 -91 1722 -91 
Q 1428 -91 1123 -41 
Q 819 9 494 109 
L 494 744 
Q 775 591 1075 516 
Q 1375 441 1709 441 
Q 2250 441 2565 725 
Q 2881 1009 2881 1497 
Q 2881 1984 2565 2268 
Q 2250 2553 1709 2553 
Q 1456 2553 1204 2497 
Q 953 2441 691 2322 
L 691 4666 
z
" transform="scale(0.015625)"/>
       </defs>
       <use xlink:href="#DejaVuSans-35"/>
      </g>
     </g>
    </g>
    <g id="ytick_3">
     <g id="line2d_9">
      <g>
       <use xlink:href="#m40c11ab713" x="35.143678" y="158.9495" style="stroke: #000000; stroke-width: 0.8"/>
      </g>
     </g>
     <g id="text_10">
      <!-- 10 -->
      <g transform="translate(17.646178 163.12864) scale(0.11 -0.11)">
       <use xlink:href="#DejaVuSans-31"/>
       <use xlink:href="#DejaVuSans-30" x="63.623047"/>
      </g>
     </g>
    </g>
    <g id="ytick_4">
     <g id="line2d_10">
      <g>
       <use xlink:href="#m40c11ab713" x="35.143678" y="130.958155" style="stroke: #000000; stroke-width: 0.8"/>
      </g>
     </g>
     <g id="text_11">
      <!-- 15 -->
      <g transform="translate(17.646178 135.137296) scale(0.11 -0.11)">
       <use xlink:href="#DejaVuSans-31"/>
       <use xlink:href="#DejaVuSans-35" x="63.623047"/>
      </g>
     </g>
    </g>
    <g id="ytick_5">
     <g id="line2d_11">
      <g>
       <use xlink:href="#m40c11ab713" x="35.143678" y="102.966811" style="stroke: #000000; stroke-width: 0.8"/>
      </g>
     </g>
     <g id="text_12">
      <!-- 20 -->
      <g transform="translate(17.646178 107.145952) scale(0.11 -0.11)">
       <use xlink:href="#DejaVuSans-32"/>
       <use xlink:href="#DejaVuSans-30" x="63.623047"/>
      </g>
     </g>
    </g>
    <g id="ytick_6">
     <g id="line2d_12">
      <g>
       <use xlink:href="#m40c11ab713" x="35.143678" y="74.975467" style="stroke: #000000; stroke-width: 0.8"/>
      </g>
     </g>
     <g id="text_13">
      <!-- 25 -->
      <g transform="translate(17.646178 79.154607) scale(0.11 -0.11)">
       <use xlink:href="#DejaVuSans-32"/>
       <use xlink:href="#DejaVuSans-35" x="63.623047"/>
      </g>
     </g>
    </g>
    <g id="ytick_7">
     <g id="line2d_13">
      <g>
       <use xlink:href="#m40c11ab713" x="35.143678" y="46.984122" style="stroke: #000000; stroke-width: 0.8"/>
      </g>
     </g>
     <g id="text_14">
      <!-- 30 -->
      <g transform="translate(17.646178 51.163263) scale(0.11 -0.11)">
       <defs>
        <path id="DejaVuSans-33" d="M 2597 2516 
Q 3050 2419 3304 2112 
Q 3559 1806 3559 1356 
Q 3559 666 3084 287 
Q 2609 -91 1734 -91 
Q 1441 -91 1130 -33 
Q 819 25 488 141 
L 488 750 
Q 750 597 1062 519 
Q 1375 441 1716 441 
Q 2309 441 2620 675 
Q 2931 909 2931 1356 
Q 2931 1769 2642 2001 
Q 2353 2234 1838 2234 
L 1294 2234 
L 1294 2753 
L 1863 2753 
Q 2328 2753 2575 2939 
Q 2822 3125 2822 3475 
Q 2822 3834 2567 4026 
Q 2313 4219 1838 4219 
Q 1578 4219 1281 4162 
Q 984 4106 628 3988 
L 628 4550 
Q 988 4650 1302 4700 
Q 1616 4750 1894 4750 
Q 2613 4750 3031 4423 
Q 3450 4097 3450 3541 
Q 3450 3153 3228 2886 
Q 3006 2619 2597 2516 
z
" transform="scale(0.015625)"/>
       </defs>
       <use xlink:href="#DejaVuSans-33"/>
       <use xlink:href="#DejaVuSans-30" x="63.623047"/>
      </g>
     </g>
    </g>
    <g id="ytick_8">
     <g id="line2d_14">
      <defs>
       <path id="m961e84c7aa" d="M 0 0 
L 2 0 
" style="stroke: #000000; stroke-width: 0.6"/>
      </defs>
      <g>
       <use xlink:href="#m961e84c7aa" x="35.143678" y="220.530457" style="stroke: #000000; stroke-width: 0.6"/>
      </g>
     </g>
    </g>
    <g id="ytick_9">
     <g id="line2d_15">
      <g>
       <use xlink:href="#m961e84c7aa" x="35.143678" y="209.33392" style="stroke: #000000; stroke-width: 0.6"/>
      </g>
     </g>
    </g>
    <g id="ytick_10">
     <g id="line2d_16">
      <g>
       <use xlink:href="#m961e84c7aa" x="35.143678" y="203.735651" style="stroke: #000000; stroke-width: 0.6"/>
      </g>
     </g>
    </g>
    <g id="ytick_11">
     <g id="line2d_17">
      <g>
       <use xlink:href="#m961e84c7aa" x="35.143678" y="198.137382" style="stroke: #000000; stroke-width: 0.6"/>
      </g>
     </g>
    </g>
    <g id="ytick_12">
     <g id="line2d_18">
      <g>
       <use xlink:href="#m961e84c7aa" x="35.143678" y="192.539113" style="stroke: #000000; stroke-width: 0.6"/>
      </g>
     </g>
    </g>
    <g id="ytick_13">
     <g id="line2d_19">
      <g>
       <use xlink:href="#m961e84c7aa" x="35.143678" y="181.342575" style="stroke: #000000; stroke-width: 0.6"/>
      </g>
     </g>
    </g>
    <g id="ytick_14">
     <g id="line2d_20">
      <g>
       <use xlink:href="#m961e84c7aa" x="35.143678" y="175.744306" style="stroke: #000000; stroke-width: 0.6"/>
      </g>
     </g>
    </g>
    <g id="ytick_15">
     <g id="line2d_21">
      <g>
       <use xlink:href="#m961e84c7aa" x="35.143678" y="170.146037" style="stroke: #000000; stroke-width: 0.6"/>
      </g>
     </g>
    </g>
    <g id="ytick_16">
     <g id="line2d_22">
      <g>
       <use xlink:href="#m961e84c7aa" x="35.143678" y="164.547769" style="stroke: #000000; stroke-width: 0.6"/>
      </g>
     </g>
    </g>
    <g id="ytick_17">
     <g id="line2d_23">
      <g>
       <use xlink:href="#m961e84c7aa" x="35.143678" y="153.351231" style="stroke: #000000; stroke-width: 0.6"/>
      </g>
     </g>
    </g>
    <g id="ytick_18">
     <g id="line2d_24">
      <g>
       <use xlink:href="#m961e84c7aa" x="35.143678" y="147.752962" style="stroke: #000000; stroke-width: 0.6"/>
      </g>
     </g>
    </g>
    <g id="ytick_19">
     <g id="line2d_25">
      <g>
       <use xlink:href="#m961e84c7aa" x="35.143678" y="142.154693" style="stroke: #000000; stroke-width: 0.6"/>
      </g>
     </g>
    </g>
    <g id="ytick_20">
     <g id="line2d_26">
      <g>
       <use xlink:href="#m961e84c7aa" x="35.143678" y="136.556424" style="stroke: #000000; stroke-width: 0.6"/>
      </g>
     </g>
    </g>
    <g id="ytick_21">
     <g id="line2d_27">
      <g>
       <use xlink:href="#m961e84c7aa" x="35.143678" y="125.359887" style="stroke: #000000; stroke-width: 0.6"/>
      </g>
     </g>
    </g>
    <g id="ytick_22">
     <g id="line2d_28">
      <g>
       <use xlink:href="#m961e84c7aa" x="35.143678" y="119.761618" style="stroke: #000000; stroke-width: 0.6"/>
      </g>
     </g>
    </g>
    <g id="ytick_23">
     <g id="line2d_29">
      <g>
       <use xlink:href="#m961e84c7aa" x="35.143678" y="114.163349" style="stroke: #000000; stroke-width: 0.6"/>
      </g>
     </g>
    </g>
    <g id="ytick_24">
     <g id="line2d_30">
      <g>
       <use xlink:href="#m961e84c7aa" x="35.143678" y="108.56508" style="stroke: #000000; stroke-width: 0.6"/>
      </g>
     </g>
    </g>
    <g id="ytick_25">
     <g id="line2d_31">
      <g>
       <use xlink:href="#m961e84c7aa" x="35.143678" y="97.368542" style="stroke: #000000; stroke-width: 0.6"/>
      </g>
     </g>
    </g>
    <g id="ytick_26">
     <g id="line2d_32">
      <g>
       <use xlink:href="#m961e84c7aa" x="35.143678" y="91.770273" style="stroke: #000000; stroke-width: 0.6"/>
      </g>
     </g>
    </g>
    <g id="ytick_27">
     <g id="line2d_33">
      <g>
       <use xlink:href="#m961e84c7aa" x="35.143678" y="86.172004" style="stroke: #000000; stroke-width: 0.6"/>
      </g>
     </g>
    </g>
    <g id="ytick_28">
     <g id="line2d_34">
      <g>
       <use xlink:href="#m961e84c7aa" x="35.143678" y="80.573736" style="stroke: #000000; stroke-width: 0.6"/>
      </g>
     </g>
    </g>
    <g id="ytick_29">
     <g id="line2d_35">
      <g>
       <use xlink:href="#m961e84c7aa" x="35.143678" y="69.377198" style="stroke: #000000; stroke-width: 0.6"/>
      </g>
     </g>
    </g>
    <g id="ytick_30">
     <g id="line2d_36">
      <g>
       <use xlink:href="#m961e84c7aa" x="35.143678" y="63.778929" style="stroke: #000000; stroke-width: 0.6"/>
      </g>
     </g>
    </g>
    <g id="ytick_31">
     <g id="line2d_37">
      <g>
       <use xlink:href="#m961e84c7aa" x="35.143678" y="58.18066" style="stroke: #000000; stroke-width: 0.6"/>
      </g>
     </g>
    </g>
    <g id="ytick_32">
     <g id="line2d_38">
      <g>
       <use xlink:href="#m961e84c7aa" x="35.143678" y="52.582391" style="stroke: #000000; stroke-width: 0.6"/>
      </g>
     </g>
    </g>
    <g id="ytick_33">
     <g id="line2d_39">
      <g>
       <use xlink:href="#m961e84c7aa" x="35.143678" y="41.385853" style="stroke: #000000; stroke-width: 0.6"/>
      </g>
     </g>
    </g>
    <g id="ytick_34">
     <g id="line2d_40">
      <g>
       <use xlink:href="#m961e84c7aa" x="35.143678" y="35.787585" style="stroke: #000000; stroke-width: 0.6"/>
      </g>
     </g>
    </g>
    <g id="ytick_35">
     <g id="line2d_41">
      <g>
       <use xlink:href="#m961e84c7aa" x="35.143678" y="30.189316" style="stroke: #000000; stroke-width: 0.6"/>
      </g>
     </g>
    </g>
    <g id="ytick_36">
     <g id="line2d_42">
      <g>
       <use xlink:href="#m961e84c7aa" x="35.143678" y="24.591047" style="stroke: #000000; stroke-width: 0.6"/>
      </g>
     </g>
    </g>
    <g id="text_15">
     <!-- L(r) -->
     <g transform="translate(11.358521 130.676297) rotate(-90) scale(0.11 -0.11)">
      <defs>
       <path id="DejaVuSans-4c" d="M 628 4666 
L 1259 4666 
L 1259 531 
L 3531 531 
L 3531 0 
L 628 0 
L 628 4666 
z
" transform="scale(0.015625)"/>
       <path id="DejaVuSans-28" d="M 1984 4856 
Q 1566 4138 1362 3434 
Q 1159 2731 1159 2009 
Q 1159 1288 1364 580 
Q 1569 -128 1984 -844 
L 1484 -844 
Q 1016 -109 783 600 
Q 550 1309 550 2009 
Q 550 2706 781 3412 
Q 1013 4119 1484 4856 
L 1984 4856 
z
" transform="scale(0.015625)"/>
       <path id="DejaVuSans-72" d="M 2631 2963 
Q 2534 3019 2420 3045 
Q 2306 3072 2169 3072 
Q 1681 3072 1420 2755 
Q 1159 2438 1159 1844 
L 1159 0 
L 581 0 
L 581 3500 
L 1159 3500 
L 1159 2956 
Q 1341 3275 1631 3429 
Q 1922 3584 2338 3584 
Q 2397 3584 2469 3576 
Q 2541 3569 2628 3553 
L 2631 2963 
z
" transform="scale(0.015625)"/>
       <path id="DejaVuSans-29" d="M 513 4856 
L 1013 4856 
Q 1481 4119 1714 3412 
Q 1947 2706 1947 2009 
Q 1947 1309 1714 600 
Q 1481 -109 1013 -844 
L 513 -844 
Q 928 -128 1133 580 
Q 1338 1288 1338 2009 
Q 1338 2731 1133 3434 
Q 928 4138 513 4856 
z
" transform="scale(0.015625)"/>
      </defs>
      <use xlink:href="#DejaVuSans-4c"/>
      <use xlink:href="#DejaVuSans-28" x="55.712891"/>
      <use xlink:href="#DejaVuSans-72" x="94.726562"/>
      <use xlink:href="#DejaVuSans-29" x="135.839844"/>
     </g>
    </g>
   </g>
   <g id="line2d_43">
    <path d="M 44.995318 187.799102 
L 46.985548 187.799102 
L 48.975778 185.536735 
L 50.966009 184.329254 
L 52.956239 181.671114 
L 54.946469 181.671114 
L 56.9367 181.671114 
L 58.92693 181.671114 
L 60.91716 175.490885 
L 62.907391 175.490885 
L 64.897621 175.490885 
L 66.887851 172.464893 
L 68.878082 171.380177 
L 70.868312 171.380177 
L 72.858542 169.254754 
L 74.848773 169.254754 
L 76.839003 169.254754 
L 78.829233 169.254754 
L 80.819463 165.536184 
L 82.809694 163.661128 
L 84.799924 163.661128 
L 86.790154 160.78354 
L 88.780385 160.78354 
L 90.770615 159.745825 
L 92.760845 158.413581 
L 94.751076 157.342669 
L 96.741306 156.087329 
L 98.731536 156.087329 
L 100.721767 153.92644 
L 102.711997 153.92644 
L 104.702227 153.92644 
L 106.692458 152.896914 
L 108.682688 152.896914 
L 110.672918 151.283699 
L 112.663149 150.471711 
L 114.653379 149.41255 
L 116.643609 149.41255 
L 118.63384 148.51041 
L 120.62407 148.51041 
L 122.6143 146.62693 
L 124.604531 145.970909 
L 126.594761 143.041754 
L 128.584991 142.110137 
L 130.575222 142.110137 
L 132.565452 139.941767 
L 134.555682 139.16044 
L 136.545913 139.16044 
L 138.536143 138.194625 
L 140.526373 135.73052 
L 142.516604 131.876123 
L 144.506834 131.876123 
L 146.497064 130.251977 
L 148.487295 130.251977 
L 150.477525 130.251977 
L 152.467755 129.732883 
L 154.457986 126.846753 
L 156.448216 126.364108 
L 158.438446 125.049158 
L 160.428677 125.049158 
L 162.418907 124.526772 
L 164.409137 123.071041 
L 166.399367 121.989216 
L 168.389598 121.989216 
L 170.379828 120.960032 
L 172.370058 119.984698 
L 174.360289 119.763348 
L 176.350519 117.34494 
L 178.340749 117.34494 
L 180.33098 116.297658 
L 182.32121 116.297658 
L 184.31144 114.64536 
L 186.301671 113.294002 
L 188.291901 112.743258 
L 190.282131 111.751068 
L 192.272362 111.226439 
L 194.262592 110.071964 
L 196.252822 107.93731 
L 198.243053 107.93731 
L 200.233283 106.102406 
L 202.223513 105.640444 
L 204.213744 104.612935 
L 206.203974 102.802469 
L 208.194204 101.347684 
L 210.184435 101.347684 
L 212.174665 100.740687 
L 214.164895 98.441809 
L 216.155126 97.557661 
L 218.145356 95.551525 
L 220.135586 95.125002 
L 222.125817 94.287734 
L 224.116047 94.287734 
L 226.106277 93.877855 
L 228.096508 92.518948 
L 230.086738 91.602479 
L 232.076968 89.803818 
L 234.067199 88.660277 
L 236.057429 88.301752 
L 238.047659 86.505666 
L 240.03789 86.505666 
L 242.02812 84.783806 
" clip-path="url(#p80bbd31aa6)" style="fill: none; stroke: #003f5c; stroke-width: 1.5; stroke-linecap: square"/>
   </g>
   <g id="line2d_44">
    <path d="M 44.995318 184.911942 
L 46.985548 184.911942 
L 48.975778 181.2457 
L 50.966009 179.654324 
L 52.956239 175.060705 
L 54.946469 175.060705 
L 56.9367 175.060705 
L 58.92693 175.060705 
L 60.91716 171.796505 
L 62.907391 171.796505 
L 64.897621 171.796505 
L 66.887851 167.050148 
L 68.878082 165.984176 
L 70.868312 165.984176 
L 72.858542 162.762043 
L 74.848773 162.762043 
L 76.839003 162.762043 
L 78.829233 162.762043 
L 80.819463 158.389027 
L 82.809694 156.135447 
L 84.799924 156.135447 
L 86.790154 154.142517 
L 88.780385 154.142517 
L 90.770615 153.26609 
L 92.760845 151.63349 
L 94.751076 150.574304 
L 96.741306 148.053729 
L 98.731536 148.053729 
L 100.721767 143.737972 
L 102.711997 143.737972 
L 104.702227 143.737972 
L 106.692458 142.492538 
L 108.682688 142.492538 
L 110.672918 134.6151 
L 112.663149 132.11434 
L 114.653379 130.951928 
L 116.643609 130.951928 
L 118.63384 129.647233 
L 120.62407 129.647233 
L 122.6143 124.276235 
L 124.604531 123.276775 
L 126.594761 120.410302 
L 128.584991 119.248056 
L 130.575222 119.248056 
L 132.565452 117.18861 
L 134.555682 115.179611 
L 136.545913 115.179611 
L 138.536143 112.675358 
L 140.526373 110.357428 
L 142.516604 107.671785 
L 144.506834 107.671785 
L 146.497064 103.589903 
L 148.487295 103.589903 
L 150.477525 103.589903 
L 152.467755 102.75607 
L 154.457986 99.988404 
L 156.448216 95.678722 
L 158.438446 93.84217 
L 160.428677 93.84217 
L 162.418907 93.053464 
L 164.409137 91.290633 
L 166.399367 89.255723 
L 168.389598 89.255723 
L 170.379828 87.96302 
L 172.370058 85.865743 
L 174.360289 84.838091 
L 176.350519 83.201344 
L 178.340749 83.201344 
L 180.33098 81.493816 
L 182.32121 81.493816 
L 184.31144 79.238814 
L 186.301671 77.722077 
L 188.291901 76.931762 
L 190.282131 76.104485 
L 192.272362 75.413011 
L 194.262592 74.533364 
L 196.252822 73.167134 
L 198.243053 73.167134 
L 200.233283 70.823457 
L 202.223513 70.160412 
L 204.213744 69.454159 
L 206.203974 67.709189 
L 208.194204 66.353884 
L 210.184435 66.353884 
L 212.174665 65.742537 
L 214.164895 64.021406 
L 216.155126 62.345563 
L 218.145356 56.606716 
L 220.135586 55.891804 
L 222.125817 55.148746 
L 224.116047 55.148746 
L 226.106277 54.569078 
L 228.096508 53.335509 
L 230.086738 51.825269 
L 232.076968 50.564713 
L 234.067199 49.460032 
L 236.057429 48.842235 
L 238.047659 45.607034 
L 240.03789 45.607034 
L 242.02812 44.181188 
" clip-path="url(#p80bbd31aa6)" style="fill: none; stroke: #ffa600; stroke-width: 1.5; stroke-linecap: square"/>
   </g>
   <g id="line2d_45">
    <path d="M 44.995318 190.228739 
L 46.985548 190.228739 
L 48.975778 188.661643 
L 50.966009 186.572293 
L 52.956239 183.379229 
L 54.946469 183.379229 
L 56.9367 183.379229 
L 58.92693 183.379229 
L 60.91716 180.365659 
L 62.907391 180.365659 
L 64.897621 180.365659 
L 66.887851 177.072833 
L 68.878082 176.005298 
L 70.868312 176.005298 
L 72.858542 173.889462 
L 74.848773 173.889462 
L 76.839003 173.889462 
L 78.829233 173.889462 
L 80.819463 171.351658 
L 82.809694 169.764353 
L 84.799924 169.764353 
L 86.790154 168.094775 
L 88.780385 168.094775 
L 90.770615 167.389783 
L 92.760845 165.849575 
L 94.751076 165.111369 
L 96.741306 163.138091 
L 98.731536 163.138091 
L 100.721767 159.820097 
L 102.711997 159.820097 
L 104.702227 159.820097 
L 106.692458 158.297269 
L 108.682688 158.297269 
L 110.672918 155.500805 
L 112.663149 154.016931 
L 114.653379 152.780679 
L 116.643609 152.780679 
L 118.63384 151.52563 
L 120.62407 151.52563 
L 122.6143 150.122586 
L 124.604531 149.582783 
L 126.594761 146.817733 
L 128.584991 145.400155 
L 130.575222 145.400155 
L 132.565452 143.000498 
L 134.555682 142.093169 
L 136.545913 142.093169 
L 138.536143 141.055462 
L 140.526373 139.649257 
L 142.516604 137.535577 
L 144.506834 137.535577 
L 146.497064 135.671217 
L 148.487295 135.671217 
L 150.477525 135.671217 
L 152.467755 134.710653 
L 154.457986 132.621086 
L 156.448216 131.705976 
L 158.438446 129.808931 
L 160.428677 129.808931 
L 162.418907 128.977874 
L 164.409137 128.181332 
L 166.399367 126.448724 
L 168.389598 126.448724 
L 170.379828 125.149773 
L 172.370058 122.828976 
L 174.360289 122.400905 
L 176.350519 120.846281 
L 178.340749 120.846281 
L 180.33098 119.310286 
L 182.32121 119.310286 
L 184.31144 116.941351 
L 186.301671 115.523339 
L 188.291901 114.770393 
L 190.282131 114.089633 
L 192.272362 113.460022 
L 194.262592 112.736354 
L 196.252822 111.63727 
L 198.243053 111.63727 
L 200.233283 108.66816 
L 202.223513 107.567803 
L 204.213744 106.959063 
L 206.203974 105.57287 
L 208.194204 104.367722 
L 210.184435 104.367722 
L 212.174665 103.78683 
L 214.164895 101.524372 
L 216.155126 100.384787 
L 218.145356 98.586859 
L 220.135586 97.876008 
L 222.125817 97.266653 
L 224.116047 97.266653 
L 226.106277 96.6575 
L 228.096508 95.365128 
L 230.086738 94.034799 
L 232.076968 92.670894 
L 234.067199 91.337492 
L 236.057429 90.774786 
L 238.047659 89.372649 
L 240.03789 89.372649 
L 242.02812 88.230633 
" clip-path="url(#p80bbd31aa6)" style="fill: none; stroke: #bc5090; stroke-width: 1.5; stroke-linecap: square"/>
   </g>
   <g id="line2d_46"/>
   <g id="line2d_47"/>
   <g id="line2d_48"/>
   <g id="line2d_49">
    <path d="M 44.995318 213.812535 
L 46.965646 213.756552 
L 48.935974 213.700569 
L 50.906302 213.644587 
L 52.87663 213.588604 
L 54.846958 213.532621 
L 56.817286 213.476639 
L 58.787614 213.420656 
L 60.757942 213.364673 
L 62.72827 213.30869 
L 64.698598 213.252708 
L 66.668926 213.196725 
L 68.639254 213.140742 
L 70.609582 213.08476 
L 72.57991 213.028777 
L 74.550238 212.972794 
L 76.520566 212.916812 
L 78.490894 212.860829 
L 80.461222 212.804846 
L 82.43155 212.748864 
L 84.401878 212.692881 
L 86.372206 212.636898 
L 88.342534 212.580916 
L 90.312862 212.524933 
L 92.28319 212.46895 
L 94.253518 212.412967 
L 96.223846 212.356985 
L 98.194174 212.301002 
L 100.164502 212.245019 
L 102.13483 212.189037 
L 104.105158 212.133054 
L 106.075486 212.077071 
L 108.045814 212.021089 
L 110.016142 211.965106 
L 111.98647 211.909123 
L 113.956798 211.853141 
L 115.927126 211.797158 
L 117.897454 211.741175 
L 119.867782 211.685192 
L 121.838111 211.62921 
L 123.808439 211.573227 
L 125.778767 211.517244 
L 127.749095 211.461262 
L 129.719423 211.405279 
L 131.689751 211.349296 
L 133.660079 211.293314 
L 135.630407 211.237331 
L 137.600735 211.181348 
L 139.571063 211.125366 
L 141.541391 211.069383 
L 143.511719 211.0134 
L 145.482047 210.957418 
L 147.452375 210.901435 
L 149.422703 210.845452 
L 151.393031 210.789469 
L 153.363359 210.733487 
L 155.333687 210.677504 
L 157.304015 210.621521 
L 159.274343 210.565539 
L 161.244671 210.509556 
L 163.214999 210.453573 
L 165.185327 210.397591 
L 167.155655 210.341608 
L 169.125983 210.285625 
L 171.096311 210.229643 
L 173.066639 210.17366 
L 175.036967 210.117677 
L 177.007295 210.061695 
L 178.977623 210.005712 
L 180.947951 209.949729 
L 182.918279 209.893746 
L 184.888607 209.837764 
L 186.858935 209.781781 
L 188.829263 209.725798 
L 190.799591 209.669816 
L 192.769919 209.613833 
L 194.740247 209.55785 
L 196.710575 209.501868 
L 198.680903 209.445885 
L 200.651231 209.389902 
L 202.621559 209.33392 
L 204.591887 209.277937 
L 206.562215 209.221954 
L 208.532544 209.165971 
L 210.502872 209.109989 
L 212.4732 209.054006 
L 214.443528 208.998023 
L 216.413856 208.942041 
L 218.384184 208.886058 
L 220.354512 208.830075 
L 222.32484 208.774093 
L 224.295168 208.71811 
L 226.265496 208.662127 
L 228.235824 208.606145 
L 230.206152 208.550162 
L 232.17648 208.494179 
L 234.146808 208.438197 
L 236.117136 208.382214 
L 238.087464 208.326231 
L 240.057792 208.270248 
" clip-path="url(#p80bbd31aa6)" style="fill: none; stroke-dasharray: 5.55,2.4; stroke-dashoffset: 0; stroke: #000000; stroke-width: 1.5"/>
   </g>
   <g id="patch_3">
    <path d="M 35.143678 223.087885 
L 35.143678 19.030178 
" style="fill: none; stroke: #000000; stroke-width: 0.8; stroke-linejoin: miter; stroke-linecap: square"/>
   </g>
   <g id="patch_4">
    <path d="M 35.143678 223.087885 
L 251.87976 223.087885 
" style="fill: none; stroke: #000000; stroke-width: 0.8; stroke-linejoin: miter; stroke-linecap: square"/>
   </g>
   <g id="text_16">
    <!-- Distance Analysis -->
    <g transform="translate(85.363656 13.030178) scale(0.132 -0.132)">
     <defs>
      <path id="DejaVuSans-41" d="M 2188 4044 
L 1331 1722 
L 3047 1722 
L 2188 4044 
z
M 1831 4666 
L 2547 4666 
L 4325 0 
L 3669 0 
L 3244 1197 
L 1141 1197 
L 716 0 
L 50 0 
L 1831 4666 
z
" transform="scale(0.015625)"/>
      <path id="DejaVuSans-6c" d="M 603 4863 
L 1178 4863 
L 1178 0 
L 603 0 
L 603 4863 
z
" transform="scale(0.015625)"/>
      <path id="DejaVuSans-79" d="M 2059 -325 
Q 1816 -950 1584 -1140 
Q 1353 -1331 966 -1331 
L 506 -1331 
L 506 -850 
L 844 -850 
Q 1081 -850 1212 -737 
Q 1344 -625 1503 -206 
L 1606 56 
L 191 3500 
L 800 3500 
L 1894 763 
L 2988 3500 
L 3597 3500 
L 2059 -325 
z
" transform="scale(0.015625)"/>
     </defs>
     <use xlink:href="#DejaVuSans-44"/>
     <use xlink:href="#DejaVuSans-69" x="77.001953"/>
     <use xlink:href="#DejaVuSans-73" x="104.785156"/>
     <use xlink:href="#DejaVuSans-74" x="156.884766"/>
     <use xlink:href="#DejaVuSans-61" x="196.09375"/>
     <use xlink:href="#DejaVuSans-6e" x="257.373047"/>
     <use xlink:href="#DejaVuSans-63" x="320.751953"/>
     <use xlink:href="#DejaVuSans-65" x="375.732422"/>
     <use xlink:href="#DejaVuSans-20" x="437.255859"/>
     <use xlink:href="#DejaVuSans-41" x="469.042969"/>
     <use xlink:href="#DejaVuSans-6e" x="537.451172"/>
     <use xlink:href="#DejaVuSans-61" x="600.830078"/>
     <use xlink:href="#DejaVuSans-6c" x="662.109375"/>
     <use xlink:href="#DejaVuSans-79" x="689.892578"/>
     <use xlink:href="#DejaVuSans-73" x="749.072266"/>
     <use xlink:href="#DejaVuSans-69" x="801.171875"/>
     <use xlink:href="#DejaVuSans-73" x="828.955078"/>
    </g>
   </g>
   <g id="legend_1">
    <g id="line2d_50">
     <path d="M 45.043678 33.438459 
L 56.043678 33.438459 
L 67.043678 33.438459 
" style="fill: none; stroke: #003f5c; stroke-width: 1.5; stroke-linecap: square"/>
    </g>
    <g id="text_17">
     <!-- X -->
     <g transform="translate(75.843677 37.288459) scale(0.11 -0.11)">
      <defs>
       <path id="DejaVuSans-58" d="M 403 4666 
L 1081 4666 
L 2241 2931 
L 3406 4666 
L 4084 4666 
L 2584 2425 
L 4184 0 
L 3506 0 
L 2194 1984 
L 872 0 
L 191 0 
L 1856 2491 
L 403 4666 
z
" transform="scale(0.015625)"/>
      </defs>
      <use xlink:href="#DejaVuSans-58"/>
     </g>
    </g>
    <g id="line2d_51">
     <path d="M 45.043678 49.584396 
L 56.043678 49.584396 
L 67.043678 49.584396 
" style="fill: none; stroke: #ffa600; stroke-width: 1.5; stroke-linecap: square"/>
    </g>
    <g id="text_18">
     <!-- TP -->
     <g transform="translate(75.843677 53.434396) scale(0.11 -0.11)">
      <defs>
       <path id="DejaVuSans-54" d="M -19 4666 
L 3928 4666 
L 3928 4134 
L 2272 4134 
L 2272 0 
L 1638 0 
L 1638 4134 
L -19 4134 
L -19 4666 
z
" transform="scale(0.015625)"/>
       <path id="DejaVuSans-50" d="M 1259 4147 
L 1259 2394 
L 2053 2394 
Q 2494 2394 2734 2622 
Q 2975 2850 2975 3272 
Q 2975 3691 2734 3919 
Q 2494 4147 2053 4147 
L 1259 4147 
z
M 628 4666 
L 2053 4666 
Q 2838 4666 3239 4311 
Q 3641 3956 3641 3272 
Q 3641 2581 3239 2228 
Q 2838 1875 2053 1875 
L 1259 1875 
L 1259 0 
L 628 0 
L 628 4666 
z
" transform="scale(0.015625)"/>
      </defs>
      <use xlink:href="#DejaVuSans-54"/>
      <use xlink:href="#DejaVuSans-50" x="61.083984"/>
     </g>
    </g>
    <g id="line2d_52">
     <path d="M 45.043678 65.730334 
L 56.043678 65.730334 
L 67.043678 65.730334 
" style="fill: none; stroke: #bc5090; stroke-width: 1.5; stroke-linecap: square"/>
    </g>
    <g id="text_19">
     <!-- FY -->
     <g transform="translate(75.843677 69.580334) scale(0.11 -0.11)">
      <defs>
       <path id="DejaVuSans-46" d="M 628 4666 
L 3309 4666 
L 3309 4134 
L 1259 4134 
L 1259 2759 
L 3109 2759 
L 3109 2228 
L 1259 2228 
L 1259 0 
L 628 0 
L 628 4666 
z
" transform="scale(0.015625)"/>
       <path id="DejaVuSans-59" d="M -13 4666 
L 666 4666 
L 1959 2747 
L 3244 4666 
L 3922 4666 
L 2272 2222 
L 2272 0 
L 1638 0 
L 1638 2222 
L -13 4666 
z
" transform="scale(0.015625)"/>
      </defs>
      <use xlink:href="#DejaVuSans-46"/>
      <use xlink:href="#DejaVuSans-59" x="57.519531"/>
     </g>
    </g>
   </g>
  </g>
 </g>
 <defs>
  <clipPath id="p80bbd31aa6">
   <rect x="35.143678" y="19.030178" width="216.736083" height="204.057707"/>
  </clipPath>
 </defs>
</svg>
