<?xml version="1.0" encoding="utf-8" standalone="no"?>
<!DOCTYPE svg PUBLIC "-//W3C//DTD SVG 1.1//EN"
  "http://www.w3.org/Graphics/SVG/1.1/DTD/svg11.dtd">
<svg xmlns:xlink="http://www.w3.org/1999/xlink" width="254.88pt" height="254.88pt" viewBox="0 0 254.88 254.88" xmlns="http://www.w3.org/2000/svg" version="1.1">
 <metadata>
  <rdf:RDF xmlns:dc="http://purl.org/dc/elements/1.1/" xmlns:cc="http://creativecommons.org/ns#" xmlns:rdf="http://www.w3.org/1999/02/22-rdf-syntax-ns#">
   <cc:Work>
    <dc:type rdf:resource="http://purl.org/dc/dcmitype/StillImage"/>
    <dc:date>2024-08-18T10:13:11.633478</dc:date>
    <dc:format>image/svg+xml</dc:format>
    <dc:creator>
     <cc:Agent>
      <dc:title>Matplotlib v3.8.4, https://matplotlib.org/</dc:title>
     </cc:Agent>
    </dc:creator>
   </cc:Work>
  </rdf:RDF>
 </metadata>
 <defs>
  <style type="text/css">*{stroke-linejoin: round; stroke-linecap: butt}</style>
 </defs>
 <g id="figure_1">
  <g id="patch_1">
   <path d="M 0 254.88 
L 254.88 254.88 
L 254.88 0 
L 0 0 
z
" style="fill: #ffffff"/>
  </g>
  <g id="axes_1">
   <g id="patch_2">
    <path d="M 35.143678 223.087885 
L 251.87976 223.087885 
L 251.87976 19.030178 
L 35.143678 19.030178 
z
" style="fill: #ffffff"/>
   </g>
   <g id="PolyCollection_1">
    <defs>
     <path id="m8592a3b663" d="M 44.995318 -70.856454 
L 44.995318 -63.464558 
L 46.985548 -63.319757 
L 48.975778 -65.212925 
L 50.966009 -66.576312 
L 52.956239 -68.81816 
L 54.946469 -68.88449 
L 56.9367 -69.116582 
L 58.92693 -69.054852 
L 60.91716 -74.895651 
L 62.907391 -74.502238 
L 64.897621 -75.045702 
L 66.887851 -77.497748 
L 68.878082 -78.679225 
L 70.868312 -78.753621 
L 72.858542 -80.526183 
L 74.848773 -80.763268 
L 76.839003 -80.754051 
L 78.829233 -80.925843 
L 80.819463 -84.45105 
L 82.809694 -85.92626 
L 84.799924 -85.87949 
L 86.790154 -88.335641 
L 88.780385 -88.67557 
L 90.770615 -89.441878 
L 92.760845 -91.08471 
L 94.751076 -91.627608 
L 96.741306 -93.220834 
L 98.731536 -93.296069 
L 100.721767 -95.260234 
L 102.711997 -94.87179 
L 104.702227 -94.983888 
L 106.692458 -95.934286 
L 108.682688 -96.609273 
L 110.672918 -97.842919 
L 112.663149 -98.530931 
L 114.653379 -99.581514 
L 116.643609 -99.616259 
L 118.63384 -101.049269 
L 120.62407 -100.348149 
L 122.6143 -102.037561 
L 124.604531 -102.832031 
L 126.594761 -105.47852 
L 128.584991 -106.100878 
L 130.575222 -106.521577 
L 132.565452 -108.692249 
L 134.555682 -108.848742 
L 136.545913 -109.188877 
L 138.536143 -109.942419 
L 140.526373 -112.056505 
L 142.516604 -115.446243 
L 144.506834 -115.852736 
L 146.497064 -117.013027 
L 148.487295 -117.695954 
L 150.477525 -116.903021 
L 152.467755 -117.68065 
L 154.457986 -120.16719 
L 156.448216 -120.155733 
L 158.438446 -121.769406 
L 160.428677 -121.940823 
L 162.418907 -122.539994 
L 164.409137 -124.357094 
L 166.399367 -125.049136 
L 168.389598 -124.899062 
L 170.379828 -125.498455 
L 172.370058 -126.742305 
L 174.360289 -127.245009 
L 176.350519 -129.429776 
L 178.340749 -129.002942 
L 180.33098 -130.696779 
L 182.32121 -129.892475 
L 184.31144 -131.984827 
L 186.301671 -133.809155 
L 188.291901 -134.068783 
L 190.282131 -134.013787 
L 192.272362 -135.072037 
L 194.262592 -136.375543 
L 196.252822 -138.682884 
L 198.243053 -138.492526 
L 200.233283 -139.97088 
L 202.223513 -140.882899 
L 204.213744 -141.703916 
L 206.203974 -143.097875 
L 208.194204 -144.391214 
L 210.184435 -144.515152 
L 212.174665 -145.073758 
L 214.164895 -147.407352 
L 216.155126 -147.925613 
L 218.145356 -150.38112 
L 220.135586 -150.199227 
L 222.125817 -151.269053 
L 224.116047 -151.52054 
L 226.106277 -152.056182 
L 228.096508 -152.840595 
L 230.086738 -154.248521 
L 232.076968 -156.148962 
L 234.067199 -157.109912 
L 236.057429 -157.046589 
L 238.047659 -158.882189 
L 240.03789 -159.434246 
L 242.02812 -160.684979 
L 242.02812 -178.592876 
L 242.02812 -178.592876 
L 240.03789 -176.940907 
L 238.047659 -176.85713 
L 236.057429 -174.522773 
L 234.067199 -174.955906 
L 232.076968 -173.219637 
L 230.086738 -171.296383 
L 228.096508 -169.927033 
L 226.106277 -169.736947 
L 224.116047 -168.296656 
L 222.125817 -169.015506 
L 220.135586 -167.750183 
L 218.145356 -168.427793 
L 216.155126 -165.569397 
L 214.164895 -164.393621 
L 212.174665 -162.629021 
L 210.184435 -161.537302 
L 208.194204 -161.184551 
L 206.203974 -158.832557 
L 204.213744 -157.8817 
L 202.223513 -156.537619 
L 200.233283 -156.686569 
L 198.243053 -154.064977 
L 196.252822 -154.217486 
L 194.262592 -151.967813 
L 192.272362 -151.492244 
L 190.282131 -150.328187 
L 188.291901 -149.362913 
L 186.301671 -149.35356 
L 184.31144 -147.266914 
L 182.32121 -146.448201 
L 180.33098 -146.247049 
L 178.340749 -144.309961 
L 176.350519 -145.14208 
L 174.360289 -142.11775 
L 172.370058 -142.952599 
L 170.379828 -141.536792 
L 168.389598 -140.46959 
L 166.399367 -139.861998 
L 164.409137 -138.867804 
L 162.418907 -137.035382 
L 160.428677 -136.87676 
L 158.438446 -136.733852 
L 156.448216 -136.602915 
L 154.457986 -134.404283 
L 152.467755 -132.424044 
L 150.477525 -131.360336 
L 148.487295 -131.506314 
L 146.497064 -131.866301 
L 144.506834 -129.537371 
L 142.516604 -129.808179 
L 140.526373 -125.629941 
L 138.536143 -122.983221 
L 136.545913 -121.896124 
L 134.555682 -122.100266 
L 132.565452 -121.785878 
L 130.575222 -118.806414 
L 128.584991 -119.094653 
L 126.594761 -117.270838 
L 124.604531 -114.368157 
L 122.6143 -113.88149 
L 120.62407 -111.328359 
L 118.63384 -111.637533 
L 116.643609 -110.465512 
L 114.653379 -110.520471 
L 112.663149 -109.424852 
L 110.672918 -108.539642 
L 108.682688 -107.028397 
L 106.692458 -106.713471 
L 104.702227 -106.011998 
L 102.711997 -105.940011 
L 100.721767 -105.725529 
L 98.731536 -103.69044 
L 96.741306 -104.376567 
L 94.751076 -102.440476 
L 92.760845 -101.873967 
L 90.770615 -100.407792 
L 88.780385 -99.032621 
L 86.790154 -98.944935 
L 84.799924 -95.828351 
L 82.809694 -95.601948 
L 80.819463 -93.900838 
L 78.829233 -89.792834 
L 76.839003 -90.257684 
L 74.848773 -89.982112 
L 72.858542 -90.018985 
L 70.868312 -87.836179 
L 68.878082 -87.874822 
L 66.887851 -86.899181 
L 64.897621 -83.60169 
L 62.907391 -84.037621 
L 60.91716 -83.773871 
L 58.92693 -77.089791 
L 56.9367 -77.184218 
L 54.946469 -76.866478 
L 52.956239 -76.936851 
L 50.966009 -74.174041 
L 48.975778 -73.219585 
L 46.985548 -70.798912 
L 44.995318 -70.856454 
z
" style="stroke: #003f5c; stroke-opacity: 0.2"/>
    </defs>
    <g clip-path="url(#p1659f9ff4e)">
     <use xlink:href="#m8592a3b663" x="0" y="254.88" style="fill: #003f5c; fill-opacity: 0.2; stroke: #003f5c; stroke-opacity: 0.2"/>
    </g>
   </g>
   <g id="PolyCollection_2">
    <defs>
     <path id="m70d7e768b9" d="M 44.995318 -74.785477 
L 44.995318 -65.674711 
L 46.985548 -65.566906 
L 48.975778 -68.803085 
L 50.966009 -70.124323 
L 52.956239 -74.746519 
L 54.946469 -74.725302 
L 56.9367 -74.800056 
L 58.92693 -74.605781 
L 60.91716 -77.84737 
L 62.907391 -78.005203 
L 64.897621 -77.77059 
L 66.887851 -82.016228 
L 68.878082 -83.758213 
L 70.868312 -83.400133 
L 72.858542 -86.40163 
L 74.848773 -86.634027 
L 76.839003 -86.444251 
L 78.829233 -86.098524 
L 80.819463 -90.430679 
L 82.809694 -92.485932 
L 84.799924 -92.394684 
L 86.790154 -94.009936 
L 88.780385 -94.401468 
L 90.770615 -95.203889 
L 92.760845 -96.950096 
L 94.751076 -97.885289 
L 96.741306 -99.940651 
L 98.731536 -99.912235 
L 100.721767 -104.052754 
L 102.711997 -104.258707 
L 104.702227 -104.510782 
L 106.692458 -105.705137 
L 108.682688 -105.102651 
L 110.672918 -110.696705 
L 112.663149 -113.892201 
L 114.653379 -114.56483 
L 116.643609 -114.501055 
L 118.63384 -116.333335 
L 120.62407 -115.935776 
L 122.6143 -120.374507 
L 124.604531 -120.494473 
L 126.594761 -124.467651 
L 128.584991 -124.895094 
L 130.575222 -124.091311 
L 132.565452 -127.153899 
L 134.555682 -128.290155 
L 136.545913 -127.660954 
L 138.536143 -130.375548 
L 140.526373 -132.497201 
L 142.516604 -134.805776 
L 144.506834 -135.672812 
L 146.497064 -139.345711 
L 148.487295 -139.22022 
L 150.477525 -138.253954 
L 152.467755 -139.782852 
L 154.457986 -142.315563 
L 156.448216 -145.554632 
L 158.438446 -147.243071 
L 160.428677 -146.311509 
L 162.418907 -147.998879 
L 164.409137 -149.368152 
L 166.399367 -151.357284 
L 168.389598 -151.163037 
L 170.379828 -152.286983 
L 172.370058 -155.158051 
L 174.360289 -156.083903 
L 176.350519 -156.037567 
L 178.340749 -156.642905 
L 180.33098 -159.011504 
L 182.32121 -158.951535 
L 184.31144 -161.489361 
L 186.301671 -162.711198 
L 188.291901 -163.189601 
L 190.282131 -163.53808 
L 192.272362 -164.723977 
L 194.262592 -165.218093 
L 196.252822 -166.418171 
L 198.243053 -166.843733 
L 200.233283 -168.904209 
L 202.223513 -169.668801 
L 204.213744 -170.208524 
L 206.203974 -172.46608 
L 208.194204 -173.122277 
L 210.184435 -173.043634 
L 212.174665 -174.105318 
L 214.164895 -176.204568 
L 216.155126 -177.277427 
L 218.145356 -182.489448 
L 220.135586 -182.806869 
L 222.125817 -183.610677 
L 224.116047 -184.326075 
L 226.106277 -185.123076 
L 228.096508 -186.038349 
L 230.086738 -187.305728 
L 232.076968 -188.533885 
L 234.067199 -190.615961 
L 236.057429 -190.338669 
L 238.047659 -191.982148 
L 240.03789 -193.419579 
L 242.02812 -194.840371 
L 242.02812 -226.574472 
L 242.02812 -226.574472 
L 240.03789 -223.415828 
L 238.047659 -225.292331 
L 236.057429 -220.142508 
L 234.067199 -220.037389 
L 232.076968 -218.560388 
L 230.086738 -217.443624 
L 228.096508 -216.035937 
L 226.106277 -215.973201 
L 224.116047 -215.379165 
L 222.125817 -214.453944 
L 220.135586 -215.11663 
L 218.145356 -213.22497 
L 216.155126 -206.44077 
L 214.164895 -205.455433 
L 212.174665 -204.148542 
L 210.184435 -202.105183 
L 208.194204 -202.589217 
L 206.203974 -200.949258 
L 204.213744 -199.834569 
L 202.223513 -198.309129 
L 200.233283 -198.654251 
L 198.243053 -195.265836 
L 196.252822 -196.104887 
L 194.262592 -194.389827 
L 192.272362 -193.125403 
L 190.282131 -194.12961 
L 188.291901 -191.434269 
L 186.301671 -191.574591 
L 184.31144 -190.933836 
L 182.32121 -188.112845 
L 180.33098 -186.942622 
L 178.340749 -186.629371 
L 176.350519 -185.623049 
L 174.360289 -184.354962 
L 172.370058 -183.482953 
L 170.379828 -181.634504 
L 168.389598 -180.063446 
L 166.399367 -180.029585 
L 164.409137 -178.525554 
L 162.418907 -174.544384 
L 160.428677 -175.267063 
L 158.438446 -174.139504 
L 156.448216 -172.981651 
L 154.457986 -167.17827 
L 152.467755 -164.171157 
L 150.477525 -163.436888 
L 148.487295 -163.469717 
L 146.497064 -163.113967 
L 144.506834 -160.294766 
L 142.516604 -159.755389 
L 140.526373 -154.90111 
L 138.536143 -153.581275 
L 136.545913 -151.903648 
L 134.555682 -151.440441 
L 132.565452 -149.018697 
L 130.575222 -146.467033 
L 128.584991 -146.732671 
L 126.594761 -145.635262 
L 124.604531 -141.600015 
L 122.6143 -142.302697 
L 120.62407 -134.797266 
L 118.63384 -134.988657 
L 116.643609 -133.689392 
L 114.653379 -133.38188 
L 112.663149 -132.842575 
L 110.672918 -129.763145 
L 108.682688 -119.184228 
L 106.692458 -118.979068 
L 104.702227 -117.70709 
L 102.711997 -117.740254 
L 100.721767 -117.92658 
L 98.731536 -112.878087 
L 96.741306 -112.363397 
L 94.751076 -110.337559 
L 92.760845 -109.270678 
L 90.770615 -107.110711 
L 88.780385 -107.410104 
L 86.790154 -106.980849 
L 84.799924 -105.176224 
L 82.809694 -104.978198 
L 80.819463 -102.496382 
L 78.829233 -97.814627 
L 76.839003 -97.621371 
L 74.848773 -97.697811 
L 72.858542 -98.06365 
L 70.868312 -94.021445 
L 68.878082 -94.54629 
L 66.887851 -93.101055 
L 64.897621 -88.024256 
L 62.907391 -88.496562 
L 60.91716 -88.378104 
L 58.92693 -85.678588 
L 56.9367 -85.363757 
L 54.946469 -85.605651 
L 52.956239 -84.998018 
L 50.966009 -80.409245 
L 48.975778 -79.074537 
L 46.985548 -74.959063 
L 44.995318 -74.785477 
z
" style="stroke: #ffa600; stroke-opacity: 0.2"/>
    </defs>
    <g clip-path="url(#p1659f9ff4e)">
     <use xlink:href="#m70d7e768b9" x="0" y="254.88" style="fill: #ffa600; fill-opacity: 0.2; stroke: #ffa600; stroke-opacity: 0.2"/>
    </g>
   </g>
   <g id="PolyCollection_3">
    <defs>
     <path id="m5cd747bdef" d="M 44.995318 -66.067582 
L 44.995318 -62.896131 
L 46.985548 -62.89793 
L 48.975778 -64.416016 
L 50.966009 -66.343562 
L 52.956239 -69.383661 
L 54.946469 -69.555866 
L 56.9367 -69.535807 
L 58.92693 -69.557906 
L 60.91716 -72.531089 
L 62.907391 -72.600066 
L 64.897621 -72.603514 
L 66.887851 -75.570317 
L 68.878082 -76.782565 
L 70.868312 -76.692511 
L 72.858542 -78.768345 
L 74.848773 -78.556308 
L 76.839003 -78.787023 
L 78.829233 -78.548626 
L 80.819463 -81.147288 
L 82.809694 -82.68457 
L 84.799924 -82.777226 
L 86.790154 -84.327136 
L 88.780385 -84.559617 
L 90.770615 -85.211742 
L 92.760845 -86.590668 
L 94.751076 -87.437623 
L 96.741306 -89.222696 
L 98.731536 -89.412554 
L 100.721767 -92.522857 
L 102.711997 -92.582057 
L 104.702227 -92.446035 
L 106.692458 -93.829019 
L 108.682688 -93.999392 
L 110.672918 -96.629489 
L 112.663149 -98.237789 
L 114.653379 -99.292767 
L 116.643609 -99.586413 
L 118.63384 -100.539456 
L 120.62407 -100.546253 
L 122.6143 -102.038382 
L 124.604531 -102.421196 
L 126.594761 -105.080252 
L 128.584991 -106.483043 
L 130.575222 -106.43851 
L 132.565452 -108.72983 
L 134.555682 -109.764822 
L 136.545913 -109.618558 
L 138.536143 -110.753512 
L 140.526373 -112.026149 
L 142.516604 -114.283885 
L 144.506834 -114.01538 
L 146.497064 -115.960948 
L 148.487295 -115.808375 
L 150.477525 -115.576604 
L 152.467755 -116.5501 
L 154.457986 -118.978817 
L 156.448216 -119.809259 
L 158.438446 -121.465075 
L 160.428677 -121.492884 
L 162.418907 -122.438308 
L 164.409137 -123.15783 
L 166.399367 -124.935288 
L 168.389598 -124.877812 
L 170.379828 -126.196881 
L 172.370058 -128.356468 
L 174.360289 -128.935626 
L 176.350519 -130.490524 
L 178.340749 -130.345266 
L 180.33098 -131.738821 
L 182.32121 -131.653042 
L 184.31144 -134.061184 
L 186.301671 -135.285948 
L 188.291901 -136.171186 
L 190.282131 -136.722197 
L 192.272362 -137.737061 
L 194.262592 -138.191958 
L 196.252822 -139.10869 
L 198.243053 -139.083765 
L 200.233283 -142.02131 
L 202.223513 -143.388883 
L 204.213744 -143.971946 
L 206.203974 -145.194013 
L 208.194204 -146.108238 
L 210.184435 -146.418695 
L 212.174665 -146.9551 
L 214.164895 -149.146992 
L 216.155126 -150.248221 
L 218.145356 -151.968916 
L 220.135586 -152.779293 
L 222.125817 -153.384211 
L 224.116047 -153.615948 
L 226.106277 -153.970691 
L 228.096508 -155.21943 
L 230.086738 -156.420942 
L 232.076968 -157.954846 
L 234.067199 -159.490063 
L 236.057429 -159.826513 
L 238.047659 -161.332098 
L 240.03789 -161.251811 
L 242.02812 -162.019681 
L 242.02812 -169.519493 
L 242.02812 -169.519493 
L 240.03789 -168.240856 
L 238.047659 -168.157915 
L 236.057429 -166.903487 
L 234.067199 -166.278896 
L 232.076968 -164.919227 
L 230.086738 -163.698743 
L 228.096508 -162.648732 
L 226.106277 -161.284619 
L 224.116047 -160.072126 
L 222.125817 -160.449124 
L 220.135586 -159.84318 
L 218.145356 -159.18588 
L 216.155126 -157.273776 
L 214.164895 -155.852057 
L 212.174665 -153.883713 
L 210.184435 -153.472025 
L 208.194204 -153.134757 
L 206.203974 -152.093876 
L 204.213744 -150.932284 
L 202.223513 -149.969829 
L 200.233283 -148.977633 
L 198.243053 -146.035505 
L 196.252822 -146.18689 
L 194.262592 -144.748315 
L 192.272362 -144.077038 
L 190.282131 -143.581632 
L 188.291901 -142.621238 
L 186.301671 -142.125698 
L 184.31144 -140.406766 
L 182.32121 -138.236147 
L 180.33098 -138.132605 
L 178.340749 -136.652499 
L 176.350519 -136.832186 
L 174.360289 -134.963448 
L 172.370058 -134.446026 
L 170.379828 -132.112132 
L 168.389598 -130.791816 
L 166.399367 -130.534404 
L 164.409137 -128.988911 
L 162.418907 -128.232084 
L 160.428677 -127.537024 
L 158.438446 -127.516866 
L 156.448216 -125.459581 
L 154.457986 -124.787577 
L 152.467755 -122.56284 
L 150.477525 -121.549698 
L 148.487295 -121.472743 
L 146.497064 -121.558637 
L 144.506834 -119.83603 
L 142.516604 -119.6952 
L 140.526373 -117.694723 
L 138.536143 -116.206133 
L 136.545913 -114.971542 
L 134.555682 -115.012626 
L 132.565452 -114.248552 
L 130.575222 -111.619164 
L 128.584991 -111.505619 
L 126.594761 -110.100807 
L 124.604531 -107.351677 
L 122.6143 -106.899825 
L 120.62407 -105.228603 
L 118.63384 -105.366429 
L 116.643609 -103.910539 
L 114.653379 -104.15059 
L 112.663149 -102.791848 
L 110.672918 -101.250084 
L 108.682688 -98.468089 
L 106.692458 -98.286594 
L 104.702227 -97.000429 
L 102.711997 -96.841225 
L 100.721767 -96.853574 
L 98.731536 -93.688718 
L 96.741306 -93.725869 
L 94.751076 -91.595739 
L 92.760845 -90.76779 
L 90.770615 -89.336296 
L 88.780385 -88.595109 
L 86.790154 -88.580465 
L 84.799924 -86.810081 
L 82.809694 -86.739894 
L 80.819463 -85.229146 
L 78.829233 -82.686358 
L 76.839003 -82.746954 
L 74.848773 -82.681508 
L 72.858542 -82.84194 
L 70.868312 -80.73043 
L 68.878082 -80.525772 
L 66.887851 -79.666802 
L 64.897621 -76.171995 
L 62.907391 -76.198172 
L 60.91716 -76.240963 
L 58.92693 -73.045643 
L 56.9367 -73.05238 
L 54.946469 -73.121341 
L 52.956239 -73.11048 
L 50.966009 -69.928311 
L 48.975778 -67.759473 
L 46.985548 -66.238479 
L 44.995318 -66.067582 
z
" style="stroke: #bc5090; stroke-opacity: 0.2"/>
    </defs>
    <g clip-path="url(#p1659f9ff4e)">
     <use xlink:href="#m5cd747bdef" x="0" y="254.88" style="fill: #bc5090; fill-opacity: 0.2; stroke: #bc5090; stroke-opacity: 0.2"/>
    </g>
   </g>
   <g id="matplotlib.axis_1">
    <g id="xtick_1">
     <g id="line2d_1">
      <defs>
       <path id="mb91fbdfaa9" d="M 0 0 
L 0 -3.5 
" style="stroke: #000000; stroke-width: 0.8"/>
      </defs>
      <g>
       <use xlink:href="#mb91fbdfaa9" x="44.995318" y="223.087885" style="stroke: #000000; stroke-width: 0.8"/>
      </g>
     </g>
     <g id="text_1">
      <!-- 0.2 -->
      <g transform="translate(36.248599 234.946166) scale(0.11 -0.11)">
       <defs>
        <path id="DejaVuSans-30" d="M 2034 4250 
Q 1547 4250 1301 3770 
Q 1056 3291 1056 2328 
Q 1056 1369 1301 889 
Q 1547 409 2034 409 
Q 2525 409 2770 889 
Q 3016 1369 3016 2328 
Q 3016 3291 2770 3770 
Q 2525 4250 2034 4250 
z
M 2034 4750 
Q 2819 4750 3233 4129 
Q 3647 3509 3647 2328 
Q 3647 1150 3233 529 
Q 2819 -91 2034 -91 
Q 1250 -91 836 529 
Q 422 1150 422 2328 
Q 422 3509 836 4129 
Q 1250 4750 2034 4750 
z
" transform="scale(0.015625)"/>
        <path id="DejaVuSans-2e" d="M 684 794 
L 1344 794 
L 1344 0 
L 684 0 
L 684 794 
z
" transform="scale(0.015625)"/>
        <path id="DejaVuSans-32" d="M 1228 531 
L 3431 531 
L 3431 0 
L 469 0 
L 469 531 
Q 828 903 1448 1529 
Q 2069 2156 2228 2338 
Q 2531 2678 2651 2914 
Q 2772 3150 2772 3378 
Q 2772 3750 2511 3984 
Q 2250 4219 1831 4219 
Q 1534 4219 1204 4116 
Q 875 4013 500 3803 
L 500 4441 
Q 881 4594 1212 4672 
Q 1544 4750 1819 4750 
Q 2544 4750 2975 4387 
Q 3406 4025 3406 3419 
Q 3406 3131 3298 2873 
Q 3191 2616 2906 2266 
Q 2828 2175 2409 1742 
Q 1991 1309 1228 531 
z
" transform="scale(0.015625)"/>
       </defs>
       <use xlink:href="#DejaVuSans-30"/>
       <use xlink:href="#DejaVuSans-2e" x="63.623047"/>
       <use xlink:href="#DejaVuSans-32" x="95.410156"/>
      </g>
     </g>
    </g>
    <g id="xtick_2">
     <g id="line2d_2">
      <g>
       <use xlink:href="#mb91fbdfaa9" x="84.401878" y="223.087885" style="stroke: #000000; stroke-width: 0.8"/>
      </g>
     </g>
     <g id="text_2">
      <!-- 0.4 -->
      <g transform="translate(75.655159 234.946166) scale(0.11 -0.11)">
       <defs>
        <path id="DejaVuSans-34" d="M 2419 4116 
L 825 1625 
L 2419 1625 
L 2419 4116 
z
M 2253 4666 
L 3047 4666 
L 3047 1625 
L 3713 1625 
L 3713 1100 
L 3047 1100 
L 3047 0 
L 2419 0 
L 2419 1100 
L 313 1100 
L 313 1709 
L 2253 4666 
z
" transform="scale(0.015625)"/>
       </defs>
       <use xlink:href="#DejaVuSans-30"/>
       <use xlink:href="#DejaVuSans-2e" x="63.623047"/>
       <use xlink:href="#DejaVuSans-34" x="95.410156"/>
      </g>
     </g>
    </g>
    <g id="xtick_3">
     <g id="line2d_3">
      <g>
       <use xlink:href="#mb91fbdfaa9" x="123.808439" y="223.087885" style="stroke: #000000; stroke-width: 0.8"/>
      </g>
     </g>
     <g id="text_3">
      <!-- 0.6 -->
      <g transform="translate(115.06172 234.946166) scale(0.11 -0.11)">
       <defs>
        <path id="DejaVuSans-36" d="M 2113 2584 
Q 1688 2584 1439 2293 
Q 1191 2003 1191 1497 
Q 1191 994 1439 701 
Q 1688 409 2113 409 
Q 2538 409 2786 701 
Q 3034 994 3034 1497 
Q 3034 2003 2786 2293 
Q 2538 2584 2113 2584 
z
M 3366 4563 
L 3366 3988 
Q 3128 4100 2886 4159 
Q 2644 4219 2406 4219 
Q 1781 4219 1451 3797 
Q 1122 3375 1075 2522 
Q 1259 2794 1537 2939 
Q 1816 3084 2150 3084 
Q 2853 3084 3261 2657 
Q 3669 2231 3669 1497 
Q 3669 778 3244 343 
Q 2819 -91 2113 -91 
Q 1303 -91 875 529 
Q 447 1150 447 2328 
Q 447 3434 972 4092 
Q 1497 4750 2381 4750 
Q 2619 4750 2861 4703 
Q 3103 4656 3366 4563 
z
" transform="scale(0.015625)"/>
       </defs>
       <use xlink:href="#DejaVuSans-30"/>
       <use xlink:href="#DejaVuSans-2e" x="63.623047"/>
       <use xlink:href="#DejaVuSans-36" x="95.410156"/>
      </g>
     </g>
    </g>
    <g id="xtick_4">
     <g id="line2d_4">
      <g>
       <use xlink:href="#mb91fbdfaa9" x="163.214999" y="223.087885" style="stroke: #000000; stroke-width: 0.8"/>
      </g>
     </g>
     <g id="text_4">
      <!-- 0.8 -->
      <g transform="translate(154.46828 234.946166) scale(0.11 -0.11)">
       <defs>
        <path id="DejaVuSans-38" d="M 2034 2216 
Q 1584 2216 1326 1975 
Q 1069 1734 1069 1313 
Q 1069 891 1326 650 
Q 1584 409 2034 409 
Q 2484 409 2743 651 
Q 3003 894 3003 1313 
Q 3003 1734 2745 1975 
Q 2488 2216 2034 2216 
z
M 1403 2484 
Q 997 2584 770 2862 
Q 544 3141 544 3541 
Q 544 4100 942 4425 
Q 1341 4750 2034 4750 
Q 2731 4750 3128 4425 
Q 3525 4100 3525 3541 
Q 3525 3141 3298 2862 
Q 3072 2584 2669 2484 
Q 3125 2378 3379 2068 
Q 3634 1759 3634 1313 
Q 3634 634 3220 271 
Q 2806 -91 2034 -91 
Q 1263 -91 848 271 
Q 434 634 434 1313 
Q 434 1759 690 2068 
Q 947 2378 1403 2484 
z
M 1172 3481 
Q 1172 3119 1398 2916 
Q 1625 2713 2034 2713 
Q 2441 2713 2670 2916 
Q 2900 3119 2900 3481 
Q 2900 3844 2670 4047 
Q 2441 4250 2034 4250 
Q 1625 4250 1398 4047 
Q 1172 3844 1172 3481 
z
" transform="scale(0.015625)"/>
       </defs>
       <use xlink:href="#DejaVuSans-30"/>
       <use xlink:href="#DejaVuSans-2e" x="63.623047"/>
       <use xlink:href="#DejaVuSans-38" x="95.410156"/>
      </g>
     </g>
    </g>
    <g id="xtick_5">
     <g id="line2d_5">
      <g>
       <use xlink:href="#mb91fbdfaa9" x="202.621559" y="223.087885" style="stroke: #000000; stroke-width: 0.8"/>
      </g>
     </g>
     <g id="text_5">
      <!-- 1.0 -->
      <g transform="translate(193.874841 234.946166) scale(0.11 -0.11)">
       <defs>
        <path id="DejaVuSans-31" d="M 794 531 
L 1825 531 
L 1825 4091 
L 703 3866 
L 703 4441 
L 1819 4666 
L 2450 4666 
L 2450 531 
L 3481 531 
L 3481 0 
L 794 0 
L 794 531 
z
" transform="scale(0.015625)"/>
       </defs>
       <use xlink:href="#DejaVuSans-31"/>
       <use xlink:href="#DejaVuSans-2e" x="63.623047"/>
       <use xlink:href="#DejaVuSans-30" x="95.410156"/>
      </g>
     </g>
    </g>
    <g id="xtick_6">
     <g id="line2d_6">
      <g>
       <use xlink:href="#mb91fbdfaa9" x="242.02812" y="223.087885" style="stroke: #000000; stroke-width: 0.8"/>
      </g>
     </g>
     <g id="text_6">
      <!-- 1.2 -->
      <g transform="translate(233.281401 234.946166) scale(0.11 -0.11)">
       <use xlink:href="#DejaVuSans-31"/>
       <use xlink:href="#DejaVuSans-2e" x="63.623047"/>
       <use xlink:href="#DejaVuSans-32" x="95.410156"/>
      </g>
     </g>
    </g>
    <g id="text_7">
     <!-- Distance [µm] -->
     <g transform="translate(104.566563 249.592104) scale(0.11 -0.11)">
      <defs>
       <path id="DejaVuSans-44" d="M 1259 4147 
L 1259 519 
L 2022 519 
Q 2988 519 3436 956 
Q 3884 1394 3884 2338 
Q 3884 3275 3436 3711 
Q 2988 4147 2022 4147 
L 1259 4147 
z
M 628 4666 
L 1925 4666 
Q 3281 4666 3915 4102 
Q 4550 3538 4550 2338 
Q 4550 1131 3912 565 
Q 3275 0 1925 0 
L 628 0 
L 628 4666 
z
" transform="scale(0.015625)"/>
       <path id="DejaVuSans-69" d="M 603 3500 
L 1178 3500 
L 1178 0 
L 603 0 
L 603 3500 
z
M 603 4863 
L 1178 4863 
L 1178 4134 
L 603 4134 
L 603 4863 
z
" transform="scale(0.015625)"/>
       <path id="DejaVuSans-73" d="M 2834 3397 
L 2834 2853 
Q 2591 2978 2328 3040 
Q 2066 3103 1784 3103 
Q 1356 3103 1142 2972 
Q 928 2841 928 2578 
Q 928 2378 1081 2264 
Q 1234 2150 1697 2047 
L 1894 2003 
Q 2506 1872 2764 1633 
Q 3022 1394 3022 966 
Q 3022 478 2636 193 
Q 2250 -91 1575 -91 
Q 1294 -91 989 -36 
Q 684 19 347 128 
L 347 722 
Q 666 556 975 473 
Q 1284 391 1588 391 
Q 1994 391 2212 530 
Q 2431 669 2431 922 
Q 2431 1156 2273 1281 
Q 2116 1406 1581 1522 
L 1381 1569 
Q 847 1681 609 1914 
Q 372 2147 372 2553 
Q 372 3047 722 3315 
Q 1072 3584 1716 3584 
Q 2034 3584 2315 3537 
Q 2597 3491 2834 3397 
z
" transform="scale(0.015625)"/>
       <path id="DejaVuSans-74" d="M 1172 4494 
L 1172 3500 
L 2356 3500 
L 2356 3053 
L 1172 3053 
L 1172 1153 
Q 1172 725 1289 603 
Q 1406 481 1766 481 
L 2356 481 
L 2356 0 
L 1766 0 
Q 1100 0 847 248 
Q 594 497 594 1153 
L 594 3053 
L 172 3053 
L 172 3500 
L 594 3500 
L 594 4494 
L 1172 4494 
z
" transform="scale(0.015625)"/>
       <path id="DejaVuSans-61" d="M 2194 1759 
Q 1497 1759 1228 1600 
Q 959 1441 959 1056 
Q 959 750 1161 570 
Q 1363 391 1709 391 
Q 2188 391 2477 730 
Q 2766 1069 2766 1631 
L 2766 1759 
L 2194 1759 
z
M 3341 1997 
L 3341 0 
L 2766 0 
L 2766 531 
Q 2569 213 2275 61 
Q 1981 -91 1556 -91 
Q 1019 -91 701 211 
Q 384 513 384 1019 
Q 384 1609 779 1909 
Q 1175 2209 1959 2209 
L 2766 2209 
L 2766 2266 
Q 2766 2663 2505 2880 
Q 2244 3097 1772 3097 
Q 1472 3097 1187 3025 
Q 903 2953 641 2809 
L 641 3341 
Q 956 3463 1253 3523 
Q 1550 3584 1831 3584 
Q 2591 3584 2966 3190 
Q 3341 2797 3341 1997 
z
" transform="scale(0.015625)"/>
       <path id="DejaVuSans-6e" d="M 3513 2113 
L 3513 0 
L 2938 0 
L 2938 2094 
Q 2938 2591 2744 2837 
Q 2550 3084 2163 3084 
Q 1697 3084 1428 2787 
Q 1159 2491 1159 1978 
L 1159 0 
L 581 0 
L 581 3500 
L 1159 3500 
L 1159 2956 
Q 1366 3272 1645 3428 
Q 1925 3584 2291 3584 
Q 2894 3584 3203 3211 
Q 3513 2838 3513 2113 
z
" transform="scale(0.015625)"/>
       <path id="DejaVuSans-63" d="M 3122 3366 
L 3122 2828 
Q 2878 2963 2633 3030 
Q 2388 3097 2138 3097 
Q 1578 3097 1268 2742 
Q 959 2388 959 1747 
Q 959 1106 1268 751 
Q 1578 397 2138 397 
Q 2388 397 2633 464 
Q 2878 531 3122 666 
L 3122 134 
Q 2881 22 2623 -34 
Q 2366 -91 2075 -91 
Q 1284 -91 818 406 
Q 353 903 353 1747 
Q 353 2603 823 3093 
Q 1294 3584 2113 3584 
Q 2378 3584 2631 3529 
Q 2884 3475 3122 3366 
z
" transform="scale(0.015625)"/>
       <path id="DejaVuSans-65" d="M 3597 1894 
L 3597 1613 
L 953 1613 
Q 991 1019 1311 708 
Q 1631 397 2203 397 
Q 2534 397 2845 478 
Q 3156 559 3463 722 
L 3463 178 
Q 3153 47 2828 -22 
Q 2503 -91 2169 -91 
Q 1331 -91 842 396 
Q 353 884 353 1716 
Q 353 2575 817 3079 
Q 1281 3584 2069 3584 
Q 2775 3584 3186 3129 
Q 3597 2675 3597 1894 
z
M 3022 2063 
Q 3016 2534 2758 2815 
Q 2500 3097 2075 3097 
Q 1594 3097 1305 2825 
Q 1016 2553 972 2059 
L 3022 2063 
z
" transform="scale(0.015625)"/>
       <path id="DejaVuSans-20" transform="scale(0.015625)"/>
       <path id="DejaVuSans-5b" d="M 550 4863 
L 1875 4863 
L 1875 4416 
L 1125 4416 
L 1125 -397 
L 1875 -397 
L 1875 -844 
L 550 -844 
L 550 4863 
z
" transform="scale(0.015625)"/>
       <path id="DejaVuSans-b5" d="M 544 -1331 
L 544 3500 
L 1119 3500 
L 1119 1325 
Q 1119 872 1334 640 
Q 1550 409 1972 409 
Q 2434 409 2667 671 
Q 2900 934 2900 1459 
L 2900 3500 
L 3475 3500 
L 3475 806 
Q 3475 619 3529 530 
Q 3584 441 3700 441 
Q 3728 441 3778 458 
Q 3828 475 3916 513 
L 3916 50 
Q 3788 -22 3673 -56 
Q 3559 -91 3450 -91 
Q 3234 -91 3106 31 
Q 2978 153 2931 403 
Q 2775 156 2548 32 
Q 2322 -91 2016 -91 
Q 1697 -91 1473 31 
Q 1250 153 1119 397 
L 1119 -1331 
L 544 -1331 
z
" transform="scale(0.015625)"/>
       <path id="DejaVuSans-6d" d="M 3328 2828 
Q 3544 3216 3844 3400 
Q 4144 3584 4550 3584 
Q 5097 3584 5394 3201 
Q 5691 2819 5691 2113 
L 5691 0 
L 5113 0 
L 5113 2094 
Q 5113 2597 4934 2840 
Q 4756 3084 4391 3084 
Q 3944 3084 3684 2787 
Q 3425 2491 3425 1978 
L 3425 0 
L 2847 0 
L 2847 2094 
Q 2847 2600 2669 2842 
Q 2491 3084 2119 3084 
Q 1678 3084 1418 2786 
Q 1159 2488 1159 1978 
L 1159 0 
L 581 0 
L 581 3500 
L 1159 3500 
L 1159 2956 
Q 1356 3278 1631 3431 
Q 1906 3584 2284 3584 
Q 2666 3584 2933 3390 
Q 3200 3197 3328 2828 
z
" transform="scale(0.015625)"/>
       <path id="DejaVuSans-5d" d="M 1947 4863 
L 1947 -844 
L 622 -844 
L 622 -397 
L 1369 -397 
L 1369 4416 
L 622 4416 
L 622 4863 
L 1947 4863 
z
" transform="scale(0.015625)"/>
      </defs>
      <use xlink:href="#DejaVuSans-44"/>
      <use xlink:href="#DejaVuSans-69" x="77.001953"/>
      <use xlink:href="#DejaVuSans-73" x="104.785156"/>
      <use xlink:href="#DejaVuSans-74" x="156.884766"/>
      <use xlink:href="#DejaVuSans-61" x="196.09375"/>
      <use xlink:href="#DejaVuSans-6e" x="257.373047"/>
      <use xlink:href="#DejaVuSans-63" x="320.751953"/>
      <use xlink:href="#DejaVuSans-65" x="375.732422"/>
      <use xlink:href="#DejaVuSans-20" x="437.255859"/>
      <use xlink:href="#DejaVuSans-5b" x="469.042969"/>
      <use xlink:href="#DejaVuSans-b5" x="508.056641"/>
      <use xlink:href="#DejaVuSans-6d" x="571.679688"/>
      <use xlink:href="#DejaVuSans-5d" x="669.091797"/>
     </g>
    </g>
   </g>
   <g id="matplotlib.axis_2">
    <g id="ytick_1">
     <g id="line2d_7">
      <defs>
       <path id="m074ae9ba59" d="M 0 0 
L 3.5 0 
" style="stroke: #000000; stroke-width: 0.8"/>
      </defs>
      <g>
       <use xlink:href="#m074ae9ba59" x="35.143678" y="214.924872" style="stroke: #000000; stroke-width: 0.8"/>
      </g>
     </g>
     <g id="text_8">
      <!-- 0 -->
      <g transform="translate(24.644928 219.104013) scale(0.11 -0.11)">
       <use xlink:href="#DejaVuSans-30"/>
      </g>
     </g>
    </g>
    <g id="ytick_2">
     <g id="line2d_8">
      <g>
       <use xlink:href="#m074ae9ba59" x="35.143678" y="187.116437" style="stroke: #000000; stroke-width: 0.8"/>
      </g>
     </g>
     <g id="text_9">
      <!-- 5 -->
      <g transform="translate(24.644928 191.295578) scale(0.11 -0.11)">
       <defs>
        <path id="DejaVuSans-35" d="M 691 4666 
L 3169 4666 
L 3169 4134 
L 1269 4134 
L 1269 2991 
Q 1406 3038 1543 3061 
Q 1681 3084 1819 3084 
Q 2600 3084 3056 2656 
Q 3513 2228 3513 1497 
Q 3513 744 3044 326 
Q 2575 -91 1722 -91 
Q 1428 -91 1123 -41 
Q 819 9 494 109 
L 494 744 
Q 775 591 1075 516 
Q 1375 441 1709 441 
Q 2250 441 2565 725 
Q 2881 1009 2881 1497 
Q 2881 1984 2565 2268 
Q 2250 2553 1709 2553 
Q 1456 2553 1204 2497 
Q 953 2441 691 2322 
L 691 4666 
z
" transform="scale(0.015625)"/>
       </defs>
       <use xlink:href="#DejaVuSans-35"/>
      </g>
     </g>
    </g>
    <g id="ytick_3">
     <g id="line2d_9">
      <g>
       <use xlink:href="#m074ae9ba59" x="35.143678" y="159.308003" style="stroke: #000000; stroke-width: 0.8"/>
      </g>
     </g>
     <g id="text_10">
      <!-- 10 -->
      <g transform="translate(17.646178 163.487143) scale(0.11 -0.11)">
       <use xlink:href="#DejaVuSans-31"/>
       <use xlink:href="#DejaVuSans-30" x="63.623047"/>
      </g>
     </g>
    </g>
    <g id="ytick_4">
     <g id="line2d_10">
      <g>
       <use xlink:href="#m074ae9ba59" x="35.143678" y="131.499568" style="stroke: #000000; stroke-width: 0.8"/>
      </g>
     </g>
     <g id="text_11">
      <!-- 15 -->
      <g transform="translate(17.646178 135.678709) scale(0.11 -0.11)">
       <use xlink:href="#DejaVuSans-31"/>
       <use xlink:href="#DejaVuSans-35" x="63.623047"/>
      </g>
     </g>
    </g>
    <g id="ytick_5">
     <g id="line2d_11">
      <g>
       <use xlink:href="#m074ae9ba59" x="35.143678" y="103.691134" style="stroke: #000000; stroke-width: 0.8"/>
      </g>
     </g>
     <g id="text_12">
      <!-- 20 -->
      <g transform="translate(17.646178 107.870274) scale(0.11 -0.11)">
       <use xlink:href="#DejaVuSans-32"/>
       <use xlink:href="#DejaVuSans-30" x="63.623047"/>
      </g>
     </g>
    </g>
    <g id="ytick_6">
     <g id="line2d_12">
      <g>
       <use xlink:href="#m074ae9ba59" x="35.143678" y="75.882699" style="stroke: #000000; stroke-width: 0.8"/>
      </g>
     </g>
     <g id="text_13">
      <!-- 25 -->
      <g transform="translate(17.646178 80.06184) scale(0.11 -0.11)">
       <use xlink:href="#DejaVuSans-32"/>
       <use xlink:href="#DejaVuSans-35" x="63.623047"/>
      </g>
     </g>
    </g>
    <g id="ytick_7">
     <g id="line2d_13">
      <g>
       <use xlink:href="#m074ae9ba59" x="35.143678" y="48.074264" style="stroke: #000000; stroke-width: 0.8"/>
      </g>
     </g>
     <g id="text_14">
      <!-- 30 -->
      <g transform="translate(17.646178 52.253405) scale(0.11 -0.11)">
       <defs>
        <path id="DejaVuSans-33" d="M 2597 2516 
Q 3050 2419 3304 2112 
Q 3559 1806 3559 1356 
Q 3559 666 3084 287 
Q 2609 -91 1734 -91 
Q 1441 -91 1130 -33 
Q 819 25 488 141 
L 488 750 
Q 750 597 1062 519 
Q 1375 441 1716 441 
Q 2309 441 2620 675 
Q 2931 909 2931 1356 
Q 2931 1769 2642 2001 
Q 2353 2234 1838 2234 
L 1294 2234 
L 1294 2753 
L 1863 2753 
Q 2328 2753 2575 2939 
Q 2822 3125 2822 3475 
Q 2822 3834 2567 4026 
Q 2313 4219 1838 4219 
Q 1578 4219 1281 4162 
Q 984 4106 628 3988 
L 628 4550 
Q 988 4650 1302 4700 
Q 1616 4750 1894 4750 
Q 2613 4750 3031 4423 
Q 3450 4097 3450 3541 
Q 3450 3153 3228 2886 
Q 3006 2619 2597 2516 
z
" transform="scale(0.015625)"/>
       </defs>
       <use xlink:href="#DejaVuSans-33"/>
       <use xlink:href="#DejaVuSans-30" x="63.623047"/>
      </g>
     </g>
    </g>
    <g id="ytick_8">
     <g id="line2d_14">
      <g>
       <use xlink:href="#m074ae9ba59" x="35.143678" y="20.26583" style="stroke: #000000; stroke-width: 0.8"/>
      </g>
     </g>
     <g id="text_15">
      <!-- 35 -->
      <g transform="translate(17.646178 24.44497) scale(0.11 -0.11)">
       <use xlink:href="#DejaVuSans-33"/>
       <use xlink:href="#DejaVuSans-35" x="63.623047"/>
      </g>
     </g>
    </g>
    <g id="ytick_9">
     <g id="line2d_15">
      <defs>
       <path id="m6cc6fae771" d="M 0 0 
L 2 0 
" style="stroke: #000000; stroke-width: 0.6"/>
      </defs>
      <g>
       <use xlink:href="#m6cc6fae771" x="35.143678" y="220.486559" style="stroke: #000000; stroke-width: 0.6"/>
      </g>
     </g>
    </g>
    <g id="ytick_10">
     <g id="line2d_16">
      <g>
       <use xlink:href="#m6cc6fae771" x="35.143678" y="209.363185" style="stroke: #000000; stroke-width: 0.6"/>
      </g>
     </g>
    </g>
    <g id="ytick_11">
     <g id="line2d_17">
      <g>
       <use xlink:href="#m6cc6fae771" x="35.143678" y="203.801498" style="stroke: #000000; stroke-width: 0.6"/>
      </g>
     </g>
    </g>
    <g id="ytick_12">
     <g id="line2d_18">
      <g>
       <use xlink:href="#m6cc6fae771" x="35.143678" y="198.239811" style="stroke: #000000; stroke-width: 0.6"/>
      </g>
     </g>
    </g>
    <g id="ytick_13">
     <g id="line2d_19">
      <g>
       <use xlink:href="#m6cc6fae771" x="35.143678" y="192.678124" style="stroke: #000000; stroke-width: 0.6"/>
      </g>
     </g>
    </g>
    <g id="ytick_14">
     <g id="line2d_20">
      <g>
       <use xlink:href="#m6cc6fae771" x="35.143678" y="181.554751" style="stroke: #000000; stroke-width: 0.6"/>
      </g>
     </g>
    </g>
    <g id="ytick_15">
     <g id="line2d_21">
      <g>
       <use xlink:href="#m6cc6fae771" x="35.143678" y="175.993064" style="stroke: #000000; stroke-width: 0.6"/>
      </g>
     </g>
    </g>
    <g id="ytick_16">
     <g id="line2d_22">
      <g>
       <use xlink:href="#m6cc6fae771" x="35.143678" y="170.431377" style="stroke: #000000; stroke-width: 0.6"/>
      </g>
     </g>
    </g>
    <g id="ytick_17">
     <g id="line2d_23">
      <g>
       <use xlink:href="#m6cc6fae771" x="35.143678" y="164.86969" style="stroke: #000000; stroke-width: 0.6"/>
      </g>
     </g>
    </g>
    <g id="ytick_18">
     <g id="line2d_24">
      <g>
       <use xlink:href="#m6cc6fae771" x="35.143678" y="153.746316" style="stroke: #000000; stroke-width: 0.6"/>
      </g>
     </g>
    </g>
    <g id="ytick_19">
     <g id="line2d_25">
      <g>
       <use xlink:href="#m6cc6fae771" x="35.143678" y="148.184629" style="stroke: #000000; stroke-width: 0.6"/>
      </g>
     </g>
    </g>
    <g id="ytick_20">
     <g id="line2d_26">
      <g>
       <use xlink:href="#m6cc6fae771" x="35.143678" y="142.622942" style="stroke: #000000; stroke-width: 0.6"/>
      </g>
     </g>
    </g>
    <g id="ytick_21">
     <g id="line2d_27">
      <g>
       <use xlink:href="#m6cc6fae771" x="35.143678" y="137.061255" style="stroke: #000000; stroke-width: 0.6"/>
      </g>
     </g>
    </g>
    <g id="ytick_22">
     <g id="line2d_28">
      <g>
       <use xlink:href="#m6cc6fae771" x="35.143678" y="125.937881" style="stroke: #000000; stroke-width: 0.6"/>
      </g>
     </g>
    </g>
    <g id="ytick_23">
     <g id="line2d_29">
      <g>
       <use xlink:href="#m6cc6fae771" x="35.143678" y="120.376194" style="stroke: #000000; stroke-width: 0.6"/>
      </g>
     </g>
    </g>
    <g id="ytick_24">
     <g id="line2d_30">
      <g>
       <use xlink:href="#m6cc6fae771" x="35.143678" y="114.814507" style="stroke: #000000; stroke-width: 0.6"/>
      </g>
     </g>
    </g>
    <g id="ytick_25">
     <g id="line2d_31">
      <g>
       <use xlink:href="#m6cc6fae771" x="35.143678" y="109.252821" style="stroke: #000000; stroke-width: 0.6"/>
      </g>
     </g>
    </g>
    <g id="ytick_26">
     <g id="line2d_32">
      <g>
       <use xlink:href="#m6cc6fae771" x="35.143678" y="98.129447" style="stroke: #000000; stroke-width: 0.6"/>
      </g>
     </g>
    </g>
    <g id="ytick_27">
     <g id="line2d_33">
      <g>
       <use xlink:href="#m6cc6fae771" x="35.143678" y="92.56776" style="stroke: #000000; stroke-width: 0.6"/>
      </g>
     </g>
    </g>
    <g id="ytick_28">
     <g id="line2d_34">
      <g>
       <use xlink:href="#m6cc6fae771" x="35.143678" y="87.006073" style="stroke: #000000; stroke-width: 0.6"/>
      </g>
     </g>
    </g>
    <g id="ytick_29">
     <g id="line2d_35">
      <g>
       <use xlink:href="#m6cc6fae771" x="35.143678" y="81.444386" style="stroke: #000000; stroke-width: 0.6"/>
      </g>
     </g>
    </g>
    <g id="ytick_30">
     <g id="line2d_36">
      <g>
       <use xlink:href="#m6cc6fae771" x="35.143678" y="70.321012" style="stroke: #000000; stroke-width: 0.6"/>
      </g>
     </g>
    </g>
    <g id="ytick_31">
     <g id="line2d_37">
      <g>
       <use xlink:href="#m6cc6fae771" x="35.143678" y="64.759325" style="stroke: #000000; stroke-width: 0.6"/>
      </g>
     </g>
    </g>
    <g id="ytick_32">
     <g id="line2d_38">
      <g>
       <use xlink:href="#m6cc6fae771" x="35.143678" y="59.197638" style="stroke: #000000; stroke-width: 0.6"/>
      </g>
     </g>
    </g>
    <g id="ytick_33">
     <g id="line2d_39">
      <g>
       <use xlink:href="#m6cc6fae771" x="35.143678" y="53.635951" style="stroke: #000000; stroke-width: 0.6"/>
      </g>
     </g>
    </g>
    <g id="ytick_34">
     <g id="line2d_40">
      <g>
       <use xlink:href="#m6cc6fae771" x="35.143678" y="42.512578" style="stroke: #000000; stroke-width: 0.6"/>
      </g>
     </g>
    </g>
    <g id="ytick_35">
     <g id="line2d_41">
      <g>
       <use xlink:href="#m6cc6fae771" x="35.143678" y="36.950891" style="stroke: #000000; stroke-width: 0.6"/>
      </g>
     </g>
    </g>
    <g id="ytick_36">
     <g id="line2d_42">
      <g>
       <use xlink:href="#m6cc6fae771" x="35.143678" y="31.389204" style="stroke: #000000; stroke-width: 0.6"/>
      </g>
     </g>
    </g>
    <g id="ytick_37">
     <g id="line2d_43">
      <g>
       <use xlink:href="#m6cc6fae771" x="35.143678" y="25.827517" style="stroke: #000000; stroke-width: 0.6"/>
      </g>
     </g>
    </g>
    <g id="text_16">
     <!-- L(r) -->
     <g transform="translate(11.358521 130.676297) rotate(-90) scale(0.11 -0.11)">
      <defs>
       <path id="DejaVuSans-4c" d="M 628 4666 
L 1259 4666 
L 1259 531 
L 3531 531 
L 3531 0 
L 628 0 
L 628 4666 
z
" transform="scale(0.015625)"/>
       <path id="DejaVuSans-28" d="M 1984 4856 
Q 1566 4138 1362 3434 
Q 1159 2731 1159 2009 
Q 1159 1288 1364 580 
Q 1569 -128 1984 -844 
L 1484 -844 
Q 1016 -109 783 600 
Q 550 1309 550 2009 
Q 550 2706 781 3412 
Q 1013 4119 1484 4856 
L 1984 4856 
z
" transform="scale(0.015625)"/>
       <path id="DejaVuSans-72" d="M 2631 2963 
Q 2534 3019 2420 3045 
Q 2306 3072 2169 3072 
Q 1681 3072 1420 2755 
Q 1159 2438 1159 1844 
L 1159 0 
L 581 0 
L 581 3500 
L 1159 3500 
L 1159 2956 
Q 1341 3275 1631 3429 
Q 1922 3584 2338 3584 
Q 2397 3584 2469 3576 
Q 2541 3569 2628 3553 
L 2631 2963 
z
" transform="scale(0.015625)"/>
       <path id="DejaVuSans-29" d="M 513 4856 
L 1013 4856 
Q 1481 4119 1714 3412 
Q 1947 2706 1947 2009 
Q 1947 1309 1714 600 
Q 1481 -109 1013 -844 
L 513 -844 
Q 928 -128 1133 580 
Q 1338 1288 1338 2009 
Q 1338 2731 1133 3434 
Q 928 4138 513 4856 
z
" transform="scale(0.015625)"/>
      </defs>
      <use xlink:href="#DejaVuSans-4c"/>
      <use xlink:href="#DejaVuSans-28" x="55.712891"/>
      <use xlink:href="#DejaVuSans-72" x="94.726562"/>
      <use xlink:href="#DejaVuSans-29" x="135.839844"/>
     </g>
    </g>
   </g>
   <g id="line2d_44">
    <path d="M 44.995318 187.969087 
L 46.985548 187.969087 
L 48.975778 185.721503 
L 50.966009 184.521913 
L 52.956239 181.881142 
L 54.946469 181.881142 
L 56.9367 181.881142 
L 58.92693 181.881142 
L 60.91716 175.741298 
L 62.907391 175.741298 
L 64.897621 175.741298 
L 66.887851 172.735079 
L 68.878082 171.657452 
L 70.868312 171.657452 
L 72.858542 169.545917 
L 74.848773 169.545917 
L 76.839003 169.545917 
L 78.829233 169.545917 
L 80.819463 165.851647 
L 82.809694 163.988843 
L 84.799924 163.988843 
L 86.790154 161.130059 
L 88.780385 161.130059 
L 90.770615 160.099125 
L 92.760845 158.775586 
L 94.751076 157.711672 
L 96.741306 156.464535 
L 98.731536 156.464535 
L 100.721767 154.317766 
L 102.711997 154.317766 
L 104.702227 154.317766 
L 106.692458 153.294967 
L 108.682688 153.294967 
L 110.672918 151.692295 
L 112.663149 150.885612 
L 114.653379 149.833372 
L 116.643609 149.833372 
L 118.63384 148.937128 
L 120.62407 148.937128 
L 122.6143 147.065955 
L 124.604531 146.414221 
L 126.594761 143.504207 
L 128.584991 142.578678 
L 130.575222 142.578678 
L 132.565452 140.424476 
L 134.555682 139.648255 
L 136.545913 139.648255 
L 138.536143 138.688751 
L 140.526373 136.240748 
L 142.516604 132.411538 
L 144.506834 132.411538 
L 146.497064 130.798005 
L 148.487295 130.798005 
L 150.477525 130.798005 
L 152.467755 130.282303 
L 154.457986 127.415032 
L 156.448216 126.935541 
L 158.438446 125.629183 
L 160.428677 125.629183 
L 162.418907 125.11021 
L 164.409137 123.663992 
L 166.399367 122.589236 
L 168.389598 122.589236 
L 170.379828 121.566778 
L 172.370058 120.597817 
L 174.360289 120.377913 
L 176.350519 117.975309 
L 178.340749 117.975309 
L 180.33098 116.93487 
L 182.32121 116.93487 
L 184.31144 115.293369 
L 186.301671 113.950841 
L 188.291901 113.403697 
L 190.282131 112.41799 
L 192.272362 111.896789 
L 194.262592 110.749858 
L 196.252822 108.629153 
L 198.243053 108.629153 
L 200.233283 106.806239 
L 202.223513 106.347296 
L 204.213744 105.326501 
L 206.203974 103.527866 
L 208.194204 102.082586 
L 210.184435 102.082586 
L 212.174665 101.479556 
L 214.164895 99.1957 
L 216.155126 98.31733 
L 218.145356 96.324303 
L 220.135586 95.900567 
L 222.125817 95.06877 
L 224.116047 95.06877 
L 226.106277 94.661569 
L 228.096508 93.311542 
L 230.086738 92.401062 
L 232.076968 90.614154 
L 234.067199 89.478086 
L 236.057429 89.121904 
L 238.047659 87.337555 
L 240.03789 87.337555 
L 242.02812 85.626946 
" clip-path="url(#p1659f9ff4e)" style="fill: none; stroke: #003f5c; stroke-width: 1.5; stroke-linecap: square"/>
   </g>
   <g id="line2d_45">
    <path d="M 44.995318 185.100794 
L 46.985548 185.100794 
L 48.975778 181.458508 
L 50.966009 179.877532 
L 52.956239 175.313929 
L 54.946469 175.313929 
L 56.9367 175.313929 
L 58.92693 175.313929 
L 60.91716 172.071059 
L 62.907391 172.071059 
L 64.897621 172.071059 
L 66.887851 167.355717 
L 68.878082 166.296711 
L 70.868312 166.296711 
L 72.858542 163.095633 
L 74.848773 163.095633 
L 76.839003 163.095633 
L 78.829233 163.095633 
L 80.819463 158.751192 
L 82.809694 156.512339 
L 84.799924 156.512339 
L 86.790154 154.532431 
L 88.780385 154.532431 
L 90.770615 153.661732 
L 92.760845 152.0398 
L 94.751076 150.987535 
L 96.741306 148.483431 
L 98.731536 148.483431 
L 100.721767 144.195875 
L 102.711997 144.195875 
L 104.702227 144.195875 
L 106.692458 142.958579 
L 108.682688 142.958579 
L 110.672918 135.132616 
L 112.663149 132.648198 
L 114.653379 131.493381 
L 116.643609 131.493381 
L 118.63384 130.197212 
L 120.62407 130.197212 
L 122.6143 124.861311 
L 124.604531 123.868381 
L 126.594761 121.02064 
L 128.584991 119.865989 
L 130.575222 119.865989 
L 132.565452 117.82 
L 134.555682 115.824129 
L 136.545913 115.824129 
L 138.536143 113.33624 
L 140.526373 111.033457 
L 142.516604 108.365363 
L 144.506834 108.365363 
L 146.497064 104.310154 
L 148.487295 104.310154 
L 150.477525 104.310154 
L 152.467755 103.481769 
L 154.457986 100.732189 
L 156.448216 96.450668 
L 158.438446 94.626118 
L 160.428677 94.626118 
L 162.418907 93.842565 
L 164.409137 92.091254 
L 166.399367 90.06964 
L 168.389598 90.06964 
L 170.379828 88.785385 
L 172.370058 86.701813 
L 174.360289 85.680876 
L 176.350519 84.054825 
L 178.340749 84.054825 
L 180.33098 82.358454 
L 182.32121 82.358454 
L 184.31144 80.118187 
L 186.301671 78.611361 
L 188.291901 77.826211 
L 190.282131 77.00434 
L 192.272362 76.317384 
L 194.262592 75.443486 
L 196.252822 74.086183 
L 198.243053 74.086183 
L 200.233283 71.75782 
L 202.223513 71.099109 
L 204.213744 70.39747 
L 206.203974 68.663903 
L 208.194204 67.317454 
L 210.184435 67.317454 
L 212.174665 66.710102 
L 214.164895 65.000218 
L 216.155126 63.335325 
L 218.145356 57.633979 
L 220.135586 56.923738 
L 222.125817 56.185536 
L 224.116047 56.185536 
L 226.106277 55.609656 
L 228.096508 54.384148 
L 230.086738 52.883777 
L 232.076968 51.631458 
L 234.067199 50.533995 
L 236.057429 49.920235 
L 238.047659 46.706175 
L 240.03789 46.706175 
L 242.02812 45.289646 
" clip-path="url(#p1659f9ff4e)" style="fill: none; stroke: #ffa600; stroke-width: 1.5; stroke-linecap: square"/>
   </g>
   <g id="line2d_46">
    <path d="M 44.995318 190.382848 
L 46.985548 190.382848 
L 48.975778 188.825991 
L 50.966009 186.750295 
L 52.956239 183.578096 
L 54.946469 183.578096 
L 56.9367 183.578096 
L 58.92693 183.578096 
L 60.91716 180.584218 
L 62.907391 180.584218 
L 64.897621 180.584218 
L 66.887851 177.312909 
L 68.878082 176.25235 
L 70.868312 176.25235 
L 72.858542 174.150339 
L 74.848773 174.150339 
L 76.839003 174.150339 
L 78.829233 174.150339 
L 80.819463 171.629119 
L 82.809694 170.052186 
L 84.799924 170.052186 
L 86.790154 168.393518 
L 88.780385 168.393518 
L 90.770615 167.693133 
L 92.760845 166.162989 
L 94.751076 165.429607 
L 96.741306 163.469224 
L 98.731536 163.469224 
L 100.721767 160.172911 
L 102.711997 160.172911 
L 104.702227 160.172911 
L 106.692458 158.660035 
L 108.682688 158.660035 
L 110.672918 155.881844 
L 112.663149 154.407666 
L 114.653379 153.179492 
L 116.643609 153.179492 
L 118.63384 151.932644 
L 120.62407 151.932644 
L 122.6143 150.538769 
L 124.604531 150.002493 
L 126.594761 147.255511 
L 128.584991 145.847196 
L 130.575222 145.847196 
L 132.565452 143.46322 
L 134.555682 142.56182 
L 136.545913 142.56182 
L 138.536143 141.530894 
L 140.526373 140.133877 
L 142.516604 138.03401 
L 144.506834 138.03401 
L 146.497064 136.181832 
L 148.487295 136.181832 
L 150.477525 136.181832 
L 152.467755 135.227545 
L 154.457986 133.151632 
L 156.448216 132.242502 
L 158.438446 130.357854 
L 160.428677 130.357854 
L 162.418907 129.532227 
L 164.409137 128.74089 
L 166.399367 127.019604 
L 168.389598 127.019604 
L 170.379828 125.729141 
L 172.370058 123.423509 
L 174.360289 122.998236 
L 176.350519 121.45377 
L 178.340749 121.45377 
L 180.33098 119.927812 
L 182.32121 119.927812 
L 184.31144 117.574357 
L 186.301671 116.165611 
L 188.291901 115.417585 
L 190.282131 114.741273 
L 192.272362 114.115776 
L 194.262592 113.396838 
L 196.252822 112.304936 
L 198.243053 112.304936 
L 200.233283 109.355227 
L 202.223513 108.262061 
L 204.213744 107.657298 
L 206.203974 106.280164 
L 208.194204 105.082891 
L 210.184435 105.082891 
L 212.174665 104.505794 
L 214.164895 102.258121 
L 216.155126 101.125981 
L 218.145356 99.339803 
L 220.135586 98.633597 
L 222.125817 98.028224 
L 224.116047 98.028224 
L 226.106277 97.423051 
L 228.096508 96.139123 
L 230.086738 94.817488 
L 232.076968 93.462495 
L 234.067199 92.137807 
L 236.057429 91.578778 
L 238.047659 90.185803 
L 240.03789 90.185803 
L 242.02812 89.05125 
" clip-path="url(#p1659f9ff4e)" style="fill: none; stroke: #bc5090; stroke-width: 1.5; stroke-linecap: square"/>
   </g>
   <g id="line2d_47"/>
   <g id="line2d_48"/>
   <g id="line2d_49"/>
   <g id="line2d_50">
    <path d="M 44.995318 213.812535 
L 46.965646 213.756918 
L 48.935974 213.701301 
L 50.906302 213.645684 
L 52.87663 213.590067 
L 54.846958 213.53445 
L 56.817286 213.478833 
L 58.787614 213.423217 
L 60.757942 213.3676 
L 62.72827 213.311983 
L 64.698598 213.256366 
L 66.668926 213.200749 
L 68.639254 213.145132 
L 70.609582 213.089515 
L 72.57991 213.033898 
L 74.550238 212.978282 
L 76.520566 212.922665 
L 78.490894 212.867048 
L 80.461222 212.811431 
L 82.43155 212.755814 
L 84.401878 212.700197 
L 86.372206 212.64458 
L 88.342534 212.588964 
L 90.312862 212.533347 
L 92.28319 212.47773 
L 94.253518 212.422113 
L 96.223846 212.366496 
L 98.194174 212.310879 
L 100.164502 212.255262 
L 102.13483 212.199645 
L 104.105158 212.144029 
L 106.075486 212.088412 
L 108.045814 212.032795 
L 110.016142 211.977178 
L 111.98647 211.921561 
L 113.956798 211.865944 
L 115.927126 211.810327 
L 117.897454 211.75471 
L 119.867782 211.699094 
L 121.838111 211.643477 
L 123.808439 211.58786 
L 125.778767 211.532243 
L 127.749095 211.476626 
L 129.719423 211.421009 
L 131.689751 211.365392 
L 133.660079 211.309776 
L 135.630407 211.254159 
L 137.600735 211.198542 
L 139.571063 211.142925 
L 141.541391 211.087308 
L 143.511719 211.031691 
L 145.482047 210.976074 
L 147.452375 210.920457 
L 149.422703 210.864841 
L 151.393031 210.809224 
L 153.363359 210.753607 
L 155.333687 210.69799 
L 157.304015 210.642373 
L 159.274343 210.586756 
L 161.244671 210.531139 
L 163.214999 210.475523 
L 165.185327 210.419906 
L 167.155655 210.364289 
L 169.125983 210.308672 
L 171.096311 210.253055 
L 173.066639 210.197438 
L 175.036967 210.141821 
L 177.007295 210.086204 
L 178.977623 210.030588 
L 180.947951 209.974971 
L 182.918279 209.919354 
L 184.888607 209.863737 
L 186.858935 209.80812 
L 188.829263 209.752503 
L 190.799591 209.696886 
L 192.769919 209.641269 
L 194.740247 209.585653 
L 196.710575 209.530036 
L 198.680903 209.474419 
L 200.651231 209.418802 
L 202.621559 209.363185 
L 204.591887 209.307568 
L 206.562215 209.251951 
L 208.532544 209.196335 
L 210.502872 209.140718 
L 212.4732 209.085101 
L 214.443528 209.029484 
L 216.413856 208.973867 
L 218.384184 208.91825 
L 220.354512 208.862633 
L 222.32484 208.807016 
L 224.295168 208.7514 
L 226.265496 208.695783 
L 228.235824 208.640166 
L 230.206152 208.584549 
L 232.17648 208.528932 
L 234.146808 208.473315 
L 236.117136 208.417698 
L 238.087464 208.362081 
L 240.057792 208.306465 
" clip-path="url(#p1659f9ff4e)" style="fill: none; stroke-dasharray: 5.55,2.4; stroke-dashoffset: 0; stroke: #000000; stroke-width: 1.5"/>
   </g>
   <g id="patch_3">
    <path d="M 35.143678 223.087885 
L 35.143678 19.030178 
" style="fill: none; stroke: #000000; stroke-width: 0.8; stroke-linejoin: miter; stroke-linecap: square"/>
   </g>
   <g id="patch_4">
    <path d="M 35.143678 223.087885 
L 251.87976 223.087885 
" style="fill: none; stroke: #000000; stroke-width: 0.8; stroke-linejoin: miter; stroke-linecap: square"/>
   </g>
   <g id="text_17">
    <!-- Distance Analysis -->
    <g transform="translate(85.363656 13.030178) scale(0.132 -0.132)">
     <defs>
      <path id="DejaVuSans-41" d="M 2188 4044 
L 1331 1722 
L 3047 1722 
L 2188 4044 
z
M 1831 4666 
L 2547 4666 
L 4325 0 
L 3669 0 
L 3244 1197 
L 1141 1197 
L 716 0 
L 50 0 
L 1831 4666 
z
" transform="scale(0.015625)"/>
      <path id="DejaVuSans-6c" d="M 603 4863 
L 1178 4863 
L 1178 0 
L 603 0 
L 603 4863 
z
" transform="scale(0.015625)"/>
      <path id="DejaVuSans-79" d="M 2059 -325 
Q 1816 -950 1584 -1140 
Q 1353 -1331 966 -1331 
L 506 -1331 
L 506 -850 
L 844 -850 
Q 1081 -850 1212 -737 
Q 1344 -625 1503 -206 
L 1606 56 
L 191 3500 
L 800 3500 
L 1894 763 
L 2988 3500 
L 3597 3500 
L 2059 -325 
z
" transform="scale(0.015625)"/>
     </defs>
     <use xlink:href="#DejaVuSans-44"/>
     <use xlink:href="#DejaVuSans-69" x="77.001953"/>
     <use xlink:href="#DejaVuSans-73" x="104.785156"/>
     <use xlink:href="#DejaVuSans-74" x="156.884766"/>
     <use xlink:href="#DejaVuSans-61" x="196.09375"/>
     <use xlink:href="#DejaVuSans-6e" x="257.373047"/>
     <use xlink:href="#DejaVuSans-63" x="320.751953"/>
     <use xlink:href="#DejaVuSans-65" x="375.732422"/>
     <use xlink:href="#DejaVuSans-20" x="437.255859"/>
     <use xlink:href="#DejaVuSans-41" x="469.042969"/>
     <use xlink:href="#DejaVuSans-6e" x="537.451172"/>
     <use xlink:href="#DejaVuSans-61" x="600.830078"/>
     <use xlink:href="#DejaVuSans-6c" x="662.109375"/>
     <use xlink:href="#DejaVuSans-79" x="689.892578"/>
     <use xlink:href="#DejaVuSans-73" x="749.072266"/>
     <use xlink:href="#DejaVuSans-69" x="801.171875"/>
     <use xlink:href="#DejaVuSans-73" x="828.955078"/>
    </g>
   </g>
   <g id="legend_1">
    <g id="line2d_51">
     <path d="M 45.043678 33.438459 
L 56.043678 33.438459 
L 67.043678 33.438459 
" style="fill: none; stroke: #003f5c; stroke-width: 1.5; stroke-linecap: square"/>
    </g>
    <g id="text_18">
     <!-- X -->
     <g transform="translate(75.843677 37.288459) scale(0.11 -0.11)">
      <defs>
       <path id="DejaVuSans-58" d="M 403 4666 
L 1081 4666 
L 2241 2931 
L 3406 4666 
L 4084 4666 
L 2584 2425 
L 4184 0 
L 3506 0 
L 2194 1984 
L 872 0 
L 191 0 
L 1856 2491 
L 403 4666 
z
" transform="scale(0.015625)"/>
      </defs>
      <use xlink:href="#DejaVuSans-58"/>
     </g>
    </g>
    <g id="line2d_52">
     <path d="M 45.043678 49.584396 
L 56.043678 49.584396 
L 67.043678 49.584396 
" style="fill: none; stroke: #ffa600; stroke-width: 1.5; stroke-linecap: square"/>
    </g>
    <g id="text_19">
     <!-- TP -->
     <g transform="translate(75.843677 53.434396) scale(0.11 -0.11)">
      <defs>
       <path id="DejaVuSans-54" d="M -19 4666 
L 3928 4666 
L 3928 4134 
L 2272 4134 
L 2272 0 
L 1638 0 
L 1638 4134 
L -19 4134 
L -19 4666 
z
" transform="scale(0.015625)"/>
       <path id="DejaVuSans-50" d="M 1259 4147 
L 1259 2394 
L 2053 2394 
Q 2494 2394 2734 2622 
Q 2975 2850 2975 3272 
Q 2975 3691 2734 3919 
Q 2494 4147 2053 4147 
L 1259 4147 
z
M 628 4666 
L 2053 4666 
Q 2838 4666 3239 4311 
Q 3641 3956 3641 3272 
Q 3641 2581 3239 2228 
Q 2838 1875 2053 1875 
L 1259 1875 
L 1259 0 
L 628 0 
L 628 4666 
z
" transform="scale(0.015625)"/>
      </defs>
      <use xlink:href="#DejaVuSans-54"/>
      <use xlink:href="#DejaVuSans-50" x="61.083984"/>
     </g>
    </g>
    <g id="line2d_53">
     <path d="M 45.043678 65.730334 
L 56.043678 65.730334 
L 67.043678 65.730334 
" style="fill: none; stroke: #bc5090; stroke-width: 1.5; stroke-linecap: square"/>
    </g>
    <g id="text_20">
     <!-- FY -->
     <g transform="translate(75.843677 69.580334) scale(0.11 -0.11)">
      <defs>
       <path id="DejaVuSans-46" d="M 628 4666 
L 3309 4666 
L 3309 4134 
L 1259 4134 
L 1259 2759 
L 3109 2759 
L 3109 2228 
L 1259 2228 
L 1259 0 
L 628 0 
L 628 4666 
z
" transform="scale(0.015625)"/>
       <path id="DejaVuSans-59" d="M -13 4666 
L 666 4666 
L 1959 2747 
L 3244 4666 
L 3922 4666 
L 2272 2222 
L 2272 0 
L 1638 0 
L 1638 2222 
L -13 4666 
z
" transform="scale(0.015625)"/>
      </defs>
      <use xlink:href="#DejaVuSans-46"/>
      <use xlink:href="#DejaVuSans-59" x="57.519531"/>
     </g>
    </g>
   </g>
  </g>
 </g>
 <defs>
  <clipPath id="p1659f9ff4e">
   <rect x="35.143678" y="19.030178" width="216.736083" height="204.057707"/>
  </clipPath>
 </defs>
</svg>
