<?xml version="1.0" encoding="utf-8" standalone="no"?>
<!DOCTYPE svg PUBLIC "-//W3C//DTD SVG 1.1//EN"
  "http://www.w3.org/Graphics/SVG/1.1/DTD/svg11.dtd">
<svg xmlns:xlink="http://www.w3.org/1999/xlink" width="254.88pt" height="127.44pt" viewBox="0 0 254.88 127.44" xmlns="http://www.w3.org/2000/svg" version="1.1">
 <metadata>
  <rdf:RDF xmlns:dc="http://purl.org/dc/elements/1.1/" xmlns:cc="http://creativecommons.org/ns#" xmlns:rdf="http://www.w3.org/1999/02/22-rdf-syntax-ns#">
   <cc:Work>
    <dc:type rdf:resource="http://purl.org/dc/dcmitype/StillImage"/>
    <dc:date>2024-08-18T10:13:07.635325</dc:date>
    <dc:format>image/svg+xml</dc:format>
    <dc:creator>
     <cc:Agent>
      <dc:title>Matplotlib v3.8.4, https://matplotlib.org/</dc:title>
     </cc:Agent>
    </dc:creator>
   </cc:Work>
  </rdf:RDF>
 </metadata>
 <defs>
  <style type="text/css">*{stroke-linejoin: round; stroke-linecap: butt}</style>
 </defs>
 <g id="figure_1">
  <g id="patch_1">
   <path d="M 0 127.44 
L 254.88 127.44 
L 254.88 0 
L 0 0 
z
" style="fill: #ffffff"/>
  </g>
  <g id="axes_1">
   <g id="patch_2">
    <path d="M 38.639615 95.647885 
L 243.133041 95.647885 
L 243.133041 19.030178 
L 38.639615 19.030178 
z
" style="fill: #ffffff"/>
   </g>
   <g id="PolyCollection_1">
    <defs>
     <path id="mb9abc43f79" d="M 38.639615 -35.274738 
L 38.639615 -35.274738 
L 40.684549 -35.362862 
L 42.729484 -35.362862 
L 44.774418 -35.419262 
L 46.819352 -35.362862 
L 48.864286 -35.419262 
L 50.909221 -35.419262 
L 52.954155 -35.419262 
L 54.999089 -35.450987 
L 57.044023 -35.450987 
L 59.088958 -35.450987 
L 61.133892 -35.635827 
L 63.178826 -35.728263 
L 65.22376 -35.589952 
L 67.268695 -35.589952 
L 69.313629 -35.589298 
L 71.358563 -35.563786 
L 73.403497 -35.691634 
L 75.448432 -35.691634 
L 77.493366 -35.691634 
L 79.5383 -36.459913 
L 81.583235 -36.101344 
L 83.628169 -36.75574 
L 85.673103 -36.857906 
L 87.718037 -36.757969 
L 89.762972 -36.928807 
L 91.807906 -36.827587 
L 93.85284 -36.970348 
L 95.897774 -36.897336 
L 97.942709 -36.874004 
L 99.987643 -37.83179 
L 102.032577 -37.837456 
L 104.077511 -38.820467 
L 106.122446 -38.815938 
L 108.16738 -39.082108 
L 110.212314 -39.186405 
L 112.257248 -38.75738 
L 114.302183 -38.950347 
L 116.347117 -39.403105 
L 118.392051 -39.992775 
L 120.436985 -39.782166 
L 122.48192 -39.995664 
L 124.526854 -40.376726 
L 126.571788 -40.198873 
L 128.616723 -40.714098 
L 130.661657 -40.43714 
L 132.706591 -41.308285 
L 134.751525 -41.542159 
L 136.79646 -41.789171 
L 138.841394 -42.10142 
L 140.886328 -42.14903 
L 142.931262 -42.411432 
L 144.976197 -42.172684 
L 147.021131 -44.621052 
L 149.066065 -43.108343 
L 151.110999 -44.913882 
L 153.155934 -45.067042 
L 155.200868 -44.097761 
L 157.245802 -45.962663 
L 159.290736 -45.366557 
L 161.335671 -45.740997 
L 163.380605 -46.757774 
L 165.425539 -46.171721 
L 167.470474 -46.691017 
L 169.515408 -47.436978 
L 171.560342 -47.685051 
L 173.605276 -47.375096 
L 175.650211 -48.372494 
L 177.695145 -49.465189 
L 179.740079 -48.105667 
L 181.785013 -47.525322 
L 183.829948 -49.461578 
L 185.874882 -51.265165 
L 187.919816 -53.892013 
L 189.96475 -53.348128 
L 192.009685 -54.821983 
L 194.054619 -55.515824 
L 196.099553 -55.929613 
L 198.144487 -55.814473 
L 200.189422 -56.016986 
L 202.234356 -56.217466 
L 204.27929 -57.948835 
L 206.324225 -57.25968 
L 208.369159 -56.907111 
L 210.414093 -57.989643 
L 212.459027 -57.475331 
L 214.503962 -57.824024 
L 216.548896 -60.46389 
L 218.59383 -58.971356 
L 220.638764 -59.245227 
L 222.683699 -58.338966 
L 224.728633 -61.312528 
L 226.773567 -60.454929 
L 228.818501 -59.447979 
L 230.863436 -63.025424 
L 232.90837 -61.844632 
L 234.953304 -61.369008 
L 236.998238 -61.423973 
L 239.043173 -62.721902 
L 241.088107 -63.728237 
L 241.088107 -102.696076 
L 241.088107 -102.696076 
L 239.043173 -104.927199 
L 236.998238 -103.999921 
L 234.953304 -104.012838 
L 232.90837 -103.789771 
L 230.863436 -103.106863 
L 228.818501 -102.03285 
L 226.773567 -100.473109 
L 224.728633 -103.128399 
L 222.683699 -101.203047 
L 220.638764 -98.957855 
L 218.59383 -99.448295 
L 216.548896 -100.766201 
L 214.503962 -100.833707 
L 212.459027 -99.429557 
L 210.414093 -99.34518 
L 208.369159 -99.322109 
L 206.324225 -98.267767 
L 204.27929 -95.741276 
L 202.234356 -97.686687 
L 200.189422 -99.107939 
L 198.144487 -98.138853 
L 196.099553 -97.87846 
L 194.054619 -93.225246 
L 192.009685 -92.907889 
L 189.96475 -90.864148 
L 187.919816 -90.569733 
L 185.874882 -86.36367 
L 183.829948 -85.012022 
L 181.785013 -83.492397 
L 179.740079 -84.171127 
L 177.695145 -83.733594 
L 175.650211 -81.871095 
L 173.605276 -81.20536 
L 171.560342 -82.699982 
L 169.515408 -81.433841 
L 167.470474 -80.975369 
L 165.425539 -81.532512 
L 163.380605 -81.274953 
L 161.335671 -80.483406 
L 159.290736 -79.849324 
L 157.245802 -79.675285 
L 155.200868 -78.037743 
L 153.155934 -73.400144 
L 151.110999 -74.240791 
L 149.066065 -72.390937 
L 147.021131 -72.538065 
L 144.976197 -70.128472 
L 142.931262 -69.514638 
L 140.886328 -67.898711 
L 138.841394 -67.510524 
L 136.79646 -67.772544 
L 134.751525 -64.596136 
L 132.706591 -64.804863 
L 130.661657 -64.044551 
L 128.616723 -63.167421 
L 126.571788 -58.44925 
L 124.526854 -56.844757 
L 122.48192 -58.185605 
L 120.436985 -53.123148 
L 118.392051 -53.174172 
L 116.347117 -52.832093 
L 114.302183 -52.844822 
L 112.257248 -52.831104 
L 110.212314 -51.779209 
L 108.16738 -52.653664 
L 106.122446 -53.365325 
L 104.077511 -53.213626 
L 102.032577 -51.342163 
L 99.987643 -51.650412 
L 97.942709 -49.859062 
L 95.897774 -49.243504 
L 93.85284 -49.002515 
L 91.807906 -49.89301 
L 89.762972 -50.029539 
L 87.718037 -48.941245 
L 85.673103 -49.320852 
L 83.628169 -48.712817 
L 81.583235 -48.146483 
L 79.5383 -48.90574 
L 77.493366 -46.275218 
L 75.448432 -46.610819 
L 73.403497 -46.385041 
L 71.358563 -46.490116 
L 69.313629 -46.424999 
L 67.268695 -46.706396 
L 65.22376 -46.210894 
L 63.178826 -46.23178 
L 61.133892 -46.098095 
L 59.088958 -46.09758 
L 57.044023 -46.098593 
L 54.999089 -46.100179 
L 52.954155 -43.006766 
L 50.909221 -43.239414 
L 48.864286 -43.219652 
L 46.819352 -43.15248 
L 44.774418 -42.971428 
L 42.729484 -43.09489 
L 40.684549 -43.328442 
L 38.639615 -35.274738 
z
" style="stroke: #003f5c; stroke-opacity: 0.2"/>
    </defs>
    <g clip-path="url(#pfd588dbb83)">
     <use xlink:href="#mb9abc43f79" x="0" y="127.44" style="fill: #003f5c; fill-opacity: 0.2; stroke: #003f5c; stroke-opacity: 0.2"/>
    </g>
   </g>
   <g id="PolyCollection_2">
    <defs>
     <path id="m99cac19e93" d="M 38.639615 -35.274738 
L 38.639615 -35.274738 
L 40.684549 -35.302891 
L 42.729484 -35.302891 
L 44.774418 -35.302891 
L 46.819352 -35.302891 
L 48.864286 -35.302891 
L 50.909221 -35.302891 
L 52.954155 -35.302891 
L 54.999089 -35.641925 
L 57.044023 -35.568507 
L 59.088958 -35.619903 
L 61.133892 -35.938904 
L 63.178826 -35.933628 
L 65.22376 -35.882719 
L 67.268695 -35.893554 
L 69.313629 -35.935801 
L 71.358563 -36.045871 
L 73.403497 -36.296335 
L 75.448432 -36.320733 
L 77.493366 -36.266553 
L 79.5383 -36.367 
L 81.583235 -36.392906 
L 83.628169 -36.705664 
L 85.673103 -37.000222 
L 87.718037 -37.067852 
L 89.762972 -37.000822 
L 91.807906 -37.479455 
L 93.85284 -37.593075 
L 95.897774 -37.910389 
L 97.942709 -37.890248 
L 99.987643 -37.77497 
L 102.032577 -38.232541 
L 104.077511 -38.646867 
L 106.122446 -38.557414 
L 108.16738 -38.86019 
L 110.212314 -39.024098 
L 112.257248 -38.954216 
L 114.302183 -39.028649 
L 116.347117 -39.529396 
L 118.392051 -39.460811 
L 120.436985 -39.751835 
L 122.48192 -39.872751 
L 124.526854 -39.867196 
L 126.571788 -39.79932 
L 128.616723 -40.327318 
L 130.661657 -40.523485 
L 132.706591 -41.185013 
L 134.751525 -41.305838 
L 136.79646 -41.600766 
L 138.841394 -42.837426 
L 140.886328 -42.936089 
L 142.931262 -43.464923 
L 144.976197 -43.274973 
L 147.021131 -44.067462 
L 149.066065 -44.060313 
L 151.110999 -44.33832 
L 153.155934 -44.505792 
L 155.200868 -45.590173 
L 157.245802 -44.964039 
L 159.290736 -45.038763 
L 161.335671 -45.032275 
L 163.380605 -46.300588 
L 165.425539 -45.443298 
L 167.470474 -46.172455 
L 169.515408 -46.438979 
L 171.560342 -46.8268 
L 173.605276 -46.709259 
L 175.650211 -47.123452 
L 177.695145 -48.019719 
L 179.740079 -48.090589 
L 181.785013 -48.203511 
L 183.829948 -48.657266 
L 185.874882 -49.823632 
L 187.919816 -50.934774 
L 189.96475 -50.852284 
L 192.009685 -51.044464 
L 194.054619 -52.143932 
L 196.099553 -52.974806 
L 198.144487 -52.891765 
L 200.189422 -54.33571 
L 202.234356 -54.037302 
L 204.27929 -55.527993 
L 206.324225 -56.184008 
L 208.369159 -56.926508 
L 210.414093 -57.109841 
L 212.459027 -57.01813 
L 214.503962 -59.112513 
L 216.548896 -59.076696 
L 218.59383 -59.242913 
L 220.638764 -60.186807 
L 222.683699 -60.636534 
L 224.728633 -61.016362 
L 226.773567 -61.34384 
L 228.818501 -62.296731 
L 230.863436 -62.324682 
L 232.90837 -63.610859 
L 234.953304 -63.469786 
L 236.998238 -62.97846 
L 239.043173 -64.719876 
L 241.088107 -65.012141 
L 241.088107 -94.442079 
L 241.088107 -94.442079 
L 239.043173 -93.989174 
L 236.998238 -93.57034 
L 234.953304 -92.425946 
L 232.90837 -92.244125 
L 230.863436 -91.643991 
L 228.818501 -91.020767 
L 226.773567 -90.207601 
L 224.728633 -89.26524 
L 222.683699 -87.629192 
L 220.638764 -85.515353 
L 218.59383 -86.129591 
L 216.548896 -85.125529 
L 214.503962 -83.731112 
L 212.459027 -82.331005 
L 210.414093 -84.322808 
L 208.369159 -82.880274 
L 206.324225 -81.011793 
L 204.27929 -80.661245 
L 202.234356 -79.310536 
L 200.189422 -80.564993 
L 198.144487 -78.55853 
L 196.099553 -78.894516 
L 194.054619 -78.465167 
L 192.009685 -76.024982 
L 189.96475 -77.690294 
L 187.919816 -76.822775 
L 185.874882 -78.495505 
L 183.829948 -75.882527 
L 181.785013 -75.068538 
L 179.740079 -73.217018 
L 177.695145 -76.284041 
L 175.650211 -76.789809 
L 173.605276 -72.669875 
L 171.560342 -73.309173 
L 169.515408 -72.157008 
L 167.470474 -71.975897 
L 165.425539 -71.336765 
L 163.380605 -72.343622 
L 161.335671 -71.921297 
L 159.290736 -71.511713 
L 157.245802 -67.06917 
L 155.200868 -67.680136 
L 153.155934 -66.633234 
L 151.110999 -66.652657 
L 149.066065 -63.892302 
L 147.021131 -60.313775 
L 144.976197 -61.122944 
L 142.931262 -61.3638 
L 140.886328 -59.383001 
L 138.841394 -58.886071 
L 136.79646 -57.852372 
L 134.751525 -57.952564 
L 132.706591 -56.964087 
L 130.661657 -56.344002 
L 128.616723 -54.365474 
L 126.571788 -54.432314 
L 124.526854 -54.121705 
L 122.48192 -53.938669 
L 120.436985 -53.01916 
L 118.392051 -52.778872 
L 116.347117 -51.980724 
L 114.302183 -50.52582 
L 112.257248 -50.287956 
L 110.212314 -50.538829 
L 108.16738 -49.875428 
L 106.122446 -49.414954 
L 104.077511 -49.013103 
L 102.032577 -48.444942 
L 99.987643 -46.811286 
L 97.942709 -46.697501 
L 95.897774 -46.599026 
L 93.85284 -45.925272 
L 91.807906 -45.735754 
L 89.762972 -45.149315 
L 87.718037 -45.468089 
L 85.673103 -45.085597 
L 83.628169 -42.808373 
L 81.583235 -42.743407 
L 79.5383 -42.476612 
L 77.493366 -42.481093 
L 75.448432 -42.456639 
L 73.403497 -42.212225 
L 71.358563 -40.752666 
L 69.313629 -39.984894 
L 67.268695 -39.69378 
L 65.22376 -39.668464 
L 63.178826 -39.687336 
L 61.133892 -39.714059 
L 59.088958 -38.576541 
L 57.044023 -38.54284 
L 54.999089 -38.592967 
L 52.954155 -36.128483 
L 50.909221 -36.185153 
L 48.864286 -36.130593 
L 46.819352 -36.178131 
L 44.774418 -36.176021 
L 42.729484 -36.128483 
L 40.684549 -36.156636 
L 38.639615 -35.274738 
z
" style="stroke: #ffa600; stroke-opacity: 0.2"/>
    </defs>
    <g clip-path="url(#pfd588dbb83)">
     <use xlink:href="#m99cac19e93" x="0" y="127.44" style="fill: #ffa600; fill-opacity: 0.2; stroke: #ffa600; stroke-opacity: 0.2"/>
    </g>
   </g>
   <g id="PolyCollection_3">
    <defs>
     <path id="me7b8dc31fb" d="M 38.639615 -35.274738 
L 38.639615 -35.274738 
L 40.684549 -35.274738 
L 42.729484 -35.274738 
L 44.774418 -35.274738 
L 46.819352 -35.274738 
L 48.864286 -35.274738 
L 50.909221 -35.274738 
L 52.954155 -35.274738 
L 54.999089 -35.310398 
L 57.044023 -35.322094 
L 59.088958 -35.322179 
L 61.133892 -35.378478 
L 63.178826 -35.375209 
L 65.22376 -35.392033 
L 67.268695 -35.393463 
L 69.313629 -35.393499 
L 71.358563 -35.413593 
L 73.403497 -35.414588 
L 75.448432 -35.411792 
L 77.493366 -35.425919 
L 79.5383 -35.594192 
L 81.583235 -35.631286 
L 83.628169 -36.021502 
L 85.673103 -36.364993 
L 87.718037 -36.401518 
L 89.762972 -36.424546 
L 91.807906 -36.586354 
L 93.85284 -36.737203 
L 95.897774 -36.730316 
L 97.942709 -36.969328 
L 99.987643 -36.909541 
L 102.032577 -37.061809 
L 104.077511 -37.139159 
L 106.122446 -37.089972 
L 108.16738 -37.261425 
L 110.212314 -37.242003 
L 112.257248 -37.254218 
L 114.302183 -37.470342 
L 116.347117 -37.556757 
L 118.392051 -37.691748 
L 120.436985 -37.777515 
L 122.48192 -38.217119 
L 124.526854 -38.229422 
L 126.571788 -38.248147 
L 128.616723 -38.471386 
L 130.661657 -38.443583 
L 132.706591 -38.915835 
L 134.751525 -38.973638 
L 136.79646 -38.937284 
L 138.841394 -39.203789 
L 140.886328 -39.333948 
L 142.931262 -39.486208 
L 144.976197 -39.419429 
L 147.021131 -39.679474 
L 149.066065 -40.097458 
L 151.110999 -40.048272 
L 153.155934 -40.002109 
L 155.200868 -40.759313 
L 157.245802 -40.672006 
L 159.290736 -41.060071 
L 161.335671 -40.942487 
L 163.380605 -41.166041 
L 165.425539 -41.136816 
L 167.470474 -42.073264 
L 169.515408 -42.389154 
L 171.560342 -43.025661 
L 173.605276 -43.247426 
L 175.650211 -43.465677 
L 177.695145 -44.437039 
L 179.740079 -43.890983 
L 181.785013 -44.727762 
L 183.829948 -44.678212 
L 185.874882 -45.403496 
L 187.919816 -45.791627 
L 189.96475 -46.433066 
L 192.009685 -46.100041 
L 194.054619 -46.47366 
L 196.099553 -46.748169 
L 198.144487 -47.478796 
L 200.189422 -46.847447 
L 202.234356 -47.545033 
L 204.27929 -48.348498 
L 206.324225 -48.036358 
L 208.369159 -48.180917 
L 210.414093 -48.664761 
L 212.459027 -48.497972 
L 214.503962 -48.534055 
L 216.548896 -48.954696 
L 218.59383 -49.472273 
L 220.638764 -49.996541 
L 222.683699 -49.70239 
L 224.728633 -51.492273 
L 226.773567 -50.288669 
L 228.818501 -51.462836 
L 230.863436 -50.948794 
L 232.90837 -51.857774 
L 234.953304 -52.10766 
L 236.998238 -52.203896 
L 239.043173 -53.000689 
L 241.088107 -53.629848 
L 241.088107 -76.913307 
L 241.088107 -76.913307 
L 239.043173 -76.456702 
L 236.998238 -76.380609 
L 234.953304 -73.950195 
L 232.90837 -75.299015 
L 230.863436 -74.87099 
L 228.818501 -75.42079 
L 226.773567 -74.132046 
L 224.728633 -73.918993 
L 222.683699 -73.07456 
L 220.638764 -73.326397 
L 218.59383 -72.31511 
L 216.548896 -72.422395 
L 214.503962 -71.613099 
L 212.459027 -70.748504 
L 210.414093 -70.350291 
L 208.369159 -70.018405 
L 206.324225 -70.920101 
L 204.27929 -70.194577 
L 202.234356 -70.252752 
L 200.189422 -70.544558 
L 198.144487 -70.177442 
L 196.099553 -69.175016 
L 194.054619 -66.629961 
L 192.009685 -68.019823 
L 189.96475 -67.465522 
L 187.919816 -66.138849 
L 185.874882 -63.437775 
L 183.829948 -62.102045 
L 181.785013 -62.085113 
L 179.740079 -59.946206 
L 177.695145 -60.574207 
L 175.650211 -56.551168 
L 173.605276 -56.839695 
L 171.560342 -56.736292 
L 169.515408 -54.454552 
L 167.470474 -54.060012 
L 165.425539 -52.763724 
L 163.380605 -53.194468 
L 161.335671 -52.654381 
L 159.290736 -51.984716 
L 157.245802 -51.9746 
L 155.200868 -51.126367 
L 153.155934 -50.723062 
L 151.110999 -51.029427 
L 149.066065 -51.458372 
L 147.021131 -50.374897 
L 144.976197 -50.266719 
L 142.931262 -50.048005 
L 140.886328 -49.692839 
L 138.841394 -49.613629 
L 136.79646 -49.057693 
L 134.751525 -48.38698 
L 132.706591 -49.010662 
L 130.661657 -48.164975 
L 128.616723 -47.545871 
L 126.571788 -47.225409 
L 124.526854 -46.668815 
L 122.48192 -46.203442 
L 120.436985 -45.13672 
L 118.392051 -44.724529 
L 116.347117 -44.710367 
L 114.302183 -44.994127 
L 112.257248 -44.264094 
L 110.212314 -43.541331 
L 108.16738 -44.028069 
L 106.122446 -43.478378 
L 104.077511 -43.316116 
L 102.032577 -43.161664 
L 99.987643 -42.528516 
L 97.942709 -43.022304 
L 95.897774 -42.477817 
L 93.85284 -42.358575 
L 91.807906 -41.607641 
L 89.762972 -41.149415 
L 87.718037 -41.184903 
L 85.673103 -40.796476 
L 83.628169 -39.481466 
L 81.583235 -37.203912 
L 79.5383 -36.90052 
L 77.493366 -36.400766 
L 75.448432 -36.364805 
L 73.403497 -36.360311 
L 71.358563 -36.094157 
L 69.313629 -36.009238 
L 67.268695 -36.000734 
L 65.22376 -36.031084 
L 63.178826 -36.068335 
L 61.133892 -36.008322 
L 59.088958 -35.65802 
L 57.044023 -35.678883 
L 54.999089 -35.673133 
L 52.954155 -35.417061 
L 50.909221 -35.417061 
L 48.864286 -35.417061 
L 46.819352 -35.417061 
L 44.774418 -35.417061 
L 42.729484 -35.417061 
L 40.684549 -35.417061 
L 38.639615 -35.274738 
z
" style="stroke: #bc5090; stroke-opacity: 0.2"/>
    </defs>
    <g clip-path="url(#pfd588dbb83)">
     <use xlink:href="#me7b8dc31fb" x="0" y="127.44" style="fill: #bc5090; fill-opacity: 0.2; stroke: #bc5090; stroke-opacity: 0.2"/>
    </g>
   </g>
   <g id="matplotlib.axis_1">
    <g id="xtick_1">
     <g id="line2d_1">
      <defs>
       <path id="me0b4a2c82e" d="M 0 0 
L 0 -3.5 
" style="stroke: #000000; stroke-width: 0.8"/>
      </defs>
      <g>
       <use xlink:href="#me0b4a2c82e" x="38.639615" y="95.647885" style="stroke: #000000; stroke-width: 0.8"/>
      </g>
     </g>
     <g id="text_1">
      <!-- 0.0 -->
      <g transform="translate(29.892896 107.506166) scale(0.11 -0.11)">
       <defs>
        <path id="DejaVuSans-30" d="M 2034 4250 
Q 1547 4250 1301 3770 
Q 1056 3291 1056 2328 
Q 1056 1369 1301 889 
Q 1547 409 2034 409 
Q 2525 409 2770 889 
Q 3016 1369 3016 2328 
Q 3016 3291 2770 3770 
Q 2525 4250 2034 4250 
z
M 2034 4750 
Q 2819 4750 3233 4129 
Q 3647 3509 3647 2328 
Q 3647 1150 3233 529 
Q 2819 -91 2034 -91 
Q 1250 -91 836 529 
Q 422 1150 422 2328 
Q 422 3509 836 4129 
Q 1250 4750 2034 4750 
z
" transform="scale(0.015625)"/>
        <path id="DejaVuSans-2e" d="M 684 794 
L 1344 794 
L 1344 0 
L 684 0 
L 684 794 
z
" transform="scale(0.015625)"/>
       </defs>
       <use xlink:href="#DejaVuSans-30"/>
       <use xlink:href="#DejaVuSans-2e" x="63.623047"/>
       <use xlink:href="#DejaVuSans-30" x="95.410156"/>
      </g>
     </g>
    </g>
    <g id="xtick_2">
     <g id="line2d_2">
      <g>
       <use xlink:href="#me0b4a2c82e" x="79.5383" y="95.647885" style="stroke: #000000; stroke-width: 0.8"/>
      </g>
     </g>
     <g id="text_2">
      <!-- 0.2 -->
      <g transform="translate(70.791581 107.506166) scale(0.11 -0.11)">
       <defs>
        <path id="DejaVuSans-32" d="M 1228 531 
L 3431 531 
L 3431 0 
L 469 0 
L 469 531 
Q 828 903 1448 1529 
Q 2069 2156 2228 2338 
Q 2531 2678 2651 2914 
Q 2772 3150 2772 3378 
Q 2772 3750 2511 3984 
Q 2250 4219 1831 4219 
Q 1534 4219 1204 4116 
Q 875 4013 500 3803 
L 500 4441 
Q 881 4594 1212 4672 
Q 1544 4750 1819 4750 
Q 2544 4750 2975 4387 
Q 3406 4025 3406 3419 
Q 3406 3131 3298 2873 
Q 3191 2616 2906 2266 
Q 2828 2175 2409 1742 
Q 1991 1309 1228 531 
z
" transform="scale(0.015625)"/>
       </defs>
       <use xlink:href="#DejaVuSans-30"/>
       <use xlink:href="#DejaVuSans-2e" x="63.623047"/>
       <use xlink:href="#DejaVuSans-32" x="95.410156"/>
      </g>
     </g>
    </g>
    <g id="xtick_3">
     <g id="line2d_3">
      <g>
       <use xlink:href="#me0b4a2c82e" x="120.436985" y="95.647885" style="stroke: #000000; stroke-width: 0.8"/>
      </g>
     </g>
     <g id="text_3">
      <!-- 0.4 -->
      <g transform="translate(111.690267 107.506166) scale(0.11 -0.11)">
       <defs>
        <path id="DejaVuSans-34" d="M 2419 4116 
L 825 1625 
L 2419 1625 
L 2419 4116 
z
M 2253 4666 
L 3047 4666 
L 3047 1625 
L 3713 1625 
L 3713 1100 
L 3047 1100 
L 3047 0 
L 2419 0 
L 2419 1100 
L 313 1100 
L 313 1709 
L 2253 4666 
z
" transform="scale(0.015625)"/>
       </defs>
       <use xlink:href="#DejaVuSans-30"/>
       <use xlink:href="#DejaVuSans-2e" x="63.623047"/>
       <use xlink:href="#DejaVuSans-34" x="95.410156"/>
      </g>
     </g>
    </g>
    <g id="xtick_4">
     <g id="line2d_4">
      <g>
       <use xlink:href="#me0b4a2c82e" x="161.335671" y="95.647885" style="stroke: #000000; stroke-width: 0.8"/>
      </g>
     </g>
     <g id="text_4">
      <!-- 0.6 -->
      <g transform="translate(152.588952 107.506166) scale(0.11 -0.11)">
       <defs>
        <path id="DejaVuSans-36" d="M 2113 2584 
Q 1688 2584 1439 2293 
Q 1191 2003 1191 1497 
Q 1191 994 1439 701 
Q 1688 409 2113 409 
Q 2538 409 2786 701 
Q 3034 994 3034 1497 
Q 3034 2003 2786 2293 
Q 2538 2584 2113 2584 
z
M 3366 4563 
L 3366 3988 
Q 3128 4100 2886 4159 
Q 2644 4219 2406 4219 
Q 1781 4219 1451 3797 
Q 1122 3375 1075 2522 
Q 1259 2794 1537 2939 
Q 1816 3084 2150 3084 
Q 2853 3084 3261 2657 
Q 3669 2231 3669 1497 
Q 3669 778 3244 343 
Q 2819 -91 2113 -91 
Q 1303 -91 875 529 
Q 447 1150 447 2328 
Q 447 3434 972 4092 
Q 1497 4750 2381 4750 
Q 2619 4750 2861 4703 
Q 3103 4656 3366 4563 
z
" transform="scale(0.015625)"/>
       </defs>
       <use xlink:href="#DejaVuSans-30"/>
       <use xlink:href="#DejaVuSans-2e" x="63.623047"/>
       <use xlink:href="#DejaVuSans-36" x="95.410156"/>
      </g>
     </g>
    </g>
    <g id="xtick_5">
     <g id="line2d_5">
      <g>
       <use xlink:href="#me0b4a2c82e" x="202.234356" y="95.647885" style="stroke: #000000; stroke-width: 0.8"/>
      </g>
     </g>
     <g id="text_5">
      <!-- 0.8 -->
      <g transform="translate(193.487637 107.506166) scale(0.11 -0.11)">
       <defs>
        <path id="DejaVuSans-38" d="M 2034 2216 
Q 1584 2216 1326 1975 
Q 1069 1734 1069 1313 
Q 1069 891 1326 650 
Q 1584 409 2034 409 
Q 2484 409 2743 651 
Q 3003 894 3003 1313 
Q 3003 1734 2745 1975 
Q 2488 2216 2034 2216 
z
M 1403 2484 
Q 997 2584 770 2862 
Q 544 3141 544 3541 
Q 544 4100 942 4425 
Q 1341 4750 2034 4750 
Q 2731 4750 3128 4425 
Q 3525 4100 3525 3541 
Q 3525 3141 3298 2862 
Q 3072 2584 2669 2484 
Q 3125 2378 3379 2068 
Q 3634 1759 3634 1313 
Q 3634 634 3220 271 
Q 2806 -91 2034 -91 
Q 1263 -91 848 271 
Q 434 634 434 1313 
Q 434 1759 690 2068 
Q 947 2378 1403 2484 
z
M 1172 3481 
Q 1172 3119 1398 2916 
Q 1625 2713 2034 2713 
Q 2441 2713 2670 2916 
Q 2900 3119 2900 3481 
Q 2900 3844 2670 4047 
Q 2441 4250 2034 4250 
Q 1625 4250 1398 4047 
Q 1172 3844 1172 3481 
z
" transform="scale(0.015625)"/>
       </defs>
       <use xlink:href="#DejaVuSans-30"/>
       <use xlink:href="#DejaVuSans-2e" x="63.623047"/>
       <use xlink:href="#DejaVuSans-38" x="95.410156"/>
      </g>
     </g>
    </g>
    <g id="xtick_6">
     <g id="line2d_6">
      <g>
       <use xlink:href="#me0b4a2c82e" x="243.133041" y="95.647885" style="stroke: #000000; stroke-width: 0.8"/>
      </g>
     </g>
     <g id="text_6">
      <!-- 1.0 -->
      <g transform="translate(234.386322 107.506166) scale(0.11 -0.11)">
       <defs>
        <path id="DejaVuSans-31" d="M 794 531 
L 1825 531 
L 1825 4091 
L 703 3866 
L 703 4441 
L 1819 4666 
L 2450 4666 
L 2450 531 
L 3481 531 
L 3481 0 
L 794 0 
L 794 531 
z
" transform="scale(0.015625)"/>
       </defs>
       <use xlink:href="#DejaVuSans-31"/>
       <use xlink:href="#DejaVuSans-2e" x="63.623047"/>
       <use xlink:href="#DejaVuSans-30" x="95.410156"/>
      </g>
     </g>
    </g>
    <g id="text_7">
     <!-- Distance [µm] -->
     <g transform="translate(101.941172 122.152104) scale(0.11 -0.11)">
      <defs>
       <path id="DejaVuSans-44" d="M 1259 4147 
L 1259 519 
L 2022 519 
Q 2988 519 3436 956 
Q 3884 1394 3884 2338 
Q 3884 3275 3436 3711 
Q 2988 4147 2022 4147 
L 1259 4147 
z
M 628 4666 
L 1925 4666 
Q 3281 4666 3915 4102 
Q 4550 3538 4550 2338 
Q 4550 1131 3912 565 
Q 3275 0 1925 0 
L 628 0 
L 628 4666 
z
" transform="scale(0.015625)"/>
       <path id="DejaVuSans-69" d="M 603 3500 
L 1178 3500 
L 1178 0 
L 603 0 
L 603 3500 
z
M 603 4863 
L 1178 4863 
L 1178 4134 
L 603 4134 
L 603 4863 
z
" transform="scale(0.015625)"/>
       <path id="DejaVuSans-73" d="M 2834 3397 
L 2834 2853 
Q 2591 2978 2328 3040 
Q 2066 3103 1784 3103 
Q 1356 3103 1142 2972 
Q 928 2841 928 2578 
Q 928 2378 1081 2264 
Q 1234 2150 1697 2047 
L 1894 2003 
Q 2506 1872 2764 1633 
Q 3022 1394 3022 966 
Q 3022 478 2636 193 
Q 2250 -91 1575 -91 
Q 1294 -91 989 -36 
Q 684 19 347 128 
L 347 722 
Q 666 556 975 473 
Q 1284 391 1588 391 
Q 1994 391 2212 530 
Q 2431 669 2431 922 
Q 2431 1156 2273 1281 
Q 2116 1406 1581 1522 
L 1381 1569 
Q 847 1681 609 1914 
Q 372 2147 372 2553 
Q 372 3047 722 3315 
Q 1072 3584 1716 3584 
Q 2034 3584 2315 3537 
Q 2597 3491 2834 3397 
z
" transform="scale(0.015625)"/>
       <path id="DejaVuSans-74" d="M 1172 4494 
L 1172 3500 
L 2356 3500 
L 2356 3053 
L 1172 3053 
L 1172 1153 
Q 1172 725 1289 603 
Q 1406 481 1766 481 
L 2356 481 
L 2356 0 
L 1766 0 
Q 1100 0 847 248 
Q 594 497 594 1153 
L 594 3053 
L 172 3053 
L 172 3500 
L 594 3500 
L 594 4494 
L 1172 4494 
z
" transform="scale(0.015625)"/>
       <path id="DejaVuSans-61" d="M 2194 1759 
Q 1497 1759 1228 1600 
Q 959 1441 959 1056 
Q 959 750 1161 570 
Q 1363 391 1709 391 
Q 2188 391 2477 730 
Q 2766 1069 2766 1631 
L 2766 1759 
L 2194 1759 
z
M 3341 1997 
L 3341 0 
L 2766 0 
L 2766 531 
Q 2569 213 2275 61 
Q 1981 -91 1556 -91 
Q 1019 -91 701 211 
Q 384 513 384 1019 
Q 384 1609 779 1909 
Q 1175 2209 1959 2209 
L 2766 2209 
L 2766 2266 
Q 2766 2663 2505 2880 
Q 2244 3097 1772 3097 
Q 1472 3097 1187 3025 
Q 903 2953 641 2809 
L 641 3341 
Q 956 3463 1253 3523 
Q 1550 3584 1831 3584 
Q 2591 3584 2966 3190 
Q 3341 2797 3341 1997 
z
" transform="scale(0.015625)"/>
       <path id="DejaVuSans-6e" d="M 3513 2113 
L 3513 0 
L 2938 0 
L 2938 2094 
Q 2938 2591 2744 2837 
Q 2550 3084 2163 3084 
Q 1697 3084 1428 2787 
Q 1159 2491 1159 1978 
L 1159 0 
L 581 0 
L 581 3500 
L 1159 3500 
L 1159 2956 
Q 1366 3272 1645 3428 
Q 1925 3584 2291 3584 
Q 2894 3584 3203 3211 
Q 3513 2838 3513 2113 
z
" transform="scale(0.015625)"/>
       <path id="DejaVuSans-63" d="M 3122 3366 
L 3122 2828 
Q 2878 2963 2633 3030 
Q 2388 3097 2138 3097 
Q 1578 3097 1268 2742 
Q 959 2388 959 1747 
Q 959 1106 1268 751 
Q 1578 397 2138 397 
Q 2388 397 2633 464 
Q 2878 531 3122 666 
L 3122 134 
Q 2881 22 2623 -34 
Q 2366 -91 2075 -91 
Q 1284 -91 818 406 
Q 353 903 353 1747 
Q 353 2603 823 3093 
Q 1294 3584 2113 3584 
Q 2378 3584 2631 3529 
Q 2884 3475 3122 3366 
z
" transform="scale(0.015625)"/>
       <path id="DejaVuSans-65" d="M 3597 1894 
L 3597 1613 
L 953 1613 
Q 991 1019 1311 708 
Q 1631 397 2203 397 
Q 2534 397 2845 478 
Q 3156 559 3463 722 
L 3463 178 
Q 3153 47 2828 -22 
Q 2503 -91 2169 -91 
Q 1331 -91 842 396 
Q 353 884 353 1716 
Q 353 2575 817 3079 
Q 1281 3584 2069 3584 
Q 2775 3584 3186 3129 
Q 3597 2675 3597 1894 
z
M 3022 2063 
Q 3016 2534 2758 2815 
Q 2500 3097 2075 3097 
Q 1594 3097 1305 2825 
Q 1016 2553 972 2059 
L 3022 2063 
z
" transform="scale(0.015625)"/>
       <path id="DejaVuSans-20" transform="scale(0.015625)"/>
       <path id="DejaVuSans-5b" d="M 550 4863 
L 1875 4863 
L 1875 4416 
L 1125 4416 
L 1125 -397 
L 1875 -397 
L 1875 -844 
L 550 -844 
L 550 4863 
z
" transform="scale(0.015625)"/>
       <path id="DejaVuSans-b5" d="M 544 -1331 
L 544 3500 
L 1119 3500 
L 1119 1325 
Q 1119 872 1334 640 
Q 1550 409 1972 409 
Q 2434 409 2667 671 
Q 2900 934 2900 1459 
L 2900 3500 
L 3475 3500 
L 3475 806 
Q 3475 619 3529 530 
Q 3584 441 3700 441 
Q 3728 441 3778 458 
Q 3828 475 3916 513 
L 3916 50 
Q 3788 -22 3673 -56 
Q 3559 -91 3450 -91 
Q 3234 -91 3106 31 
Q 2978 153 2931 403 
Q 2775 156 2548 32 
Q 2322 -91 2016 -91 
Q 1697 -91 1473 31 
Q 1250 153 1119 397 
L 1119 -1331 
L 544 -1331 
z
" transform="scale(0.015625)"/>
       <path id="DejaVuSans-6d" d="M 3328 2828 
Q 3544 3216 3844 3400 
Q 4144 3584 4550 3584 
Q 5097 3584 5394 3201 
Q 5691 2819 5691 2113 
L 5691 0 
L 5113 0 
L 5113 2094 
Q 5113 2597 4934 2840 
Q 4756 3084 4391 3084 
Q 3944 3084 3684 2787 
Q 3425 2491 3425 1978 
L 3425 0 
L 2847 0 
L 2847 2094 
Q 2847 2600 2669 2842 
Q 2491 3084 2119 3084 
Q 1678 3084 1418 2786 
Q 1159 2488 1159 1978 
L 1159 0 
L 581 0 
L 581 3500 
L 1159 3500 
L 1159 2956 
Q 1356 3278 1631 3431 
Q 1906 3584 2284 3584 
Q 2666 3584 2933 3390 
Q 3200 3197 3328 2828 
z
" transform="scale(0.015625)"/>
       <path id="DejaVuSans-5d" d="M 1947 4863 
L 1947 -844 
L 622 -844 
L 622 -397 
L 1369 -397 
L 1369 4416 
L 622 4416 
L 622 4863 
L 1947 4863 
z
" transform="scale(0.015625)"/>
      </defs>
      <use xlink:href="#DejaVuSans-44"/>
      <use xlink:href="#DejaVuSans-69" x="77.001953"/>
      <use xlink:href="#DejaVuSans-73" x="104.785156"/>
      <use xlink:href="#DejaVuSans-74" x="156.884766"/>
      <use xlink:href="#DejaVuSans-61" x="196.09375"/>
      <use xlink:href="#DejaVuSans-6e" x="257.373047"/>
      <use xlink:href="#DejaVuSans-63" x="320.751953"/>
      <use xlink:href="#DejaVuSans-65" x="375.732422"/>
      <use xlink:href="#DejaVuSans-20" x="437.255859"/>
      <use xlink:href="#DejaVuSans-5b" x="469.042969"/>
      <use xlink:href="#DejaVuSans-b5" x="508.056641"/>
      <use xlink:href="#DejaVuSans-6d" x="571.679688"/>
      <use xlink:href="#DejaVuSans-5d" x="669.091797"/>
     </g>
    </g>
   </g>
   <g id="matplotlib.axis_2">
    <g id="ytick_1">
     <g id="line2d_7">
      <defs>
       <path id="m2698590d77" d="M 0 0 
L 3.5 0 
" style="stroke: #000000; stroke-width: 0.8"/>
      </defs>
      <g>
       <use xlink:href="#m2698590d77" x="38.639615" y="92.165262" style="stroke: #000000; stroke-width: 0.8"/>
      </g>
     </g>
     <g id="text_8">
      <!-- 0.0 -->
      <g transform="translate(17.646178 96.344403) scale(0.11 -0.11)">
       <use xlink:href="#DejaVuSans-30"/>
       <use xlink:href="#DejaVuSans-2e" x="63.623047"/>
       <use xlink:href="#DejaVuSans-30" x="95.410156"/>
      </g>
     </g>
    </g>
    <g id="ytick_2">
     <g id="line2d_8">
      <g>
       <use xlink:href="#m2698590d77" x="38.639615" y="56.03429" style="stroke: #000000; stroke-width: 0.8"/>
      </g>
     </g>
     <g id="text_9">
      <!-- 0.2 -->
      <g transform="translate(17.646178 60.21343) scale(0.11 -0.11)">
       <use xlink:href="#DejaVuSans-30"/>
       <use xlink:href="#DejaVuSans-2e" x="63.623047"/>
       <use xlink:href="#DejaVuSans-32" x="95.410156"/>
      </g>
     </g>
    </g>
    <g id="ytick_3">
     <g id="line2d_9">
      <g>
       <use xlink:href="#m2698590d77" x="38.639615" y="19.903318" style="stroke: #000000; stroke-width: 0.8"/>
      </g>
     </g>
     <g id="text_10">
      <!-- 0.4 -->
      <g transform="translate(17.646178 24.082458) scale(0.11 -0.11)">
       <use xlink:href="#DejaVuSans-30"/>
       <use xlink:href="#DejaVuSans-2e" x="63.623047"/>
       <use xlink:href="#DejaVuSans-34" x="95.410156"/>
      </g>
     </g>
    </g>
    <g id="ytick_4">
     <g id="line2d_10">
      <defs>
       <path id="m074d9affcd" d="M 0 0 
L 2 0 
" style="stroke: #000000; stroke-width: 0.6"/>
      </defs>
      <g>
       <use xlink:href="#m074d9affcd" x="38.639615" y="83.132519" style="stroke: #000000; stroke-width: 0.6"/>
      </g>
     </g>
    </g>
    <g id="ytick_5">
     <g id="line2d_11">
      <g>
       <use xlink:href="#m074d9affcd" x="38.639615" y="74.099776" style="stroke: #000000; stroke-width: 0.6"/>
      </g>
     </g>
    </g>
    <g id="ytick_6">
     <g id="line2d_12">
      <g>
       <use xlink:href="#m074d9affcd" x="38.639615" y="65.067033" style="stroke: #000000; stroke-width: 0.6"/>
      </g>
     </g>
    </g>
    <g id="ytick_7">
     <g id="line2d_13">
      <g>
       <use xlink:href="#m074d9affcd" x="38.639615" y="47.001547" style="stroke: #000000; stroke-width: 0.6"/>
      </g>
     </g>
    </g>
    <g id="ytick_8">
     <g id="line2d_14">
      <g>
       <use xlink:href="#m074d9affcd" x="38.639615" y="37.968804" style="stroke: #000000; stroke-width: 0.6"/>
      </g>
     </g>
    </g>
    <g id="ytick_9">
     <g id="line2d_15">
      <g>
       <use xlink:href="#m074d9affcd" x="38.639615" y="28.936061" style="stroke: #000000; stroke-width: 0.6"/>
      </g>
     </g>
    </g>
    <g id="text_11">
     <!-- Cumulative density -->
     <g transform="translate(11.358521 110.644344) rotate(-90) scale(0.11 -0.11)">
      <defs>
       <path id="DejaVuSans-43" d="M 4122 4306 
L 4122 3641 
Q 3803 3938 3442 4084 
Q 3081 4231 2675 4231 
Q 1875 4231 1450 3742 
Q 1025 3253 1025 2328 
Q 1025 1406 1450 917 
Q 1875 428 2675 428 
Q 3081 428 3442 575 
Q 3803 722 4122 1019 
L 4122 359 
Q 3791 134 3420 21 
Q 3050 -91 2638 -91 
Q 1578 -91 968 557 
Q 359 1206 359 2328 
Q 359 3453 968 4101 
Q 1578 4750 2638 4750 
Q 3056 4750 3426 4639 
Q 3797 4528 4122 4306 
z
" transform="scale(0.015625)"/>
       <path id="DejaVuSans-75" d="M 544 1381 
L 544 3500 
L 1119 3500 
L 1119 1403 
Q 1119 906 1312 657 
Q 1506 409 1894 409 
Q 2359 409 2629 706 
Q 2900 1003 2900 1516 
L 2900 3500 
L 3475 3500 
L 3475 0 
L 2900 0 
L 2900 538 
Q 2691 219 2414 64 
Q 2138 -91 1772 -91 
Q 1169 -91 856 284 
Q 544 659 544 1381 
z
M 1991 3584 
L 1991 3584 
z
" transform="scale(0.015625)"/>
       <path id="DejaVuSans-6c" d="M 603 4863 
L 1178 4863 
L 1178 0 
L 603 0 
L 603 4863 
z
" transform="scale(0.015625)"/>
       <path id="DejaVuSans-76" d="M 191 3500 
L 800 3500 
L 1894 563 
L 2988 3500 
L 3597 3500 
L 2284 0 
L 1503 0 
L 191 3500 
z
" transform="scale(0.015625)"/>
       <path id="DejaVuSans-64" d="M 2906 2969 
L 2906 4863 
L 3481 4863 
L 3481 0 
L 2906 0 
L 2906 525 
Q 2725 213 2448 61 
Q 2172 -91 1784 -91 
Q 1150 -91 751 415 
Q 353 922 353 1747 
Q 353 2572 751 3078 
Q 1150 3584 1784 3584 
Q 2172 3584 2448 3432 
Q 2725 3281 2906 2969 
z
M 947 1747 
Q 947 1113 1208 752 
Q 1469 391 1925 391 
Q 2381 391 2643 752 
Q 2906 1113 2906 1747 
Q 2906 2381 2643 2742 
Q 2381 3103 1925 3103 
Q 1469 3103 1208 2742 
Q 947 2381 947 1747 
z
" transform="scale(0.015625)"/>
       <path id="DejaVuSans-79" d="M 2059 -325 
Q 1816 -950 1584 -1140 
Q 1353 -1331 966 -1331 
L 506 -1331 
L 506 -850 
L 844 -850 
Q 1081 -850 1212 -737 
Q 1344 -625 1503 -206 
L 1606 56 
L 191 3500 
L 800 3500 
L 1894 763 
L 2988 3500 
L 3597 3500 
L 2059 -325 
z
" transform="scale(0.015625)"/>
      </defs>
      <use xlink:href="#DejaVuSans-43"/>
      <use xlink:href="#DejaVuSans-75" x="69.824219"/>
      <use xlink:href="#DejaVuSans-6d" x="133.203125"/>
      <use xlink:href="#DejaVuSans-75" x="230.615234"/>
      <use xlink:href="#DejaVuSans-6c" x="293.994141"/>
      <use xlink:href="#DejaVuSans-61" x="321.777344"/>
      <use xlink:href="#DejaVuSans-74" x="383.056641"/>
      <use xlink:href="#DejaVuSans-69" x="422.265625"/>
      <use xlink:href="#DejaVuSans-76" x="450.048828"/>
      <use xlink:href="#DejaVuSans-65" x="509.228516"/>
      <use xlink:href="#DejaVuSans-20" x="570.751953"/>
      <use xlink:href="#DejaVuSans-64" x="602.539062"/>
      <use xlink:href="#DejaVuSans-65" x="666.015625"/>
      <use xlink:href="#DejaVuSans-6e" x="727.539062"/>
      <use xlink:href="#DejaVuSans-73" x="790.917969"/>
      <use xlink:href="#DejaVuSans-69" x="843.017578"/>
      <use xlink:href="#DejaVuSans-74" x="870.800781"/>
      <use xlink:href="#DejaVuSans-79" x="910.009766"/>
     </g>
    </g>
   </g>
   <g id="line2d_16">
    <path d="M 38.639615 92.165262 
L 40.684549 89.343227 
L 42.729484 89.343227 
L 44.774418 89.343227 
L 46.819352 89.343227 
L 48.864286 89.343227 
L 50.909221 89.343227 
L 52.954155 89.343227 
L 54.999089 88.127014 
L 57.044023 88.127014 
L 59.088958 88.127014 
L 61.133892 87.988049 
L 63.178826 87.988049 
L 65.22376 87.988049 
L 67.268695 87.988049 
L 69.313629 87.988049 
L 71.358563 87.849083 
L 73.403497 87.710118 
L 75.448432 87.710118 
L 77.493366 87.710118 
L 79.5383 86.399874 
L 81.583235 86.399874 
L 83.628169 86.00283 
L 85.673103 85.673205 
L 87.718037 85.673205 
L 89.762972 85.673205 
L 91.807906 85.593797 
L 93.85284 85.593797 
L 95.897774 85.593797 
L 97.942709 85.593797 
L 99.987643 83.787248 
L 102.032577 83.635577 
L 104.077511 82.608734 
L 106.122446 82.608734 
L 108.16738 82.608734 
L 110.212314 82.608734 
L 112.257248 82.608734 
L 114.302183 82.449917 
L 116.347117 82.144552 
L 118.392051 81.58627 
L 120.436985 81.58627 
L 122.48192 79.779721 
L 124.526854 79.779721 
L 126.571788 78.876447 
L 128.616723 76.997637 
L 130.661657 76.997637 
L 132.706591 76.13399 
L 134.751525 75.995025 
L 136.79646 75.020204 
L 138.841394 73.314019 
L 140.886328 73.314019 
L 142.931262 72.85059 
L 144.976197 72.85059 
L 147.021131 70.811198 
L 149.066065 70.666674 
L 151.110999 69.394776 
L 153.155934 69.394776 
L 155.200868 67.508819 
L 157.245802 67.130429 
L 159.290736 66.877512 
L 161.335671 66.074602 
L 163.380605 65.353413 
L 165.425539 65.353413 
L 167.470474 65.209605 
L 169.515408 64.884426 
L 171.560342 64.379308 
L 173.605276 64.325381 
L 175.650211 63.990478 
L 177.695145 63.648043 
L 179.740079 63.400247 
L 181.785013 63.0765 
L 183.829948 63.0765 
L 185.874882 60.185391 
L 187.919816 57.059222 
L 189.96475 57.005295 
L 192.009685 56.482205 
L 194.054619 55.475289 
L 196.099553 52.269281 
L 198.144487 52.215354 
L 200.189422 51.680131 
L 202.234356 51.575404 
L 204.27929 51.304691 
L 206.324225 50.999818 
L 208.369159 50.945891 
L 210.414093 50.322038 
L 212.459027 49.901672 
L 214.503962 49.265728 
L 216.548896 49.043226 
L 218.59383 48.827871 
L 220.638764 48.594545 
L 222.683699 48.540618 
L 224.728633 47.863155 
L 226.773567 47.549703 
L 228.818501 47.478157 
L 230.863436 46.938878 
L 232.90837 46.796827 
L 234.953304 46.460126 
L 236.998238 45.743168 
L 239.043173 45.33983 
L 241.088107 45.142094 
" clip-path="url(#pfd588dbb83)" style="fill: none; stroke: #003f5c; stroke-width: 1.5; stroke-linecap: square"/>
   </g>
   <g id="line2d_17">
    <path d="M 38.639615 92.165262 
L 40.684549 91.817483 
L 42.729484 91.817483 
L 44.774418 91.817483 
L 46.819352 91.817483 
L 48.864286 91.817483 
L 50.909221 91.817483 
L 52.954155 91.817483 
L 54.999089 90.558573 
L 57.044023 90.558573 
L 59.088958 90.558573 
L 61.133892 89.885832 
L 63.178826 89.885832 
L 65.22376 89.885832 
L 67.268695 89.885832 
L 69.313629 89.885832 
L 71.358563 89.380801 
L 73.403497 88.608395 
L 75.448432 88.608395 
L 77.493366 88.608395 
L 79.5383 88.439948 
L 81.583235 88.439948 
L 83.628169 87.982226 
L 85.673103 87.365179 
L 87.718037 86.966283 
L 89.762972 86.966283 
L 91.807906 86.571443 
L 93.85284 86.387563 
L 95.897774 85.932194 
L 97.942709 85.932194 
L 99.987643 85.838462 
L 102.032577 85.113347 
L 104.077511 84.519626 
L 106.122446 84.519626 
L 108.16738 83.951899 
L 110.212314 83.951899 
L 112.257248 83.951899 
L 114.302183 83.693463 
L 116.347117 83.081645 
L 118.392051 82.629293 
L 120.436985 82.458466 
L 122.48192 81.977579 
L 124.526854 81.889095 
L 126.571788 81.644946 
L 128.616723 81.102643 
L 130.661657 81.102643 
L 132.706591 79.946205 
L 134.751525 79.795478 
L 136.79646 79.692335 
L 138.841394 77.617734 
L 140.886328 77.444142 
L 142.931262 77.118147 
L 144.976197 76.891491 
L 147.021131 76.604713 
L 149.066065 74.965187 
L 151.110999 73.203663 
L 153.155934 73.061395 
L 155.200868 72.788701 
L 157.245802 72.629292 
L 159.290736 71.024578 
L 161.335671 70.945775 
L 163.380605 70.553054 
L 165.425539 70.499333 
L 167.470474 69.986354 
L 169.515408 69.599687 
L 171.560342 69.296521 
L 173.605276 69.269289 
L 175.650211 68.965405 
L 177.695145 68.229326 
L 179.740079 68.121367 
L 181.785013 67.789837 
L 183.829948 67.324166 
L 185.874882 66.52029 
L 187.919816 65.738424 
L 189.96475 65.513527 
L 192.009685 65.136327 
L 194.054619 64.35957 
L 196.099553 63.512704 
L 198.144487 62.789834 
L 200.189422 62.308019 
L 202.234356 62.085273 
L 204.27929 61.246091 
L 206.324225 60.200274 
L 208.369159 59.710931 
L 210.414093 58.98355 
L 212.459027 58.483471 
L 214.503962 57.187091 
L 216.548896 56.479394 
L 218.59383 55.868214 
L 220.638764 55.321059 
L 222.683699 55.214242 
L 224.728633 53.788374 
L 226.773567 53.190805 
L 228.818501 52.450174 
L 230.863436 51.477292 
L 232.90837 51.16836 
L 234.953304 50.663486 
L 236.998238 50.198058 
L 239.043173 49.919064 
L 241.088107 49.404334 
" clip-path="url(#pfd588dbb83)" style="fill: none; stroke: #ffa600; stroke-width: 1.5; stroke-linecap: square"/>
   </g>
   <g id="line2d_18">
    <path d="M 38.639615 92.165262 
L 40.684549 92.117821 
L 42.729484 92.117821 
L 44.774418 92.117821 
L 46.819352 92.117821 
L 48.864286 92.117821 
L 50.909221 92.117821 
L 52.954155 92.117821 
L 54.999089 91.96574 
L 57.044023 91.96574 
L 59.088958 91.96574 
L 61.133892 91.768631 
L 63.178826 91.768631 
L 65.22376 91.768631 
L 67.268695 91.768631 
L 69.313629 91.768631 
L 71.358563 91.718293 
L 73.403497 91.602357 
L 75.448432 91.602357 
L 77.493366 91.602357 
L 79.5383 91.304747 
L 81.583235 91.1356 
L 83.628169 90.089855 
L 85.673103 89.284801 
L 87.718037 89.047718 
L 89.762972 89.047718 
L 91.807906 88.627571 
L 93.85284 88.319603 
L 95.897774 88.132175 
L 97.942709 88.132175 
L 99.987643 88.108769 
L 102.032577 87.995125 
L 104.077511 87.555192 
L 106.122446 87.555192 
L 108.16738 87.203591 
L 110.212314 87.203591 
L 112.257248 87.203591 
L 114.302183 86.82966 
L 116.347117 86.54542 
L 118.392051 86.467266 
L 120.436985 86.232398 
L 122.48192 85.76427 
L 124.526854 85.583419 
L 126.571788 85.189663 
L 128.616723 84.852918 
L 130.661657 84.852918 
L 132.706591 84.167247 
L 134.751525 84.062272 
L 136.79646 83.980527 
L 138.841394 83.495221 
L 140.886328 83.286077 
L 142.931262 83.175833 
L 144.976197 83.034877 
L 147.021131 82.742781 
L 149.066065 82.633914 
L 151.110999 82.334888 
L 153.155934 82.26079 
L 155.200868 82.085482 
L 157.245802 81.47599 
L 159.290736 81.360577 
L 161.335671 81.286301 
L 163.380605 81.007594 
L 165.425539 81.007594 
L 167.470474 80.018328 
L 169.515408 79.321237 
L 171.560342 78.350786 
L 173.605276 78.100765 
L 175.650211 77.826288 
L 177.695145 76.03759 
L 179.740079 76.001929 
L 181.785013 75.073993 
L 183.829948 74.970989 
L 185.874882 73.931891 
L 187.919816 72.587691 
L 189.96475 72.519719 
L 192.009685 72.163899 
L 194.054619 71.767149 
L 196.099553 70.898881 
L 198.144487 70.524799 
L 200.189422 70.029197 
L 202.234356 69.965481 
L 204.27929 69.82802 
L 206.324225 69.522397 
L 208.369159 69.264299 
L 210.414093 69.053518 
L 212.459027 68.683111 
L 214.503962 68.255241 
L 216.548896 68.096626 
L 218.59383 67.906896 
L 220.638764 67.243173 
L 222.683699 67.13198 
L 224.728633 66.326364 
L 226.773567 66.196145 
L 228.818501 65.973595 
L 230.863436 65.833495 
L 232.90837 65.304812 
L 234.953304 64.918664 
L 236.998238 64.118639 
L 239.043173 63.83298 
L 241.088107 63.560886 
" clip-path="url(#pfd588dbb83)" style="fill: none; stroke: #bc5090; stroke-width: 1.5; stroke-linecap: square"/>
   </g>
   <g id="line2d_19"/>
   <g id="line2d_20"/>
   <g id="line2d_21"/>
   <g id="line2d_22">
    <path d="M 89.762972 95.647885 
L 89.762972 19.030178 
" clip-path="url(#pfd588dbb83)" style="fill: none; stroke-dasharray: 5.55,2.4; stroke-dashoffset: 0; stroke: #000000; stroke-width: 1.5"/>
   </g>
   <g id="patch_3">
    <path d="M 38.639615 95.647885 
L 38.639615 19.030177 
" style="fill: none; stroke: #000000; stroke-width: 0.8; stroke-linejoin: miter; stroke-linecap: square"/>
   </g>
   <g id="patch_4">
    <path d="M 38.639615 95.647885 
L 243.133041 95.647885 
" style="fill: none; stroke: #000000; stroke-width: 0.8; stroke-linejoin: miter; stroke-linecap: square"/>
   </g>
   <g id="text_12">
    <!-- Nearest Neighbour Distances -->
    <g transform="translate(44.370609 13.030178) scale(0.132 -0.132)">
     <defs>
      <path id="DejaVuSans-4e" d="M 628 4666 
L 1478 4666 
L 3547 763 
L 3547 4666 
L 4159 4666 
L 4159 0 
L 3309 0 
L 1241 3903 
L 1241 0 
L 628 0 
L 628 4666 
z
" transform="scale(0.015625)"/>
      <path id="DejaVuSans-72" d="M 2631 2963 
Q 2534 3019 2420 3045 
Q 2306 3072 2169 3072 
Q 1681 3072 1420 2755 
Q 1159 2438 1159 1844 
L 1159 0 
L 581 0 
L 581 3500 
L 1159 3500 
L 1159 2956 
Q 1341 3275 1631 3429 
Q 1922 3584 2338 3584 
Q 2397 3584 2469 3576 
Q 2541 3569 2628 3553 
L 2631 2963 
z
" transform="scale(0.015625)"/>
      <path id="DejaVuSans-67" d="M 2906 1791 
Q 2906 2416 2648 2759 
Q 2391 3103 1925 3103 
Q 1463 3103 1205 2759 
Q 947 2416 947 1791 
Q 947 1169 1205 825 
Q 1463 481 1925 481 
Q 2391 481 2648 825 
Q 2906 1169 2906 1791 
z
M 3481 434 
Q 3481 -459 3084 -895 
Q 2688 -1331 1869 -1331 
Q 1566 -1331 1297 -1286 
Q 1028 -1241 775 -1147 
L 775 -588 
Q 1028 -725 1275 -790 
Q 1522 -856 1778 -856 
Q 2344 -856 2625 -561 
Q 2906 -266 2906 331 
L 2906 616 
Q 2728 306 2450 153 
Q 2172 0 1784 0 
Q 1141 0 747 490 
Q 353 981 353 1791 
Q 353 2603 747 3093 
Q 1141 3584 1784 3584 
Q 2172 3584 2450 3431 
Q 2728 3278 2906 2969 
L 2906 3500 
L 3481 3500 
L 3481 434 
z
" transform="scale(0.015625)"/>
      <path id="DejaVuSans-68" d="M 3513 2113 
L 3513 0 
L 2938 0 
L 2938 2094 
Q 2938 2591 2744 2837 
Q 2550 3084 2163 3084 
Q 1697 3084 1428 2787 
Q 1159 2491 1159 1978 
L 1159 0 
L 581 0 
L 581 4863 
L 1159 4863 
L 1159 2956 
Q 1366 3272 1645 3428 
Q 1925 3584 2291 3584 
Q 2894 3584 3203 3211 
Q 3513 2838 3513 2113 
z
" transform="scale(0.015625)"/>
      <path id="DejaVuSans-62" d="M 3116 1747 
Q 3116 2381 2855 2742 
Q 2594 3103 2138 3103 
Q 1681 3103 1420 2742 
Q 1159 2381 1159 1747 
Q 1159 1113 1420 752 
Q 1681 391 2138 391 
Q 2594 391 2855 752 
Q 3116 1113 3116 1747 
z
M 1159 2969 
Q 1341 3281 1617 3432 
Q 1894 3584 2278 3584 
Q 2916 3584 3314 3078 
Q 3713 2572 3713 1747 
Q 3713 922 3314 415 
Q 2916 -91 2278 -91 
Q 1894 -91 1617 61 
Q 1341 213 1159 525 
L 1159 0 
L 581 0 
L 581 4863 
L 1159 4863 
L 1159 2969 
z
" transform="scale(0.015625)"/>
      <path id="DejaVuSans-6f" d="M 1959 3097 
Q 1497 3097 1228 2736 
Q 959 2375 959 1747 
Q 959 1119 1226 758 
Q 1494 397 1959 397 
Q 2419 397 2687 759 
Q 2956 1122 2956 1747 
Q 2956 2369 2687 2733 
Q 2419 3097 1959 3097 
z
M 1959 3584 
Q 2709 3584 3137 3096 
Q 3566 2609 3566 1747 
Q 3566 888 3137 398 
Q 2709 -91 1959 -91 
Q 1206 -91 779 398 
Q 353 888 353 1747 
Q 353 2609 779 3096 
Q 1206 3584 1959 3584 
z
" transform="scale(0.015625)"/>
     </defs>
     <use xlink:href="#DejaVuSans-4e"/>
     <use xlink:href="#DejaVuSans-65" x="74.804688"/>
     <use xlink:href="#DejaVuSans-61" x="136.328125"/>
     <use xlink:href="#DejaVuSans-72" x="197.607422"/>
     <use xlink:href="#DejaVuSans-65" x="236.470703"/>
     <use xlink:href="#DejaVuSans-73" x="297.994141"/>
     <use xlink:href="#DejaVuSans-74" x="350.09375"/>
     <use xlink:href="#DejaVuSans-20" x="389.302734"/>
     <use xlink:href="#DejaVuSans-4e" x="421.089844"/>
     <use xlink:href="#DejaVuSans-65" x="495.894531"/>
     <use xlink:href="#DejaVuSans-69" x="557.417969"/>
     <use xlink:href="#DejaVuSans-67" x="585.201172"/>
     <use xlink:href="#DejaVuSans-68" x="648.677734"/>
     <use xlink:href="#DejaVuSans-62" x="712.056641"/>
     <use xlink:href="#DejaVuSans-6f" x="775.533203"/>
     <use xlink:href="#DejaVuSans-75" x="836.714844"/>
     <use xlink:href="#DejaVuSans-72" x="900.09375"/>
     <use xlink:href="#DejaVuSans-20" x="941.207031"/>
     <use xlink:href="#DejaVuSans-44" x="972.994141"/>
     <use xlink:href="#DejaVuSans-69" x="1049.996094"/>
     <use xlink:href="#DejaVuSans-73" x="1077.779297"/>
     <use xlink:href="#DejaVuSans-74" x="1129.878906"/>
     <use xlink:href="#DejaVuSans-61" x="1169.087891"/>
     <use xlink:href="#DejaVuSans-6e" x="1230.367188"/>
     <use xlink:href="#DejaVuSans-63" x="1293.746094"/>
     <use xlink:href="#DejaVuSans-65" x="1348.726562"/>
     <use xlink:href="#DejaVuSans-73" x="1410.25"/>
    </g>
   </g>
  </g>
 </g>
 <defs>
  <clipPath id="pfd588dbb83">
   <rect x="38.639615" y="19.030178" width="204.493426" height="76.617707"/>
  </clipPath>
 </defs>
</svg>
