<?xml version="1.0" encoding="utf-8" standalone="no"?>
<!DOCTYPE svg PUBLIC "-//W3C//DTD SVG 1.1//EN"
  "http://www.w3.org/Graphics/SVG/1.1/DTD/svg11.dtd">
<svg xmlns:xlink="http://www.w3.org/1999/xlink" width="254.88pt" height="254.88pt" viewBox="0 0 254.88 254.88" xmlns="http://www.w3.org/2000/svg" version="1.1">
 <metadata>
  <rdf:RDF xmlns:dc="http://purl.org/dc/elements/1.1/" xmlns:cc="http://creativecommons.org/ns#" xmlns:rdf="http://www.w3.org/1999/02/22-rdf-syntax-ns#">
   <cc:Work>
    <dc:type rdf:resource="http://purl.org/dc/dcmitype/StillImage"/>
    <dc:date>2024-01-05T17:50:19.813895</dc:date>
    <dc:format>image/svg+xml</dc:format>
    <dc:creator>
     <cc:Agent>
      <dc:title>Matplotlib v3.8.2, https://matplotlib.org/</dc:title>
     </cc:Agent>
    </dc:creator>
   </cc:Work>
  </rdf:RDF>
 </metadata>
 <defs>
  <style type="text/css">*{stroke-linejoin: round; stroke-linecap: butt}</style>
 </defs>
 <g id="figure_1">
  <g id="patch_1">
   <path d="M 0 254.88 
L 254.88 254.88 
L 254.88 0 
L 0 0 
z
" style="fill: #ffffff"/>
  </g>
  <g id="axes_1">
   <g id="patch_2">
    <path d="M 42.142428 219.587885 
L 251.87976 219.587885 
L 251.87976 19.030178 
L 42.142428 19.030178 
z
" style="fill: #ffffff"/>
   </g>
   <g id="matplotlib.axis_1">
    <g id="xtick_1">
     <g id="line2d_1">
      <defs>
       <path id="m2c2008561e" d="M 0 0 
L 0 3.5 
" style="stroke: #000000; stroke-width: 0.8"/>
      </defs>
      <g>
       <use xlink:href="#m2c2008561e" x="77.09865" y="219.587885" style="stroke: #000000; stroke-width: 0.8"/>
      </g>
     </g>
     <g id="text_1">
      <!-- Ctrl -->
      <g transform="translate(67.312946 234.946166) scale(0.11 -0.11)">
       <defs>
        <path id="DejaVuSans-43" d="M 4122 4306 
L 4122 3641 
Q 3803 3938 3442 4084 
Q 3081 4231 2675 4231 
Q 1875 4231 1450 3742 
Q 1025 3253 1025 2328 
Q 1025 1406 1450 917 
Q 1875 428 2675 428 
Q 3081 428 3442 575 
Q 3803 722 4122 1019 
L 4122 359 
Q 3791 134 3420 21 
Q 3050 -91 2638 -91 
Q 1578 -91 968 557 
Q 359 1206 359 2328 
Q 359 3453 968 4101 
Q 1578 4750 2638 4750 
Q 3056 4750 3426 4639 
Q 3797 4528 4122 4306 
z
" transform="scale(0.015625)"/>
        <path id="DejaVuSans-74" d="M 1172 4494 
L 1172 3500 
L 2356 3500 
L 2356 3053 
L 1172 3053 
L 1172 1153 
Q 1172 725 1289 603 
Q 1406 481 1766 481 
L 2356 481 
L 2356 0 
L 1766 0 
Q 1100 0 847 248 
Q 594 497 594 1153 
L 594 3053 
L 172 3053 
L 172 3500 
L 594 3500 
L 594 4494 
L 1172 4494 
z
" transform="scale(0.015625)"/>
        <path id="DejaVuSans-72" d="M 2631 2963 
Q 2534 3019 2420 3045 
Q 2306 3072 2169 3072 
Q 1681 3072 1420 2755 
Q 1159 2438 1159 1844 
L 1159 0 
L 581 0 
L 581 3500 
L 1159 3500 
L 1159 2956 
Q 1341 3275 1631 3429 
Q 1922 3584 2338 3584 
Q 2397 3584 2469 3576 
Q 2541 3569 2628 3553 
L 2631 2963 
z
" transform="scale(0.015625)"/>
        <path id="DejaVuSans-6c" d="M 603 4863 
L 1178 4863 
L 1178 0 
L 603 0 
L 603 4863 
z
" transform="scale(0.015625)"/>
       </defs>
       <use xlink:href="#DejaVuSans-43"/>
       <use xlink:href="#DejaVuSans-74" x="69.824219"/>
       <use xlink:href="#DejaVuSans-72" x="109.033203"/>
       <use xlink:href="#DejaVuSans-6c" x="150.146484"/>
      </g>
     </g>
    </g>
    <g id="xtick_2">
     <g id="line2d_2">
      <g>
       <use xlink:href="#m2c2008561e" x="147.011094" y="219.587885" style="stroke: #000000; stroke-width: 0.8"/>
      </g>
     </g>
     <g id="text_2">
      <!-- TP -->
      <g transform="translate(140.335469 234.946166) scale(0.11 -0.11)">
       <defs>
        <path id="DejaVuSans-54" d="M -19 4666 
L 3928 4666 
L 3928 4134 
L 2272 4134 
L 2272 0 
L 1638 0 
L 1638 4134 
L -19 4134 
L -19 4666 
z
" transform="scale(0.015625)"/>
        <path id="DejaVuSans-50" d="M 1259 4147 
L 1259 2394 
L 2053 2394 
Q 2494 2394 2734 2622 
Q 2975 2850 2975 3272 
Q 2975 3691 2734 3919 
Q 2494 4147 2053 4147 
L 1259 4147 
z
M 628 4666 
L 2053 4666 
Q 2838 4666 3239 4311 
Q 3641 3956 3641 3272 
Q 3641 2581 3239 2228 
Q 2838 1875 2053 1875 
L 1259 1875 
L 1259 0 
L 628 0 
L 628 4666 
z
" transform="scale(0.015625)"/>
       </defs>
       <use xlink:href="#DejaVuSans-54"/>
       <use xlink:href="#DejaVuSans-50" x="61.083984"/>
      </g>
     </g>
    </g>
    <g id="xtick_3">
     <g id="line2d_3">
      <g>
       <use xlink:href="#m2c2008561e" x="216.923538" y="219.587885" style="stroke: #000000; stroke-width: 0.8"/>
      </g>
     </g>
     <g id="text_3">
      <!-- FY -->
      <g transform="translate(210.400882 234.946166) scale(0.11 -0.11)">
       <defs>
        <path id="DejaVuSans-46" d="M 628 4666 
L 3309 4666 
L 3309 4134 
L 1259 4134 
L 1259 2759 
L 3109 2759 
L 3109 2228 
L 1259 2228 
L 1259 0 
L 628 0 
L 628 4666 
z
" transform="scale(0.015625)"/>
        <path id="DejaVuSans-59" d="M -13 4666 
L 666 4666 
L 1959 2747 
L 3244 4666 
L 3922 4666 
L 2272 2222 
L 2272 0 
L 1638 0 
L 1638 2222 
L -13 4666 
z
" transform="scale(0.015625)"/>
       </defs>
       <use xlink:href="#DejaVuSans-46"/>
       <use xlink:href="#DejaVuSans-59" x="57.519531"/>
      </g>
     </g>
    </g>
    <g id="text_4">
     <!-- Linker-Protein -->
     <g transform="translate(109.391953 249.592104) scale(0.11 -0.11)">
      <defs>
       <path id="DejaVuSans-4c" d="M 628 4666 
L 1259 4666 
L 1259 531 
L 3531 531 
L 3531 0 
L 628 0 
L 628 4666 
z
" transform="scale(0.015625)"/>
       <path id="DejaVuSans-69" d="M 603 3500 
L 1178 3500 
L 1178 0 
L 603 0 
L 603 3500 
z
M 603 4863 
L 1178 4863 
L 1178 4134 
L 603 4134 
L 603 4863 
z
" transform="scale(0.015625)"/>
       <path id="DejaVuSans-6e" d="M 3513 2113 
L 3513 0 
L 2938 0 
L 2938 2094 
Q 2938 2591 2744 2837 
Q 2550 3084 2163 3084 
Q 1697 3084 1428 2787 
Q 1159 2491 1159 1978 
L 1159 0 
L 581 0 
L 581 3500 
L 1159 3500 
L 1159 2956 
Q 1366 3272 1645 3428 
Q 1925 3584 2291 3584 
Q 2894 3584 3203 3211 
Q 3513 2838 3513 2113 
z
" transform="scale(0.015625)"/>
       <path id="DejaVuSans-6b" d="M 581 4863 
L 1159 4863 
L 1159 1991 
L 2875 3500 
L 3609 3500 
L 1753 1863 
L 3688 0 
L 2938 0 
L 1159 1709 
L 1159 0 
L 581 0 
L 581 4863 
z
" transform="scale(0.015625)"/>
       <path id="DejaVuSans-65" d="M 3597 1894 
L 3597 1613 
L 953 1613 
Q 991 1019 1311 708 
Q 1631 397 2203 397 
Q 2534 397 2845 478 
Q 3156 559 3463 722 
L 3463 178 
Q 3153 47 2828 -22 
Q 2503 -91 2169 -91 
Q 1331 -91 842 396 
Q 353 884 353 1716 
Q 353 2575 817 3079 
Q 1281 3584 2069 3584 
Q 2775 3584 3186 3129 
Q 3597 2675 3597 1894 
z
M 3022 2063 
Q 3016 2534 2758 2815 
Q 2500 3097 2075 3097 
Q 1594 3097 1305 2825 
Q 1016 2553 972 2059 
L 3022 2063 
z
" transform="scale(0.015625)"/>
       <path id="DejaVuSans-2d" d="M 313 2009 
L 1997 2009 
L 1997 1497 
L 313 1497 
L 313 2009 
z
" transform="scale(0.015625)"/>
       <path id="DejaVuSans-6f" d="M 1959 3097 
Q 1497 3097 1228 2736 
Q 959 2375 959 1747 
Q 959 1119 1226 758 
Q 1494 397 1959 397 
Q 2419 397 2687 759 
Q 2956 1122 2956 1747 
Q 2956 2369 2687 2733 
Q 2419 3097 1959 3097 
z
M 1959 3584 
Q 2709 3584 3137 3096 
Q 3566 2609 3566 1747 
Q 3566 888 3137 398 
Q 2709 -91 1959 -91 
Q 1206 -91 779 398 
Q 353 888 353 1747 
Q 353 2609 779 3096 
Q 1206 3584 1959 3584 
z
" transform="scale(0.015625)"/>
      </defs>
      <use xlink:href="#DejaVuSans-4c"/>
      <use xlink:href="#DejaVuSans-69" x="55.712891"/>
      <use xlink:href="#DejaVuSans-6e" x="83.496094"/>
      <use xlink:href="#DejaVuSans-6b" x="146.875"/>
      <use xlink:href="#DejaVuSans-65" x="201.160156"/>
      <use xlink:href="#DejaVuSans-72" x="262.683594"/>
      <use xlink:href="#DejaVuSans-2d" x="297.421875"/>
      <use xlink:href="#DejaVuSans-50" x="333.505859"/>
      <use xlink:href="#DejaVuSans-72" x="392.058594"/>
      <use xlink:href="#DejaVuSans-6f" x="430.921875"/>
      <use xlink:href="#DejaVuSans-74" x="492.103516"/>
      <use xlink:href="#DejaVuSans-65" x="531.3125"/>
      <use xlink:href="#DejaVuSans-69" x="592.835938"/>
      <use xlink:href="#DejaVuSans-6e" x="620.619141"/>
     </g>
    </g>
   </g>
   <g id="matplotlib.axis_2">
    <g id="ytick_1">
     <g id="line2d_4">
      <defs>
       <path id="m4c2ecb0a9f" d="M 0 0 
L 3.5 0 
" style="stroke: #000000; stroke-width: 0.8"/>
      </defs>
      <g>
       <use xlink:href="#m4c2ecb0a9f" x="42.142428" y="183.965992" style="stroke: #000000; stroke-width: 0.8"/>
      </g>
     </g>
     <g id="text_5">
      <!-- 40 -->
      <g transform="translate(24.644928 188.145133) scale(0.11 -0.11)">
       <defs>
        <path id="DejaVuSans-34" d="M 2419 4116 
L 825 1625 
L 2419 1625 
L 2419 4116 
z
M 2253 4666 
L 3047 4666 
L 3047 1625 
L 3713 1625 
L 3713 1100 
L 3047 1100 
L 3047 0 
L 2419 0 
L 2419 1100 
L 313 1100 
L 313 1709 
L 2253 4666 
z
" transform="scale(0.015625)"/>
        <path id="DejaVuSans-30" d="M 2034 4250 
Q 1547 4250 1301 3770 
Q 1056 3291 1056 2328 
Q 1056 1369 1301 889 
Q 1547 409 2034 409 
Q 2525 409 2770 889 
Q 3016 1369 3016 2328 
Q 3016 3291 2770 3770 
Q 2525 4250 2034 4250 
z
M 2034 4750 
Q 2819 4750 3233 4129 
Q 3647 3509 3647 2328 
Q 3647 1150 3233 529 
Q 2819 -91 2034 -91 
Q 1250 -91 836 529 
Q 422 1150 422 2328 
Q 422 3509 836 4129 
Q 1250 4750 2034 4750 
z
" transform="scale(0.015625)"/>
       </defs>
       <use xlink:href="#DejaVuSans-34"/>
       <use xlink:href="#DejaVuSans-30" x="63.623047"/>
      </g>
     </g>
    </g>
    <g id="ytick_2">
     <g id="line2d_5">
      <g>
       <use xlink:href="#m4c2ecb0a9f" x="42.142428" y="144.120388" style="stroke: #000000; stroke-width: 0.8"/>
      </g>
     </g>
     <g id="text_6">
      <!-- 60 -->
      <g transform="translate(24.644928 148.299528) scale(0.11 -0.11)">
       <defs>
        <path id="DejaVuSans-36" d="M 2113 2584 
Q 1688 2584 1439 2293 
Q 1191 2003 1191 1497 
Q 1191 994 1439 701 
Q 1688 409 2113 409 
Q 2538 409 2786 701 
Q 3034 994 3034 1497 
Q 3034 2003 2786 2293 
Q 2538 2584 2113 2584 
z
M 3366 4563 
L 3366 3988 
Q 3128 4100 2886 4159 
Q 2644 4219 2406 4219 
Q 1781 4219 1451 3797 
Q 1122 3375 1075 2522 
Q 1259 2794 1537 2939 
Q 1816 3084 2150 3084 
Q 2853 3084 3261 2657 
Q 3669 2231 3669 1497 
Q 3669 778 3244 343 
Q 2819 -91 2113 -91 
Q 1303 -91 875 529 
Q 447 1150 447 2328 
Q 447 3434 972 4092 
Q 1497 4750 2381 4750 
Q 2619 4750 2861 4703 
Q 3103 4656 3366 4563 
z
" transform="scale(0.015625)"/>
       </defs>
       <use xlink:href="#DejaVuSans-36"/>
       <use xlink:href="#DejaVuSans-30" x="63.623047"/>
      </g>
     </g>
    </g>
    <g id="ytick_3">
     <g id="line2d_6">
      <g>
       <use xlink:href="#m4c2ecb0a9f" x="42.142428" y="104.274783" style="stroke: #000000; stroke-width: 0.8"/>
      </g>
     </g>
     <g id="text_7">
      <!-- 80 -->
      <g transform="translate(24.644928 108.453924) scale(0.11 -0.11)">
       <defs>
        <path id="DejaVuSans-38" d="M 2034 2216 
Q 1584 2216 1326 1975 
Q 1069 1734 1069 1313 
Q 1069 891 1326 650 
Q 1584 409 2034 409 
Q 2484 409 2743 651 
Q 3003 894 3003 1313 
Q 3003 1734 2745 1975 
Q 2488 2216 2034 2216 
z
M 1403 2484 
Q 997 2584 770 2862 
Q 544 3141 544 3541 
Q 544 4100 942 4425 
Q 1341 4750 2034 4750 
Q 2731 4750 3128 4425 
Q 3525 4100 3525 3541 
Q 3525 3141 3298 2862 
Q 3072 2584 2669 2484 
Q 3125 2378 3379 2068 
Q 3634 1759 3634 1313 
Q 3634 634 3220 271 
Q 2806 -91 2034 -91 
Q 1263 -91 848 271 
Q 434 634 434 1313 
Q 434 1759 690 2068 
Q 947 2378 1403 2484 
z
M 1172 3481 
Q 1172 3119 1398 2916 
Q 1625 2713 2034 2713 
Q 2441 2713 2670 2916 
Q 2900 3119 2900 3481 
Q 2900 3844 2670 4047 
Q 2441 4250 2034 4250 
Q 1625 4250 1398 4047 
Q 1172 3844 1172 3481 
z
" transform="scale(0.015625)"/>
       </defs>
       <use xlink:href="#DejaVuSans-38"/>
       <use xlink:href="#DejaVuSans-30" x="63.623047"/>
      </g>
     </g>
    </g>
    <g id="ytick_4">
     <g id="line2d_7">
      <g>
       <use xlink:href="#m4c2ecb0a9f" x="42.142428" y="64.429179" style="stroke: #000000; stroke-width: 0.8"/>
      </g>
     </g>
     <g id="text_8">
      <!-- 100 -->
      <g transform="translate(17.646178 68.608319) scale(0.11 -0.11)">
       <defs>
        <path id="DejaVuSans-31" d="M 794 531 
L 1825 531 
L 1825 4091 
L 703 3866 
L 703 4441 
L 1819 4666 
L 2450 4666 
L 2450 531 
L 3481 531 
L 3481 0 
L 794 0 
L 794 531 
z
" transform="scale(0.015625)"/>
       </defs>
       <use xlink:href="#DejaVuSans-31"/>
       <use xlink:href="#DejaVuSans-30" x="63.623047"/>
       <use xlink:href="#DejaVuSans-30" x="127.246094"/>
      </g>
     </g>
    </g>
    <g id="ytick_5">
     <g id="line2d_8">
      <g>
       <use xlink:href="#m4c2ecb0a9f" x="42.142428" y="24.583574" style="stroke: #000000; stroke-width: 0.8"/>
      </g>
     </g>
     <g id="text_9">
      <!-- 120 -->
      <g transform="translate(17.646178 28.762715) scale(0.11 -0.11)">
       <defs>
        <path id="DejaVuSans-32" d="M 1228 531 
L 3431 531 
L 3431 0 
L 469 0 
L 469 531 
Q 828 903 1448 1529 
Q 2069 2156 2228 2338 
Q 2531 2678 2651 2914 
Q 2772 3150 2772 3378 
Q 2772 3750 2511 3984 
Q 2250 4219 1831 4219 
Q 1534 4219 1204 4116 
Q 875 4013 500 3803 
L 500 4441 
Q 881 4594 1212 4672 
Q 1544 4750 1819 4750 
Q 2544 4750 2975 4387 
Q 3406 4025 3406 3419 
Q 3406 3131 3298 2873 
Q 3191 2616 2906 2266 
Q 2828 2175 2409 1742 
Q 1991 1309 1228 531 
z
" transform="scale(0.015625)"/>
       </defs>
       <use xlink:href="#DejaVuSans-31"/>
       <use xlink:href="#DejaVuSans-32" x="63.623047"/>
       <use xlink:href="#DejaVuSans-30" x="127.246094"/>
      </g>
     </g>
    </g>
    <g id="ytick_6">
     <g id="line2d_9">
      <defs>
       <path id="m77ef4c7c3c" d="M 0 0 
L 2 0 
" style="stroke: #000000; stroke-width: 0.6"/>
      </defs>
      <g>
       <use xlink:href="#m77ef4c7c3c" x="42.142428" y="213.850195" style="stroke: #000000; stroke-width: 0.6"/>
      </g>
     </g>
    </g>
    <g id="ytick_7">
     <g id="line2d_10">
      <g>
       <use xlink:href="#m77ef4c7c3c" x="42.142428" y="203.888794" style="stroke: #000000; stroke-width: 0.6"/>
      </g>
     </g>
    </g>
    <g id="ytick_8">
     <g id="line2d_11">
      <g>
       <use xlink:href="#m77ef4c7c3c" x="42.142428" y="193.927393" style="stroke: #000000; stroke-width: 0.6"/>
      </g>
     </g>
    </g>
    <g id="ytick_9">
     <g id="line2d_12">
      <g>
       <use xlink:href="#m77ef4c7c3c" x="42.142428" y="174.004591" style="stroke: #000000; stroke-width: 0.6"/>
      </g>
     </g>
    </g>
    <g id="ytick_10">
     <g id="line2d_13">
      <g>
       <use xlink:href="#m77ef4c7c3c" x="42.142428" y="164.04319" style="stroke: #000000; stroke-width: 0.6"/>
      </g>
     </g>
    </g>
    <g id="ytick_11">
     <g id="line2d_14">
      <g>
       <use xlink:href="#m77ef4c7c3c" x="42.142428" y="154.081789" style="stroke: #000000; stroke-width: 0.6"/>
      </g>
     </g>
    </g>
    <g id="ytick_12">
     <g id="line2d_15">
      <g>
       <use xlink:href="#m77ef4c7c3c" x="42.142428" y="134.158986" style="stroke: #000000; stroke-width: 0.6"/>
      </g>
     </g>
    </g>
    <g id="ytick_13">
     <g id="line2d_16">
      <g>
       <use xlink:href="#m77ef4c7c3c" x="42.142428" y="124.197585" style="stroke: #000000; stroke-width: 0.6"/>
      </g>
     </g>
    </g>
    <g id="ytick_14">
     <g id="line2d_17">
      <g>
       <use xlink:href="#m77ef4c7c3c" x="42.142428" y="114.236184" style="stroke: #000000; stroke-width: 0.6"/>
      </g>
     </g>
    </g>
    <g id="ytick_15">
     <g id="line2d_18">
      <g>
       <use xlink:href="#m77ef4c7c3c" x="42.142428" y="94.313382" style="stroke: #000000; stroke-width: 0.6"/>
      </g>
     </g>
    </g>
    <g id="ytick_16">
     <g id="line2d_19">
      <g>
       <use xlink:href="#m77ef4c7c3c" x="42.142428" y="84.351981" style="stroke: #000000; stroke-width: 0.6"/>
      </g>
     </g>
    </g>
    <g id="ytick_17">
     <g id="line2d_20">
      <g>
       <use xlink:href="#m77ef4c7c3c" x="42.142428" y="74.39058" style="stroke: #000000; stroke-width: 0.6"/>
      </g>
     </g>
    </g>
    <g id="ytick_18">
     <g id="line2d_21">
      <g>
       <use xlink:href="#m77ef4c7c3c" x="42.142428" y="54.467778" style="stroke: #000000; stroke-width: 0.6"/>
      </g>
     </g>
    </g>
    <g id="ytick_19">
     <g id="line2d_22">
      <g>
       <use xlink:href="#m77ef4c7c3c" x="42.142428" y="44.506376" style="stroke: #000000; stroke-width: 0.6"/>
      </g>
     </g>
    </g>
    <g id="ytick_20">
     <g id="line2d_23">
      <g>
       <use xlink:href="#m77ef4c7c3c" x="42.142428" y="34.544975" style="stroke: #000000; stroke-width: 0.6"/>
      </g>
     </g>
    </g>
    <g id="text_10">
     <!-- Rel.Fluorescence [%] -->
     <g transform="translate(11.358521 177.040125) rotate(-90) scale(0.11 -0.11)">
      <defs>
       <path id="DejaVuSans-52" d="M 2841 2188 
Q 3044 2119 3236 1894 
Q 3428 1669 3622 1275 
L 4263 0 
L 3584 0 
L 2988 1197 
Q 2756 1666 2539 1819 
Q 2322 1972 1947 1972 
L 1259 1972 
L 1259 0 
L 628 0 
L 628 4666 
L 2053 4666 
Q 2853 4666 3247 4331 
Q 3641 3997 3641 3322 
Q 3641 2881 3436 2590 
Q 3231 2300 2841 2188 
z
M 1259 4147 
L 1259 2491 
L 2053 2491 
Q 2509 2491 2742 2702 
Q 2975 2913 2975 3322 
Q 2975 3731 2742 3939 
Q 2509 4147 2053 4147 
L 1259 4147 
z
" transform="scale(0.015625)"/>
       <path id="DejaVuSans-2e" d="M 684 794 
L 1344 794 
L 1344 0 
L 684 0 
L 684 794 
z
" transform="scale(0.015625)"/>
       <path id="DejaVuSans-75" d="M 544 1381 
L 544 3500 
L 1119 3500 
L 1119 1403 
Q 1119 906 1312 657 
Q 1506 409 1894 409 
Q 2359 409 2629 706 
Q 2900 1003 2900 1516 
L 2900 3500 
L 3475 3500 
L 3475 0 
L 2900 0 
L 2900 538 
Q 2691 219 2414 64 
Q 2138 -91 1772 -91 
Q 1169 -91 856 284 
Q 544 659 544 1381 
z
M 1991 3584 
L 1991 3584 
z
" transform="scale(0.015625)"/>
       <path id="DejaVuSans-73" d="M 2834 3397 
L 2834 2853 
Q 2591 2978 2328 3040 
Q 2066 3103 1784 3103 
Q 1356 3103 1142 2972 
Q 928 2841 928 2578 
Q 928 2378 1081 2264 
Q 1234 2150 1697 2047 
L 1894 2003 
Q 2506 1872 2764 1633 
Q 3022 1394 3022 966 
Q 3022 478 2636 193 
Q 2250 -91 1575 -91 
Q 1294 -91 989 -36 
Q 684 19 347 128 
L 347 722 
Q 666 556 975 473 
Q 1284 391 1588 391 
Q 1994 391 2212 530 
Q 2431 669 2431 922 
Q 2431 1156 2273 1281 
Q 2116 1406 1581 1522 
L 1381 1569 
Q 847 1681 609 1914 
Q 372 2147 372 2553 
Q 372 3047 722 3315 
Q 1072 3584 1716 3584 
Q 2034 3584 2315 3537 
Q 2597 3491 2834 3397 
z
" transform="scale(0.015625)"/>
       <path id="DejaVuSans-63" d="M 3122 3366 
L 3122 2828 
Q 2878 2963 2633 3030 
Q 2388 3097 2138 3097 
Q 1578 3097 1268 2742 
Q 959 2388 959 1747 
Q 959 1106 1268 751 
Q 1578 397 2138 397 
Q 2388 397 2633 464 
Q 2878 531 3122 666 
L 3122 134 
Q 2881 22 2623 -34 
Q 2366 -91 2075 -91 
Q 1284 -91 818 406 
Q 353 903 353 1747 
Q 353 2603 823 3093 
Q 1294 3584 2113 3584 
Q 2378 3584 2631 3529 
Q 2884 3475 3122 3366 
z
" transform="scale(0.015625)"/>
       <path id="DejaVuSans-20" transform="scale(0.015625)"/>
       <path id="DejaVuSans-5b" d="M 550 4863 
L 1875 4863 
L 1875 4416 
L 1125 4416 
L 1125 -397 
L 1875 -397 
L 1875 -844 
L 550 -844 
L 550 4863 
z
" transform="scale(0.015625)"/>
       <path id="DejaVuSans-25" d="M 4653 2053 
Q 4381 2053 4226 1822 
Q 4072 1591 4072 1178 
Q 4072 772 4226 539 
Q 4381 306 4653 306 
Q 4919 306 5073 539 
Q 5228 772 5228 1178 
Q 5228 1588 5073 1820 
Q 4919 2053 4653 2053 
z
M 4653 2450 
Q 5147 2450 5437 2106 
Q 5728 1763 5728 1178 
Q 5728 594 5436 251 
Q 5144 -91 4653 -91 
Q 4153 -91 3862 251 
Q 3572 594 3572 1178 
Q 3572 1766 3864 2108 
Q 4156 2450 4653 2450 
z
M 1428 4353 
Q 1159 4353 1004 4120 
Q 850 3888 850 3481 
Q 850 3069 1003 2837 
Q 1156 2606 1428 2606 
Q 1700 2606 1854 2837 
Q 2009 3069 2009 3481 
Q 2009 3884 1853 4118 
Q 1697 4353 1428 4353 
z
M 4250 4750 
L 4750 4750 
L 1831 -91 
L 1331 -91 
L 4250 4750 
z
M 1428 4750 
Q 1922 4750 2215 4408 
Q 2509 4066 2509 3481 
Q 2509 2891 2217 2550 
Q 1925 2209 1428 2209 
Q 931 2209 642 2551 
Q 353 2894 353 3481 
Q 353 4063 643 4406 
Q 934 4750 1428 4750 
z
" transform="scale(0.015625)"/>
       <path id="DejaVuSans-5d" d="M 1947 4863 
L 1947 -844 
L 622 -844 
L 622 -397 
L 1369 -397 
L 1369 4416 
L 622 4416 
L 622 4863 
L 1947 4863 
z
" transform="scale(0.015625)"/>
      </defs>
      <use xlink:href="#DejaVuSans-52"/>
      <use xlink:href="#DejaVuSans-65" x="64.982422"/>
      <use xlink:href="#DejaVuSans-6c" x="126.505859"/>
      <use xlink:href="#DejaVuSans-2e" x="154.289062"/>
      <use xlink:href="#DejaVuSans-46" x="186.076172"/>
      <use xlink:href="#DejaVuSans-6c" x="243.595703"/>
      <use xlink:href="#DejaVuSans-75" x="271.378906"/>
      <use xlink:href="#DejaVuSans-6f" x="334.757812"/>
      <use xlink:href="#DejaVuSans-72" x="395.939453"/>
      <use xlink:href="#DejaVuSans-65" x="434.802734"/>
      <use xlink:href="#DejaVuSans-73" x="496.326172"/>
      <use xlink:href="#DejaVuSans-63" x="548.425781"/>
      <use xlink:href="#DejaVuSans-65" x="603.40625"/>
      <use xlink:href="#DejaVuSans-6e" x="664.929688"/>
      <use xlink:href="#DejaVuSans-63" x="728.308594"/>
      <use xlink:href="#DejaVuSans-65" x="783.289062"/>
      <use xlink:href="#DejaVuSans-20" x="844.8125"/>
      <use xlink:href="#DejaVuSans-5b" x="876.599609"/>
      <use xlink:href="#DejaVuSans-25" x="915.613281"/>
      <use xlink:href="#DejaVuSans-5d" x="1010.632812"/>
     </g>
    </g>
   </g>
   <g id="line2d_24">
    <path d="M 77.09865 64.429179 
" clip-path="url(#pb6b8d4777f)" style="fill: none; stroke: #003f5c; stroke-width: 2.7; stroke-linecap: square"/>
    <defs>
     <path id="m2f4f805e96" d="M 0 2.5 
C 0.663008 2.5 1.29895 2.236584 1.767767 1.767767 
C 2.236584 1.29895 2.5 0.663008 2.5 0 
C 2.5 -0.663008 2.236584 -1.29895 1.767767 -1.767767 
C 1.29895 -2.236584 0.663008 -2.5 0 -2.5 
C -0.663008 -2.5 -1.29895 -2.236584 -1.767767 -1.767767 
C -2.236584 -1.29895 -2.5 -0.663008 -2.5 0 
C -2.5 0.663008 -2.236584 1.29895 -1.767767 1.767767 
C -1.29895 2.236584 -0.663008 2.5 0 2.5 
z
" style="stroke: #003f5c; stroke-width: 3"/>
    </defs>
    <g clip-path="url(#pb6b8d4777f)">
     <use xlink:href="#m2f4f805e96" x="77.09865" y="64.429179" style="fill: #003f5c; stroke: #003f5c; stroke-width: 3"/>
    </g>
   </g>
   <g id="line2d_25">
    <path d="M 73.603027 77.790121 
L 80.594272 77.790121 
M 77.09865 77.790121 
L 77.09865 53.8254 
M 73.603027 53.8254 
L 80.594272 53.8254 
" clip-path="url(#pb6b8d4777f)" style="fill: none; stroke: #003f5c; stroke-width: 2.7; stroke-linecap: square"/>
   </g>
   <g id="line2d_26">
    <path clip-path="url(#pb6b8d4777f)" style="fill: none; stroke: #003f5c; stroke-width: 2.7; stroke-linecap: square"/>
   </g>
   <g id="line2d_27">
    <path clip-path="url(#pb6b8d4777f)" style="fill: none; stroke: #003f5c; stroke-width: 2.7; stroke-linecap: square"/>
   </g>
   <g id="line2d_28">
    <path d="M 147.011094 177.641963 
" clip-path="url(#pb6b8d4777f)" style="fill: none; stroke: #ffa600; stroke-width: 2.7; stroke-linecap: square"/>
    <defs>
     <path id="m613ed5cea0" d="M 0 2.5 
C 0.663008 2.5 1.29895 2.236584 1.767767 1.767767 
C 2.236584 1.29895 2.5 0.663008 2.5 0 
C 2.5 -0.663008 2.236584 -1.29895 1.767767 -1.767767 
C 1.29895 -2.236584 0.663008 -2.5 0 -2.5 
C -0.663008 -2.5 -1.29895 -2.236584 -1.767767 -1.767767 
C -2.236584 -1.29895 -2.5 -0.663008 -2.5 0 
C -2.5 0.663008 -2.236584 1.29895 -1.767767 1.767767 
C -1.29895 2.236584 -0.663008 2.5 0 2.5 
z
" style="stroke: #ffa600; stroke-width: 3"/>
    </defs>
    <g clip-path="url(#pb6b8d4777f)">
     <use xlink:href="#m613ed5cea0" x="147.011094" y="177.641963" style="fill: #ffa600; stroke: #ffa600; stroke-width: 3"/>
    </g>
   </g>
   <g id="line2d_29">
    <path clip-path="url(#pb6b8d4777f)" style="fill: none; stroke: #ffa600; stroke-width: 2.7; stroke-linecap: square"/>
   </g>
   <g id="line2d_30">
    <path d="M 143.515472 188.079993 
L 150.506716 188.079993 
M 147.011094 188.079993 
L 147.011094 166.830114 
M 143.515472 166.830114 
L 150.506716 166.830114 
" clip-path="url(#pb6b8d4777f)" style="fill: none; stroke: #ffa600; stroke-width: 2.7; stroke-linecap: square"/>
   </g>
   <g id="line2d_31">
    <path clip-path="url(#pb6b8d4777f)" style="fill: none; stroke: #ffa600; stroke-width: 2.7; stroke-linecap: square"/>
   </g>
   <g id="line2d_32">
    <path d="M 216.923538 147.288028 
" clip-path="url(#pb6b8d4777f)" style="fill: none; stroke: #bc5090; stroke-width: 2.7; stroke-linecap: square"/>
    <defs>
     <path id="m6fc11bb8ba" d="M 0 2.5 
C 0.663008 2.5 1.29895 2.236584 1.767767 1.767767 
C 2.236584 1.29895 2.5 0.663008 2.5 0 
C 2.5 -0.663008 2.236584 -1.29895 1.767767 -1.767767 
C 1.29895 -2.236584 0.663008 -2.5 0 -2.5 
C -0.663008 -2.5 -1.29895 -2.236584 -1.767767 -1.767767 
C -2.236584 -1.29895 -2.5 -0.663008 -2.5 0 
C -2.5 0.663008 -2.236584 1.29895 -1.767767 1.767767 
C -1.29895 2.236584 -0.663008 2.5 0 2.5 
z
" style="stroke: #bc5090; stroke-width: 3"/>
    </defs>
    <g clip-path="url(#pb6b8d4777f)">
     <use xlink:href="#m6fc11bb8ba" x="216.923538" y="147.288028" style="fill: #bc5090; stroke: #bc5090; stroke-width: 3"/>
    </g>
   </g>
   <g id="line2d_33">
    <path clip-path="url(#pb6b8d4777f)" style="fill: none; stroke: #bc5090; stroke-width: 2.7; stroke-linecap: square"/>
   </g>
   <g id="line2d_34">
    <path clip-path="url(#pb6b8d4777f)" style="fill: none; stroke: #bc5090; stroke-width: 2.7; stroke-linecap: square"/>
   </g>
   <g id="line2d_35">
    <path d="M 213.427916 162.395647 
L 220.41916 162.395647 
M 216.923538 162.395647 
L 216.923538 132.106477 
M 213.427916 132.106477 
L 220.41916 132.106477 
" clip-path="url(#pb6b8d4777f)" style="fill: none; stroke: #bc5090; stroke-width: 2.7; stroke-linecap: square"/>
   </g>
   <g id="patch_3">
    <path d="M 42.142428 219.587885 
L 42.142428 19.030178 
" style="fill: none; stroke: #000000; stroke-width: 0.8; stroke-linejoin: miter; stroke-linecap: square"/>
   </g>
   <g id="patch_4">
    <path d="M 42.142427 219.587885 
L 251.87976 219.587885 
" style="fill: none; stroke: #000000; stroke-width: 0.8; stroke-linejoin: miter; stroke-linecap: square"/>
   </g>
   <g id="PathCollection_1">
    <defs>
     <path id="C0_0_61c22d2729" d="M 0 2.5 
C 0.663008 2.5 1.29895 2.236584 1.767767 1.767767 
C 2.236584 1.29895 2.5 0.663008 2.5 -0 
C 2.5 -0.663008 2.236584 -1.29895 1.767767 -1.767767 
C 1.29895 -2.236584 0.663008 -2.5 0 -2.5 
C -0.663008 -2.5 -1.29895 -2.236584 -1.767767 -1.767767 
C -2.236584 -1.29895 -2.5 -0.663008 -2.5 0 
C -2.5 0.663008 -2.236584 1.29895 -1.767767 1.767767 
C -1.29895 2.236584 -0.663008 2.5 0 2.5 
z
"/>
    </defs>
    <g clip-path="url(#pb6b8d4777f)">
     <use xlink:href="#C0_0_61c22d2729" x="78.418325" y="60.986416" style="fill: #003f5c; fill-opacity: 0.2"/>
    </g>
    <g clip-path="url(#pb6b8d4777f)">
     <use xlink:href="#C0_0_61c22d2729" x="80.902271" y="68.015461" style="fill: #003f5c; fill-opacity: 0.2"/>
    </g>
    <g clip-path="url(#pb6b8d4777f)">
     <use xlink:href="#C0_0_61c22d2729" x="77.718597" y="54.559249" style="fill: #003f5c; fill-opacity: 0.2"/>
    </g>
    <g clip-path="url(#pb6b8d4777f)">
     <use xlink:href="#C0_0_61c22d2729" x="79.187293" y="74.155588" style="fill: #003f5c; fill-opacity: 0.2"/>
    </g>
    <g clip-path="url(#pb6b8d4777f)">
     <use xlink:href="#C0_0_61c22d2729" x="80.456009" y="67.362334" style="fill: #003f5c; fill-opacity: 0.2"/>
    </g>
    <g clip-path="url(#pb6b8d4777f)">
     <use xlink:href="#C0_0_61c22d2729" x="70.452173" y="66.190095" style="fill: #003f5c; fill-opacity: 0.2"/>
    </g>
    <g clip-path="url(#pb6b8d4777f)">
     <use xlink:href="#C0_0_61c22d2729" x="83.154477" y="59.735107" style="fill: #003f5c; fill-opacity: 0.2"/>
    </g>
    <g clip-path="url(#pb6b8d4777f)">
     <use xlink:href="#C0_0_61c22d2729" x="76.044497" y="114.999975" style="fill: #003f5c; fill-opacity: 0.2"/>
    </g>
    <g clip-path="url(#pb6b8d4777f)">
     <use xlink:href="#C0_0_61c22d2729" x="75.686862" y="59.899106" style="fill: #003f5c; fill-opacity: 0.2"/>
    </g>
    <g clip-path="url(#pb6b8d4777f)">
     <use xlink:href="#C0_0_61c22d2729" x="83.949259" y="45.327973" style="fill: #003f5c; fill-opacity: 0.2"/>
    </g>
    <g clip-path="url(#pb6b8d4777f)">
     <use xlink:href="#C0_0_61c22d2729" x="73.586384" y="37.48966" style="fill: #003f5c; fill-opacity: 0.2"/>
    </g>
    <g clip-path="url(#pb6b8d4777f)">
     <use xlink:href="#C0_0_61c22d2729" x="70.827816" y="28.146437" style="fill: #003f5c; fill-opacity: 0.2"/>
    </g>
    <g clip-path="url(#pb6b8d4777f)">
     <use xlink:href="#C0_0_61c22d2729" x="76.666612" y="38.072816" style="fill: #003f5c; fill-opacity: 0.2"/>
    </g>
    <g clip-path="url(#pb6b8d4777f)">
     <use xlink:href="#C0_0_61c22d2729" x="77.671668" y="105.841315" style="fill: #003f5c; fill-opacity: 0.2"/>
    </g>
    <g clip-path="url(#pb6b8d4777f)">
     <use xlink:href="#C0_0_61c22d2729" x="78.515771" y="85.656146" style="fill: #003f5c; fill-opacity: 0.2"/>
    </g>
   </g>
   <g id="PathCollection_2">
    <defs>
     <path id="C1_0_fe6190c20d" d="M 0 2.5 
C 0.663008 2.5 1.29895 2.236584 1.767767 1.767767 
C 2.236584 1.29895 2.5 0.663008 2.5 -0 
C 2.5 -0.663008 2.236584 -1.29895 1.767767 -1.767767 
C 1.29895 -2.236584 0.663008 -2.5 0 -2.5 
C -0.663008 -2.5 -1.29895 -2.236584 -1.767767 -1.767767 
C -2.236584 -1.29895 -2.5 -0.663008 -2.5 0 
C -2.5 0.663008 -2.236584 1.29895 -1.767767 1.767767 
C -1.29895 2.236584 -0.663008 2.5 0 2.5 
z
"/>
    </defs>
    <g clip-path="url(#pb6b8d4777f)">
     <use xlink:href="#C1_0_fe6190c20d" x="142.634771" y="180.377112" style="fill: #ffa600; fill-opacity: 0.2"/>
    </g>
    <g clip-path="url(#pb6b8d4777f)">
     <use xlink:href="#C1_0_fe6190c20d" x="151.760881" y="144.283796" style="fill: #ffa600; fill-opacity: 0.2"/>
    </g>
    <g clip-path="url(#pb6b8d4777f)">
     <use xlink:href="#C1_0_fe6190c20d" x="151.393581" y="136.25079" style="fill: #ffa600; fill-opacity: 0.2"/>
    </g>
    <g clip-path="url(#pb6b8d4777f)">
     <use xlink:href="#C1_0_fe6190c20d" x="149.512998" y="155.943129" style="fill: #ffa600; fill-opacity: 0.2"/>
    </g>
    <g clip-path="url(#pb6b8d4777f)">
     <use xlink:href="#C1_0_fe6190c20d" x="152.37494" y="190.140206" style="fill: #ffa600; fill-opacity: 0.2"/>
    </g>
    <g clip-path="url(#pb6b8d4777f)">
     <use xlink:href="#C1_0_fe6190c20d" x="149.881125" y="197.729041" style="fill: #ffa600; fill-opacity: 0.2"/>
    </g>
    <g clip-path="url(#pb6b8d4777f)">
     <use xlink:href="#C1_0_fe6190c20d" x="152.461015" y="198.599261" style="fill: #ffa600; fill-opacity: 0.2"/>
    </g>
    <g clip-path="url(#pb6b8d4777f)">
     <use xlink:href="#C1_0_fe6190c20d" x="149.319967" y="187.039906" style="fill: #ffa600; fill-opacity: 0.2"/>
    </g>
    <g clip-path="url(#pb6b8d4777f)">
     <use xlink:href="#C1_0_fe6190c20d" x="140.746192" y="184.363503" style="fill: #ffa600; fill-opacity: 0.2"/>
    </g>
    <g clip-path="url(#pb6b8d4777f)">
     <use xlink:href="#C1_0_fe6190c20d" x="141.840823" y="194.128266" style="fill: #ffa600; fill-opacity: 0.2"/>
    </g>
    <g clip-path="url(#pb6b8d4777f)">
     <use xlink:href="#C1_0_fe6190c20d" x="140.808185" y="210.471626" style="fill: #ffa600; fill-opacity: 0.2"/>
    </g>
    <g clip-path="url(#pb6b8d4777f)">
     <use xlink:href="#C1_0_fe6190c20d" x="153.432859" y="178.536337" style="fill: #ffa600; fill-opacity: 0.2"/>
    </g>
    <g clip-path="url(#pb6b8d4777f)">
     <use xlink:href="#C1_0_fe6190c20d" x="141.820385" y="188.572247" style="fill: #ffa600; fill-opacity: 0.2"/>
    </g>
    <g clip-path="url(#pb6b8d4777f)">
     <use xlink:href="#C1_0_fe6190c20d" x="149.910261" y="150.630584" style="fill: #ffa600; fill-opacity: 0.2"/>
    </g>
    <g clip-path="url(#pb6b8d4777f)">
     <use xlink:href="#C1_0_fe6190c20d" x="152.972963" y="167.563637" style="fill: #ffa600; fill-opacity: 0.2"/>
    </g>
   </g>
   <g id="PathCollection_3">
    <defs>
     <path id="C2_0_4d0ccabbc5" d="M 0 2.5 
C 0.663008 2.5 1.29895 2.236584 1.767767 1.767767 
C 2.236584 1.29895 2.5 0.663008 2.5 -0 
C 2.5 -0.663008 2.236584 -1.29895 1.767767 -1.767767 
C 1.29895 -2.236584 0.663008 -2.5 0 -2.5 
C -0.663008 -2.5 -1.29895 -2.236584 -1.767767 -1.767767 
C -2.236584 -1.29895 -2.5 -0.663008 -2.5 0 
C -2.5 0.663008 -2.236584 1.29895 -1.767767 1.767767 
C -1.29895 2.236584 -0.663008 2.5 0 2.5 
z
"/>
    </defs>
    <g clip-path="url(#pb6b8d4777f)">
     <use xlink:href="#C2_0_4d0ccabbc5" x="221.021012" y="102.623776" style="fill: #bc5090; fill-opacity: 0.2"/>
    </g>
    <g clip-path="url(#pb6b8d4777f)">
     <use xlink:href="#C2_0_4d0ccabbc5" x="218.673897" y="159.167571" style="fill: #bc5090; fill-opacity: 0.2"/>
    </g>
    <g clip-path="url(#pb6b8d4777f)">
     <use xlink:href="#C2_0_4d0ccabbc5" x="222.073559" y="150.72528" style="fill: #bc5090; fill-opacity: 0.2"/>
    </g>
    <g clip-path="url(#pb6b8d4777f)">
     <use xlink:href="#C2_0_4d0ccabbc5" x="214.967112" y="175.372423" style="fill: #bc5090; fill-opacity: 0.2"/>
    </g>
    <g clip-path="url(#pb6b8d4777f)">
     <use xlink:href="#C2_0_4d0ccabbc5" x="213.837375" y="166.546993" style="fill: #bc5090; fill-opacity: 0.2"/>
    </g>
    <g clip-path="url(#pb6b8d4777f)">
     <use xlink:href="#C2_0_4d0ccabbc5" x="221.025346" y="183.229632" style="fill: #bc5090; fill-opacity: 0.2"/>
    </g>
    <g clip-path="url(#pb6b8d4777f)">
     <use xlink:href="#C2_0_4d0ccabbc5" x="220.978464" y="196.889534" style="fill: #bc5090; fill-opacity: 0.2"/>
    </g>
    <g clip-path="url(#pb6b8d4777f)">
     <use xlink:href="#C2_0_4d0ccabbc5" x="218.211877" y="95.839661" style="fill: #bc5090; fill-opacity: 0.2"/>
    </g>
    <g clip-path="url(#pb6b8d4777f)">
     <use xlink:href="#C2_0_4d0ccabbc5" x="223.738405" y="120.543841" style="fill: #bc5090; fill-opacity: 0.2"/>
    </g>
    <g clip-path="url(#pb6b8d4777f)">
     <use xlink:href="#C2_0_4d0ccabbc5" x="220.399777" y="111.561286" style="fill: #bc5090; fill-opacity: 0.2"/>
    </g>
    <g clip-path="url(#pb6b8d4777f)">
     <use xlink:href="#C2_0_4d0ccabbc5" x="215.218761" y="130.339394" style="fill: #bc5090; fill-opacity: 0.2"/>
    </g>
    <g clip-path="url(#pb6b8d4777f)">
     <use xlink:href="#C2_0_4d0ccabbc5" x="215.726538" y="160.044894" style="fill: #bc5090; fill-opacity: 0.2"/>
    </g>
    <g clip-path="url(#pb6b8d4777f)">
     <use xlink:href="#C2_0_4d0ccabbc5" x="218.214803" y="187.732523" style="fill: #bc5090; fill-opacity: 0.2"/>
    </g>
    <g clip-path="url(#pb6b8d4777f)">
     <use xlink:href="#C2_0_4d0ccabbc5" x="221.174925" y="147.443238" style="fill: #bc5090; fill-opacity: 0.2"/>
    </g>
    <g clip-path="url(#pb6b8d4777f)">
     <use xlink:href="#C2_0_4d0ccabbc5" x="223.188638" y="121.260378" style="fill: #bc5090; fill-opacity: 0.2"/>
    </g>
   </g>
   <g id="text_11">
    <!-- Fluorometry -->
    <g transform="translate(106.860406 13.030178) scale(0.132 -0.132)">
     <defs>
      <path id="DejaVuSans-6d" d="M 3328 2828 
Q 3544 3216 3844 3400 
Q 4144 3584 4550 3584 
Q 5097 3584 5394 3201 
Q 5691 2819 5691 2113 
L 5691 0 
L 5113 0 
L 5113 2094 
Q 5113 2597 4934 2840 
Q 4756 3084 4391 3084 
Q 3944 3084 3684 2787 
Q 3425 2491 3425 1978 
L 3425 0 
L 2847 0 
L 2847 2094 
Q 2847 2600 2669 2842 
Q 2491 3084 2119 3084 
Q 1678 3084 1418 2786 
Q 1159 2488 1159 1978 
L 1159 0 
L 581 0 
L 581 3500 
L 1159 3500 
L 1159 2956 
Q 1356 3278 1631 3431 
Q 1906 3584 2284 3584 
Q 2666 3584 2933 3390 
Q 3200 3197 3328 2828 
z
" transform="scale(0.015625)"/>
      <path id="DejaVuSans-79" d="M 2059 -325 
Q 1816 -950 1584 -1140 
Q 1353 -1331 966 -1331 
L 506 -1331 
L 506 -850 
L 844 -850 
Q 1081 -850 1212 -737 
Q 1344 -625 1503 -206 
L 1606 56 
L 191 3500 
L 800 3500 
L 1894 763 
L 2988 3500 
L 3597 3500 
L 2059 -325 
z
" transform="scale(0.015625)"/>
     </defs>
     <use xlink:href="#DejaVuSans-46"/>
     <use xlink:href="#DejaVuSans-6c" x="57.519531"/>
     <use xlink:href="#DejaVuSans-75" x="85.302734"/>
     <use xlink:href="#DejaVuSans-6f" x="148.681641"/>
     <use xlink:href="#DejaVuSans-72" x="209.863281"/>
     <use xlink:href="#DejaVuSans-6f" x="248.726562"/>
     <use xlink:href="#DejaVuSans-6d" x="309.908203"/>
     <use xlink:href="#DejaVuSans-65" x="407.320312"/>
     <use xlink:href="#DejaVuSans-74" x="468.84375"/>
     <use xlink:href="#DejaVuSans-72" x="508.052734"/>
     <use xlink:href="#DejaVuSans-79" x="549.166016"/>
    </g>
   </g>
  </g>
 </g>
 <defs>
  <clipPath id="pb6b8d4777f">
   <rect x="42.142428" y="19.030178" width="209.737332" height="200.557707"/>
  </clipPath>
 </defs>
</svg>
